<?xml version="1.0" standalone="no"?><!DOCTYPE svg PUBLIC "-//W3C//DTD SVG 1.1//EN" "http://www.w3.org/Graphics/SVG/1.1/DTD/svg11.dtd"><svg t="1588997074054" class="icon" viewBox="0 0 1024 1024" version="1.1" xmlns="http://www.w3.org/2000/svg" p-id="16942" xmlns:xlink="http://www.w3.org/1999/xlink" width="50" height="50"><defs><style type="text/css"></style></defs><path d="M513.199766 0C311.839094 0 148.670963 163.168131 148.670963 364.428822c0 132.574107 70.786175 248.651435 176.765475 312.438977 5.998828 32.593634 20.196055 62.187854 40.492092 86.78305h294.542472c20.296036-24.495216 34.493263-54.189416 40.492091-86.78305C806.842414 613.180238 877.628588 497.10291 877.628588 364.428822 877.628588 163.168131 714.460457 0 513.199766 0z m242.952548 416.518649c-23.095489 0-34.693224-11.697715-34.693224-17.396603 0-128.474907-97.181019-225.655927-208.259324-225.655926-23.095489 0-34.693224-11.697715-34.693224-17.396602 0-23.095489 11.697715-34.693224 34.693224-34.693224 139.872681 0 260.349151 120.476469 260.34915 277.745752 0 5.798867-11.697715 17.396602-17.396602 17.396603z" fill="#F29317" p-id="16943"></path><path d="M357.030268 850.4339c0-19.196251 15.496973-34.693224 34.593243-34.693224h243.152509c19.09627 0 34.593244 15.396993 34.593244 34.693224 0 19.196251-15.496973 34.693224-34.593244 34.693224H391.623511c-19.09627 0-34.593244-15.396993-34.593243-34.693224zM653.172427 937.21695c-25.595001 51.389963-78.684632 86.78305-139.972661 86.78305s-114.377661-35.393087-139.972662-86.78305h279.945323z" fill="#999999" p-id="16944"></path></svg>