<?xml version="1.0" encoding="utf-8"?>
<!-- Generator: Adobe Illustrator 18.1.1, SVG Export Plug-In . SVG Version: 6.00 Build 0)  -->
<svg version="1.1" id="图层_1" xmlns="http://www.w3.org/2000/svg" xmlns:xlink="http://www.w3.org/1999/xlink" x="0px" y="0px"
	 viewBox="0 0 50 50" enable-background="new 0 0 50 50" xml:space="preserve">
<g>
	<path fill="#0CB027" d="M45.4,29.7c-0.8,0-1.5,0.3-2.1,0.9l-8.8,8.8h-7c-0.5,0-1-0.3-1.3-0.7c-0.3-0.5-0.3-1,0-1.5s0.8-0.7,1.3-0.8
		h4c1.6,0,3.1-1.2,3.2-2.8c0-0.8-0.3-1.6-0.8-2.2l-0.1-0.1c-0.6-0.5-1.3-0.8-2-0.8h-6.6h-7.8c-0.8,0-1.5,0.3-2.1,0.9l0,0l-2.5,2.7
		c-0.6,0.6-1.3,1-2.2,1.2l-7.7,1.4c-1.1,0.2-1.8,1.2-1.6,2.3c0,0.2,0.1,0.4,0.2,0.5l4.6,9.4c0.3,0.6,0.8,1,1.4,1.1
		c0.1,0,0.3,0,0.4,0c0.5,0,0.9-0.2,1.3-0.5l4-3.6c0.4-0.3,0.8-0.5,1.3-0.5h21.2h0.1c0.1,0,0.1,0,0.2,0c0.8,0,1.5-0.3,2.1-0.9
		l9.7-9.7c0.6-0.6,0.9-1.3,0.9-2.1C48.4,31,47.1,29.7,45.4,29.7z"/>
	<path fill="#0CB027" d="M42.9,9h-3.7c-0.3,0-0.3,0-0.3,0l-1.7-4.7c-0.3-3-2.3-4.3-4.7-4.3H17.2c-2.7,0-4.3,2-4.7,4.3L10.8,9h-0.3
		H6.8c-0.7,0-1,0.3-1,1v1c0,0.7,0.3,1,1,1l1.3,0.3C7.8,13,7.4,14,7.4,15l-0.7,5.7c0,0,0,0.3,0,0.7v0.3v7c0,1,0.7,1.7,1.7,1.7h2.7
		c1,0,1.7-0.7,1.7-1.7v-2.3h23.3v2.3c0,1,0.7,1.7,1.7,1.7h2.7c1,0,1.7-0.7,1.7-1.7v-7v-0.3c0-0.3,0-0.3,0-0.7L41.5,15
		c0-1-0.3-2-0.7-3l1.3-0.3c0.7,0,1-0.3,1-1V10C43.9,9.3,43.6,9,42.9,9z M13.6,8l1.3-3l0,0c0-0.7,0.3-0.7,0.7-1.3h18.7
		C34.6,4.4,35,4.4,35,5l1.3,3.3l0.3,1.7c0,1.3-1.7,2.3-3,2.3H16.3c-1.3,0-2.7-1-3-2.3C13.3,9.7,13.6,8,13.6,8z M14.6,23
		c-1.3,0-2.7-1.3-2.7-2.7c0-1.3,1.3-2.7,2.7-2.7c1.3,0,2.7,1.3,2.7,2.7S15.9,23,14.6,23z M29.6,21L29.6,21c0,0.3-0.3,0.7-0.7,0.7
		h-7.7c-0.3,0-0.7-0.3-0.7-0.7v-2.3c0-0.3,0.3-0.7,0.7-0.7h7.7c0.3,0,0.7,0.3,0.7,0.7V21L29.6,21z M35.2,23c-1.3,0-2.7-1.3-2.7-2.7
		c0-1.3,1.3-2.7,2.7-2.7c1.3,0,2.7,1.3,2.7,2.7S36.9,23,35.2,23z"/>
</g>
</svg>
