<?xml version="1.0" encoding="utf-8"?>
<!-- Generator: Adobe Illustrator 18.1.1, SVG Export Plug-In . SVG Version: 6.00 Build 0)  -->
<svg version="1.1" id="图层_1" xmlns="http://www.w3.org/2000/svg" xmlns:xlink="http://www.w3.org/1999/xlink" x="0px" y="0px"
	 viewBox="0 0 50 50" enable-background="new 0 0 50 50" xml:space="preserve">
<path display="none" fill="#FC5A3C" d="M65.7,65.7c0,72,57.6,134.4,134.4,134.4s134.4-57.6,134.4-134.4c0-72-57.6-134.4-134.4-134.4
	S65.7-11.1,65.7,65.7z M262.6,65.7c4.8,38.4-24,67.2-62.4,72s-67.2-24-72-62.4c0-4.8,0-4.8,0-9.6c-4.8-38.4,24-67.2,62.4-72
	s67.2,24,72,62.4C262.6,56,262.6,60.9,262.6,65.7z M156.9,65.7c0,24,19.2,38.4,38.4,38.4c24,0,38.4-19.2,38.4-38.4
	c0-24-19.2-38.4-38.4-38.4C176.2,22.5,156.9,41.6,156.9,65.7z M363.4,137.7c4.8-4.8,0-9.6-4.8-14.4h-4.8c-9.6,0-14.4,4.8-19.2,14.4
	c-43.2,76.8-139.2,100.8-216,57.6c-24-14.4-43.2-33.6-57.6-57.6c-4.8-4.8-9.6-14.4-19.2-14.4c-4.8,0-9.6,4.8-9.6,9.6v4.8
	c19.2,43.2,57.6,72,100.8,91.2H70.4c-9.6,0-19.2,9.6-19.2,19.2l0,0v19.2c0,9.6,9.6,19.2,19.2,19.2l0,0h240.1
	c9.6,0,19.2-9.6,19.2-19.2l0,0V248c0-9.6-9.6-19.2-19.2-19.2l0,0h-57.6C305.8,214.5,339.4,180.9,363.4,137.7z M22.5,142.5L12.9,128
	c-4.8-4.8-4.8-9.6-4.8-14.4l0,0c0-4.8,0-9.6,4.8-14.4c0-4.8,4.8-4.8,4.8-9.6c4.8-4.8,14.4-9.6,24-9.6l0,0c-4.8-9.6-4.8-24-4.8-33.6
	c0-14.4,0-24,4.8-38.4H3.3c-52.8,0-105.6-9.6-153.7-19.2c14.4-38.4,28.8-76.8,43.2-115.2c4.8-9.6,14.4-14.4,19.2-14.4
	c19.2-4.8,38.4-9.6,62.4-9.6c62.4,0,120,4.8,182.4,4.8c24,0,43.2,14.4,48,33.6v9.6l4.8,14.4H224c9.6,0,24,0,33.6,4.8V-88l-4.8-9.6
	l0,0l-4.8-9.6l-9.6-28.8c-4.8-19.2-24-38.4-43.2-43.2c-28.8-9.6-57.6-14.4-86.4-19.2c-43.2-4.8-81.6-4.8-124.8,0
	c-14.4,4.8-33.6,4.8-48,9.6c-43.2,4.8-76.8,33.6-86.4,72C-160-88-169.6-64-179.2-35.2c0,4.8-9.6,14.4-14.4,14.4
	c-28.8-4.8-43.2,14.4-48,38.4c0,4.8,0,9.6,0,14.4l28.8,9.6v192.1c0,9.6,4.8,24,9.6,33.6c33.6,4.8,62.4,4.8,96,0
	c4.8-4.8,9.6-38.4,14.4-57.6H41.7c4.8-9.6,9.6-19.2,24-24C46.5,176,32.1,161.7,22.5,142.5z M-73.5,108.9
	c-4.8,4.8-9.6,14.4-19.2,14.4s-19.2,4.8-28.8,4.8c-14.4,0-28.8-4.8-43.2-4.8c-19.2-4.8-24-19.2-19.2-43.2
	c4.8-19.2,19.2-19.2,28.8-14.4c24,9.6,48,19.2,72,28.8C-78.3,94.4-68.7,104.1-73.5,108.9L-73.5,108.9z"/>
<path display="none" fill="#FC5A3C" d="M65.7,65.7c0,72,57.6,134.4,134.4,134.4s134.4-57.6,134.4-134.4c0-72-57.6-134.4-134.4-134.4
	S65.7-11.1,65.7,65.7z M262.6,65.7c4.8,38.4-24,67.2-62.4,72s-67.2-24-72-62.4c0-4.8,0-4.8,0-9.6c-4.8-38.4,24-67.2,62.4-72
	s67.2,24,72,62.4C262.6,56,262.6,60.9,262.6,65.7z M156.9,65.7c0,24,19.2,38.4,38.4,38.4c24,0,38.4-19.2,38.4-38.4
	c0-24-19.2-38.4-38.4-38.4C176.2,22.5,156.9,41.6,156.9,65.7z M363.4,137.7c4.8-4.8,0-9.6-4.8-14.4h-4.8c-9.6,0-14.4,4.8-19.2,14.4
	c-43.2,76.8-139.2,100.8-216,57.6c-24-14.4-43.2-33.6-57.6-57.6c-4.8-4.8-9.6-14.4-19.2-14.4c-4.8,0-9.6,4.8-9.6,9.6v4.8
	c19.2,43.2,57.6,72,100.8,91.2H70.4c-9.6,0-19.2,9.6-19.2,19.2l0,0v19.2c0,9.6,9.6,19.2,19.2,19.2l0,0h240.1
	c9.6,0,19.2-9.6,19.2-19.2l0,0V248c0-9.6-9.6-19.2-19.2-19.2l0,0h-57.6C305.8,214.5,339.4,180.9,363.4,137.7z"/>
<path display="none" fill="#FC5A3C" d="M204.9,214.5c76.8,0,139.2-62.4,139.2-144s-62.4-144-139.2-144S65.7-11.1,65.7,70.5
	S128.1,214.5,204.9,214.5z M204.9-44.8c62.4,0,115.2,52.8,115.2,120s-52.8,120-115.2,120S89.7,142.5,89.7,75.3
	C94.6,8,142.6-44.8,204.9-44.8z M320.2,185.7c-4.8-4.8-14.4,0-14.4,4.8s0,14.4,4.8,14.4c9.6,4.8,9.6,9.6,9.6,9.6
	c0,9.6-43.2,28.8-115.2,28.8s-115.2-19.2-115.2-24c0,0,0-4.8,9.6-9.6c4.8-4.8,9.6-9.6,4.8-14.4c-4.8-9.6-9.6-9.6-14.4-9.6
	c-19.2,9.6-24,24-24,33.6c0,33.6,72,52.8,139.2,52.8s139.2-14.4,139.2-52.8C344.2,209.7,339.4,195.3,320.2,185.7L320.2,185.7z
	 M204.9,137.7c38.4,0,67.2-28.8,67.2-67.2S243.4,3.2,204.9,3.2c-38.4,0-67.2,28.8-67.2,67.2S166.5,137.7,204.9,137.7L204.9,137.7z
	 M181,17.7c14.4,0,28.8,14.4,28.8,28.8S195.4,75.3,181,75.3l0,0c-14.4,0-28.8-14.4-28.8-28.8C156.9,27.3,166.5,17.7,181,17.7z"/>
<g>
	<path fill="none" d="M36.2,6.8c-1.6-0.7-3.4-1.2-5.2-1.2c-4.9,0-9.3,3-11.4,7.2c1.3,0.2,2.7,0.3,4,0.3H26c-0.3,0.9-0.3,1.5-0.3,2.4
		c0,0.6,0,1.5,0.3,2.1c-0.6,0-1.2,0.3-1.5,0.6c0,0.3-0.3,0.3-0.3,0.6c-0.3,0.3-0.3,0.6-0.3,0.9s0,0.6,0.3,0.9l0.6,0.9
		c0.6,1.2,1.5,2.1,2.7,2.7c-0.9,0.3-1.2,0.9-1.5,1.5h-5.5c2.3,3.4,6.2,5.7,10.5,5.7c6.9,0,12.8-5.9,12.8-12.8
		c0-4.8-2.8-9.1-6.9-11.3h-0.5L36.2,6.8z"/>
	<path fill="none" d="M18.8,19.3c0.3-0.3-0.3-0.9-0.6-0.9l0,0l0,0c0,0.5,0,1,0.1,1.5C18.5,19.7,18.7,19.5,18.8,19.3z"/>
	<path fill="none" d="M31,5.1c1.8,0,3.5,0.4,5.1,1V5.6c-0.3-1.2-1.5-2.1-3-2.1c-3.9,0-7.4-0.3-11.3-0.3c-1.5,0-2.7,0.3-3.9,0.6
		c-0.3,0-0.9,0.3-1.2,0.9c-0.9,2.4-1.8,4.7-2.7,7.1c1.6,0.3,3.2,0.6,4.9,0.8C21.2,8.2,25.8,5.1,31,5.1z"/>
	<path fill="none" d="M17.7,18.2c-1.3-0.5-2.6-1-3.9-1.6c-0.6-0.3-1.5-0.3-1.8,0.9c-0.3,1.5,0,2.4,1.2,2.7c0.9,0,1.8,0.3,2.7,0.3
		c0.6,0,1.2-0.3,1.8-0.3c0.1,0,0.1,0,0.1,0c-0.1-0.6-0.1-1.2-0.1-1.7C17.7,18.3,17.7,18.3,17.7,18.2z"/>
	<path fill="#0CB027" d="M17.6,20.2c-0.6,0-1.2,0.3-1.8,0.3c-0.9,0-1.8-0.3-2.7-0.3c-1.2-0.3-1.5-1.2-1.2-2.7
		c0.3-1.2,1.2-1.2,1.8-0.9c1.3,0.5,2.6,1,3.9,1.6c0-1.9,0.5-3.8,1.3-5.5c-1.7-0.2-3.3-0.5-4.9-0.8c0.9-2.4,1.8-4.7,2.7-7.1
		c0.3-0.6,0.9-0.9,1.2-0.9c1.2-0.3,2.4-0.6,3.9-0.6c3.9,0,7.4,0.3,11.3,0.3c1.5,0,2.7,0.9,3,2.1v0.5c0.7,0.3,1.4,0.7,2,1.1
		c0.4,0,0.9,0.1,1.3,0.3V7.3l-0.3-0.6l-0.3-0.6l-0.6-1.8c-0.3-1.2-1.5-2.4-2.7-2.7c-1.8-0.6-3.6-0.9-5.3-1.2c-2.7-0.3-5.1-0.3-7.7,0
		c-0.9,0.3-2.1,0.3-3,0.6c-2.7,0.3-4.7,2.1-5.3,4.5c-0.6,1.8-1.2,3.3-1.8,5.1c0,0.3-0.6,0.9-0.9,0.9c-1.8-0.3-2.7,0.9-3,2.4
		c0,0.3,0,0.6,0,0.9l1.8,0.6V27c0,0.6,0.3,1.5,0.6,2.1c2.1,0.3,3.9,0.3,5.9,0c0.3-0.3,0.6-2.4,0.9-3.6h2.2c-1-1.6-1.7-3.4-2-5.4
		C17.7,20.2,17.7,20.2,17.6,20.2z"/>
	<path fill="#0CB027" d="M27.4,24c-1.2-0.6-2.1-1.5-2.7-2.7l-0.6-0.9c-0.3-0.3-0.3-0.6-0.3-0.9s0-0.6,0.3-0.9c0-0.3,0.3-0.3,0.3-0.6
		c0.3-0.3,0.9-0.6,1.5-0.6c-0.3-0.6-0.3-1.5-0.3-2.1c0-0.9,0-1.5,0.3-2.4h-2.4c-1.3,0-2.7-0.1-4-0.3c-0.9,1.7-1.4,3.6-1.4,5.6l0,0
		c0.3,0,0.9,0.6,0.6,0.9c-0.2,0.2-0.3,0.4-0.5,0.6c0.2,2.1,1,4,2.1,5.7h5.5C26.3,24.9,26.6,24.3,27.4,24z"/>
	<path fill="#0CB027" d="M36.4,7.1h0.5c-0.2-0.1-0.4-0.2-0.7-0.3L36.4,7.1z"/>
	<path fill="#FFFFFF" d="M31,5.6c1.9,0,3.6,0.4,5.2,1.2L36,6.2V6.1c-1.6-0.7-3.3-1-5.1-1c-5.2,0-9.8,3.2-12,7.7c0.2,0,0.4,0,0.6,0.1
		C21.7,8.6,26.1,5.6,31,5.6z"/>
	<path fill="#FFFFFF" d="M18.2,18.4c-0.2-0.1-0.4-0.1-0.6-0.2c0,0.1,0,0.2,0,0.2c0,0.6,0.1,1.2,0.1,1.7c0.2,0,0.4-0.1,0.5-0.3
		C18.3,19.4,18.2,18.9,18.2,18.4L18.2,18.4z"/>
	<path fill="#FFFFFF" d="M18.3,19.9c-0.1,0.1-0.3,0.2-0.5,0.3c0.3,1.9,1,3.8,2,5.4h0.7C19.3,23.9,18.6,21.9,18.3,19.9z"/>
	<path fill="#FFFFFF" d="M36.1,6.2l0.2,0.6C36.5,6.9,36.7,7,37,7.1h0.3c0.2,0,0.5,0,0.8,0c-0.6-0.4-1.3-0.8-2-1.1V6.2L36.1,6.2z"/>
	<path fill="#FFFFFF" d="M19.6,12.8c-0.2,0-0.4,0-0.6-0.1c-0.8,1.7-1.3,3.5-1.3,5.5c0.2,0.1,0.4,0.1,0.6,0.2
		C18.2,16.4,18.7,14.5,19.6,12.8z"/>
	<g>
		<path fill="#EDEAEA" d="M34.7,30.5c-0.9-0.8-2-1.2-3.1-1.2h-6.9c-3.9-2.3-6.3-6.5-6.3-10.9c0-3.3,1.3-6.5,3.7-8.9s5.6-3.7,8.9-3.7
			s6.5,1.3,8.9,3.7s3.7,5.6,3.7,8.9c0,2.8-0.9,5.4-2.6,7.6C39.4,28.1,37.1,29.7,34.7,30.5z"/>
		<path fill="#0CB027" d="M31,6.2c1.6,0,3.2,0.3,4.7,1c1.4,0.6,2.8,1.5,3.9,2.6s2,2.4,2.6,3.9s1,3.1,1,4.7c0,1.3-0.2,2.7-0.7,3.9
			c-0.4,1.2-1.1,2.4-1.9,3.4c-1.5,2-3.6,3.4-5.9,4.2c-0.9-0.7-2-1.1-3.2-1.1h-6.8c-3.7-2.2-6-6.2-6-10.4c0-1.6,0.3-3.2,1-4.7
			c0.6-1.4,1.5-2.8,2.6-3.9s2.4-2,3.9-2.6C27.8,6.5,29.4,6.2,31,6.2 M31,5.3c-7.1,0-13.1,5.9-13.1,13.1c0,4.8,2.7,9,6.6,11.3h7
			c1.1,0,2.2,0.5,3,1.3C40,29.4,44,24.3,44,18.4C44.1,11.3,38.1,5.3,31,5.3L31,5.3z"/>
	</g>
	<path fill="#0CB027" d="M44.8,30.4c-0.8,0-1.5,0.3-2,0.8l-8.4,8.5h-6.8c-0.5,0-1-0.3-1.2-0.7c-0.3-0.4-0.3-1,0-1.4s0.7-0.7,1.2-0.7
		h3.8c1.6,0,3-1.2,3-2.7c0-0.8-0.2-1.5-0.8-2.1c-0.3-0.3-0.5-0.5-0.9-0.6c-0.4-0.2-0.8-0.3-1.2-0.3h-3.6H17.7c-0.7,0-1.5,0.3-2,0.8
		l0,0l-2.4,2.5c-0.6,0.6-1.3,1-2.1,1.1L3.8,37c-1,0.2-1.7,1.2-1.5,2.2c0,0.2,0.1,0.3,0.2,0.5l4.4,9.1c0.3,0.5,0.8,0.9,1.3,1
		c0.1,0,0.3,0,0.4,0c0.5,0,0.9-0.2,1.3-0.5l3.8-3.4c0.3-0.3,0.8-0.5,1.3-0.5h20.4c0,0,0,0,0.1,0s0.1,0,0.2,0c0.8,0,1.5-0.3,2-0.8
		l9.3-9.3c0.5-0.5,0.8-1.3,0.8-2C47.7,31.6,46.4,30.4,44.8,30.4z"/>
	<path fill="#0CB027" d="M33.1,19c0.9-0.6,3-1.5,3-4.2s-2.1-4.5-4.2-5.1c-2.1-0.3-3.9,0-5.3,1.5c-1.2,1.2-1.5,2.4-1.5,5.1h3v-0.6
		c0-1.5,0-2.7,2.1-3.3c1.2-0.3,2.1,0,2.7,0.6s0.6,2.1-0.3,3l-2.1,0.9c-0.9,0.9-1.2,1.5-1.2,2.4v3.3h3v-2.1
		C31.9,19.9,32.5,19.3,33.1,19L33.1,19L33.1,19L33.1,19L33.1,19z M30.4,24c-0.9,0-1.5,0.6-1.5,1.5s0.6,1.5,1.5,1.5
		c0.9-0.3,1.5-0.9,1.5-1.8C31.9,24.6,31.3,24,30.4,24L30.4,24L30.4,24L30.4,24L30.4,24z"/>
</g>
</svg>
