<?xml version="1.0" encoding="utf-8"?>
<!-- Generator: Adobe Illustrator 18.1.1, SVG Export Plug-In . SVG Version: 6.00 Build 0)  -->
<svg version="1.1" id="图层_1" xmlns="http://www.w3.org/2000/svg" xmlns:xlink="http://www.w3.org/1999/xlink" x="0px" y="0px"
	 viewBox="0 0 50 50" enable-background="new 0 0 50 50" xml:space="preserve">
<g>
	<path fill="#FFB629" d="M45.1,29.7c-0.8,0-1.5,0.3-2.1,0.9l-8.5,8.8h-6.8c-0.5,0-1-0.3-1.3-0.7c-0.3-0.5-0.3-1,0-1.5
		s0.8-0.7,1.3-0.8h3.8c1.6,0,3-1.2,3.1-2.8c0-0.8-0.3-1.6-0.8-2.2l-0.1-0.1c-0.6-0.5-1.3-0.8-2-0.8h-6.4h-7.6
		c-0.8,0-1.5,0.3-2.1,0.9l0,0L13,34.1c-0.6,0.6-1.3,1-2.1,1.2l-7.5,1.4c-1.1,0.2-1.8,1.2-1.6,2.3c0,0.2,0.1,0.4,0.2,0.5l4.5,9.4
		c0.3,0.6,0.8,1,1.4,1.1c0.1,0,0.3,0,0.4,0c0.5,0,0.9-0.2,1.3-0.5l3.9-3.6c0.4-0.3,0.8-0.5,1.3-0.5h20.7h0.1c0.1,0,0.1,0,0.2,0
		c0.8,0,1.5-0.3,2.1-0.9l9.5-9.7c0.6-0.6,0.9-1.3,0.9-2.1C48,31,46.8,29.7,45.1,29.7z"/>
	<path fill="#FFB629" d="M42.6,9.1H39c-0.3,0-0.3,0-0.3,0L37,4.4c-0.3-3-2.2-4.3-4.6-4.3h-15c-2.6,0-4.2,2-4.6,4.3l-1.7,4.7h-0.3
		H7.2c-0.7,0-1,0.3-1,1v1c0,0.7,0.3,1,1,1l1.3,0.3C8.2,13,7.8,14,7.8,15l-0.7,5.7c0,0,0,0.3,0,0.7v0.3v7c0,1,0.7,1.7,1.7,1.7h2.6
		c1,0,1.7-0.7,1.7-1.7v-2.3h22.8v2.3c0,1,0.7,1.7,1.7,1.7h2.6c1,0,1.7-0.7,1.7-1.7v-7v-0.3c0-0.3,0-0.3,0-0.7L41.2,15
		c0-1-0.3-2-0.7-3l1.3-0.3c0.7,0,1-0.3,1-1V10C43.5,9.3,43.3,9.1,42.6,9.1z M13.9,8.1l1.3-3l0,0c0-0.7,0.3-0.7,0.7-1.3h18.3
		c0.3,0.7,0.7,0.7,0.7,1.3l1.3,3.3l0.3,1.7c0,1.3-1.7,2.3-2.9,2.3H16.5c-1.3,0-2.6-1-2.9-2.3C13.6,9.8,13.9,8.1,13.9,8.1z M14.9,23
		c-1.3,0-2.6-1.3-2.6-2.7c0-1.3,1.3-2.7,2.6-2.7s2.6,1.3,2.6,2.7C17.6,21.8,16.2,23,14.9,23z M29.6,21L29.6,21
		c0,0.3-0.3,0.7-0.7,0.7h-7.5c-0.3,0-0.7-0.3-0.7-0.7v-2.3c0-0.3,0.3-0.7,0.7-0.7h7.5c0.3,0,0.7,0.3,0.7,0.7V21L29.6,21z M35.1,23
		c-1.3,0-2.6-1.3-2.6-2.7c0-1.3,1.3-2.7,2.6-2.7s2.6,1.3,2.6,2.7S36.7,23,35.1,23z"/>
</g>
</svg>
