<?xml version="1.0" standalone="no"?><!DOCTYPE svg PUBLIC "-//W3C//DTD SVG 1.1//EN" "http://www.w3.org/Graphics/SVG/1.1/DTD/svg11.dtd"><svg t="1612349614862" class="icon" viewBox="0 0 1024 1024" version="1.1" xmlns="http://www.w3.org/2000/svg" p-id="4616" xmlns:xlink="http://www.w3.org/1999/xlink" width="200" height="200"><defs><style type="text/css"></style></defs><path d="M795.13 184.8L685.54 75.21c-15.29-15.29-39.54-15.29-53.54 0L472.73 234.5c-15.3 15.3-15.3 39.51 0 53.52l43.32 43.33L494.39 353l-14-14c-20.39-20.39-47.15-29.31-72.63-29.31-34.41-28-79-31.86-104.5-6.37s-21.66 70.08 6.37 104.49c0 26.76 8.92 52.25 29.31 72.64l14 14-21.66 21.67L288 472.8c-15.29-15.29-39.5-15.29-53.52 0L75.14 632.09c-15.29 15.29-15.29 39.51 0 53.52L184.73 795.2c15.29 15.3 39.5 15.3 53.52 0l159.29-159.29c15.29-15.29 15.29-39.5 0-53.52l-37-36.95 21.66-21.67 48.42 48.43c12.75-29.31 33.14-58.62 58.62-84.11s54.8-45.87 84.11-58.62L525 381.05l21.67-21.66 37 36.95c15.29 15.29 39.51 15.29 53.52 0L796.4 237.05c14.02-14.05 14.02-38.23-1.27-52.25z" p-id="4617" fill="#707070"></path><path d="M758.17 460.06a38.33 38.33 0 0 0-8.92-6.37 1.25 1.25 0 0 1-1.27-1.28c-2.55-1.27-3.82-2.55-6.37-3.82h-1.28c-62.44-34.41-159.29-10.2-230.65 61.17-72.63 72.63-95.57 168.24-61.17 230.65 1.28 2.55 2.55 3.82 3.83 6.37a1.24 1.24 0 0 0 1.27 1.27c2.55 3.83 5.1 6.38 6.37 8.92 26.76 17.85 86.66-5.09 150.37-56.07l-31.85-25.48c-38.23 30.58-68.82 47.15-77.74 39.5-11.47-11.47 26.76-68.81 85.38-127.43s116-96.85 127.43-85.38c7.65 7.65-6.37 34.41-33.13 68.81l25.49 31.86c48.42-61.17 70.08-117.24 52.24-142.72z" p-id="4618" fill="#707070"></path><path d="M605.26 630.82c-10.2-7.65-10.2-21.67-1.28-30.59l3.82-3.82a20.83 20.83 0 0 1 30.59 1.27l34.41 42.06c7.64 10.19 7.64 25.48-1.28 34.4L683 662.67c-8.92 8.93-24.21 10.2-34.41 1.28l-43.32-33.13z" p-id="4619" fill="#707070"></path><path d="M687.73 648c-16.22 0-29.73 13.51-30.63 28.84 0 16.22 12.61 28.84 30.63 28.84 16.22 0 30.63-12.62 30.63-28.84C717.47 659.71 704 648 687.73 648M782.33 648a20.81 20.81 0 0 0-20.42 17.31 95.2 95.2 0 0 1-30 53.88c-15.68 15.68-35.3 25.16-57.09 28.44a20.75 20.75 0 0 0-17.72 20.48 20.69 20.69 0 0 0 23.7 20.5c63-9.55 112.13-56.55 123.44-116A20.71 20.71 0 0 0 783.87 648z" p-id="4620" fill="#707070"></path><path d="M839.1 664.44c-8.59 81.65-77.18 147.29-163.32 155.67a20.54 20.54 0 0 0-18.68 20.39v0.5a20.44 20.44 0 0 0 22.28 20.39c106.73-10 192.33-91.19 202.8-193.21A19.2 19.2 0 0 0 863 647.1h-4.82a19.28 19.28 0 0 0-19.08 17.34z" p-id="4621" fill="#707070"></path></svg>