<?xml version="1.0" standalone="no"?><!DOCTYPE svg PUBLIC "-//W3C//DTD SVG 1.1//EN" "http://www.w3.org/Graphics/SVG/1.1/DTD/svg11.dtd"><svg t="1609905953764" class="icon" viewBox="0 0 1024 1024" version="1.1" xmlns="http://www.w3.org/2000/svg" p-id="19965" xmlns:xlink="http://www.w3.org/1999/xlink" width="64" height="64"><defs><style type="text/css"></style></defs><path d="M383.225101 113.985054 139.158387 113.985054c-41.415248 0-75.094302 33.685193-75.094302 75.094302l0 244.065691c0 41.409109 33.679054 75.101465 75.094302 75.101465l244.065691 0c41.415248 0 75.099419-33.691333 75.099419-75.101465L458.323497 189.08038C458.323497 147.671271 424.64035 113.985054 383.225101 113.985054z" p-id="19966" fill="#409eff"></path><path d="M937.458995 258.014378 764.876358 85.429695c-29.287023-29.284977-76.91988-29.278837-106.204857 0L486.092957 258.014378c-29.280884 29.278837-29.284977 76.912717 0 106.197694l172.582637 172.584684c29.287023 29.284977 76.91988 29.278837 106.199741 0l172.582637-172.584684C966.738855 334.933235 966.744995 287.299355 937.458995 258.014378z" p-id="19967" fill="#409eff"></path><path d="M383.225101 564.564169 139.158387 564.564169c-41.415248 0-75.094302 33.691333-75.094302 75.101465l0 244.066715c0 41.395806 33.679054 75.092255 75.094302 75.092255l244.065691 0c41.415248 0 75.099419-33.697473 75.099419-75.092255L458.323497 639.665635C458.323497 598.256526 424.64035 564.564169 383.225101 564.564169z" p-id="19968" fill="#409eff"></path><path d="M833.809333 564.564169 589.743642 564.564169c-41.415248 0-75.101465 33.691333-75.101465 75.101465l0 244.066715c0 41.395806 33.685193 75.092255 75.101465 75.092255l244.065691 0c41.414225 0 75.093279-33.697473 75.093279-75.092255L908.902612 639.665635C908.902612 598.256526 875.223558 564.564169 833.809333 564.564169z" p-id="19969" fill="#409eff"></path></svg>