<?xml version="1.0" standalone="no"?><!DOCTYPE svg PUBLIC "-//W3C//DTD SVG 1.1//EN" "http://www.w3.org/Graphics/SVG/1.1/DTD/svg11.dtd"><svg t="1625200885466" class="icon" viewBox="0 0 1024 1024" version="1.1" xmlns="http://www.w3.org/2000/svg" p-id="2239" xmlns:xlink="http://www.w3.org/1999/xlink" width="200" height="200"><defs><style type="text/css"></style></defs><path d="M544 64a32 32 0 0 1 3.744 63.776L544 128H160v768h704V480a32 32 0 0 1 63.776-3.744L928 480v416a64 64 0 0 1-59.2 63.84L864 960H160a64 64 0 0 1-63.84-59.2L96 896V128a64 64 0 0 1 59.2-63.84L160 64h384z" fill="#1296db" p-id="2240"></path><path d="M288 608m32 0l384 0q32 0 32 32l0 0q0 32-32 32l-384 0q-32 0-32-32l0 0q0-32 32-32Z" fill="#1296db" p-id="2241"></path><path d="M288 736m32 0l384 0q32 0 32 32l0 0q0 32-32 32l-384 0q-32 0-32-32l0 0q0-32 32-32Z" fill="#1296db" p-id="2242"></path><path d="M745.856 96.8a112 112 0 0 1 158.4 158.4l-203.232 203.2a265.344 265.344 0 0 1-137.216 72.896l-23.648 4.608a64 64 0 0 1-75.008-75.008l4.576-23.68a265.344 265.344 0 0 1 72.896-137.184z m-25.984 116.48l-132 132a201.344 201.344 0 0 0-55.296 104.128l-4.576 23.648 23.648-4.576a201.344 201.344 0 0 0 104.128-55.296l130.976-131.04-66.88-68.864z m139.136-71.232a48 48 0 0 0-67.904 0l-25.984 25.984L832 236.896l27.008-26.944a48 48 0 0 0 3.296-64.256z" fill="#1296db" p-id="2243"></path></svg>