<?xml version="1.0" standalone="no"?><!DOCTYPE svg PUBLIC "-//W3C//DTD SVG 1.1//EN" "http://www.w3.org/Graphics/SVG/1.1/DTD/svg11.dtd"><svg t="1588933291986" class="icon" viewBox="0 0 1024 1024" version="1.1" xmlns="http://www.w3.org/2000/svg" p-id="6030" xmlns:xlink="http://www.w3.org/1999/xlink" width="50" height="50"><defs><style type="text/css"></style></defs><path d="M308.296305 1023.998293a307.768376 307.768376 0 0 1-217.884081-525.652457l61.439897-61.439898A51.199915 51.199915 0 1 1 224.669778 511.999147l-62.008786 56.888794A205.368547 205.368547 0 0 0 455.638281 861.86523L576.242525 739.554323a205.937435 205.937435 0 0 0 0-290.701738 51.199915 51.199915 0 0 1 72.817656-73.386544 308.337264 308.337264 0 0 1 0 435.199275l-122.879795 123.448683A306.6306 306.6306 0 0 1 308.296305 1023.998293z" p-id="6031" fill="#0080e5"></path><path d="M412.402798 663.323339a51.199915 51.199915 0 0 1-36.408828-14.791087 308.337264 308.337264 0 0 1 0-435.199274l122.879795-123.448683a307.768376 307.768376 0 0 1 435.199275 435.199274l-61.439898 61.439898A51.199915 51.199915 0 1 1 800.384374 511.999147l62.008785-56.888794A205.368547 205.368547 0 0 0 569.41587 162.133063L448.811626 284.44397a205.937435 205.937435 0 0 0 0 290.701738 51.199915 51.199915 0 0 1-36.408828 87.608743z" p-id="6032" fill="#0080e5"></path></svg>