<?xml version="1.0" standalone="no"?><!DOCTYPE svg PUBLIC "-//W3C//DTD SVG 1.1//EN" "http://www.w3.org/Graphics/SVG/1.1/DTD/svg11.dtd"><svg t="1614751303781" class="icon" viewBox="0 0 1024 1024" version="1.1" xmlns="http://www.w3.org/2000/svg" p-id="7561" xmlns:xlink="http://www.w3.org/1999/xlink" width="32" height="32"><defs><style type="text/css"></style></defs><path d="M884.363636 256h-116.363636V139.636364a46.545455 46.545455 0 0 0-46.545455-46.545455H139.636364a46.545455 46.545455 0 0 0-46.545455 46.545455v581.818181a46.545455 46.545455 0 0 0 46.545455 46.545455h116.363636v116.363636a46.545455 46.545455 0 0 0 46.545455 46.545455h581.818181a46.545455 46.545455 0 0 0 46.545455-46.545455V302.545455a46.545455 46.545455 0 0 0-46.545455-46.545455zM162.909091 698.181818V162.909091h535.272727v535.272727H162.909091z m698.181818 162.909091H325.818182v-93.090909h395.636363a46.545455 46.545455 0 0 0 46.545455-46.545455V325.818182h93.090909z" p-id="7562" fill="#148AE7"></path></svg>