<?xml version="1.0" encoding="utf-8"?>
<!-- Generator: Adobe Illustrator 25.0.0, SVG Export Plug-In . SVG Version: 6.00 Build 0)  -->
<svg version="1.1" id="图层_1" xmlns="http://www.w3.org/2000/svg" xmlns:xlink="http://www.w3.org/1999/xlink" x="0px" y="0px"
	 viewBox="0 0 50 50" style="enable-background:new 0 0 50 50;" xml:space="preserve">
<style type="text/css">
	.st0{fill:#707070;}
</style>
<g>
	<g>
		<path class="st0" d="M10.5,3.6v7.2H3.3V3.6H10.5 M13.5,0.6h-13v13h13V0.6L13.5,0.6z"/>
	</g>
	<g>
		<path class="st0" d="M46.4,3.5v7.2h-7.2V3.5H46.4 M49.4,0.5h-13v13h13V0.5L49.4,0.5z"/>
	</g>
	<g>
		<path class="st0" d="M10.7,39.4v7.2H3.6v-7.2H10.7 M13.7,36.4h-13v13h13V36.4L13.7,36.4z"/>
	</g>
	<g>
		<path class="st0" d="M46.7,39.3v7.2h-7.2v-7.2H46.7 M49.6,36.3h-13v13h13V36.3L49.6,36.3z"/>
	</g>
	<g>
		<rect x="12.7" y="41.6" class="st0" width="25.5" height="2.9"/>
	</g>
	<g>
		<rect x="5.6" y="12.7" class="st0" width="2.9" height="24.5"/>
	</g>
	<g>
		<rect x="42.1" y="13.5" class="st0" width="2.9" height="23.8"/>
	</g>
	<g>
		<rect x="12.7" y="5.6" class="st0" width="25" height="2.9"/>
	</g>
</g>
</svg>
