<?xml version="1.0" encoding="utf-8"?>
<!-- Generator: Adobe Illustrator 22.0.0, SVG Export Plug-In . SVG Version: 6.00 Build 0)  -->
<svg version="1.1" id="图层_1" xmlns="http://www.w3.org/2000/svg" xmlns:xlink="http://www.w3.org/1999/xlink" x="0px" y="0px"
	 viewBox="0 0 146.7 172" style="enable-background:new 0 0 146.7 172;" xml:space="preserve">
<style type="text/css">
	.st0{fill:#148AE7;}
</style>
<title>撤防</title>
<path class="st0" d="M73.1,172c-1,0-2-0.1-3.1-0.3C65.3,170.8,0,156.6,0,60.9V35.8c0-4.5,2-8.8,5.3-11.7c3-2.8,7-4.3,11.1-4.3H17
	h0.6c0.5,0,1.9,0.1,3.9,0.1c6.5,0,13.1-0.7,19.4-2.1c3.5-0.8,10.9-3.7,21.7-14C63.1,3.4,63.6,3,64,2.7l0.3-0.2C67,0.9,70,0,73.1,0
	c3.2,0,6.3,0.9,9,2.6c1.1,0.7,2.4,1.7,4.2,3.2c4.6,3.7,13.1,10.5,19.7,12.1c6.3,1.4,12.8,2.2,19.3,2.2c1.9,0,3.2-0.1,3.7-0.1h0.6
	h0.8c4.1,0,8.1,1.5,11.2,4.3l0,0c3.2,3,5.1,7.2,5.1,11.7v25.1c0,96.1-65.5,109.9-70.6,110.8C75.2,171.9,74.1,172,73.1,172z
	 M73.1,160h0.5l0.3-0.1c0.6-0.1,15.8-2.8,30.9-16.5c19.8-18,29.9-45.8,29.9-82.6V35.8c0-1.1-0.5-2.1-1.3-2.9c-0.8-0.7-1.9-1.1-3-1.1
	h-0.6c-0.6,0-2.3,0.1-4.5,0.1c-7.4,0-14.9-0.8-22.1-2.4c-9.2-2.1-18.7-9.8-24.4-14.4c-1.3-1-2.6-2.1-3.2-2.4
	C74.9,12.2,74,12,73.1,12c-0.8,0-1.5,0.2-2.2,0.6c-9.6,9.2-19,15-27.1,17C36.5,31.2,29.1,32,21.6,32c-2.4,0-4.1-0.1-4.7-0.1h-0.5
	c-1.1,0-2.2,0.4-3,1.1l-0.2,0.2c-0.8,0.7-1.2,1.7-1.2,2.7v25.1c0,87.3,57.9,98.6,60.4,99l0.2,0.1H73.1z M71.5,51.7
	c18.9,0,34.2,15.3,34.2,34.2s-15.3,34.2-34.2,34.2s-34.2-15.3-34.2-34.2l0,0C37.3,67,52.6,51.7,71.5,51.7z M91.9,72.4L58,106.3
	c11.3,7.4,26.4,4.3,33.9-6.9C97.3,91.2,97.3,80.6,91.9,72.4z M71.5,61.4C58,61.4,47,72.3,47,85.8c0,4.8,1.4,9.5,4.1,13.5L85,65.5
	C81,62.9,76.3,61.4,71.5,61.4L71.5,61.4z"/>
</svg>
