<?xml version="1.0" standalone="no"?><!DOCTYPE svg PUBLIC "-//W3C//DTD SVG 1.1//EN" "http://www.w3.org/Graphics/SVG/1.1/DTD/svg11.dtd"><svg t="1568881408169" class="icon" viewBox="0 0 1024 1024" version="1.1" xmlns="http://www.w3.org/2000/svg" p-id="25572" xmlns:xlink="http://www.w3.org/1999/xlink" width="20" height="20"><defs><style type="text/css"></style></defs><path d="M418.91 721c0-77.119-62.518-139.636-139.637-139.636-77.12 0-139.637 62.517-139.637 139.636H99.991C44.768 721 0 676.227 0 621.002v-79.277c0-40.82 24.453-75.926 59.512-91.466L162.91 209H768l99.74 232.727h56.269c55.223 0 99.991 44.773 99.991 99.998v79.277c0 55.227-44.762 99.998-99.991 99.998h-39.645c0-77.119-62.518-139.636-139.637-139.636S605.091 643.88 605.091 721H418.909z m325.817 93.09c-51.412 0-93.09-41.677-93.09-93.09 0-51.413 41.678-93.09 93.09-93.09 51.413 0 93.091 41.677 93.091 93.09 0 51.413-41.678 93.09-93.09 93.09z m-465.454 0c-51.413 0-93.091-41.677-93.091-93.09 0-51.413 41.678-93.09 93.09-93.09 51.413 0 93.092 41.677 93.092 93.09 0 51.413-41.679 93.09-93.091 93.09z m-69.818-512l-46.546 139.637h256V302.091H209.455z m512 0H512v139.637h256l-46.545-139.636z" fill="#afbdca" p-id="25573"></path></svg>