<svg id="图层_1" data-name="图层 1" xmlns="http://www.w3.org/2000/svg" viewBox="0 0 182.04 181.98"><defs><style>.cls-1{fill:#606266;}</style></defs><path class="cls-1" d="M106.84,91.5l72.6-72.59a10.57,10.57,0,0,0,0-14.92l-.4-.4a10.57,10.57,0,0,0-14.92,0L91.53,76.29,18.94,3.59A10.46,10.46,0,0,0,11.48.53,10.46,10.46,0,0,0,4,3.59L3.63,4a10.43,10.43,0,0,0,0,14.93L76.22,91.5,3.62,164.09a10.6,10.6,0,0,0,0,14.92l.4.4a10.6,10.6,0,0,0,14.92,0l72.59-72.6,72.59,72.6a10.57,10.57,0,0,0,14.92,0l.4-.4a10.6,10.6,0,0,0,0-14.92Z" transform="translate(-0.48 -0.51)"/></svg>