<?xml version="1.0" standalone="no"?><!DOCTYPE svg PUBLIC "-//W3C//DTD SVG 1.1//EN" "http://www.w3.org/Graphics/SVG/1.1/DTD/svg11.dtd"><svg t="1591351791892" class="icon" viewBox="0 0 1024 1024" version="1.1" xmlns="http://www.w3.org/2000/svg" p-id="21600" xmlns:xlink="http://www.w3.org/1999/xlink" width="50" height="50"><defs><style type="text/css"></style></defs><path d="M502.214779 368.408414c-6.251838 0-11.367642-5.115804-11.367642-11.367641V188.47954c0-6.251838 2.983611-15.523776 6.628894-20.603091 0 0 7.188398-10.013888 24.562183-11.974581 17.372569-1.960693 28.012857-1.010754 28.012857-1.010754 6.227512 0.555854 16.434793 0.791818 22.68055 0.52423 0 0 13.046151-0.558287 24.289729 28.942118 11.243578 29.500405 1.640803 172.708853 1.640803 172.708853-0.418411 6.238459-5.875998 11.342099-12.129052 11.342099h-84.318322zM193.472496 420.709784c0-6.68971 5.473399-12.163109 12.16311-12.163109h678.376738c6.68971 0 11.762943 5.458803 11.273986 12.130269l-7.216373 98.439691c-0.488957 6.671465-6.362522 12.098645-13.052233 12.059723L205.635606 527.246457c-6.68971-0.038922-12.163109-5.545161-12.16311-12.234871V420.709784z" fill="#666666" p-id="21601"></path><path d="M885.239601 330.326936H627.391417c-6.68971 0-12.163109-5.473399-12.163109-12.163109V159.925425c0-42.604939-35.733999-77.459545-79.416589-77.459545H488.172469c-43.687456 0-79.426319 34.854606-79.426319 77.459545v158.238402c0 6.68971-5.473399 12.163109-12.163109 12.163109H138.739721c-17.474739 0-31.771258 13.94987-31.771257 30.992818v154.903278c0 17.052679 14.296519 30.995251 31.771257 30.995251h3.71583c6.68971 0 12.163109 5.473399 12.163109 12.163109v227.180121c0 68.165713-15.878939 124.71444-15.878939 124.71444 0 17.038083 14.291653 30.987953 31.761527 30.987953h682.971961c17.474739 0 31.766392-13.954735 31.766392-30.987953 0 0-15.881372-58.871881-15.881371-127.812384v-224.080961c0-6.68971 5.473399-12.163109 12.163109-12.163109h3.718262c17.474739 0 31.766392-13.943788 31.766393-30.986737V361.319754c0-17.047814-14.286788-30.992819-31.766393-30.992818z m-10.196334 160.467899c0 8.519042-7.145827 15.493368-15.881372 15.493369H164.818644c-8.741627 0-15.887453-6.974327-15.887453-15.493369v-104.042019c0-8.523907 7.145827-15.493368 15.887453-15.493369h273.727123c6.68971 0 12.163109-5.473399 12.163109-12.163109V167.669677c0-30.208298 24.625431-44.272501 55.593924-44.272502h11.376156c30.968492 0 55.58176 14.064203 55.58176 44.272502v191.426661c0 6.68971 5.473399 12.163109 12.163109 12.163109h273.739287c8.735545 0 15.881372 6.969462 15.881371 15.493369v104.042019z m-192.314568 203.598285h-7.941294c-6.350359 0-11.911333 5.417449-11.911333 11.616986v183.154531c0 6.68971-5.473399 12.163109-12.163109 12.163109h-102.738135c-6.68971 0-12.163109-5.473399-12.163109-12.163109V706.010106c0-6.199537-5.551243-11.616986-11.916198-11.616986h-7.936429c-6.349143 0-11.907684 5.417449-11.907684 11.616986v183.154531c0 6.68971-5.473399 12.163109-12.163109 12.163109h-110.679428c-6.68971 0-12.163109-5.473399-12.16311-12.163109V706.010106c0-6.199537-5.559757-11.616986-11.921063-11.616986h-7.933996c-6.352792 0-11.916198 5.417449-11.916198 11.616986v183.154531c0 6.68971-5.473399 12.163109-12.163109 12.163109H192.855827c-6.68971 0-10.370267-5.171754-8.179691-11.491706 0 0 11.900386-34.329159 11.900386-103.272095V559.382608c0-6.68971 5.473399-12.163109 12.163109-12.163109H815.238475c6.68971 0 12.163109 5.473399 12.16311 12.163109v227.180121c0 68.944152 11.894304 103.270879 11.894304 103.270879 2.18936 6.321168-1.492413 11.492922-8.182124 11.492922H706.803141c-6.68971 0-12.163109-5.473399-12.16311-12.16311V706.010106c0-6.199537-5.551243-11.616986-11.911332-11.616986z m0 0" fill="#666666" p-id="21602"></path></svg>