<?xml version="1.0" standalone="no"?><!DOCTYPE svg PUBLIC "-//W3C//DTD SVG 1.1//EN" "http://www.w3.org/Graphics/SVG/1.1/DTD/svg11.dtd"><svg t="1584433087108" class="icon" viewBox="0 0 1024 1024" version="1.1" xmlns="http://www.w3.org/2000/svg" p-id="7909" width="16" height="16" xmlns:xlink="http://www.w3.org/1999/xlink"><defs><style type="text/css"></style></defs><path d="M888.1152 784.896C830.5152 740.0448 664.576 665.6 664.576 665.6l-107.8272 198.144-15.9744-47.1552 29.4912-59.5968-59.0336-59.5968-59.0336 59.5968 29.5424 59.5968-19.0464 48.3328L357.8368 665.6s-165.9904 74.496-223.5904 119.296S51.2 965.7856 51.2 965.7856h921.6s-16.896-128.1024-84.6848-180.8896z m-371.456-136.3456c135.3216-0.2048 225.4848-180.1728 225.4848-277.0432 0-96.8704-0.3584-269.1072-225.4848-269.1072-225.0752 0-225.4848 172.2368-225.4848 269.1072 0 96.8704 90.2144 277.248 225.4848 277.0432z" p-id="7910" fill="#5183c3"></path></svg>