<?xml version="1.0" standalone="no"?><!DOCTYPE svg PUBLIC "-//W3C//DTD SVG 1.1//EN" "http://www.w3.org/Graphics/SVG/1.1/DTD/svg11.dtd"><svg t="1584433768006" class="icon" viewBox="0 0 1024 1024" version="1.1" xmlns="http://www.w3.org/2000/svg" p-id="3567" xmlns:xlink="http://www.w3.org/1999/xlink" width="16" height="16"><defs><style type="text/css"></style></defs><path d="M768 852.48H299.52a97.92 97.92 0 0 1-97.92-97.92v-339.2h64v339.2a33.92 33.92 0 0 0 33.92 33.92H768a33.92 33.92 0 0 0 33.92-33.92v-211.2h64v211.2A97.92 97.92 0 0 1 768 852.48z" fill="#1296db" p-id="3568"></path><path d="M840.32 387.84l-165.76-141.44V332.8h-12.8a337.28 337.28 0 0 0-336.64 325.76 337.28 337.28 0 0 1 307.2-198.4 300.16 300.16 0 0 1 42.88 3.2v64z" fill="#1296db" p-id="3569"></path></svg>