<?xml version="1.0" encoding="utf-8"?>
<!-- Generator: Adobe Illustrator 18.1.1, SVG Export Plug-In . SVG Version: 6.00 Build 0)  -->
<svg version="1.1" id="图层_1" xmlns="http://www.w3.org/2000/svg" xmlns:xlink="http://www.w3.org/1999/xlink" x="0px" y="0px"
	 viewBox="0 0 12 12" enable-background="new 0 0 12 12" xml:space="preserve">
<g>
	<path fill="#0092FF" d="M11.2,0.4H3.3C3.1,0.4,3,0.5,3,0.7V1c0,0.1,0.1,0.2,0.2,0.2h7c0.4,0,0.7,0.3,0.7,0.7v7.7
		c0,0.2,0.1,0.3,0.3,0.3h0.2c0.2,0,0.3-0.1,0.3-0.3V1C11.8,0.7,11.5,0.4,11.2,0.4z M9.8,2H1C0.7,2,0.6,2.2,0.6,2.4v8.8
		c0,0.2,0.2,0.4,0.4,0.4h8.8c0.2,0,0.4-0.2,0.4-0.4V2.4C10.2,2.2,10,2,9.8,2z M8.6,6.8c0,0.3-0.3,0.6-0.6,0.6H6v2
		C6,9.7,5.7,10,5.4,10S4.8,9.7,4.8,9.4v-2h-2c-0.3,0-0.6-0.3-0.6-0.6c0-0.3,0.3-0.6,0.6-0.6h2v-2c0-0.3,0.3-0.6,0.6-0.6S6,3.9,6,4.2
		v2h2C8.3,6.2,8.6,6.5,8.6,6.8z"/>
</g>
</svg>
