<svg id="图层_1" data-name="图层 1" xmlns="http://www.w3.org/2000/svg" viewBox="0 0 153.84 200"><defs><style>.cls-1{fill:#f54c3c;}.cls-2{fill:#fff;}</style></defs><title>主动安全</title><g id="主动安全"><path class="cls-1" d="M100.5,0C143,0,177.39,34,177.42,76a75,75,0,0,1-11.71,40.3c-.2.39-.4.77-.62,1.15-8.08,14-28.5,31.59-41.66,47.9A164.12,164.12,0,0,0,102,199.43a2.24,2.24,0,0,1-1.64.56,2.28,2.28,0,0,1-1.31-.56A234.33,234.33,0,0,0,74.87,162.7c-12.16-15.28-30.75-31.71-39-45.24-.26-.46-.52-.91-.77-1.37A74.9,74.9,0,0,1,23.58,76C23.58,34,58,0,100.5,0Z" transform="translate(-23.58)"/><circle class="cls-2" cx="76.92" cy="77.25" r="66"/><path class="cls-1" d="M126.36,49.52,98.63,44.23,70.89,49.52H68.25V83.85c0,2.64,0,4,1.32,6.61a18.22,18.22,0,0,0,4,5.28L78.82,101c2.64,1.32,4,2.64,6.6,4s4,2.64,6.6,4a10,10,0,0,0,5.28,1.32H100c1.32,0,2.64-1.32,5.28-1.32,2.64-1.33,4-1.33,6.6-4,2.64-1.32,4-2.64,6.6-4s4-4,5.29-5.28,2.64-4,4-5.28c1.32-2.64,1.32-4,1.32-6.61V49.52Zm-4,34.33a10,10,0,0,1-1.32,5.29c-1.32,1.32-1.32,2.64-2.65,4l-4,4c-1.32,1.32-4,2.64-5.28,4s-4,1.32-5.28,2.64S100,105,98.63,105V74.61H73.53V53.48l23.77-4V74.61h23.78l1.32,9.24Z" transform="translate(-23.58)"/></g></svg>