<?xml version="1.0" standalone="no"?><!DOCTYPE svg PUBLIC "-//W3C//DTD SVG 1.1//EN" "http://www.w3.org/Graphics/SVG/1.1/DTD/svg11.dtd"><svg t="1592480771092" class="icon" viewBox="0 0 1024 1024" version="1.1" xmlns="http://www.w3.org/2000/svg" p-id="15475" width="50" height="50" xmlns:xlink="http://www.w3.org/1999/xlink"><defs><style type="text/css"></style></defs><path d="M192.0056 0c83.582537 0 154.749292 53.439065 181.11683 127.99776h304.634669C798.202991 127.99776 895.99328 228.476002 895.99328 351.99384 895.99328 475.703675 798.26699 575.98992 677.757099 575.98992H346.242901c-51.583097 0-93.438365 42.623254-93.438365 95.99832 0 52.991073 42.495256 95.99832 93.438365 95.99832h304.634669a192.060639 192.060639 0 1 1 0.063999 127.99776h-304.634669C225.73301 895.98432 128.00672 795.698075 128.00672 671.98824 128.00672 548.470402 225.73301 447.99216 346.242901 447.99216h331.514198c50.943108 0 93.438365-43.007247 93.438365-95.99832 0-53.375066-41.855268-95.99832-93.438365-95.99832H373.12243A192.060639 192.060639 0 1 1 192.0056 0z m639.9888 767.98656a63.99888 63.99888 0 1 0 0 127.99776 63.99888 63.99888 0 0 0 0-127.99776zM192.0056 127.99776a63.99888 63.99888 0 1 0 0 127.99776 63.99888 63.99888 0 0 0 0-127.99776z" fill="#148ae7" p-id="15476"></path></svg>