<svg id="图层_1" data-name="图层 1" xmlns="http://www.w3.org/2000/svg" viewBox="0 0 153.84 200"><defs><style>.cls-1{fill:#02cfb4;}.cls-2{fill:#fff;}</style></defs><title>图片</title><g id="图片"><path class="cls-1" d="M100.5,0C143,0,177.39,34,177.42,76a75,75,0,0,1-11.71,40.3c-.2.39-.4.77-.62,1.15-8.08,14-28.5,31.59-41.66,47.9A164.12,164.12,0,0,0,102,199.43a2.24,2.24,0,0,1-1.64.56,2.28,2.28,0,0,1-1.31-.56A234.33,234.33,0,0,0,74.87,162.7c-12.16-15.28-30.75-31.71-39-45.24-.26-.46-.52-.91-.77-1.37A74.9,74.9,0,0,1,23.58,76C23.58,34,58,0,100.5,0Z" transform="translate(-23.58)"/><circle class="cls-2" cx="76.92" cy="77.25" r="66"/><path class="cls-1" d="M124.5,43H74.16a8.72,8.72,0,0,0-8.72,8.72V93a2.68,2.68,0,0,0,0,1.32v2.24a8.71,8.71,0,0,0,8.72,8.72H124.5a8.72,8.72,0,0,0,8.72-8.72V51.72A8.73,8.73,0,0,0,124.5,43ZM74.16,48.31H124.5a3.42,3.42,0,0,1,3.41,3.41V84.84a58.08,58.08,0,0,0-6.85-7.9,6.2,6.2,0,0,0-5.32-1.67c-3.17.45-6.64,3.09-10.6,8-1,1.17-1.8,2.35-2.5,3.35C99.15,81.85,92.28,73,86.46,68.86A6.11,6.11,0,0,0,80.83,68c-2.14.7-4.22,2.52-6.35,5.55A51,51,0,0,0,70.73,80V51.72A3.42,3.42,0,0,1,74.16,48.31Z" transform="translate(-23.58)"/></g></svg>