<svg id="图层_1" data-name="图层 1" xmlns="http://www.w3.org/2000/svg" viewBox="0 0 196.57 196.62"><defs><style>.cls-1{fill:#148ae7;}</style></defs><path class="cls-1" d="M94.51,61.39h-.29a38.52,38.52,0,0,0,0,77h.15a39.85,39.85,0,0,0,29-12.49,34.49,34.49,0,0,0,9.48-26A38.34,38.34,0,0,0,94.51,61.39Zm-.15,62.55a24.05,24.05,0,1,1-.07-48.1h.07c9,0,17.16,4.89,20,12a25.82,25.82,0,0,1,0,24.16A22.1,22.1,0,0,1,94.36,123.94Zm102.2,29.49a6.09,6.09,0,0,1,1.67,4.86v1.39a5.87,5.87,0,0,1-6.53,6.53H155.53a5.88,5.88,0,0,1-6.54-6.53v-1.39a5.88,5.88,0,0,1,6.54-6.54H191.7A6.08,6.08,0,0,1,196.56,153.43Zm1.67-20.18v1.39a5.87,5.87,0,0,1-6.53,6.54H155.53a5.88,5.88,0,0,1-6.54-6.54v-1.39a5.88,5.88,0,0,1,6.54-6.53H191.7a5.87,5.87,0,0,1,6.53,6.53Zm-1.67,45.21a6.1,6.1,0,0,1,1.67,4.86v1.39a5.88,5.88,0,0,1-6.53,6.55H155.53a5.9,5.9,0,0,1-6.54-6.55v-1.39a6.08,6.08,0,0,1,1.68-4.86l.29-.28h.4a4.26,4.26,0,0,0,1.66-.6,5.7,5.7,0,0,1,2.51-.79H191.7A6.1,6.1,0,0,1,196.56,178.46ZM153.13,50.74l-11.69,7.31-.55-.63c-7.55-8.81-18.13-14.79-31.45-17.77l-.76-.17V23.41a9.78,9.78,0,0,0-2.5-4.87,9.76,9.76,0,0,0-4.87-2.49H88.82a5.6,5.6,0,0,0-6,6V38l-.69.2c-13.48,4-23,10.63-33,19.28l-.54.47L37.09,50.81H35.68l-.24-.16a6.44,6.44,0,0,0-4.92-1.18,7.86,7.86,0,0,0-4.81,3.64L20.08,64.33l-.11.11a4.47,4.47,0,0,0-1,4.25,5.25,5.25,0,0,0,3.41,3.86l.22.08,1.47,1.47,11.65,7.27-.18.69c-1.25,5-2.75,12.06-2.75,17.84s1.5,12.83,2.75,17.85l.18.69L24.06,125.7l-1.47,1.48-.22.07A5.26,5.26,0,0,0,19,131.13a4.43,4.43,0,0,0,1,4.23l.14.18,7,11.13a6.34,6.34,0,0,0,8.32,2.5l1.45-1.42,11.83-7.39.55.64c7.55,8.81,18.14,14.79,31.45,17.74l.76.17V175a9.77,9.77,0,0,0,2.5,4.9l.18.24c1.37,2.75,2.51,3.63,4.69,3.63h12.5a9.76,9.76,0,0,0,4.87-2.49c1.34-1.34,2.5-2.49,2.5-4.87V160.28l.81-.14c7.22-1.23,13.75-4.51,21.82-10.95l1.59-1.27v17.92l-.54.27c-.82.41-1.8,1-2.84,1.55a55.54,55.54,0,0,1-7.76,3.84v10.43a16.76,16.76,0,0,1-4.34,11.7c-1.8,3.36-6.6,4.56-10.53,4.56H83.27a16.78,16.78,0,0,1-11.83-4.45A16.69,16.69,0,0,1,67,181.93V171.47a84.44,84.44,0,0,1-20-12l-9.16,5.23a16.52,16.52,0,0,1-13,1.79,14.84,14.84,0,0,1-9.15-7.76L3.07,137.8c-3.24-8.12-.78-16.62,6-20.67l9.15-5.23a69.12,69.12,0,0,1,0-22.71L9,82.59c-7.23-4.33-9-13-4.45-22.07L15.66,41A16.77,16.77,0,0,1,26,33.49a15.56,15.56,0,0,1,11.85,1.59l9.07,5.19c4.56-4.36,11.29-8.39,20-12V17.84A16.75,16.75,0,0,1,71.4,6,16.72,16.72,0,0,1,83.23,1.57h23.6a16.5,16.5,0,0,1,16.3,16.27V28.3a84.15,84.15,0,0,1,20,12l9.16-5.24c7.28-4.37,17.65-1.61,22.16,5.91l12.53,20.86c4.37,7.32,1.62,17.69-5.9,22.2l-.16.08L170.51,88a60.56,60.56,0,0,1-.15,21.81l-.15.79H155.77l.16-1.11c1.55-10.79,1.09-20.21-1.38-28.79l-.2-.71,11.76-7.34L169,71.22a6.32,6.32,0,0,0,2.35-8.4l-6.95-11.06a6.33,6.33,0,0,0-8.44-2.43Z" transform="translate(-1.66 -1.57)"/></svg>