<?xml version="1.0" encoding="utf-8"?>
<!-- Generator: Adobe Illustrator 22.0.0, SVG Export Plug-In . SVG Version: 6.00 Build 0)  -->
<svg version="1.1" id="图层_1" xmlns="http://www.w3.org/2000/svg" xmlns:xlink="http://www.w3.org/1999/xlink" x="0px" y="0px"
	 viewBox="0 0 50 50" style="enable-background:new 0 0 50 50;" xml:space="preserve">
<style type="text/css">
	.st0{fill:#148AE7;}
</style>
<path class="st0" d="M37.4,7.9c-0.9-0.9-2.2-0.9-3.1,0l-28,28.7c-0.9,0.9-0.9,2.3,0,3.2c0.9,0.9,2.2,0.9,3.1,0l28.1-28.8
	C38.3,10.1,38.3,8.8,37.4,7.9z M6.2,33.5l2.6-2.7c-1.2-1.1-2.4-2.3-3.6-3.7c-0.3-0.5-0.3-1.1,0-1.6c5.8-6.8,12.3-9.7,18.5-10
	l4.2-4.3c-1-0.1-2-0.2-3.1-0.2C16.9,10.9,8.6,15,1,24.7c-0.7,0.8-0.7,2,0,2.8C2.7,30,4.4,31.9,6.2,33.5z M35.2,13.4L32,16.7
	c4.3,1.5,8.5,4.3,12.6,8.9c0.3,0.5,0.3,1.1,0,1.6c-6.2,7.1-13.1,10-19.6,10c-3.4,0-6.9-0.8-10.4-2.6l-3,3c4.4,2.7,8.9,4,13.3,4
	c7.9,0,16.2-4.1,23.8-13.8c0.7-0.8,0.7-2,0-2.8C44.2,19.3,39.7,15.5,35.2,13.4z"/>
<path class="st0" d="M25,28.2c-1.5,0-2.7-0.9-3.2-2.4l-3.3,3.3c1.4,2.1,3.8,3.4,6.5,3.4c4.3,0,7.8-3.5,7.8-7.8
	c0-2.7-1.4-5.1-3.4-6.5L26,21.7c1.4,0.4,2.4,1.7,2.4,3.2C28.3,26.7,26.9,28.2,25,28.2z"/>
</svg>
