<?xml version="1.0" standalone="no"?><!DOCTYPE svg PUBLIC "-//W3C//DTD SVG 1.1//EN" "http://www.w3.org/Graphics/SVG/1.1/DTD/svg11.dtd"><svg t="1585296322574" class="icon" viewBox="0 0 1024 1024" version="1.1" xmlns="http://www.w3.org/2000/svg" p-id="9431" xmlns:xlink="http://www.w3.org/1999/xlink" width="16" height="16"><defs><style type="text/css"></style></defs><path d="M552.960819 953.884223h-59.40997v-84.834984c0-17.443243-14.146157-31.56177-31.575073-31.56177-17.458592 0-31.576096 14.118527-31.576096 31.56177v84.834984h-59.402806c-17.443243 0-31.575073 14.132854-31.575073 31.575073 0 17.415613 14.132854 31.56177 31.575073 31.56177h181.963945c17.444266 0 31.576096-14.146157 31.576096-31.56177 0-17.443243-14.13183-31.575073-31.576096-31.575073zM727.142535 271.886797c21.585578-21.564088 21.585578-56.550857 0-78.122109-21.558972-21.564088-56.529368-21.564088-78.10062 0-21.543622 21.571252-21.543622 56.558021 0 78.122109 21.570228 21.543622 56.540624 21.543622 78.10062 0zM902.870464 671.393948l-39.113755-39.113755c-0.731662-0.930183-1.40909-1.916649-2.281968-2.79055l-265.821673-265.813487 20.008666-20.021969c12.342071-12.328768 12.342071-32.322085 0-44.650853-12.344118-12.321605-32.322085-12.321605-44.63755 0.007163l-20.02197 20.020946L285.131423 53.196466c-0.760315-0.782828-1.662869-1.359971-2.493793-2.035352l-34.929464-34.936627c-12.314442-12.328768-32.322085-12.321605-44.63755-0.007163-12.343095 12.335932-12.343095 32.322085 0 44.650854l15.753767 15.781396c-69.096566 79.734836-106.94347 180.450478-106.94347 287.033745 0 117.283959 45.680297 227.537818 128.613982 310.471504 82.962338 82.933685 193.215174 128.613982 310.507319 128.613982 106.563825 0 207.279466-37.831555 287.026582-106.942447l20.191838 20.205141c6.171547 6.170524 14.244394 9.242483 22.31724 9.242483 8.102522 0 16.177415-3.071959 22.33259-9.242483 12.329792-12.329792 12.329792-32.323108 0-44.637551z m-152.240029 10.919679L417.3239 349.000951c-8.228389-8.221226-21.543622-8.221226-29.772011 0-8.214062 8.214062-8.214062 21.550785 0 29.764848l324.709757 324.697478c-49.766351 23.642419-104.563265 36.154359-161.260455 36.154359-100.426046 0-194.828924-39.113755-265.869768-110.12697-70.999912-70.985586-110.12697-165.388464-110.12697-265.807347 0-56.726866 12.525243-111.521733 36.183012-161.280921l94.417204 94.417205a21.012527 21.012527 0 0 0 14.893168 6.164384c5.368254 0 10.76516-2.065028 14.864517-6.164384 8.229412-8.214062 8.229412-21.550785 0-29.764848L232.322789 164.021329c9.357093-14.84405 19.74056-29.116073 31.195427-42.685086l529.816748 529.796283c-13.569013 11.469193-27.841036 21.840381-42.704529 31.181101z" p-id="9432" fill="#1296db"></path></svg>