<?xml version="1.0" standalone="no"?><!DOCTYPE svg PUBLIC "-//W3C//DTD SVG 1.1//EN" "http://www.w3.org/Graphics/SVG/1.1/DTD/svg11.dtd"><svg t="1600743461502" class="icon" viewBox="0 0 1024 1024" version="1.1" xmlns="http://www.w3.org/2000/svg" p-id="3589" xmlns:xlink="http://www.w3.org/1999/xlink" width="50" height="50"><defs><style type="text/css"></style></defs><path d="M128 256H64v128h64V256z m128-128h128V64H256v64z m192 0h128V64H448v64zM256 960h128v-64H256v64z m192 0h128v-64H448v64z m320-896h-128v64h128V64zM128 448H64v128h64V448z m0 192H64v128h64v-128z m768-256h64V256h-64v128z m0 192h64V448h-64v128zM64 192h64c0-38.4 25.6-64 64-64V64c-70.4 0-128 57.6-128 128z m64 640H64c0 70.4 57.6 128 128 128v-64c-38.4 0-64-25.6-64-64zM896 192h64c0-70.4-57.6-128-128-128v64c38.4 0 64 25.6 64 64z" fill="#469eff" p-id="3590"></path><path d="M710.4 627.2l121.6 64-44.8 25.6 38.4 57.6 57.6 89.6-32 19.2-64-96-32-51.2-51.2 25.6 6.4-134.4m-32-83.2c-19.2 0-32 12.8-32 32l-6.4 236.8c0 19.2 12.8 32 32 32 6.4 0 12.8 0 19.2-6.4l38.4-19.2 76.8 121.6c6.4 6.4 12.8 19.2 25.6 19.2 6.4 0 12.8 0 19.2-6.4l96-57.6c12.8-6.4 19.2-25.6 6.4-38.4l-76.8-121.6 32-19.2c25.6-12.8 25.6-51.2 0-57.6l-211.2-108.8c-6.4-6.4-12.8-6.4-19.2-6.4z" fill="#469eff" p-id="3591"></path></svg>