<?xml version="1.0" standalone="no"?><!DOCTYPE svg PUBLIC "-//W3C//DTD SVG 1.1//EN" "http://www.w3.org/Graphics/SVG/1.1/DTD/svg11.dtd"><svg t="1587026332144" class="icon" viewBox="0 0 1024 1024" version="1.1" xmlns="http://www.w3.org/2000/svg" p-id="4124" xmlns:xlink="http://www.w3.org/1999/xlink" width="200" height="200"><defs><style type="text/css"></style></defs><path d="M395.636364 477.090909h512a34.909091 34.909091 0 1 1 0 69.818182H395.636364a34.909091 34.909091 0 1 1 0-69.818182zM128 162.909091a34.909091 34.909091 0 1 1 0-69.818182h791.272727a34.909091 34.909091 0 1 1 0 69.818182h-791.272727z m791.272727 698.181818a34.909091 34.909091 0 1 1 0 69.818182h-791.272727a34.909091 34.909091 0 1 1 0-69.818182h791.272727zM294.562909 357.073455v309.829818L93.090909 512l201.472-154.926545z" fill="#707070" p-id="4125"></path></svg>