<?xml version="1.0" standalone="no"?><!DOCTYPE svg PUBLIC "-//W3C//DTD SVG 1.1//EN" "http://www.w3.org/Graphics/SVG/1.1/DTD/svg11.dtd"><svg t="1597220590421" class="icon" viewBox="0 0 1024 1024" version="1.1" xmlns="http://www.w3.org/2000/svg" p-id="11150" xmlns:xlink="http://www.w3.org/1999/xlink" width="50" height="50"><defs><style type="text/css"></style></defs><path d="M109.2 771.2c0 100.3 55.7 106.8 109.3 106.8h586.8c84.1 0 110.2-28.7 110.2-109.2v-54.5c0-43.1-54.8-38.2-54.8 0v54.6c0 40.4-13.2 54.6-55.4 54.6H218.5c-45.2 0-54.6-6.1-54.6-54.6" p-id="11151" fill="#409eff"></path><path d="M915.1 770.1c0 100.3-55.7 106.8-109.3 106.8H219c-84.1 0-110.2-28.7-110.2-109.2v-54.5c0-43.1 54.8-38.2 54.8 0v54.6c0 40.4 13.2 54.6 55.4 54.6h586.8c45.2 0 54.6-6.1 54.6-54.6" p-id="11152" fill="#409eff"></path><path d="M733.1 750H296.7c-18.3 0-33.1-14.8-33.1-33.1s14.8-33.1 33.1-33.1h436.5c18.3 0 33.1 14.8 33.1 33.1-0.1 18.2-14.9 33.1-33.2 33.1zM586.2 375.4v211.3c0 7.1-5.7 12.8-12.8 12.8h-128c-7.1 0-12.8-5.7-12.8-12.8V375.4H284.1c-5.3 0.1-10.1-3-12.1-7.9s-0.9-10.5 2.9-14.2l225.3-224.8c5-4.9 12.9-4.9 17.9 0l225.3 225.3c3.8 3.7 5 9.3 2.9 14.2-2 4.9-6.9 8-12.1 7.9l-148-0.5z m0 0" p-id="11153" fill="#409eff"></path></svg>