<?xml version="1.0" standalone="no"?><!DOCTYPE svg PUBLIC "-//W3C//DTD SVG 1.1//EN" "http://www.w3.org/Graphics/SVG/1.1/DTD/svg11.dtd"><svg t="1589966680620" class="icon" viewBox="0 0 1024 1024" version="1.1" xmlns="http://www.w3.org/2000/svg" p-id="2290" width="16" height="16" xmlns:xlink="http://www.w3.org/1999/xlink"><defs><style type="text/css"></style></defs><path d="M481.835 545.835A42.539 42.539 0 0 1 512 533.333a128 128 0 1 0-128-128 42.667 42.667 0 0 1-85.333 0 213.333 213.333 0 1 1 256 209.067v46.933a42.667 42.667 0 0 1-85.334 0V576c0-11.776 4.779-22.443 12.502-30.165zM512 1024C229.248 1024 0 794.752 0 512S229.248 0 512 0s512 229.248 512 512-229.248 512-512 512z m0-85.333c235.648 0 426.667-191.019 426.667-426.667S747.648 85.333 512 85.333 85.333 276.352 85.333 512 276.352 938.667 512 938.667zM512 832a42.667 42.667 0 1 1 0-85.333A42.667 42.667 0 0 1 512 832z" p-id="2291" fill="#666666"></path></svg>