<?xml version="1.0" standalone="no"?><!DOCTYPE svg PUBLIC "-//W3C//DTD SVG 1.1//EN" "http://www.w3.org/Graphics/SVG/1.1/DTD/svg11.dtd"><svg t="1609326024832" class="icon" viewBox="0 0 1024 1024" version="1.1" xmlns="http://www.w3.org/2000/svg" p-id="13429" xmlns:xlink="http://www.w3.org/1999/xlink" width="50" height="50"><defs><style type="text/css"></style></defs><path d="M388.309333 122.282667c0 56.917333 47.36 103.04 105.728 103.04s105.685333-46.122667 105.685334-103.04S552.405333 19.2 494.08 19.2C435.626667 19.2 388.266667 65.365333 388.266667 122.282667z m176.682667 148.650666H427.52c-46.464 0-88.192 16.512-117.845333 42.837334v265.813333H413.013333l22.229334 312.234667h126.464l21.504-312.234667h104.917333V318.762667c-29.866667-29.226667-73.856-47.786667-123.136-47.786667z" fill="#148ae7" p-id="13430"></path><path d="M659.370667 702.72v54.357333c117.205333 16.896 197.717333 51.925333 197.717333 92.416 0 57.258667-160.384 103.509333-358.144 103.509334s-358.229333-46.250667-358.229333-103.509334c0-40.618667 81.066667-75.733333 199.082666-92.714666v-54.272C143.914667 723.2 2.816 781.141333 2.816 849.493333c-0.128 85.76 222.122667 155.306667 496.042667 155.306667 273.92 0 496.128-69.546667 496.128-155.221333 0-68.266667-140.416-125.952-335.616-146.858667z" fill="#148ae7" p-id="13431"></path></svg>