<?xml version="1.0" standalone="no"?><!DOCTYPE svg PUBLIC "-//W3C//DTD SVG 1.1//EN" "http://www.w3.org/Graphics/SVG/1.1/DTD/svg11.dtd"><svg t="1609119497782" class="icon" viewBox="0 0 1251 1024" version="1.1" xmlns="http://www.w3.org/2000/svg" p-id="8916" xmlns:xlink="http://www.w3.org/1999/xlink" width="61.083984375" height="50"><defs><style type="text/css"></style></defs><path d="M969.748687 539.254949c-34.755232-76.127677-69.509172-153.910303-104.263111-231.692929-6.619798-14.894545-14.894545-19.859394-31.442748-19.859394H407.065859c-16.549495 0-23.169293 6.619798-29.789091 21.514344-33.09899 77.782626-66.19798 155.565253-97.642021 233.347878-3.311192 9.929697-6.619798 21.514343-6.619798 31.442748v238.312727c0 23.169293 1.653657 24.824242 26.477899 24.824243H949.888c28.134141 0 28.134141 0 28.134141-28.135435V577.320081c0.001293-13.240889-3.308606-26.480485-8.273454-38.065132zM408.720808 319.146667c0-14.894545 4.964848-18.204444 18.204445-18.204445h398.842828c13.239596 0 18.204444 4.964848 18.204444 18.204445 0 38.063838-1.654949 76.127677 0 114.191515 0 16.549495-6.619798 21.514343-23.169293 21.514343H625.519192c-66.19798 0-132.39596 0-196.93899 1.65495-13.238303 0-19.858101-3.309899-19.858101-18.204445v-119.156363z m-49.648485 236.657777c-21.514343 1.654949-44.683636 0-72.817778 0 34.755232-84.402424 67.852929-163.84 100.95192-243.277575 1.654949 1.654949 3.311192 1.654949 4.966141 1.654949 1.653657 6.619798 1.653657 11.584646 1.653657 18.204445 0 29.789091-1.653657 57.923232 0 86.057373 3.311192 41.373737-4.964848 81.092525-19.858101 120.811313-1.656242 6.619798-9.93099 16.549495-14.895839 16.549495z m415.392323 0c-18.204444-1.653657-24.824242 4.964848-26.479191 24.824243-1.654949 64.54303-59.578182 115.847758-125.776162 115.847757-67.851636 0-124.119919-51.304727-127.431111-115.847757 0-21.514343-8.273455-24.824242-26.477899-24.824243h-89.367273c9.929697-29.789091 16.549495-56.268283 26.477899-81.092525 1.654949-3.309899 11.584646-6.619798 16.549495-6.619798h402.152727c4.964848 0 14.895838 3.309899 16.549495 8.274748 9.93099 24.824242 18.204444 49.647192 28.135435 79.436283-34.755232 0.001293-62.889374 1.656242-94.333415 0.001292z m124.121213 1.65495c-14.895838 1.654949-19.859394-4.964848-24.824243-18.204445-13.239596-41.373737-23.169293-81.092525-19.859394-124.121212 1.654949-24.824242 0-51.303434 0-76.127676 0-6.619798 1.654949-11.584646 1.65495-16.549495 1.654949-1.654949 3.309899-1.654949 4.964848-1.65495 34.753939 77.782626 69.507879 153.910303 105.916768 235.002828-26.479192 0-46.338586 0-67.852929 1.65495z" p-id="8917" fill="#707070"></path><path d="M545.966545 915.834828c-18.711273 34.748768-42.767515 64.14998-78.851878 82.861253-5.346263 2.672485-12.028121 5.346263-17.374384 4.009374-12.028121-1.335596-22.719354-2.672485-33.411879-5.346263-9.354343-2.672485-16.036202-1.335596-22.719353 6.683151-4.009374 5.34497-12.028121 10.691232-17.374384 10.691233-29.402505-2.671192-57.468121-10.691232-84.196849-24.05495 30.738101 0 57.466828-10.692525 78.850586-32.076283 13.36501-13.363717 25.393131-29.401212 36.084364-45.438707 6.681859-9.355636 9.354343-9.355636 20.046868-5.347555 14.701899 6.681859 30.738101 10.692525 46.776889 12.028121 22.720646 1.336889 46.775596-1.336889 72.17002-4.009374zM0 92.231111c16.384 2.341495 31.596606 5.851798 46.809212 4.681697 15.213899-1.170101 23.405899 4.681697 32.766707 14.042505 36.27701 38.617212 78.405818 66.702222 132.235637 73.724121l3.510303 3.510303c-100.640323 53.831111-180.213657-25.743515-215.321859-95.958626zM954.792081 378.724848c16.549495-3.309899 31.44404-4.964848 46.338586-9.929696 13.239596-6.619798 24.824242-18.204444 38.063838-28.134142-11.584646 43.028687-36.408889 69.507879-69.507879 76.127677-6.619798-13.239596-11.585939-26.479192-14.894545-38.063839zM243.968 135.131798c6.244848 12.134141 8.511354 21.802667 14.001131 30.713535 5.488485 8.912162 14.198949 17.069253 19.688728 25.980122 3.123717 6.067717 1.411879 13.26804 2.067394 23.312808-28.603475-20.490343-42.980848-52.816162-35.757253-80.006465zM1211.249778 355.75596s-12.365576 41.400889-36.560162 47.314747c0 0 30.646303 12.365576 36.560162 42.475313 0 0 4.840727-44.090182 39.787313-45.163313 0.001293 0-38.173737-20.430869-39.787313-44.626747zM944.775758 136.947071l76.348767 34.41002 125.81495-98.929778-95.703919 103.231354 95.703919 31.72202L1199.631515 14.895838 944.775758 136.947071zM1050.695111 199.315394l-5.376 58.605899 32.797737-43.013172-27.421737-15.592727z m-312.919919 303.243636c-19.356444 10.753293-33.873455 16.669737-33.873455 16.669738l3.227152 8.599272c0.537859 0 15.056162-5.911273 34.946586-17.203717l-4.300283-8.065293z m43.013172-29.03402c-9.138424 6.989576-18.280727 13.979152-27.959596 19.894303-2.148848 1.613576-2.686707 4.302869-1.61099 6.451717 1.61099 2.150141 4.300283 2.688 6.451717 1.612283 10.214141-6.451717 19.894303-13.441293 29.035313-20.430869 1.073131-1.075717 2.148848-2.688 1.613576-4.302868 0-1.612283-1.613576-3.225859-2.691879-3.763717-2.148848-0.535273-3.762424-0.535273-4.838141 0.539151z m49.464889-47.314747c-2.148848-1.612283-4.838141-1.075717-6.449132 1.075717-7.527434 10.752-16.131879 20.967434-26.34602 30.646303-1.613576 1.613576-1.613576 4.839434 0 6.451717 1.613576 1.613576 4.838141 1.613576 6.449131 0 10.754586-10.215434 19.896889-20.968727 27.421738-32.261172 0.537859-1.074424 1.078303-2.148848 0.537858-3.224565 0.540444-0.537859-0.537859-1.612283-1.613575-2.688z m20.968727-98.393212c0 1.613576 1.075717 3.227152 2.689293 3.763717 1.613576 0.539152 3.224566 0.539152 4.838141-0.536566 1.073131-1.075717 2.151434-2.688 1.61099-4.300283-2.148848-20.432162-9.676283-36.023596-21.505293-46.241616-2.151434-1.612283-4.835556-1.074424-6.449131 0.539152-1.616162 1.613576-1.616162 4.838141 0.535273 6.451717 10.21802 8.065293 16.667152 22.045737 18.280727 40.323879z m-74.196041-45.701172c0.537859 0 1.075717 0 2.148849-0.537859 12.365576-5.377293 25.810747-6.989576 37.638465-3.76501 2.686707 0.539152 4.838141-0.536566 5.913858-3.224566 0.537859-2.688-0.537859-4.840727-3.227151-5.915151-13.977859-3.763717-29.570586-2.689293-43.551031 3.762424-2.151434 1.07701-3.224566 3.227152-2.686707 5.377293 0.001293 2.689293 1.612283 4.302869 3.763717 4.302869z m-24.73503 46.240323c-1.073131-3.76501-1.073131-7.527434-0.535273-11.291151l4.300283-13.980445c2.151434-3.763717 4.300283-6.988283 6.989576-9.676283 1.61099-1.613576 1.61099-4.839434 0-6.45301-1.613576-1.612283-4.838141-1.612283-6.451717 0-11.827717 12.366869-16.667152 27.959596-12.903435 44.090182 0.537859 2.688 3.224566 3.763717 5.376 3.225859 2.151434-1.07701 3.762424-3.76501 3.224566-5.915152z m1.078303 16.129293c-2.151434 1.612283-2.689293 4.301576-1.078303 6.451717 4.840727 6.989576 11.292444 13.977859 18.821172 20.432162 2.686707 2.150141 5.913859 4.838141 8.600565 6.988283 2.151434 1.614869 4.838141 1.07701 6.451718-1.074425 1.613576-2.151434 1.075717-4.839434-1.073132-6.45301l-8.065293-6.450424c-6.992162-5.915152-12.903434-12.366869-17.20501-18.818586-1.613576-2.151434-4.302869-2.689293-6.451717-1.075717z m72.044606 52.152889c2.151434 0 4.302869-1.613576 4.302869-4.301576 0-2.150141-1.613576-4.301576-3.76501-4.839434-9.138424-1.075717-17.742869-4.300283-26.881293-8.603152-2.15402-1.075717-4.840727 0-5.916445 2.150142-1.073131 2.152727 0 4.840727 2.151435 5.915151 9.678869 4.839434 19.356444 8.065293 29.570586 9.678869h0.537858z m34.41002-11.291152c-1.61099 0.539152-3.759838 1.075717-5.376 1.612283 3.227152-10.752 5.376-22.044444 6.454303-32.797737 0-1.075717-0.540444-2.150141-1.078303-3.225859-0.535273-1.075717-2.148848-1.612283-3.224565-1.612283-2.686707 0-4.838141 1.612283-4.838142 4.300283-1.075717 11.827717-3.224566 23.656727-7.527434 34.947879-1.613576 0-3.762424 0-5.376 0.537859-2.689293 0-4.300283 2.151434-4.300283 4.301575 0 2.689293 2.148848 4.301576 4.840727 4.301576h1.608404c-1.608404 4.302869-3.762424 8.603152-5.911272 12.903434-1.073131 2.150141 0 4.840727 2.148848 5.915152 2.15402 1.075717 4.840727 0.537859 5.916445-1.613576 3.224566-5.913859 5.911273-11.82901 8.062707-17.744161 3.76501-0.537859 7.527434-1.612283 11.289858-2.688 2.689293-0.537859 3.76501-3.225859 3.227152-5.376-0.537859-3.223273-3.227152-4.838141-5.916445-3.762425z m53.767758-31.720727c-10.752 9.139717-20.967434 17.20501-31.72202 22.58101-2.148848 1.075717-3.224566 3.763717-1.61099 6.451717 1.073131 2.151434 3.762424 3.227152 6.449131 1.612283 10.754586-5.915152 22.045737-13.979152 33.335596-23.655434 1.075717-1.07701 1.613576-2.689293 1.613576-4.302869-0.537859-1.612283-1.613576-3.225859-3.224566-3.225858-2.151434-1.074424-3.76501-0.536566-4.840727 0.539151z m46.776889-45.701172c-1.075717-0.539152-2.151434-1.075717-3.224566-1.075717-1.075717 0-2.151434 0.537859-3.227151 1.61099-7.527434 10.216727-15.59402 19.895596-23.656728 27.960889-1.613576 1.612283-1.613576 4.838141 0.537859 6.450424 1.61099 1.613576 4.838141 1.613576 6.451717 0 8.065293-8.601859 16.129293-18.28202 24.194586-29.035313 0.537859-1.074424 1.075717-2.148848 1.075717-3.224566-0.537859-0.536566-1.075717-1.612283-2.151434-2.686707z m37.639757-58.607192c-1.078303-0.537859-2.15402-0.537859-3.227151-0.537858-1.075717 0.537859-2.151434 1.075717-2.689293 2.151434-6.989576 12.904727-15.056162 25.270303-23.118869 37.099313-1.075717 1.61099-1.075717 3.224566-0.537858 4.838142 0.537859 1.613576 2.148848 2.689293 3.762424 2.689293s3.227152-0.539152 4.300283-2.150142c8.067879-12.365576 16.131879-25.271596 23.659313-38.17503 0.537859-1.074424 0.537859-2.151434 0.537858-3.227152-0.537859-1.612283-1.613576-2.150141-2.686707-2.688z m29.030142-58.604606c-1.073131-0.539152-2.148848-0.539152-3.759839 0-1.078303 0.537859-2.15402 1.075717-2.689292 2.688 0 0-5.916444 13.980444-16.131879 34.410021-1.073131 2.151434-0.537859 4.839434 2.151434 5.915151 2.151434 1.075717 4.838141 0.537859 5.913859-2.150141 10.754586-20.430869 16.667152-34.411313 16.667151-34.949172 1.075717-2.150141 0-4.839434-2.151434-5.913859z" p-id="8918" fill="#707070"></path></svg>