<?xml version="1.0" encoding="utf-8"?>
<!-- Generator: Adobe Illustrator 25.0.0, SVG Export Plug-In . SVG Version: 6.00 Build 0)  -->
<svg version="1.1" id="图层_1" xmlns="http://www.w3.org/2000/svg" xmlns:xlink="http://www.w3.org/1999/xlink" x="0px" y="0px"
	 viewBox="0 0 50 50" style="enable-background:new 0 0 50 50;" xml:space="preserve">
<style type="text/css">
	.st0{fill:#148AE7;}
</style>
<g>
	<path class="st0" d="M25.3,22.6H2.4c-1.3,0-2.4,1.1-2.4,2.5c0,1.4,1.1,2.5,2.4,2.5h22.8c1.3,0,2.4-1.1,2.4-2.5
		C27.7,23.7,26.6,22.6,25.3,22.6z"/>
	<path class="st0" d="M19.9,39.6c-0.6-0.5-1.3-0.7-2.1-0.7H3c-1.6,0-3,1.1-3,2.5s1.3,2.4,3,2.4h14.8c1.6,0,3-1.1,3-2.4
		C20.8,40.6,20.5,40,19.9,39.6z"/>
	<path class="st0" d="M49.3,23.6C49.3,23.6,49.3,23.6,49.3,23.6l-7-7c-0.9-0.9-2.5-0.9-3.4,0c-1,1-1,2.5,0,3.4l2.9,2.9
		c-9.6,0.7-17.2,8.7-17.2,18.4c0,1.3,1.1,2.4,2.4,2.4c1.3,0,2.4-1.1,2.4-2.4c0-7,5.4-12.9,12.2-13.6l-2.8,2.8
		c-0.9,0.9-0.9,2.5,0,3.4c1,1,2.5,1,3.4,0l7-7c0.5-0.5,0.7-1.1,0.7-1.7C50,24.6,49.8,24,49.3,23.6z"/>
	<path class="st0" d="M3,11.2h44c1.7,0,3-1.1,3-2.5c0-1.4-1.3-2.5-3-2.5H3c-1.7,0-3,1.1-3,2.5C0,10.1,1.3,11.2,3,11.2z"/>
</g>
</svg>
