<?xml version="1.0" encoding="utf-8"?>
<!-- Generator: Adobe Illustrator 25.0.0, SVG Export Plug-In . SVG Version: 6.00 Build 0)  -->
<svg version="1.1" id="图层_1" xmlns="http://www.w3.org/2000/svg" xmlns:xlink="http://www.w3.org/1999/xlink" x="0px" y="0px"
	 viewBox="0 0 50 50" style="enable-background:new 0 0 50 50;" xml:space="preserve">
<style type="text/css">
	.st0{fill:#148AE7;}
</style>
<g>
	<g>
		<path class="st0" d="M25,27.3c-3.6,0-6.5-2.9-6.5-6.5c0-3.6,2.9-6.5,6.5-6.5s6.5,2.9,6.5,6.5C31.6,24.4,28.6,27.3,25,27.3L25,27.3
			z M25,16.7c-2.2,0-4.1,1.8-4.1,4.1c0,2.2,1.8,4.1,4.1,4.1c2.2,0,4.1-1.8,4.1-4.1C29.1,18.5,27.3,16.7,25,16.7L25,16.7z M25,16.7"
			/>
	</g>
	<g>
		<path class="st0" d="M24.9,15.3c-0.8,0-1.4-0.6-1.4-1.4v-2.1c0-0.8,0.6-1.4,1.4-1.4c0.8,0,1.4,0.6,1.4,1.4v2.1
			C26.3,14.7,25.7,15.3,24.9,15.3L24.9,15.3z M20.1,17.3c-0.4,0-0.7-0.1-1-0.4l-1.5-1.5c-0.5-0.6-0.5-1.4,0-1.9
			c0.6-0.5,1.4-0.5,1.9,0l1.5,1.5c0.5,0.6,0.5,1.4,0,1.9C20.8,17.2,20.5,17.3,20.1,17.3L20.1,17.3z M18.2,22.2H16
			c-0.8,0-1.4-0.6-1.4-1.4c0-0.8,0.6-1.4,1.4-1.4h2.1c0.8,0,1.4,0.6,1.4,1.4C19.5,21.6,18.9,22.2,18.2,22.2L18.2,22.2z M18.7,28.5
			c-0.4,0-0.7-0.1-1-0.4c-0.6-0.6-0.6-1.4,0-1.9l1.5-1.5c0.6-0.6,1.4-0.6,1.9,0c0.6,0.6,0.6,1.4,0,1.9l-1.5,1.5
			C19.4,28.4,19,28.5,18.7,28.5L18.7,28.5z M25.1,31.1c-0.8,0-1.4-0.6-1.4-1.4v-2.1c0-0.8,0.6-1.4,1.4-1.4c0.8,0,1.4,0.6,1.4,1.4
			v2.1C26.4,30.5,25.8,31.1,25.1,31.1L25.1,31.1z M31.4,28.4c-0.4,0-0.7-0.1-1-0.4l-1.5-1.5c-0.6-0.6-0.6-1.4,0-1.9
			c0.6-0.6,1.4-0.6,1.9,0l1.5,1.5c0.6,0.6,0.6,1.4,0,1.9C32.1,28.3,31.7,28.4,31.4,28.4L31.4,28.4z M34,22.1h-2.1
			c-0.8,0-1.4-0.6-1.4-1.4c0-0.8,0.6-1.4,1.4-1.4H34c0.8,0,1.4,0.6,1.4,1.4C35.3,21.5,34.7,22.1,34,22.1L34,22.1z M29.8,17.3
			c-0.4,0-0.7-0.1-1-0.4c-0.6-0.6-0.6-1.4,0-1.9l1.5-1.5c0.6-0.6,1.4-0.6,1.9,0c0.6,0.6,0.6,1.4,0,1.9l-1.5,1.5
			C30.5,17.2,30.1,17.3,29.8,17.3L29.8,17.3z M29.8,17.3"/>
	</g>
	<g>
		<path class="st0" d="M35.2,43H14.8c-1.3,0-2.2,1-2.2,2.2c0,1.3,1,2.2,2.2,2.2h20.4c0.6,0,1.2-0.2,1.6-0.7c0.4-0.4,0.6-1,0.6-1.6
			C37.5,44,36.5,43,35.2,43z"/>
		<path class="st0" d="M47.4,2.5H2.6c-1.3,0-2.2,1-2.2,2.2v31.9c0,1.3,1,2.2,2.2,2.2h44.8c1.3,0,2.2-1,2.2-2.2V4.8
			C49.6,3.5,48.6,2.5,47.4,2.5z M4.9,34.4V7h40.3v27.4H4.9z"/>
	</g>
	<g>
		<path class="st0" d="M24.7,44.7c-1.2,0-2.1-0.5-2.1-1.2v-6.1c0-0.7,0.9-1.2,2.1-1.2c1.2,0,2.1,0.5,2.1,1.2v6.1
			C26.9,44.2,25.9,44.7,24.7,44.7L24.7,44.7z M24.7,44.7"/>
	</g>
</g>
</svg>
