<?xml version="1.0" encoding="utf-8"?>
<!-- Generator: Adobe Illustrator 25.0.0, SVG Export Plug-In . SVG Version: 6.00 Build 0)  -->
<svg version="1.1" id="图层_1" xmlns="http://www.w3.org/2000/svg" xmlns:xlink="http://www.w3.org/1999/xlink" x="0px" y="0px"
	 viewBox="0 0 50 50" style="enable-background:new 0 0 50 50;" xml:space="preserve">
<style type="text/css">
	.st0{fill:#148AE7;}
</style>
<path class="st0" d="M17.4,42.8H6.8c-0.9,0-1.6-0.8-1.6-1.9V7.8c0-1.1,0.7-1.9,1.6-1.9h36.3c0.9,0,1.6,0.8,1.6,1.9v12.6
	c0,1.3,1,2.4,2.2,2.4s2.2-1.1,2.2-2.4V7.8C49.3,6,48.7,4.3,47.5,3c-1.1-1.2-2.7-1.8-4.3-1.8H6.8c-3.4,0-6.2,3-6.2,6.6V41
	c0,3.6,2.8,6.6,6.2,6.6h10.6c1.2,0,2.2-1.1,2.2-2.3c0.1-0.6-0.1-1.2-0.5-1.7C18.7,43.1,18.1,42.8,17.4,42.8z"/>
<path class="st0" d="M37,29.4c-1.2-1-2.6-1.6-4-1.6c-3.3,0-5.9,2.7-5.9,5.9s2.7,5.9,5.9,5.9s5.9-2.7,5.9-5.9
	C38.9,32.1,38.2,30.5,37,29.4z M34.5,35.6c-0.4,0.4-1,0.6-1.6,0.6c-1.3,0-2.3-1-2.3-2.3c0-1.3,1-2.3,2.3-2.3c1.3,0,2.3,1,2.3,2.4
	C35.2,34.5,34.9,35.1,34.5,35.6z"/>
<g>
	<path class="st0" d="M24.1,7.8c-1.6,0-2.8,1.2-2.8,2.8c0,1.5,1.2,2.8,2.8,2.8c1.5,0,2.8-1.2,2.8-2.8C26.8,9,25.6,7.8,24.1,7.8z"/>
	<path class="st0" d="M17,7.8c-1.6,0-2.8,1.2-2.8,2.8c0,1.5,1.2,2.8,2.8,2.8c1.5,0,2.8-1.2,2.8-2.8C19.8,9,18.6,7.8,17,7.8z"/>
	<path class="st0" d="M9.9,7.8c-1.5,0-2.8,1.2-2.8,2.8c0,1.5,1.2,2.8,2.8,2.8c1.5,0,2.8-1.2,2.8-2.8C12.6,9,11.4,7.8,9.9,7.8z"/>
</g>
<path class="st0" d="M45.4,27.2h-1.8l-0.1-0.3l0.9-1.8c1.1-2,0.5-4.3-1.4-5.6l-3.6-2.1c-0.5-0.3-1.2-0.6-1.9-0.6
	c-1.4,0-2.8,0.8-3.4,2l-0.9,1.6H33l-0.9-1.6c-0.8-1.2-2-2-3.3-2c-0.8,0-1.4,0.2-2,0.6l-3.6,2.1c-1.8,1.1-2.4,3.6-1.4,5.6l0.9,1.8
	l-0.1,0.3h-1.8c-2.2,0-3.9,1.8-3.9,4.1v4.4c0,2.3,1.8,4.1,3.9,4.1h1.8l0.1,0.3l-0.9,1.8c-1.1,2-0.5,4.3,1.4,5.6l3.6,2.1
	c0.5,0.3,1.2,0.6,1.9,0.6c1.4,0,2.8-0.8,3.4-2l0.9-1.6h0.2l0.9,1.6c0.8,1.2,2,2,3.3,2c0.8,0,1.4-0.2,2-0.6l3.6-2.1
	c1.8-1.1,2.4-3.6,1.4-5.6L43.5,40l0.1-0.3h1.8c2.2,0,3.9-1.8,3.9-4.1v-4.4C49.4,29,47.6,27.2,45.4,27.2z M40.7,36.9
	c-0.2,0.4-0.4,0.8-0.7,1.2c-0.1,0.2-0.2,0.4-0.3,0.5c-0.4,0.5-0.5,1.4-0.2,2l1.5,2.7c0,0.1,0,0.2,0,0.3c0,0,0,0.1-0.2,0.2l-3.5,2.1
	c-0.1,0-0.2,0.1-0.2,0.1c0,0-0.2,0-0.2-0.1l-1.5-2.7c-0.4-0.6-1-0.9-1.6-0.9h-2.4c-0.7,0-1.2,0.3-1.6,0.9l-1.5,2.7
	C28.3,46,28.2,46,28.1,46l-3.6-2.2c-0.1-0.1-0.1-0.2-0.2-0.3c0-0.1,0-0.2,0.1-0.3l1.5-2.7c0.4-0.8,0.3-1.5-0.2-2
	c-0.4-0.6-0.8-1.2-1-1.8c-0.4-0.9-1.1-1.1-1.6-1.1h-2.9c-0.1,0-0.3-0.2-0.3-0.3v-4.4c0-0.1,0-0.3,0.3-0.3H23c0.7,0,1.5-0.5,1.7-1.1
	c0.2-0.4,0.4-0.8,0.7-1.2c0.1-0.2,0.2-0.3,0.3-0.5c0.4-0.5,0.5-1.4,0.2-2l-1.5-2.7c0-0.1,0-0.2,0-0.3c0,0,0-0.1,0.2-0.2l3.6-2.1
	l0.1,0l0,0c0,0,0.2,0,0.2,0.1l1.5,2.7c0.4,0.6,1,0.9,1.6,0.9h2.4c0.7,0,1.2-0.3,1.6-0.9l1.4-2.6l0.2-0.2l3.6,2.1
	c0.1,0.1,0.1,0.1,0.2,0.3c0,0.1,0,0.2-0.1,0.3L39.4,26c-0.4,0.8-0.3,1.5,0.2,2c0.4,0.6,0.8,1.2,1,1.8c0.4,0.9,1.1,1.1,1.6,1.1h2.9
	c0.1,0,0.3,0.2,0.3,0.3v4.6c0,0-0.1,0-0.2,0h-2.9C41.7,35.8,40.9,36.3,40.7,36.9z"/>
</svg>
