<?xml version="1.0" encoding="utf-8"?>
<!-- Generator: Adobe Illustrator 25.0.0, SVG Export Plug-In . SVG Version: 6.00 Build 0)  -->
<svg version="1.1" id="图层_1" xmlns="http://www.w3.org/2000/svg" xmlns:xlink="http://www.w3.org/1999/xlink" x="0px" y="0px"
	 viewBox="0 0 50 50" style="enable-background:new 0 0 50 50;" xml:space="preserve">
<style type="text/css">
	.st0{fill:#148AE7;}
</style>
<rect x="0.4" y="6.2" class="st0" width="49.6" height="4.2"/>
<rect x="0.4" y="17.2" class="st0" width="27.1" height="4.2"/>
<rect x="0.4" y="28.3" class="st0" width="27.1" height="4.2"/>
<rect x="0.4" y="39.3" class="st0" width="21.8" height="4.2"/>
<g>
	<path class="st0" d="M34,38.3L34,38.3c-0.3,0-0.5,0.1-0.7,0.3c-0.4,0.4-0.4,1,0,1.4l3.5,3.6c0.4,0.4,0.8,0.6,1.4,0.6
		c0.1,0,0.2,0,0.3,0c0.4-0.1,0.7-0.2,1-0.5l3.7-3.6c0.2-0.2,0.3-0.4,0.3-0.7s-0.1-0.5-0.3-0.7s-0.4-0.3-0.7-0.3l0,0l0,0l0,0
		c-0.3,0-0.5,0.1-0.7,0.3l-2.6,2.5V15.6c0-0.3-0.1-0.5-0.3-0.7s-0.5-0.3-0.7-0.3c-0.5,0-0.9,0.4-1,1v25.6l-2.6-2.6
		C34.5,38.4,34.2,38.3,34,38.3z"/>
	<path class="st0" d="M38.1,44.2c-0.7,0-1.3-0.2-1.7-0.7L32.9,40c-0.6-0.6-0.5-1.5,0-2.1c0.3-0.3,0.6-0.4,1-0.4l0,0
		c0.4,0,0.8,0.2,1,0.4l1.7,1.8V15.3c0-0.8,0.6-1.4,1.4-1.5c0.4,0,0.8,0.2,1,0.4c0.3,0.3,0.4,0.6,0.4,1v24.3l1.7-1.7
		c0.6-0.5,1.5-0.5,2.1,0c0.3,0.3,0.4,0.7,0.4,1c0,0.4-0.2,0.8-0.4,1l-3.7,3.6c-0.3,0.3-0.8,0.6-1.3,0.6
		C38.4,44.2,38.3,44.2,38.1,44.2z M34,38.5c-0.1,0-0.2,0-0.3,0.1c-0.2,0.2-0.2,0.5,0,0.7l3.5,3.5c0.3,0.3,0.6,0.4,1,0.4
		c0.1,0,0.1,0,0.1,0c0.3-0.1,0.6-0.2,0.8-0.4l3.7-3.6c0.1-0.1,0.1-0.2,0.1-0.3s0-0.2-0.1-0.3c-0.2-0.2-0.5-0.2-0.7,0l-3.4,3.3V15.3
		c0-0.1-0.1-0.2-0.1-0.3c-0.1-0.1-0.3-0.1-0.3-0.1c-0.2,0-0.5,0.2-0.5,0.5v26.8l-3.4-3.5C34.2,38.5,34.1,38.5,34,38.5z"/>
</g>
</svg>
