<?xml version="1.0" encoding="utf-8"?>
<!-- Generator: Adobe Illustrator 25.0.0, SVG Export Plug-In . SVG Version: 6.00 Build 0)  -->
<svg version="1.1" id="图层_1" xmlns="http://www.w3.org/2000/svg" xmlns:xlink="http://www.w3.org/1999/xlink" x="0px" y="0px"
	 viewBox="0 0 50 50" style="enable-background:new 0 0 50 50;" xml:space="preserve">
<style type="text/css">
	.st0{fill:#148AE7;}
	.st1{fill:#148AE7;stroke:#148AE7;stroke-miterlimit:10;}
</style>
<path class="st0" d="M45.3,7.7H10.9c-1.2,0-2.4,0.5-3.2,1.3l-6.5,6.5c-0.9,0.9-1.3,2-1.3,3.2v18.7c0,2.5,2.1,4.6,4.6,4.6h40.8
	c2.5,0,4.6-2.1,4.6-4.6V12.3C49.9,9.8,47.8,7.7,45.3,7.7z M46.9,37.5c0,0.9-0.7,1.7-1.7,1.7H4.5c-0.9,0-1.7-0.7-1.7-1.7V18.8
	c0-0.4,0.2-0.9,0.5-1.2l6.5-6.5c0.3-0.3,0.7-0.5,1.2-0.5h34.3c0.9,0,1.7,0.7,1.7,1.7V37.5z"/>
<g>
	<path class="st1" d="M25.5,21.6c0.6,0,1.1-0.5,1.1-1.1v-5.1c0-0.6-0.5-1.1-1.1-1.1c-0.6,0-1.1,0.5-1.1,1.1v5.1
		C24.4,21.1,24.9,21.6,25.5,21.6z"/>
	<path class="st1" d="M33.7,24.7c0.5,0.3,1.2,0.1,1.5-0.4l2.5-4.4c0.3-0.5,0.1-1.2-0.4-1.5s-1.2-0.1-1.5,0.4l-2.5,4.4
		C32.9,23.7,33.1,24.4,33.7,24.7z"/>
	<path class="st1" d="M36.4,30c0.2,0.6,0.8,1,1.4,0.8l4.9-1.3c0.6-0.2,1-0.8,0.8-1.4c-0.2-0.6-0.8-1-1.4-0.8l-4.9,1.3
		C36.6,28.8,36.2,29.4,36.4,30z"/>
	<path class="st1" d="M15.8,24.3c0.3,0.5,1,0.7,1.5,0.4c0.5-0.3,0.7-1,0.4-1.5l-2.5-4.4c-0.3-0.5-1-0.7-1.5-0.4s-0.7,1-0.4,1.5
		L15.8,24.3z"/>
	<path class="st1" d="M8.3,29.5l4.9,1.3c0.6,0.2,1.2-0.2,1.4-0.8c0.2-0.6-0.2-1.2-0.8-1.4l-4.9-1.3c-0.6-0.2-1.2,0.2-1.4,0.8
		C7.4,28.7,7.7,29.3,8.3,29.5z"/>
	<path class="st1" d="M15.4,38.9h2.3v-4.2c0-2.1,0.8-4.1,2.3-5.6c1.5-1.5,3.5-2.3,5.6-2.4c2.1,0,4.1,0.8,5.6,2.3
		c1.5,1.5,2.4,3.5,2.4,5.6v4.3h2.3v-4.2c0-5.6-4.6-10.2-10.2-10.2c-5.6,0-10.1,4.6-10.1,10.1V38.9z"/>
</g>
</svg>
