<?xml version="1.0" standalone="no"?><!DOCTYPE svg PUBLIC "-//W3C//DTD SVG 1.1//EN" "http://www.w3.org/Graphics/SVG/1.1/DTD/svg11.dtd"><svg t="1568885960477" class="icon" viewBox="0 0 1025 1024" version="1.1" xmlns="http://www.w3.org/2000/svg" p-id="40108" xmlns:xlink="http://www.w3.org/1999/xlink" width="20.01953125" height="20"><defs><style type="text/css"></style></defs><path d="M441.6 550.4c0 6.4 6.4 12.8 12.8 19.2 19.2 19.2 38.4 25.6 64 25.6 57.6 6.4 96-32 96-83.2 0-25.6-6.4-51.2-25.6-64-12.8-6.4-19.2-12.8-32-19.2L339.2 294.4c-6.4-6.4-25.6-6.4-32 0-6.4 12.8-12.8 25.6-6.4 38.4l140.8 217.6z" p-id="40109" fill="#b3bfcb"></path><path d="M876.8 147.2C800 70.4 697.6 19.2 588.8 0L576 6.4C556.8 0 531.2 0 512 0h-19.2v236.8c0 25.6 19.2 38.4 38.4 38.4h12.8c19.2 0 38.4-19.2 38.4-38.4v-128c83.2 12.8 153.6 51.2 211.2 115.2 160 160 160 422.4 0 582.4-76.8 76.8-179.2 121.6-288 121.6-108.8 0-211.2-44.8-288-121.6C140.8 723.2 102.4 620.8 102.4 512c0-108.8 44.8-211.2 121.6-288 6.4-6.4 6.4-12.8 6.4-19.2 0-6.4-6.4-12.8-12.8-19.2l-32-19.2c-19.2-12.8-44.8-12.8-57.6 6.4C89.6 217.6 57.6 268.8 32 332.8 12.8 390.4 0 448 0 512c0 134.4 51.2 262.4 147.2 364.8C249.6 972.8 377.6 1024 512 1024s262.4-51.2 364.8-147.2c198.4-204.8 198.4-524.8 0-729.6z" p-id="40110" fill="#b3bfcb"></path></svg>