<?xml version="1.0" standalone="no"?><!DOCTYPE svg PUBLIC "-//W3C//DTD SVG 1.1//EN" "http://www.w3.org/Graphics/SVG/1.1/DTD/svg11.dtd"><svg t="1589528421276" class="icon" viewBox="0 0 1024 1024" version="1.1" xmlns="http://www.w3.org/2000/svg" p-id="30971" xmlns:xlink="http://www.w3.org/1999/xlink" width="50" height="50"><defs><style type="text/css"></style></defs><path d="M954.89 935.27c5.57 12-0.26 21.73-13 21.73H82.14c-12.77 0-18.6-9.78-13-21.73L206.16 642c2.17-4.7 8-8.51 13-8.51h117.55a15.87 15.87 0 0 1 10.85 5.22q12 14.42 24.16 28.25c7.65 8.79 15.39 17.75 23.12 27h-139.4c-4.95 0-10.86 3.8-13 8.51L151.59 896.6h720.82l-90.82-194.26c-2.17-4.71-8-8.51-13-8.51h-139.7c7.65-9.15 15.39-18 23.12-26.94 8.09-9.33 16.26-18.65 24.25-28.26a16.16 16.16 0 0 1 10.87-5.15h117.76c5-0.1 10.78 3.8 13 8.41z m-469.17-867C331 83.36 225.05 237.5 252 394.93c27.44 159.92 170.8 209.15 241.92 388.57a18.64 18.64 0 0 0 34.93 0.12c78.85-199.2 246.44-238 246.44-445.11 0-158.72-132.29-285.58-289.57-270.25z m25.57 413.62c-77 0-139.38-64.13-139.38-143.41s62.35-143.4 139.38-143.4 139.38 64.14 139.38 143.4-62.31 143.4-139.38 143.4z" p-id="30972" fill="#0080e5"></path></svg>