<?xml version="1.0" standalone="no"?><!DOCTYPE svg PUBLIC "-//W3C//DTD SVG 1.1//EN" "http://www.w3.org/Graphics/SVG/1.1/DTD/svg11.dtd"><svg t="1571981839443" class="icon" viewBox="0 0 1024 1024" version="1.1" xmlns="http://www.w3.org/2000/svg" p-id="1592" xmlns:xlink="http://www.w3.org/1999/xlink" width="16" height="16"><defs><style type="text/css"></style></defs><path d="M561.1 860.6H206.8c-17.7 0-32 14.3-32 32s14.3 32 32 32h403.7c-20.1-18.1-36.8-39.8-49.4-64zM535.8 756.3c0-84 45.6-157.3 113.3-196.6v-89.1c0-110.4-85.2-200-190.3-200-105.1 0-190.3 89.5-190.3 200v290.6c0 23.1 17.8 41.9 39.9 41.9h232.3c-3.2-15.1-4.9-30.8-4.9-46.8zM174.5 499.2h-50c-17.6 0-32-14.4-32-32s14.4-32 32-32h50c17.6 0 32 14.4 32 32s-14.4 32-32 32zM788.6 499.2h-50c-17.6 0-32-14.4-32-32s14.4-32 32-32h50c17.6 0 32 14.4 32 32s-14.4 32-32 32zM488.5 135.1v50c0 17.6-14.4 32-32 32s-32-14.4-32-32v-50c0-17.6 14.4-32 32-32s32 14.4 32 32zM714 255l-35.4 35.4c-12.4 12.4-32.8 12.4-45.3 0-12.4-12.4-12.4-32.8 0-45.3l35.4-35.4c12.4-12.4 32.8-12.4 45.3 0 12.4 12.5 12.4 32.9 0 45.3zM244.3 209.7l35.4 35.4c12.4 12.4 12.4 32.8 0 45.3-12.4 12.4-32.8 12.4-45.3 0L199.1 255c-12.4-12.4-12.4-32.8 0-45.3 12.4-12.4 32.8-12.4 45.2 0z" fill="#0080e5" p-id="1593"></path><path d="M762.9 576.3c-99.2 0-180 80.7-180 180s80.7 180 180 180 180-80.7 180-180-80.8-180-180-180z m116 180c0 20.4-5.3 39.5-14.5 56.2L706.7 654.9c16.6-9.3 35.8-14.5 56.2-14.5 63.9-0.1 116 52 116 115.9z m-232 0c0-20.4 5.3-39.5 14.5-56.2L819 857.7c-16.6 9.3-35.8 14.5-56.2 14.5-63.8 0.1-115.9-52-115.9-115.9z" fill="#0080e5" p-id="1594"></path></svg>