<?xml version="1.0" encoding="utf-8"?>
<!-- Generator: Adobe Illustrator 22.0.0, SVG Export Plug-In . SVG Version: 6.00 Build 0)  -->
<svg version="1.1" id="图层_1" xmlns="http://www.w3.org/2000/svg" xmlns:xlink="http://www.w3.org/1999/xlink" x="0px" y="0px"
	 viewBox="0 0 73 73" style="enable-background:new 0 0 73 73;" xml:space="preserve">
<style type="text/css">
	.st0{fill:#D8D8D8;fill-opacity:0;}
	.st1{fill:#409eff;}
	.st2{fill:#FFFFFF;}
	.st3{display:none;fill:#409eff;}
</style>
<path class="st0" d="M0,4.5h64v64H0V4.5z"/>
<path class="st1" d="M28.6,9C33.8,8.3,39,8.3,44.2,9c3.6,0.7,7.3,1.2,10.7,2.1c2.5,0.6,4.6,2.3,5.4,4.6c1.5,3.8,3,7.6,4.6,11.3
	c0.3,0.6,1.2,1.6,1.7,1.5c2.9-0.4,5.6,1.3,6.2,3.9c0.2,0.7,0.2,1.4,0,2.1l-4.1,1c0.3,1.3,0.4,2.6,0.5,4v18.3c-0.1,1.1-0.5,2.2-1.2,3
	c-3.8,0.7-7.8,0.7-11.6,0.2c-2.7-1.6-1-4.2-1.9-6.3H19.1c-0.7,2.3-1.1,6-1.9,6.3c-3.9,0.6-8,0.6-11.9,0C4.4,60,4,58.8,4,57.5
	c-0.2-2.7-0.2-5.2-0.2-7.8c0-4.8,0-9.6,0.2-14.4l-3.9-0.9c-0.1-0.5-0.1-1.1,0-1.6c1.1-2.7,2.5-4.7,6.3-4.4c0.4,0,1.3-0.8,1.5-1.4
	c1.4-2.9,2.6-6,3.6-9c1.4-4.5,5.7-7.8,10.9-8.2c2-0.3,4.1-0.6,6.1-0.9L28.6,9C28.6,9,28.6,9,28.6,9z M12.6,29.5
	c15.7,3,31.8,3,47.5,0c-1.3-3.7-2.7-7-3.6-10.3c-0.6-2.6-3.1-4.5-6-4.4c-7.5-0.3-15.1-0.5-22.6-0.6c-2.5,0.1-4.9,0.4-7.3,1
	c-1.1,0.2-2,0.8-2.7,1.7C15.9,20.9,14.4,25.1,12.6,29.5C12.6,29.5,12.6,29.5,12.6,29.5z M15.7,45.1c1.3,0.1,2.6,0,3.9-0.2
	c1-0.2,1.8-0.8,2.4-1.6c0.2-0.5-0.7-1.7-1.4-2c-3-1.3-6-2.4-9.1-3.3c-1.5-0.5-3.3-0.4-3.6,1.6c-0.7,2.9,0,4.5,2.4,4.9
	c1.9,0.3,3.6,0.4,5.7,0.6L15.7,45.1L15.7,45.1z M57.5,45.1c1.9-0.1,3.8-0.3,5.7-0.7c2.7-0.6,2.1-2.6,2.1-4.3
	c-0.1-1.8-1.1-2.6-2.6-2.2c-3.7,1-7.4,2.3-10.9,3.8c-1.6,0.7-1,2.6,0.8,3C54.3,44.9,55.9,45.1,57.5,45.1L57.5,45.1L57.5,45.1z"/>
<path class="st2" d="M36,52.5c0,6.6,5.4,12,12,12s12-5.4,12-12s-5.4-12-12-12S36,45.9,36,52.5z"/>
<circle class="st2" cx="50.3" cy="47.3" r="16.4"/>
<path class="st1" d="M70.2,38.5c-1.1-2.9-2.8-5.5-5.1-7.7c-2.3-2.3-4.9-4-7.7-5.1c-2.9-1.1-5.8-1.7-8.8-1.7c-3,0-6,0.6-8.9,1.7
	c-2.9,1.1-5.5,2.8-7.8,5.1c-2.3,2.3-4,4.9-5.2,7.7c-1.1,2.9-1.7,5.8-1.7,8.8c0,3,0.6,6,1.7,8.8c1.1,2.9,2.9,5.5,5.2,7.7
	c2.3,2.3,4.9,4,7.8,5.2c2.9,1.1,5.8,1.7,8.9,1.7c3,0,6-0.6,8.8-1.7c2.9-1.1,5.5-2.9,7.7-5.2c2.3-2.3,4-4.9,5.1-7.7
	c1.1-2.9,1.7-5.8,1.7-8.8C71.9,44.3,71.3,41.3,70.2,38.5z M57.5,53c0.8,0.8,0.6,2.4-0.2,3.2c-0.8,0.8-2.4,1-3.2,0.2l-5.7-5.7
	l-5.7,5.7c-0.8,0.8-2.4,0.6-3.2-0.2c-0.8-0.8-1-2.4-0.2-3.2l5.7-5.7l-5.7-5.7c-0.8-0.8-0.6-2.4,0.2-3.2c0.8-0.8,2.4-1,3.2-0.2
	l5.7,5.7l5.7-5.7c0.8-0.8,2.4-0.6,3.2,0.2s1,2.4,0.2,3.2l-5.7,5.7C51.9,47.3,57.5,53,57.5,53z"/>
<path class="st3" d="M48.4,23.9C35.5,23.9,25,34.4,25,47.3s10.5,23.4,23.4,23.4s23.4-10.5,23.4-23.4S61.4,23.9,48.4,23.9z
	 M63.2,40.7L46.6,57.3c-0.5,0.5-1.4,0.7-2.1,0.7c-0.7,0-1.6-0.2-2.1-0.7L35.2,50c-0.9-0.9-0.9-2.4,0-3.3c0.9-0.9,2.4-0.9,3.3,0
	l6.1,6.1l15.3-15.4c0.9-0.9,2.4-0.9,3.3,0C64.1,38.3,64.1,39.8,63.2,40.7L63.2,40.7z"/>
</svg>
