<?xml version="1.0" encoding="utf-8"?>
<!-- Generator: Adobe Illustrator 18.1.1, SVG Export Plug-In . SVG Version: 6.00 Build 0)  -->
<svg version="1.1" id="图层_1" xmlns="http://www.w3.org/2000/svg" xmlns:xlink="http://www.w3.org/1999/xlink" x="0px" y="0px"
	 viewBox="0 0 12 12" enable-background="new 0 0 12 12" xml:space="preserve">
<g>
	<path fill="#0377E0" d="M-0.2,0.2L-0.2,0.2L-0.2,0.2z M8.6,11.1c-0.3,0-0.8,0.1-1.5,0.4c-0.7,0.2-1.2,0.4-1.5,0.4
		c-0.3,0-0.8-0.1-1.5-0.4c-0.7-0.2-1.2-0.4-1.5-0.4c-0.2,0-0.3,0-0.5,0.1c-0.2,0-0.3,0.1-0.4,0.1c-0.1,0-0.3,0.1-0.4,0.2
		c-0.1,0-0.2,0.1-0.2,0.1c0,0-0.1,0-0.2,0.1c-0.1,0-0.1,0-0.2,0c0,0-0.1,0-0.1,0c0,0-0.1,0-0.1-0.1c0-0.1,0-0.1,0-0.2
		c0-0.1,0-0.2,0.1-0.3l0.1-0.4c0-0.1,0.1-0.3,0.2-0.5c0.1-0.3,0.2-0.7,0.3-1C1.3,9,1.4,8.7,1.5,8.4c0.1-0.3,0.2-0.5,0.2-0.7l0.1-0.2
		h9c0.3,1.6,0.5,2.8,0.6,3.7c0,0.1,0,0.2,0,0.3c0,0,0,0.1,0,0.1s0,0.1,0,0.1c0,0,0,0,0,0.1c0,0,0,0,0,0c0,0-0.1,0-0.1,0
		c0,0,0,0-0.1,0c0,0-0.1,0-0.1,0c0,0-0.1,0-0.1,0c0,0-0.1,0-0.1,0c-0.1,0-0.1-0.1-0.3-0.1c-0.2-0.1-0.4-0.2-0.6-0.2c0,0-0.1,0-0.2,0
		c-0.1,0-0.1,0-0.2,0c-0.1,0-0.2,0-0.3-0.1c0,0-0.1,0-0.1,0c0,0-0.1,0-0.1,0c0,0-0.1,0-0.1,0l-0.1,0H8.8c0,0,0,0-0.1,0
		C8.6,11.1,8.6,11.1,8.6,11.1L8.6,11.1z M10.1,6.7H2.6c-0.2,0-0.4-0.1-0.5-0.2C1.9,6.4,1.8,6.2,1.8,6c0.2-0.3,0.5-0.8,1-1.5
		c0.4-0.5,0.8-0.7,1.2-0.7h1.1l0.4-2.9l0.2-0.2C5.8,0.6,6,0.5,6.2,0.4c0.2-0.1,0.4-0.2,0.5-0.2c0.2,0,0.3,0.1,0.5,0.2
		c0,0,0.1,0.1,0.1,0.1c0,0,0.1,0.1,0.1,0.1c0,0,0.1,0.1,0.1,0.1s0.1,0.1,0.1,0.1l0.2,0.2L7.5,3.8h1.1C8.8,3.8,9,3.9,9.2,4
		c0.2,0.1,0.4,0.3,0.6,0.6c0.5,0.7,0.8,1.2,1,1.4c0,0.2-0.1,0.4-0.2,0.5S10.3,6.7,10.1,6.7L10.1,6.7z"/>
</g>
</svg>
