<?xml version="1.0" encoding="utf-8"?>
<!-- Generator: Adobe Illustrator 25.0.0, SVG Export Plug-In . SVG Version: 6.00 Build 0)  -->
<svg version="1.1" id="图层_1" xmlns="http://www.w3.org/2000/svg" xmlns:xlink="http://www.w3.org/1999/xlink" x="0px" y="0px"
	 viewBox="0 0 50 50" style="enable-background:new 0 0 50 50;" xml:space="preserve">
<style type="text/css">
	.st0{fill:#148AE7;}
</style>
<g>
	<path class="st0" d="M6.9,49.3c-1.3,0-2.4-0.7-3-1.8C3.4,46.4,3.4,45,4.2,44c2.7-3.8,4.5-9.3,4.8-14.6c-1-0.1-1.9-0.7-2.5-1.6
		c-0.6-1-0.7-2.2-0.1-3.3l4.1-8.1c0.8-1.5,2.3-2.4,4-2.4h6.1V4c0-1.8,1.5-3.3,3.3-3.3h4.8c1.8,0,3.3,1.5,3.3,3.3v10H38
		c1.7,0,3.2,0.9,4,2.4l4.1,8.1c0.5,1.1,0.5,2.3-0.1,3.3c-0.5,0.8-1.4,1.4-2.3,1.6c1.1,2.5,1.6,5,1.5,7.8c-0.1,3.1-0.8,5.9-1.6,8.9
		c-0.5,1.9-2.3,3.3-4.3,3.3H6.9z M15.2,45.8c1.4-1.3,2.3-3.1,2.9-4.3c0.6-1.3,0.8-2.5,0.9-3.2c0.1-0.8,0.9-1.5,1.7-1.5
		c0.5,0,1,0.2,1.3,0.6s0.5,0.9,0.4,1.4c-0.2,1.3-0.6,2.6-1.2,4c-0.4,1.1-1,2.1-1.6,3h9.1c1.3-1.9,2.2-4.8,2.2-7.2
		c0-0.9,0.6-1.6,1.5-1.7c0.1,0,0.2,0,0.3,0c1,0,1.7,0.8,1.8,1.7c0,1.3-0.2,2.8-0.6,4.3c-0.3,1.1-0.6,2.1-1.1,3h6.4
		c0.4,0,0.8-0.3,0.9-0.7c0.8-2.8,1.4-5.4,1.5-8.1c0.1-2.7-0.6-5.3-1.9-7.7H12.5c-0.1,2.8-0.7,5.7-1.5,8.4c-0.9,3-2.2,5.7-3.8,8H15.2
		z M42.8,25.9l-4-7.9c-0.2-0.3-0.5-0.5-0.8-0.5h-6.3c-1.9,0-3.4-1.5-3.4-3.4v-10H24v10c0,1.9-1.5,3.4-3.4,3.4h-6.3
		c-0.4,0-0.7,0.2-0.8,0.5l-4,7.9H42.8z"/>
	<path class="st0" d="M28.6,0.9c1.7,0,3,1.4,3,3v10.2c0,0.1,0,0.1,0.1,0.1H38c1.6,0,3,0.9,3.7,2.3l4.1,8.1h0c0.5,1,0.5,2.1-0.1,3
		c-0.5,0.9-1.5,1.4-2.5,1.5c1.1,2.5,1.7,5.2,1.6,8c-0.1,3.1-0.7,5.8-1.6,8.9c-0.5,1.8-2.2,3.1-4,3.1H6.9c-1.2,0-2.2-0.6-2.8-1.7
		c-0.5-1-0.5-2.3,0.2-3.2c2.8-4,4.6-9.6,4.8-15c-1,0-2-0.6-2.5-1.5c-0.6-0.9-0.6-2.1-0.1-3l4.1-8.1c0.7-1.4,2.1-2.3,3.7-2.3h6.3
		c0.1,0,0.1,0,0.1-0.1V4c0-1.7,1.4-3,3-3H28.6 M9.3,26.1h33.7c0,0,0.1,0,0.1-0.1c0-0.1,0-0.1,0-0.1l-4.1-8.1
		c-0.2-0.4-0.6-0.6-1.1-0.6h-6.3c-1.7,0-3.1-1.4-3.1-3.1V4c0,0,0,0,0,0h-4.8c0,0,0,0,0,0v10.2c0,1.7-1.4,3.1-3.1,3.1h-6.3
		c-0.4,0-0.8,0.2-1.1,0.6L9.2,26C9.2,26,9.2,26,9.3,26.1C9.3,26.1,9.3,26.1,9.3,26.1 M6.9,46.1h8.4c1.5-1.4,2.4-3.2,3-4.5
		c0.5-1.2,0.8-2.4,1-3.2c0.1-0.7,0.8-1.3,1.5-1.3c0.9,0,1.6,0.8,1.5,1.7c-0.2,1.2-0.6,2.6-1.1,3.9c-0.4,1-1,2.2-1.8,3.3H29
		c1.5-2.2,2.3-5.2,2.3-7.5c0-0.7,0.5-1.4,1.3-1.5c0.1,0,0.2,0,0.2,0c0.8,0,1.5,0.7,1.5,1.5c0,1.3-0.2,2.8-0.6,4.2
		c-0.2,0.9-0.6,2.1-1.2,3.3h6.8c0.5,0,1-0.4,1.1-0.9c0.8-2.8,1.4-5.4,1.5-8.1c0.1-2.8-0.6-5.4-2-7.9H12.2c-0.1,2.9-0.6,5.8-1.5,8.6
		c-1,3.1-2.3,5.9-3.9,8.1C6.8,45.9,6.8,45.9,6.9,46.1C6.9,46.1,6.9,46.1,6.9,46.1 M28.6,0.4h-4.8c-1.9,0-3.5,1.6-3.5,3.5v9.8h-5.9
		c-1.8,0-3.4,1-4.2,2.6l-4.1,8.1c-0.6,1.1-0.5,2.5,0.1,3.5c0.5,0.9,1.4,1.5,2.4,1.7C8.4,34.8,6.6,40.1,4,43.9
		c-0.8,1.1-0.9,2.5-0.3,3.7c0.6,1.2,1.9,2,3.2,2h32.3c2.1,0,4-1.4,4.5-3.5c0.8-3.1,1.5-5.9,1.6-9c0.1-2.7-0.4-5.2-1.4-7.6
		c0.9-0.2,1.7-0.8,2.2-1.6c0.7-1.1,0.7-2.4,0.1-3.5l-4.1-8.1c-0.8-1.6-2.4-2.6-4.2-2.6h-5.9V4C32.2,2,30.6,0.4,28.6,0.4L28.6,0.4z
		 M24.3,4.4h3.9v9.7c0,2,1.6,3.6,3.6,3.6H38c0.3,0,0.5,0.1,0.6,0.4l3.8,7.5H10l3.8-7.5c0.1-0.2,0.4-0.4,0.6-0.4h6.3
		c2,0,3.6-1.6,3.6-3.6V4.4L24.3,4.4z M12.7,29.6h26.9c1.2,2.3,1.8,4.8,1.8,7.4c0,2.7-0.7,5.2-1.5,8c-0.1,0.3-0.4,0.5-0.7,0.5h-6
		c0.4-0.8,0.7-1.7,0.9-2.7c0.4-1.5,0.6-3,0.6-4.3c0-1.1-0.9-2-2-2c-0.1,0-0.2,0-0.3,0c-1,0.2-1.7,1-1.7,2c0,2.4-0.8,5.1-2.1,7h-8.5
		c0.5-0.8,1-1.7,1.3-2.6c0.6-1.3,1-2.7,1.2-4c0.1-0.6-0.1-1.2-0.4-1.6c-0.4-0.4-0.9-0.7-1.5-0.7c-1,0-1.8,0.7-2,1.7
		c-0.1,0.7-0.4,1.8-0.9,3.1c-0.5,1.2-1.4,2.9-2.7,4.2H7.7c1.4-2.2,2.7-4.8,3.5-7.7C12,35.3,12.6,32.4,12.7,29.6L12.7,29.6z"/>
</g>
</svg>
