<?xml version="1.0" standalone="no"?><!DOCTYPE svg PUBLIC "-//W3C//DTD SVG 1.1//EN" "http://www.w3.org/Graphics/SVG/1.1/DTD/svg11.dtd"><svg t="1614751176729" class="icon" viewBox="0 0 1024 1024" version="1.1" xmlns="http://www.w3.org/2000/svg" p-id="4658" xmlns:xlink="http://www.w3.org/1999/xlink" width="32" height="32"><defs><style type="text/css"></style></defs><path d="M37.786567 310.483897v551.803804a161.937525 161.937525 0 0 0 161.824912 161.712299h490.429708a161.937525 161.937525 0 0 0 161.824911-161.712299v-551.803804A161.937525 161.937525 0 0 0 690.041187 148.658985H199.611479A161.937525 161.937525 0 0 0 37.786567 310.483897z m78.829115 551.803804v-551.803804a83.446249 83.446249 0 0 1 83.446249-83.446249h489.979256a83.446249 83.446249 0 0 1 83.446248 83.446249v551.803804A83.558862 83.558862 0 0 1 690.041187 945.959176H199.611479A83.558862 83.558862 0 0 1 116.615682 862.287701z" fill="#148AE7" p-id="4659"></path><path d="M199.611479 419.831141h499.889201a39.189331 39.189331 0 1 0 0-78.829115H199.611479a39.189331 39.189331 0 1 0 0 78.829115zM199.611479 631.318395h499.889201a39.189331 39.189331 0 1 0 0-78.829115H199.611479a39.189331 39.189331 0 1 0 0 78.829115zM199.611479 842.693036h506.758596a39.189331 39.189331 0 1 0 0-78.829115h-506.758596a39.189331 39.189331 0 1 0 0 78.829115z" fill="#148AE7" p-id="4660"></path><path d="M983.735946 154.627476a182.207868 182.207868 0 0 0-18.468535-58.446158C930.132148 31.654056 859.861623 11.271099 841.730926 7.442257A355.519308 355.519308 0 0 0 781.820799 0.009797H449.837612a36.261393 36.261393 0 0 0-36.261393 28.491095 34.910037 34.910037 0 0 0 33.783907 41.103752h320.496658A148.874414 148.874414 0 0 1 916.168133 218.366446v451.352989a34.797424 34.797424 0 0 0 41.103753 33.783906 36.261393 36.261393 0 0 0 28.491095-36.261392V190.21319a244.820708 244.820708 0 0 0-2.252261-33.783906z" fill="#148AE7" p-id="4661"></path></svg>