<?xml version="1.0" standalone="no"?><!DOCTYPE svg PUBLIC "-//W3C//DTD SVG 1.1//EN" "http://www.w3.org/Graphics/SVG/1.1/DTD/svg11.dtd"><svg t="1595384136587" class="icon" viewBox="0 0 1024 1024" version="1.1" xmlns="http://www.w3.org/2000/svg" p-id="2133" width="20" height="20" xmlns:xlink="http://www.w3.org/1999/xlink"><defs><style type="text/css"></style></defs><path d="M288.51831055 288.59741211A249.62475586 249.62475586 0 0 0 219.75927734 512c14.87109375-67.4934082 49.83398438-133.44433594 104.29541016-187.9453125C378.55566406 269.53393555 444.5065918 234.59082031 512 219.71972656c-78.50830078-14.79199219-162.75146484 8.12768555-223.48168945 68.87768555z" fill="#666666" p-id="2134"></path><path d="M880.81103516 751.55908203l-94.01220704-94.01220703a91.16455078 91.16455078 0 0 0-71.68579101-26.3605957c88.41577148-127.88745117 75.64086914-304.65966797-38.22583008-418.54614258-128.18408203-128.22363281-336.06298828-128.22363281-464.28662109 0-128.18408203 128.22363281-128.18408203 336.12231445 0 464.34594726 113.86669922 113.88647461 290.50048828 126.5625 418.46704101 38.14672852-1.97753906 25.70800781 6.84228516 52.16748047 26.36059571 71.68579102l94.01220703 94.03198242c35.59570313 35.51660156 93.75512695 35.51660156 129.27172851 0 35.69458008-35.51660156 35.69458008-93.69580078 0.09887696-129.29150391zM638.76025391 638.76025391c-107.12329102 107.12329102-280.71166992 107.12329102-387.79541016 0-107.12329102-107.12329102-107.12329102-280.7512207 0-387.87451172 107.08374023-107.12329102 280.67211914-107.12329102 387.79541016 0 107.10351563 107.04418945 107.10351563 280.7512207 0 387.87451172z" fill="#666666" p-id="2135"></path></svg>