<?xml version="1.0" encoding="utf-8"?>
<!-- Generator: Adobe Illustrator 22.0.0, SVG Export Plug-In . SVG Version: 6.00 Build 0)  -->
<svg version="1.1" id="图层_1" xmlns="http://www.w3.org/2000/svg" xmlns:xlink="http://www.w3.org/1999/xlink" x="0px" y="0px"
	 viewBox="0 0 17 17" style="enable-background:new 0 0 17 17;" xml:space="preserve">
<style type="text/css">
	.st0{fill:#148AE7;}
</style>
<path class="st0" d="M8.6,16.6l-0.3,0c-3.9-0.9-6.6-4.3-6.6-8.3V2.7h1C4.5,2.6,6.3,2,8,0.8l0.6-0.4l0.6,0.4c1.7,1.2,3.4,1.8,5.3,1.9
	h1v5.6c0,4-2.7,7.4-6.6,8.3C8.7,16.6,8.6,16.6,8.6,16.6z M3.1,4.1v4.2c0,3.3,2.2,6.1,5.4,6.9c3.2-0.8,5.4-3.6,5.4-6.9V4.1
	c-1.9-0.2-3.7-0.8-5.4-2C6.8,3.3,5,3.9,3.1,4.1z"/>
<path class="st0" d="M12.4,6.6l-0.2-0.2c-0.2-0.2-0.6-0.2-0.8,0L8.1,9.7l-2-2c-0.2-0.2-0.6-0.2-0.8,0L5.1,7.9
	c-0.2,0.2-0.2,0.6,0,0.8l2,2l0,0l1,1l0,0l1-1l3.3-3.3C12.6,7.2,12.6,6.8,12.4,6.6z"/>
</svg>
