<?xml version="1.0" standalone="no"?><!DOCTYPE svg PUBLIC "-//W3C//DTD SVG 1.1//EN" "http://www.w3.org/Graphics/SVG/1.1/DTD/svg11.dtd"><svg t="1568949023345" class="icon" viewBox="0 0 1290 1024" version="1.1" xmlns="http://www.w3.org/2000/svg" p-id="11528" width="18.896484375" height="15" xmlns:xlink="http://www.w3.org/1999/xlink"><defs><style type="text/css"></style></defs><path d="M271.783126 208.650623v543.566251H67.945781c-27.450096 0-67.945781-40.835415-67.945781-67.945781V276.596405c0-27.789825 40.088011-67.945781 67.945781-67.945782h203.837345z m271.783125-203.837344c37.506071-14.268614 67.945781 1.698645 67.945782 67.945782v815.349376c0 66.586866-30.167927 82.214395-67.945782 67.945782l-271.783125-203.837345V208.650623l271.783125-203.837344z m543.566251 951.24094c190.927646-252.622415 190.927646-630.672743 0-883.295158-53.47333-6.454849-93.085721-6.454849-135.891563 0a505.856342 505.856342 0 0 0 0 135.891562c189.364893 158.721345 189.364893 452.790687 0 611.512033a505.856342 505.856342 0 0 0 0 135.891563c42.805842 6.454849 82.418233 6.454849 135.891563 0z m-203.837344-271.783126c99.336732-139.492689 99.336732-336.127781 0-475.62047-51.299065-6.11512-91.998588-6.11512-135.891563 0-6.251012 42.466113-6.251012 81.806721 0 135.891563 94.104907 42.941734 94.104907 160.89561 0 203.837344-6.251012 54.084842-6.251012 93.425449 0 135.891563 43.892975 6.11512 84.592498 6.11512 135.891563 0z" p-id="11529" fill="#1482e3"></path></svg>