<?xml version="1.0" standalone="no"?><!DOCTYPE svg PUBLIC "-//W3C//DTD SVG 1.1//EN" "http://www.w3.org/Graphics/SVG/1.1/DTD/svg11.dtd"><svg t="1584504773106" class="icon" viewBox="0 0 1024 1024" version="1.1" xmlns="http://www.w3.org/2000/svg" p-id="7519" xmlns:xlink="http://www.w3.org/1999/xlink" width="20" height="20"><defs><style type="text/css"></style></defs><path d="M887 576.8v-129.4L796.6 418c-4.6-14-10.2-27.4-16.8-40.4l43.2-84.8-91.6-91.6-84.8 43.2c-13-6.6-26.6-12.2-40.4-16.8l-29.4-90.4h-129.4L418 227.6c-13.8 4.6-27.4 10.2-40.4 16.8l-84.8-43.2-91.6 91.6 43.2 84.8c-6.6 13-12.2 26.6-16.8 40.4l-90.4 29.4v129.4l90.4 29.4c4.6 13.8 10.2 27.4 16.8 40.4l-43.2 84.8 91.6 91.6 84.8-43.2c13 6.6 26.6 12.2 40.4 16.8l29.4 90.4h129.4l29.4-90.4c14-4.6 27.4-10.2 40.4-16.8l84.8 43.2 91.6-91.6-43.2-84.8c6.6-13 12.2-26.6 16.8-40.4l90.4-29.4z m-152-29.4l-5 20c-5.4 21-13.6 41-24.6 59.4l-10.6 17.8 36.8 72.4-14.6 14.6-72.2-36.8-17.8 10.6c-18.4 11-38.4 19.2-59.4 24.6l-20 5-25.4 77h-20.6l-25.2-77.2-20-5c-21-5.4-41-13.6-59.4-24.6l-17.8-10.6-72.2 36.8-14.6-14.6 36.8-72.2-10.6-17.8c-11-18.6-19.2-38.6-24.6-59.4l-5-20-77-25.2v-20.6l77.2-25.2 5-20c5.2-20.8 13.6-40.8 24.6-59.4l10.6-17.8-36.8-72.2 14.6-14.6 72.2 36.8 17.8-10.6c18.6-11 38.6-19.4 59.4-24.6l20-5 25.2-77.2h20.6l25.2 77.2 20 5c20.8 5.4 40.8 13.6 59.4 24.6l17.8 10.6 72.2-36.8 14.6 14.6-36.8 72.4 10.6 17.8c11 18.4 19.2 38.4 24.6 59.4l5 20 77 25.2v20.6l-77 25z" p-id="7520" fill="#1296db"></path><path d="M512 399.6c-62 0-112.6 50.4-112.6 112.6s50.4 112.6 112.6 112.6 112.6-50.4 112.6-112.6-50.6-112.6-112.6-112.6z m0 150c-20.6 0-37.6-16.8-37.6-37.6 0-20.6 16.8-37.6 37.6-37.6 20.6 0 37.6 16.8 37.6 37.6 0 20.6-17 37.6-37.6 37.6z" p-id="7521" fill="#1296db"></path></svg>