<?xml version="1.0" standalone="no"?><!DOCTYPE svg PUBLIC "-//W3C//DTD SVG 1.1//EN" "http://www.w3.org/Graphics/SVG/1.1/DTD/svg11.dtd"><svg t="1568886072053" class="icon" viewBox="0 0 1024 1024" version="1.1" xmlns="http://www.w3.org/2000/svg" p-id="41487" xmlns:xlink="http://www.w3.org/1999/xlink" width="20" height="20"><defs><style type="text/css"></style></defs><path d="M514.067895 1024C230.604953 1024 0 794.420047 0 512.041105 0 229.642163 230.604953 0.00121 514.067895 0.00121a50.27799 50.27799 0 0 1 50.421989 50.19599 50.33999 50.33999 0 0 1-50.421989 50.236989c-227.777953 0-413.244915 184.688962-413.244916 411.565916 0 226.917953 185.425962 411.524916 413.244916 411.524916 131.256973 0 251.739948-59.964988 330.669932-164.556967a50.40099 50.40099 0 0 1 70.532985-10.054998 50.01199 50.01199 0 0 1 10.096998 70.307986C827.26983 949.410015 677.375861 1024 514.067895 1024z m443.637909-341.74993c-4.259999 0-8.703998-0.532-13.065998-1.781a50.03299 50.03299 0 0 1-35.614992-61.480987A412.149915 412.149915 0 0 0 923.155811 512.000105c0-168.426965-101.252979-318.258935-258.006947-381.582922a50.11499 50.11499 0 0 1-27.769995-65.392986 50.37999 50.37999 0 0 1 65.678987-27.729995C898.047816 116.163186 1023.99979 302.510148 1023.99979 512.000105c0 44.953991-5.939999 89.742982-17.530996 132.976973a50.58599 50.58599 0 0 1-48.76299 37.272992z m-250.101949-63.343987h-197.15996a50.44199 50.44199 0 0 1-50.483989-50.27899V294.15415a50.42199 50.42199 0 0 1 50.482989-50.29799c27.832994 0 50.35999 22.527995 50.35999 50.29799v224.317954h146.80097c27.832994 0 50.48399 22.527995 50.48399 50.236989a50.31999 50.31999 0 0 1-50.48399 50.19699z" fill="#b3bfcb" p-id="41488"></path></svg>