<?xml version="1.0" standalone="no"?><!DOCTYPE svg PUBLIC "-//W3C//DTD SVG 1.1//EN" "http://www.w3.org/Graphics/SVG/1.1/DTD/svg11.dtd"><svg t="1592530708510" class="icon" viewBox="0 0 1024 1024" version="1.1" xmlns="http://www.w3.org/2000/svg" p-id="12112" xmlns:xlink="http://www.w3.org/1999/xlink" width="50" height="50"><defs><style type="text/css"></style></defs><path d="M897.842 447.015c0-212.226-172.913-384.408-386.035-384.408S125.772 234.79 125.772 447.015c0 193.005 143.155 353.175 329.739 380.403l-4.022 68.073H254.45v64.067h514.713v-64.067h-195.43l-4.021-68.073c185.779-28.028 328.13-187.397 328.13-380.403z m-386.036 320.34c-177.737 0-321.696-143.352-321.696-320.34s143.959-320.34 321.696-320.34 321.696 143.352 321.696 320.34-143.959 320.34-321.696 320.34z m0-560.595c-133.504 0-241.272 107.314-241.272 240.256s107.768 240.256 241.272 240.256 241.272-107.314 241.272-240.256S645.31 206.76 511.806 206.76z m-96.509 304.324c-53.08 0-96.508-43.246-96.508-96.103s43.428-96.102 96.508-96.102 96.51 43.245 96.51 96.102-43.431 96.103-96.51 96.103z" p-id="12113" fill="#148ae7"></path></svg>