<?xml version="1.0" standalone="no"?><!DOCTYPE svg PUBLIC "-//W3C//DTD SVG 1.1//EN" "http://www.w3.org/Graphics/SVG/1.1/DTD/svg11.dtd"><svg t="1592530802742" class="icon" viewBox="0 0 1024 1024" version="1.1" xmlns="http://www.w3.org/2000/svg" p-id="14499" xmlns:xlink="http://www.w3.org/1999/xlink" width="50" height="50"><defs><style type="text/css"></style></defs><path d="M392.961348 786.264481a39.290865 39.290865 0 0 1-27.77867-11.508102 39.291888 39.291888 0 0 1-11.501962-27.77253V275.615245a39.279608 39.279608 0 0 1 62.768579-31.425733l314.245054 235.684813a39.284725 39.284725 0 0 1 0 62.851467L416.448272 778.404466a38.969547 38.969547 0 0 1-23.486924 7.860015z" fill="#148ae7" p-id="14500"></path><path d="M1011.974617 413.198763c-7.093559-17.765619-24.445762-30.325679-44.74304-30.325679-20.297278 0-46.938032 15.364943-44.067658 44.99989l0.099261 2.148943c2.012843 44.881187 2.922563 47.935756 2.922562 81.978083 0 228.382501-185.80273 414.186254-414.18523 414.186254S97.814258 740.382501 97.814258 512c0-228.382501 185.80273-414.18523 414.18523-414.18523v-0.004094c0.049119 0 0.098237 0.004093 0.14838 0.004094 26.604938 0 48.173163-21.567201 48.173162-48.17214 0-26.604938-21.567201-48.172139-48.173162-48.172139-0.049119 0-0.098237 0.00307-0.14838 0.004093v-0.008186c-68.902276 0-135.76715 13.504572-198.73732 40.138162-60.798714 25.714661-115.393123 62.519915-162.265664 109.392456-46.87254 46.87254-83.677794 101.465926-109.393479 162.265664-26.634614 62.969147-40.139186 129.835044-40.139185 198.736297S14.968411 647.766127 41.602002 710.73732c25.716708 60.798714 62.521962 115.393123 109.393479 162.264641 46.87254 46.87254 101.466949 83.677794 162.266687 109.393479 62.97017 26.634614 129.835044 40.139186 198.73732 40.139186s135.76715-13.504572 198.73732-40.139186c60.799738-25.715685 115.393123-62.520939 162.266688-109.393479 46.871517-46.871517 83.676771-101.465926 109.392456-162.266688 26.634614-62.969147 40.139186-129.835044 40.139185-198.73732 0-33.484625-4.999874-84.929298-10.56052-98.79919z" fill="#148ae7" p-id="14501"></path></svg>