<?xml version="1.0" encoding="utf-8"?>
<!-- Generator: Adobe Illustrator 22.0.0, SVG Export Plug-In . SVG Version: 6.00 Build 0)  -->
<svg version="1.1" id="图层_1" xmlns="http://www.w3.org/2000/svg" xmlns:xlink="http://www.w3.org/1999/xlink" x="0px" y="0px"
	 viewBox="0 0 18.5 48.2" style="enable-background:new 0 0 18.5 48.2;" xml:space="preserve">
<style type="text/css">
	.st0{fill:#409EFF;}
	.st1{fill:#FFFFFF;}
</style>
<path class="st0" d="M7.4,48.2H0V0h7.4c6.1,0,11.1,5,11.1,11.1l0,0v25.9C18.5,43.2,13.5,48.2,7.4,48.2z M9.1,24.6
	c0.1-0.2,0.2-0.4,0.2-0.6c0-0.2,0-0.4-0.2-0.6L3,16.9c-0.2-0.3-0.6-0.3-0.9-0.1c0,0,0,0-0.1,0.1c-0.3,0.3-0.3,0.7,0,1l5.7,6.2
	L2,30.3c-0.3,0.3-0.3,0.7,0,1c0.2,0.3,0.6,0.3,0.9,0.1c0,0,0,0,0.1-0.1C3,31.3,9.1,24.6,9.1,24.6z M14.8,24.1c0-0.2,0-0.4-0.2-0.6
	l-6.1-6.6c-0.2-0.3-0.6-0.3-0.9-0.1c0,0,0,0-0.1,0.1c-0.3,0.3-0.3,0.7,0,1l5.7,6.2l-5.7,6.2c-0.3,0.3-0.3,0.7,0,1
	c0.3,0.3,0.7,0.3,0.9,0l6.1-6.6C14.8,24.5,14.8,24.3,14.8,24.1z"/>
<path class="st0" d="M8.3,36.5L8.3,36.5c-4,0-7.3-3.3-7.3-7.3v-9.4c0-4,3.3-7.3,7.3-7.3h0c4,0,7.3,3.3,7.3,7.3v9.4
	C15.6,33.3,12.3,36.5,8.3,36.5z"/>
<g>
	<path class="st1" d="M7.7,31.3L7.7,31.3c-0.3-0.3-0.3-0.7-0.1-1l6.1-6.7c0.3-0.3,0.7-0.3,1,0l0,0c0.3,0.3,0.3,0.7,0,1l-6.1,6.7
		C8.4,31.5,7.9,31.6,7.7,31.3z"/>
	<path class="st1" d="M7.6,17.1L7.6,17.1c0.3-0.3,0.7-0.3,1-0.1l6,6.4c0.2,0.3,0.2,0.6,0,0.9l-0.1,0.1c-0.3,0.2-0.6,0.2-0.9,0
		l-6-6.4C7.3,17.7,7.3,17.3,7.6,17.1z"/>
</g>
<g>
	<path class="st1" d="M1.9,31.2L1.9,31.2c-0.3-0.3-0.3-0.7-0.1-1l6.1-6.7c0.3-0.3,0.7-0.3,1,0l0,0c0.3,0.3,0.3,0.7,0,1l-6.1,6.7
		C2.6,31.5,2.2,31.5,1.9,31.2z"/>
	<path class="st1" d="M1.8,17L1.8,17c0.3-0.3,0.7-0.3,1-0.1l6,6.4c0.2,0.3,0.2,0.6,0,0.9l-0.1,0.1c-0.3,0.2-0.6,0.2-0.9,0l-6-6.4
		C1.5,17.6,1.5,17.2,1.8,17z"/>
</g>
</svg>
