<?xml version="1.0" encoding="utf-8"?>
<!-- Generator: Adobe Illustrator 22.0.0, SVG Export Plug-In . SVG Version: 6.00 Build 0)  -->
<svg version="1.1" id="图层_1" xmlns="http://www.w3.org/2000/svg" xmlns:xlink="http://www.w3.org/1999/xlink" x="0px" y="0px"
	 viewBox="0 0 18.5 48.2" style="enable-background:new 0 0 18.5 48.2;" xml:space="preserve">
<style type="text/css">
	.st0{fill:#409EFF;}
	.st1{fill:#FFFFFF;}
</style>
<path class="st0" d="M7.4,48.2H0V0h7.4c6.1,0,11.1,5,11.1,11.1l0,0V37C18.5,43.2,13.5,48.2,7.4,48.2z M9.1,24.6
	c0.1-0.2,0.2-0.4,0.2-0.6s0-0.4-0.2-0.6L3,16.9c-0.2-0.3-0.6-0.3-0.9-0.1c0,0,0,0-0.1,0.1c-0.3,0.3-0.3,0.7,0,1l5.7,6.2L2,30.3
	c-0.3,0.3-0.3,0.7,0,1c0.2,0.3,0.6,0.3,0.9,0.1c0,0,0,0,0.1-0.1L9.1,24.6z M14.8,24.1c0-0.2,0-0.4-0.2-0.6l-6.1-6.6
	c-0.2-0.3-0.6-0.3-0.9-0.1c0,0,0,0-0.1,0.1c-0.3,0.3-0.3,0.7,0,1l5.7,6.2l-5.7,6.2c-0.3,0.3-0.3,0.7,0,1s0.7,0.3,0.9,0l6.1-6.6
	C14.8,24.5,14.8,24.3,14.8,24.1z"/>
<g>
	<path class="st0" d="M1,29.2v-9.4c0-4,3.3-7.3,7.3-7.3l0,0c4,0,7.3,3.3,7.3,7.3v9.4c0,4-3.3,7.3-7.3,7.3l0,0
		C4.3,36.5,1,33.3,1,29.2z"/>
	<g>
		<path class="st1" d="M8,31.3l-6.1-6.7c-0.3-0.3-0.3-0.7,0-1l0,0c0.3-0.3,0.7-0.3,1,0L9,30.3c0.2,0.3,0.2,0.7-0.1,1l0,0
			C8.7,31.6,8.2,31.5,8,31.3z"/>
		<path class="st1" d="M9,18l-6,6.4c-0.3,0.2-0.6,0.2-0.9,0L2,24.3c-0.2-0.3-0.2-0.6,0-0.9L8,17c0.3-0.2,0.7-0.2,1,0.1l0,0
			C9.3,17.3,9.3,17.7,9,18z"/>
	</g>
	<g>
		<path class="st1" d="M13.8,31.2l-6.1-6.7c-0.3-0.3-0.3-0.7,0-1l0,0c0.3-0.3,0.7-0.3,1,0l6.1,6.7c0.2,0.3,0.2,0.7-0.1,1l0,0
			C14.4,31.5,14,31.5,13.8,31.2z"/>
		<path class="st1" d="M14.8,17.9l-6,6.4c-0.3,0.2-0.6,0.2-0.9,0l-0.1-0.1c-0.2-0.3-0.2-0.6,0-0.9l6-6.4c0.3-0.2,0.7-0.2,1,0.1l0,0
			C15.1,17.2,15.1,17.6,14.8,17.9z"/>
	</g>
</g>
</svg>
