<?xml version="1.0" standalone="no"?><!DOCTYPE svg PUBLIC "-//W3C//DTD SVG 1.1//EN" "http://www.w3.org/Graphics/SVG/1.1/DTD/svg11.dtd"><svg t="1594718394690" class="icon" viewBox="0 0 1024 1024" version="1.1" xmlns="http://www.w3.org/2000/svg" p-id="14167" xmlns:xlink="http://www.w3.org/1999/xlink" width="50" height="50"><defs><style type="text/css"></style></defs><path d="M928 735.712h-96v-256h96a32 32 0 1 0 0-64h-96v-256l-63.992-64-64.008 64v256H576v-256l-64-64-64 64v256H320v-256l-64-64-64 64v256H96a32 32 0 1 0 0 64h96v256H96a32 32 0 1 0 0 64.008h96v63.992a64 64 0 0 0 128 0v-63.992h128v63.992a64 64 0 0 0 128 0v-63.992h128v63.992a64 64 0 0 0 128 0v-63.992h96a32 32 0 1 0 0-64.008z m-608 0v-256h128v256H320z m256 0v-256h128v256H576z" p-id="14168" fill="#148ae7"></path></svg>