<svg id="图层_1" data-name="图层 1" xmlns="http://www.w3.org/2000/svg" viewBox="0 0 176 175.6"><defs><style>.cls-1{fill:#0080e5;}</style></defs><path class="cls-1" d="M151.58,33.11v42.1a7.71,7.71,0,0,1-7.7,7.7,7.59,7.59,0,0,1-7.4-7.5v-24L112.33,75.56a7.52,7.52,0,0,1-12.82-5.42A7.26,7.26,0,0,1,101.73,65l24.44-24.44h-24a7.7,7.7,0,0,1-7.7-7.7,7.6,7.6,0,0,1,7.6-7.3H144A7.61,7.61,0,0,1,151.58,33.11ZM75,136.31H51.18l24.24-24.24a7.25,7.25,0,0,0,2.22-5.19,7.6,7.6,0,0,0-2.21-5.42,7.57,7.57,0,0,0-10.61,0L40.68,125.6V101.51a7.6,7.6,0,0,0-7.4-7.5,7.71,7.71,0,0,0-7.7,7.7v42.1a7.7,7.7,0,0,0,7.7,7.7h41.8a7.61,7.61,0,0,0,7.6-7.5A7.71,7.71,0,0,0,75,136.31Z" transform="translate(-0.58 -0.71)"/><path class="cls-1" d="M154.18.71H23A22.5,22.5,0,0,0,.58,23V154A22.37,22.37,0,0,0,23,176.31h131.2a22.37,22.37,0,0,0,22.4-22.3V23A22.37,22.37,0,0,0,154.18.71Zm7.4,24.8v125.9a10,10,0,0,1-10,10h-126a10,10,0,0,1-10-10V25.51a10,10,0,0,1,10-10h126A10,10,0,0,1,161.58,25.51Z" transform="translate(-0.58 -0.71)"/></svg>