<?xml version="1.0" encoding="utf-8"?>
<!-- Generator: Adobe Illustrator 25.0.0, SVG Export Plug-In . SVG Version: 6.00 Build 0)  -->
<svg version="1.1" id="图层_1" xmlns="http://www.w3.org/2000/svg" xmlns:xlink="http://www.w3.org/1999/xlink" x="0px" y="0px"
	 viewBox="0 0 50 50" style="enable-background:new 0 0 50 50;" xml:space="preserve">
<style type="text/css">
	.st0{fill:#707070;}
</style>
<g>
	<g>
		<path class="st0" d="M25,48.4C12.1,48.4,1.6,37.9,1.6,25S12.1,1.6,25,1.6S48.4,12.1,48.4,25S37.9,48.4,25,48.4z M25,4.6
			C13.8,4.6,4.6,13.8,4.6,25S13.8,45.4,25,45.4S45.4,36.2,45.4,25S36.2,4.6,25,4.6z"/>
	</g>
	<g>
		<path class="st0" d="M21.1,14v2.3l-1.8,6.4l0.2,0.2c1.2,1.7,1.8,3.6,1.7,5.5c0.1,2.6-0.9,3.9-2.8,4c-0.4,0.1-0.9,0.1-1.5,0.1
			c-0.1-0.2-0.1-0.4-0.2-0.6c-0.2-0.8-0.4-1.5-0.6-1.9h1.4l0.1,0c0.9,0,1.3-0.7,1.3-2.1c0.1-1.5-0.6-3.1-1.9-4.8l1.8-6.8H16V36h-2.3
			V14H21.1z"/>
		<path class="st0" d="M31.7,30.7c0.6-0.4,1.4-0.9,2.6-1.6l1.3-0.8l0.1-0.1l-1.4-1.8c-1.2,0.9-2.5,1.8-4,2.7
			c-0.5-0.8-0.9-1.7-1.2-2.8L29,25.9h5.2V14.1H22.6v18c0.1,0.7-0.2,1.3-0.7,1.8L21.8,34l1.3,2c0.4-0.3,0.9-0.5,1.5-0.8
			c0.1-0.1,0.1-0.1,0.2-0.1c0.3-0.1,0.7-0.3,1.3-0.5c1.1-0.5,2-0.8,2.6-1l0.1,0v-0.9c-0.1-0.6-0.1-1.1-0.1-1.4
			c-1.3,0.5-2.2,0.9-2.7,1.2c-0.5,0.2-0.8,0.3-1,0.4l-0.1,0v-6.9h1.7c1.1,4.6,3.9,7.8,8.3,9.6c0.4-0.7,0.8-1.4,1.3-2.2
			C34.3,32.6,32.8,31.8,31.7,30.7z M24.9,16.3h7V19h-7V16.3z M24.9,23.7V21h7v2.7H24.9z"/>
	</g>
</g>
</svg>
