<?xml version="1.0" standalone="no"?><!DOCTYPE svg PUBLIC "-//W3C//DTD SVG 1.1//EN" "http://www.w3.org/Graphics/SVG/1.1/DTD/svg11.dtd"><svg t="1592534437362" class="icon" viewBox="0 0 1024 1024" version="1.1" xmlns="http://www.w3.org/2000/svg" p-id="55973" xmlns:xlink="http://www.w3.org/1999/xlink" width="50" height="50"><defs><style type="text/css"></style></defs><path d="M655.766451 298.615224H203.709577a44.005035 44.005035 0 1 0 0 87.330456h452.056874a44.005035 44.005035 0 1 0 0-87.330456z m-347.736057 215.21124H203.709577a44.005035 44.005035 0 1 0 0 87.330456h104.320817a44.005035 44.005035 0 1 0 0-87.330456zM760.087268 52.198354h-63.430682v87.330456h63.430682a19.199108 19.199108 0 0 1 20.218529 17.896513v228.293818h98.430825V157.708496A112.815997 112.815997 0 0 0 760.087268 52.424892z" p-id="55974" fill="#148ae7"></path><path d="M95.650881 908.62582V171.527323a19.538915 19.538915 0 0 1 19.48228-19.538915h61.1653V56.785751h-61.1653A114.741572 114.741572 0 0 0 0.39159 171.527323v737.098497a114.684937 114.684937 0 0 0 114.571668 114.571669h215.21124V928.108101h-215.21124a19.482281 19.482281 0 0 1-19.482281-19.482281zM265.950933 204.885065a50.234834 50.234834 0 0 0 50.291469-50.348103V54.123928a50.348103 50.348103 0 0 0-100.639572 0v100.413034a50.234834 50.234834 0 0 0 50.291469 50.234834zM355.603405 56.785751H511.405016v95.089388H355.603405z m245.454083 148.099314a50.234834 50.234834 0 0 0 50.291469-50.234834V54.123928a50.291469 50.291469 0 1 0-100.526303 0v100.413034a50.234834 50.234834 0 0 0 50.291469 50.234834z m362.461036 483.658945c-4.587397 0.509711-12.686136-8.891622-15.178056-15.23469q-22.087469-56.634537-42.022826-114.628303a69.717115 69.717115 0 0 0-48.875606-46.780127c-31.771975-8.834988-64.450103-14.158634-96.731789-21.011414a470.972809 470.972809 0 0 0-141.586342 0c-18.34959 2.831727-36.812449 5.153743-55.105404 8.60845a112.532825 112.532825 0 0 0-99.790054 83.1395 919.574975 919.574975 0 0 1-32.225052 91.861219c-2.265381 5.663454-9.797775 14.611711-13.932096 14.045365-33.980722-4.304225-47.0633 16.424016-56.124826 43.268786a39.644176 39.644176 0 0 0 0 16.59392l34.886875 9.344698c-0.62298 49.045509-1.359229 97.807845-1.86894 146.456913 0 26.278425-1.302594 52.55685 0.509711 78.722006a60.882127 60.882127 0 0 0 11.949887 35.509855 304.693808 304.693808 0 0 0 108.058697 0c7.419124-2.831727 11.326907-41.116674 17.273533-63.940393h318.852443c7.815566 21.521124-7.192586 48.082722 16.990361 63.940393a301.409005 301.409005 0 0 0 105.340239-1.86894 53.746176 53.746176 0 0 0 11.326907-31.092361c1.24596-61.958183 0.849518-124.029636 0.339807-186.101088a346.433462 346.433462 0 0 0-4.757301-40.550329l37.605333-10.420754a44.231573 44.231573 0 0 0 0-20.784875c-9.457968-25.428907-23.956409-42.645806-54.878866-39.134465z m-405.503284 201.562317a31.771975 31.771975 0 0 1-20.898144 15.404594 156.424591 156.424591 0 0 1-35.226682 3.00163 504.387186 504.387186 0 0 1-51.310891-5.663453c-21.804297-4.587397-27.864192-20.84151-21.35122-49.951662 4.474128-19.935357 20.105261-20.84151 33.980722-16.197477a753.239341 753.239341 0 0 1 82.346617 32.848031c6.399703 3.058265 14.215269 15.687767 12.402963 20.671606z m-83.932384-140.113844c16.084208-45.30763 29.95967-86.934014 46.270417-127.654247a37.492063 37.492063 0 0 1 24.182947-16.990361 285.098259 285.098259 0 0 1 67.451734-10.420754c68.357886 0.509711 136.715772 3.00163 205.073658 6.059895a54.878866 54.878866 0 0 1 54.765597 44.68465c9.174795 33.980722 21.294586 66.998657 33.414377 104.320817a1019.931375 1019.931375 0 0 1-431.15873 0z m459.702536 151.723924a456.361098 456.361098 0 0 1-51.877236 6.682875 366.029012 366.029012 0 0 1-44.628015-4.021052c-16.650554-3.62461-21.917566-23.22016-7.24922-30.356112a699.606434 699.606434 0 0 1 99.223708-38.284946c13.535654-4.190956 22.653815 7.079317 23.333429 22.144103 0.566345 17.556706 5.663454 38.284947-18.802666 43.891767z" p-id="55975" fill="#148ae7"></path></svg>