<?xml version="1.0" standalone="no"?><!DOCTYPE svg PUBLIC "-//W3C//DTD SVG 1.1//EN" "http://www.w3.org/Graphics/SVG/1.1/DTD/svg11.dtd"><svg t="1606700765197" class="icon" viewBox="0 0 1024 1024" version="1.1" xmlns="http://www.w3.org/2000/svg" p-id="6601" xmlns:xlink="http://www.w3.org/1999/xlink" width="200" height="200"><defs><style type="text/css"></style></defs><path d="M631.466667 634.88v-477.866667c-3.413333-64.853333-54.613333-116.053333-119.466667-119.466666-71.68-3.413333-133.12 47.786667-136.533333 119.466666v477.866667c-47.786667 37.546667-78.506667 95.573333-78.506667 157.013333 3.413333 112.64 92.16 201.386667 204.8 201.386667s204.8-88.746667 204.8-201.386667c0-61.44-27.306667-119.466667-75.093333-157.013333z m-129.706667 331.093333c-95.573333 0-170.666667-75.093333-170.666667-170.666666 0-54.613333 27.306667-105.813333 71.68-136.533334 3.413333-3.413333 6.826667-6.826667 6.826667-13.653333V153.6c0-51.2 40.96-88.746667 92.16-88.746667 51.2 0 92.16 40.96 92.16 88.746667v488.106667c0 6.826667 3.413333 10.24 6.826667 13.653333 44.373333 30.72 71.68 81.92 71.68 136.533333 0 95.573333-75.093333 174.08-170.666667 174.08z m71.68-174.08c0 40.96-34.133333 71.68-71.68 71.68s-71.68-34.133333-71.68-71.68c0-30.72 20.48-61.44 51.2-68.266666V351.573333c-10.24-6.826667-17.066667-17.066667-17.066667-30.72 0-20.48 17.066667-37.546667 37.546667-37.546666s37.546667 17.066667 37.546667 37.546666c0 13.653333-6.826667 23.893333-17.066667 30.72v372.053334c30.72 10.24 51.2 37.546667 51.2 68.266666zM638.293333 238.933333c0-10.24 6.826667-17.066667 17.066667-17.066666h78.506667c10.24 0 17.066667 6.826667 17.066666 17.066666s-6.826667 17.066667-17.066666 17.066667h-78.506667c-10.24 0-17.066667-6.826667-17.066667-17.066667z m112.64 242.346667c0 10.24-6.826667 17.066667-17.066666 17.066667h-78.506667c-10.24 0-17.066667-6.826667-17.066667-17.066667s6.826667-17.066667 17.066667-17.066667h78.506667c10.24 0 17.066667 10.24 17.066666 17.066667z m0-119.466667c0 10.24-6.826667 17.066667-17.066666 17.066667h-78.506667c-10.24 0-17.066667-6.826667-17.066667-17.066667s6.826667-17.066667 17.066667-17.066666h78.506667c10.24 0 17.066667 6.826667 17.066666 17.066666z" fill="#231815" p-id="6602"></path></svg>