<?xml version="1.0" standalone="no"?><!DOCTYPE svg PUBLIC "-//W3C//DTD SVG 1.1//EN" "http://www.w3.org/Graphics/SVG/1.1/DTD/svg11.dtd"><svg t="1609899071039" class="icon" viewBox="0 0 1024 1024" version="1.1" xmlns="http://www.w3.org/2000/svg" p-id="5227" width="64" height="64" xmlns:xlink="http://www.w3.org/1999/xlink"><defs><style type="text/css"></style></defs><path d="M511.710609 0c214.28313 0 444.950261 64.601043 444.950261 206.58087v603.826087c0 141.913043-230.622609 206.58087-444.950261 206.580869S66.782609 952.32 66.782609 810.406957V206.58087C66.782609 64.601043 297.405217 0 511.710609 0zM893.106087 810.406957v-118.717218c-65.669565 67.673043-224.055652 102.845217-381.373217 102.845218-157.317565 0-315.703652-35.172174-381.373218-102.845218v118.717218c0 78.959304 170.74087 143.026087 381.373218 143.026086 210.610087 0 381.373217-64.066783 381.373217-143.026086z m0-190.686609v-118.717218c-65.669565 67.673043-224.055652 102.845217-381.373217 102.845218-157.317565 0-315.703652-35.172174-381.373218-102.845218v118.717218h0.133565c0 0.333913-0.133565 0.667826-0.133565 1.001739 0 78.469565 170.76313 142.024348 381.373218 142.024348 210.610087 0 381.373217-63.554783 381.373217-142.024348 0-0.333913-0.111304-0.667826-0.111304-1.001739h0.111304z m0-190.686609v-109.189565c-83.300174 63.465739-235.965217 93.317565-381.373217 93.317565-145.385739 0-298.073043-29.829565-381.373218-93.317565v109.189565h0.133565c0 0.333913-0.133565 0.667826-0.133565 1.001739 0 78.469565 170.76313 142.024348 381.373218 142.024348 210.610087 0 381.373217-63.554783 381.373217-142.024348 0-0.333913-0.111304-0.667826-0.111304-1.001739h0.111304zM765.996522 826.323478a31.788522 31.788522 0 1 1 63.577043 0.022261 31.788522 31.788522 0 0 1-63.577043 0z m0-190.686608a31.788522 31.788522 0 1 1 63.577043 0.02226 31.788522 31.788522 0 0 1-63.577043 0z m0-190.686609a31.788522 31.788522 0 1 1 63.577043 0.022261 31.788522 31.788522 0 0 1-63.577043 0z" p-id="5228" fill="#148ae7"></path></svg>