<?xml version="1.0" standalone="no"?><!DOCTYPE svg PUBLIC "-//W3C//DTD SVG 1.1//EN" "http://www.w3.org/Graphics/SVG/1.1/DTD/svg11.dtd"><svg t="1592530410178" class="icon" viewBox="0 0 1024 1024" version="1.1" xmlns="http://www.w3.org/2000/svg" p-id="9044" xmlns:xlink="http://www.w3.org/1999/xlink" width="50" height="50"><defs><style type="text/css"></style></defs><path d="M866.744 157.256l-70.748 70.748A402.11 402.11 0 0 1 913.408 512c0 221.778-179.63 401.408-401.408 401.408S110.592 733.778 110.592 512c0-204.718 153.037-373.31 351.232-397.896V215.46c-142.5 24.084-250.88 147.517-250.88 296.54 0 166.083 134.973 301.056 301.056 301.056S813.056 678.083 813.056 512c0-83.292-33.618-158.556-88.31-212.746l-70.748 70.748c36.127 36.628 58.706 86.804 58.706 141.998 0 110.889-89.815 200.704-200.704 200.704S311.296 622.889 311.296 512c0-93.327 64.225-171.1 150.528-193.68v107.377C431.718 443.26 411.648 474.87 411.648 512c0 55.194 45.158 100.352 100.352 100.352S612.352 567.194 612.352 512c0-37.13-20.07-69.243-50.176-86.303V10.24H512C235.028 10.24 10.24 235.028 10.24 512S235.028 1013.76 512 1013.76 1013.76 788.972 1013.76 512c0-138.486-56.197-263.926-147.016-354.744z" p-id="9045" fill="#148ae7"></path></svg>