<?xml version="1.0" encoding="utf-8"?>
<!-- Generator: Adobe Illustrator 25.0.0, SVG Export Plug-In . SVG Version: 6.00 Build 0)  -->
<svg version="1.1" id="图层_1" xmlns="http://www.w3.org/2000/svg" xmlns:xlink="http://www.w3.org/1999/xlink" x="0px" y="0px"
	 viewBox="0 0 12.3 12.4" style="enable-background:new 0 0 12.3 12.4;" xml:space="preserve">
<style type="text/css">
	.st0{fill:#0CB027;}
	.st1{fill:#FFFFFF;}
</style>
<g>
	<circle class="st0" cx="6.2" cy="6.2" r="4.8"/>
	<path class="st1" d="M7.1,6.4c0.4-0.2,1.2-0.6,1.2-1.7S7.5,2.9,6.6,2.6C5.8,2.5,5,2.6,4.4,3.2c-0.5,0.5-0.6,1-0.6,2.1H5V5.1
		C5,4.5,5,4,5.9,3.7C6.4,3.6,6.8,3.7,7,4s0.2,0.9-0.1,1.2L6,5.6C5.7,6,5.5,6.2,5.5,6.6v1.4h1.2V7.1C6.6,6.8,6.9,6.6,7.1,6.4L7.1,6.4
		L7.1,6.4L7.1,6.4L7.1,6.4z M6.9,9.2c0,0.4-0.4,0.7-0.7,0.7c-0.4,0-0.7-0.4-0.7-0.7c0-0.4,0.4-0.7,0.7-0.7C6.5,8.4,6.9,8.7,6.9,9.2z
		"/>
</g>
</svg>
