<?xml version="1.0" encoding="utf-8"?>
<!-- Generator: Adobe Illustrator 22.0.0, SVG Export Plug-In . SVG Version: 6.00 Build 0)  -->
<svg version="1.1" id="图层_1" xmlns="http://www.w3.org/2000/svg" xmlns:xlink="http://www.w3.org/1999/xlink" x="0px" y="0px"
	 viewBox="0 0 12.3 12.4" style="enable-background:new 0 0 12.3 12.4;" xml:space="preserve">
<style type="text/css">
	.st0{display:none;fill:#FC5A3C;}
	.st1{fill:#0cb027;}
</style>
<path class="st0" d="M6.5,6.7c0,1.5,1.2,2.8,2.8,2.8s2.8-1.2,2.8-2.8c0-1.5-1.2-2.8-2.8-2.8S6.5,5.1,6.5,6.7z M10.6,6.7
	c0.1,0.8-0.5,1.4-1.3,1.5S7.9,7.7,7.8,6.9c0-0.1,0-0.1,0-0.2C7.7,5.9,8.3,5.3,9.1,5.2s1.4,0.5,1.5,1.3C10.6,6.5,10.6,6.6,10.6,6.7z
	 M8.4,6.7c0,0.5,0.4,0.8,0.8,0.8c0.5,0,0.8-0.4,0.8-0.8c0-0.5-0.4-0.8-0.8-0.8C8.8,5.8,8.4,6.2,8.4,6.7z M12.7,8.2
	c0.1-0.1,0-0.2-0.1-0.3h-0.1c-0.2,0-0.3,0.1-0.4,0.3c-0.9,1.6-2.9,2.1-4.5,1.2C7.1,9.1,6.7,8.7,6.4,8.2C6.3,8.1,6.2,7.9,6,7.9
	C5.9,7.9,5.8,8,5.8,8.1v0.1C6.2,9.1,7,9.7,7.9,10.1H6.6c-0.2,0-0.4,0.2-0.4,0.4l0,0v0.4c0,0.2,0.2,0.4,0.4,0.4l0,0h5
	c0.2,0,0.4-0.2,0.4-0.4l0,0v-0.4c0-0.2-0.2-0.4-0.4-0.4l0,0h-1.2C11.5,9.8,12.2,9.1,12.7,8.2z M5.6,8.3L5.4,8
	C5.3,7.9,5.3,7.8,5.3,7.7l0,0c0-0.1,0-0.2,0.1-0.3c0-0.1,0.1-0.1,0.1-0.2C5.6,7.1,5.8,7,6,7l0,0C5.9,6.8,5.9,6.5,5.9,6.3
	c0-0.3,0-0.5,0.1-0.8H5.2C4.1,5.5,3,5.3,2,5.1c0.3-0.8,0.6-1.6,0.9-2.4C3,2.5,3.2,2.4,3.3,2.4c0.4-0.1,0.8-0.2,1.3-0.2
	c1.3,0,2.5,0.1,3.8,0.1c0.5,0,0.9,0.3,1,0.7v0.2l0.1,0.3h0.3c0.2,0,0.5,0,0.7,0.1V3.5l-0.1-0.2l0,0l-0.1-0.2l-0.2-0.6
	C10,2.1,9.6,1.7,9.2,1.6C8.6,1.4,8,1.3,7.4,1.2c-0.9-0.1-1.7-0.1-2.6,0c-0.3,0.1-0.7,0.1-1,0.2C2.9,1.5,2.2,2.1,2,2.9
	C1.8,3.5,1.6,4,1.4,4.6c0,0.1-0.2,0.3-0.3,0.3c-0.6-0.1-0.9,0.3-1,0.8c0,0.1,0,0.2,0,0.3l0.6,0.2v4c0,0.2,0.1,0.5,0.2,0.7
	c0.7,0.1,1.3,0.1,2,0c0.1-0.1,0.2-0.8,0.3-1.2H6c0.1-0.2,0.2-0.4,0.5-0.5C6.1,9,5.8,8.7,5.6,8.3z M3.6,7.6C3.5,7.7,3.4,7.9,3.2,7.9
	S2.8,8,2.6,8C2.3,8,2,7.9,1.7,7.9C1.3,7.8,1.2,7.5,1.3,7c0.1-0.4,0.4-0.4,0.6-0.3c0.5,0.2,1,0.4,1.5,0.6C3.5,7.3,3.7,7.5,3.6,7.6
	L3.6,7.6z"/>
<path class="st1" d="M5.6,8.3L5.4,8C5.3,7.9,5.3,7.8,5.3,7.7l0,0c0-0.1,0-0.2,0.1-0.3c0-0.1,0.1-0.1,0.1-0.2C5.6,7.1,5.8,7,6,7l0,0
	C5.9,6.8,5.9,6.5,5.9,6.3c0-0.3,0-0.5,0.1-0.8H5.2C4.1,5.5,3,5.3,2,5.1c0.3-0.8,0.6-1.6,0.9-2.4C3,2.5,3.2,2.4,3.3,2.4
	c0.4-0.1,0.8-0.2,1.3-0.2c1.3,0,2.5,0.1,3.8,0.1c0.5,0,0.9,0.3,1,0.7v0.2l0.1,0.3h0.3c0.2,0,0.5,0,0.7,0.1V3.5l-0.1-0.2l0,0
	l-0.1-0.2l-0.2-0.6C10,2.1,9.6,1.7,9.2,1.6C8.6,1.4,8,1.3,7.4,1.2c-0.9-0.1-1.7-0.1-2.6,0c-0.3,0.1-0.7,0.1-1,0.2
	C2.9,1.5,2.2,2.1,2,2.9C1.8,3.5,1.6,4,1.4,4.6c0,0.1-0.2,0.3-0.3,0.3c-0.6-0.1-0.9,0.3-1,0.8c0,0.1,0,0.2,0,0.3l0.6,0.2v4
	c0,0.2,0.1,0.5,0.2,0.7c0.7,0.1,1.3,0.1,2,0c0.1-0.1,0.2-0.8,0.3-1.2H6c0.1-0.2,0.2-0.4,0.5-0.5C6.1,9,5.8,8.7,5.6,8.3z M3.6,7.6
	C3.5,7.7,3.4,7.9,3.2,7.9S2.8,8,2.6,8C2.3,8,2,7.9,1.7,7.9C1.3,7.8,1.2,7.5,1.3,7c0.1-0.4,0.4-0.4,0.6-0.3c0.5,0.2,1,0.4,1.5,0.6
	C3.5,7.3,3.7,7.5,3.6,7.6L3.6,7.6z"/>
<path class="st0" d="M6.5,6.7c0,1.5,1.2,2.8,2.8,2.8s2.8-1.2,2.8-2.8c0-1.5-1.2-2.8-2.8-2.8S6.5,5.1,6.5,6.7z M10.6,6.7
	c0.1,0.8-0.5,1.4-1.3,1.5S7.9,7.7,7.8,6.9c0-0.1,0-0.1,0-0.2C7.7,5.9,8.3,5.3,9.1,5.2s1.4,0.5,1.5,1.3C10.6,6.5,10.6,6.6,10.6,6.7z
	 M8.4,6.7c0,0.5,0.4,0.8,0.8,0.8c0.5,0,0.8-0.4,0.8-0.8c0-0.5-0.4-0.8-0.8-0.8C8.8,5.8,8.4,6.2,8.4,6.7z M12.7,8.2
	c0.1-0.1,0-0.2-0.1-0.3h-0.1c-0.2,0-0.3,0.1-0.4,0.3c-0.9,1.6-2.9,2.1-4.5,1.2C7.1,9.1,6.7,8.7,6.4,8.2C6.3,8.1,6.2,7.9,6,7.9
	C5.9,7.9,5.8,8,5.8,8.1v0.1C6.2,9.1,7,9.7,7.9,10.1H6.6c-0.2,0-0.4,0.2-0.4,0.4l0,0v0.4c0,0.2,0.2,0.4,0.4,0.4l0,0h5
	c0.2,0,0.4-0.2,0.4-0.4l0,0v-0.4c0-0.2-0.2-0.4-0.4-0.4l0,0h-1.2C11.5,9.8,12.2,9.1,12.7,8.2z"/>
<path class="st0" d="M9.4,9.8c1.6,0,2.9-1.3,2.9-3s-1.3-3-2.9-3s-2.9,1.3-2.9,3S7.8,9.8,9.4,9.8z M9.4,4.4c1.3,0,2.4,1.1,2.4,2.5
	c0,1.4-1.1,2.5-2.4,2.5c-1.3,0-2.4-1.1-2.4-2.5C7.1,5.5,8.1,4.4,9.4,4.4z M11.8,9.2c-0.1-0.1-0.3,0-0.3,0.1c0,0.1,0,0.3,0.1,0.3
	c0.2,0.1,0.2,0.2,0.2,0.2c0,0.2-0.9,0.6-2.4,0.6C7.9,10.4,7,10,7,9.9c0,0,0-0.1,0.2-0.2c0.1-0.1,0.2-0.2,0.1-0.3
	C7.2,9.2,7.1,9.2,7,9.2C6.6,9.4,6.5,9.7,6.5,9.9c0,0.7,1.5,1.1,2.9,1.1c1.4,0,2.9-0.3,2.9-1.1C12.3,9.7,12.2,9.4,11.8,9.2L11.8,9.2z
	 M9.4,8.2c0.8,0,1.4-0.6,1.4-1.4c0-0.8-0.6-1.4-1.4-1.4C8.6,5.4,8,6,8,6.8C8,7.6,8.6,8.2,9.4,8.2L9.4,8.2z M8.9,5.7
	c0.3,0,0.6,0.3,0.6,0.6c0,0.3-0.3,0.6-0.6,0.6c0,0,0,0,0,0c-0.3,0-0.6-0.3-0.6-0.6C8.4,5.9,8.6,5.7,8.9,5.7z"/>
<g>
	<path class="st1" d="M9.1,9.5C9.1,9.5,9.1,9.5,9.1,9.5c0.8,0,1.5-0.3,2-0.8l0,0c0.5-0.5,0.8-1.2,0.8-2c0-0.7-0.3-1.4-0.8-2
		c-0.5-0.5-1.3-0.8-2-0.8c0,0,0,0,0,0c-0.8,0-1.5,0.3-2,0.8l0,0C6.5,5.3,6.3,6,6.3,6.7c0,0.7,0.3,1.4,0.8,2C7.6,9.2,8.4,9.5,9.1,9.5
		z M7.3,6.7c0-0.5,0.2-0.9,0.5-1.3c0.3-0.3,0.8-0.5,1.3-0.5v0c0,0,0,0,0,0c0.5,0,1,0.2,1.3,0.6c0.3,0.3,0.5,0.8,0.5,1.3
		c0,0.5-0.2,0.9-0.5,1.3c-0.3,0.3-0.8,0.5-1.3,0.5c0,0,0,0,0,0C8.6,8.5,8.2,8.3,7.8,8C7.5,7.6,7.3,7.2,7.3,6.7z"/>
	<path class="st1" d="M9.1,7.9C9.1,7.9,9.1,7.9,9.1,7.9c0.3,0,0.6-0.1,0.9-0.3c0.5-0.5,0.5-1.2,0-1.7C9.7,5.7,9.4,5.5,9.1,5.5
		c0,0,0,0,0,0c-0.3,0-0.6,0.1-0.9,0.3C8,6.1,7.9,6.4,7.9,6.7S8,7.3,8.3,7.6C8.5,7.8,8.8,7.9,9.1,7.9z"/>
	<path class="st1" d="M11,10.2L9.8,10V9.5l-0.2,0c-0.1,0-0.3,0-0.5,0c-0.1,0-0.4,0-0.5,0l-0.2,0V10l-1.2,0.2c-0.2,0-0.4,0.2-0.4,0.5
		v0.4h4.6v-0.4C11.4,10.5,11.3,10.3,11,10.2z"/>
</g>
</svg>
