<?xml version="1.0" standalone="no"?><!DOCTYPE svg PUBLIC "-//W3C//DTD SVG 1.1//EN" "http://www.w3.org/Graphics/SVG/1.1/DTD/svg11.dtd"><svg t="1615804014957" class="icon" viewBox="0 0 1024 1024" version="1.1" xmlns="http://www.w3.org/2000/svg" p-id="2711" width="64" height="64" xmlns:xlink="http://www.w3.org/1999/xlink"><defs><style type="text/css"></style></defs><path d="M1018.046512 518.251163C1018.046512 232.507535 791.486512 5.953488 505.748837 5.953488 232.519442 5.953488 5.953488 232.513488 5.953488 518.251163 5.953488 791.480558 232.513488 1018.046512 505.748837 1018.046512c285.737674 0 512.297674-226.56 512.297675-499.795349zM278.224372 555.65693c-4.554419-4.715163-5.114047-12.8-1.196651-18.128372l15.181395-20.658605a11.627163 11.627163 0 0 1 16.50307-2.33972l125.267349 96.011907c5.227163 4.006698 13.556093 3.84 18.598698-0.35721l320.005953-266.597209c5.048558-4.203163 12.966698-3.828093 17.604465 0.756093l12.341582 12.186791c4.679442 4.613953 4.709209 12.061767 0.011907 16.681674l-350.660466 345.099907a11.746233 11.746233 0 0 1-16.699534-0.214326L278.224372 555.662884z" fill="#01b97e" p-id="2712"></path></svg>