<?xml version="1.0" standalone="no"?><!DOCTYPE svg PUBLIC "-//W3C//DTD SVG 1.1//EN" "http://www.w3.org/Graphics/SVG/1.1/DTD/svg11.dtd"><svg t="1597799395955" class="icon" viewBox="0 0 1024 1024" version="1.1" xmlns="http://www.w3.org/2000/svg" p-id="2122" xmlns:xlink="http://www.w3.org/1999/xlink" width="24" height="24"><defs><style type="text/css"></style></defs><path d="M774.988733 449.416536a58.927888 58.927888 0 1 1 58.489219-58.927888 58.489219 58.489219 0 0 1-58.489219 58.927888m-22.664572-383.835499h45.329145a36.555762 36.555762 0 0 1 35.824646 37.94488l-9.504498 158.871341a35.459089 35.459089 0 0 1-35.093531 33.850636h-27.051264a35.02042 35.02042 0 0 1-35.093531-33.850636L717.23063 103.525917a35.605312 35.605312 0 0 1 35.093531-37.94488m22.664572-60.170784A252.234757 252.234757 0 1 0 1023.567914 257.571898 250.187634 250.187634 0 0 0 774.988733 5.410253m25.589034 639.579608V592.642011C478.155947 584.819078 382.379851 306.410396 489.853791 96.653434A341.869485 341.869485 0 0 1 552.729702 14.622305a339.164358 339.164358 0 0 0-97.969442-14.622305 350.350421 350.350421 0 0 0-347.279737 352.616878 249.822076 249.822076 0 0 0 1.46223 25.515922v266.637727A253.550764 253.550764 0 0 0 0.006583 854.893046a46.498929 46.498929 0 0 0 46.06026 46.937598h212.023418a219.77324 219.77324 0 0 0 393.339997 0h212.023419a46.352706 46.352706 0 0 0 46.06026-46.937598 255.232329 255.232329 0 0 0-108.93617-210.268742" fill="#3296fc" p-id="2123"></path></svg>