<?xml version="1.0" standalone="no"?><!DOCTYPE svg PUBLIC "-//W3C//DTD SVG 1.1//EN" "http://www.w3.org/Graphics/SVG/1.1/DTD/svg11.dtd"><svg t="1597391149862" class="icon" viewBox="0 0 1048 1024" version="1.1" xmlns="http://www.w3.org/2000/svg" p-id="2694" xmlns:xlink="http://www.w3.org/1999/xlink" width="30" height="30"><defs><style type="text/css"></style></defs><path d="M859.419219 833.978157V672.918063c-95.699581 0-173.305044 78.582016-173.305044 175.540968s77.605463 175.540969 173.305044 175.540969c93.770573 0 169.98223-75.515388 173.033639-169.76536H879.439808a20.132195 20.132195 0 0 1-20.020589-20.256483z m60.709842-21.501904h128.012045c-10.440231-77.821066-71.125976-139.340051-147.979367-149.91979v129.659502a20.104293 20.104293 0 0 0 19.967322 20.255215z m0 0" p-id="2695" fill="#3296fc"></path><path d="M690.46554 277.872252a41.112848 41.112848 0 0 0 58.007201-3.690606l80.153377-91.094567a41.101434 41.101434 0 1 0-61.699076-54.3204l-80.178742 91.09964a41.08241 41.08241 0 0 0 3.719776 58.005933z" p-id="2696" fill="#3296fc"></path><path d="M788.406118 457.144411a41.116653 41.116653 0 0 0 46.83519 34.460879l119.9371-18.271672a41.091288 41.091288 0 1 0-12.343874-81.250413l-119.963733 18.255185a41.091288 41.091288 0 0 0-34.464683 46.806021z" p-id="2697" fill="#3296fc"></path><path d="M460.51793 168.655667a41.110312 41.110312 0 0 0 81.729811-5.272114l-0.277747-121.309346a41.106507 41.106507 0 0 0-82.191454-1.936617l0.279015 121.309346a42.486363 42.486363 0 0 0 0.460375 7.208731z" p-id="2698" fill="#3296fc"></path><path d="M173.103393 167.660091l75.775379 94.763612a41.106507 41.106507 0 1 0 64.192455-51.36411l-75.796939-94.738248a41.091288 41.091288 0 0 0-72.720166 31.893942 40.625841 40.625841 0 0 0 8.549271 19.444804z" p-id="2699" fill="#3296fc"></path><path d="M658.929244 889.944745h-462.023342a58.543671 58.543671 0 1 0 0 117.087343h531.061779a207.842019 207.842019 0 0 1-69.038437-117.087343z" p-id="2700" fill="#3296fc"></path><path d="M749.134768 674.075975V544.472276c0-139.33371-112.936362-252.270071-252.266267-252.270071h-3.61578c-139.33371 0-252.2929 112.936362-252.2929 252.270071v309.969089h413.927511a213.12301 213.12301 0 0 1-0.091313-5.982334 207.810312 207.810312 0 0 1 94.338749-174.383056z" p-id="2701" fill="#3296fc"></path><path d="M200.359346 443.295125a41.106507 41.106507 0 0 0-32.194517-48.388796l-118.961816-23.872263A41.122994 41.122994 0 0 0 0.814216 403.256484a41.607466 41.607466 0 0 0-0.356378 14.279223 41.126799 41.126799 0 0 0 32.555968 34.104501l118.969426 23.876067a41.091288 41.091288 0 0 0 48.376114-32.22115z" p-id="2702" fill="#3296fc"></path></svg>