<?xml version="1.0" standalone="no"?><!DOCTYPE svg PUBLIC "-//W3C//DTD SVG 1.1//EN" "http://www.w3.org/Graphics/SVG/1.1/DTD/svg11.dtd"><svg t="1597394594236" class="icon" viewBox="0 0 1024 1024" version="1.1" xmlns="http://www.w3.org/2000/svg" p-id="40146" xmlns:xlink="http://www.w3.org/1999/xlink" width="30" height="30"><defs><style type="text/css"></style></defs><path d="M861.7 84.8c24.1 18.7 28.3 53.3 9.7 77.4L653.8 441.4c-9.8 12.6-24.4 20.2-40.3 21.1-1.2 0.5-2.3 0.5-3.4 0.5-14.7 0-28.8-5.8-39.2-16.4L397.6 271.2 224 371.9c-26.4 15.3-60.1 6.3-75.4-20.1-15.3-26.4-6.3-60.1 20.1-75.4l210.5-122.1c21.8-12.6 49.2-8.9 67 8.9l159.2 161L784.3 94.4c18.7-24 53.3-28.3 77.4-9.6zM889 431.2c8.4 0 15.3 6.9 15.3 15.3v489c0 8.4-6.7 15.3-15.3 15.3H766.4c-8.4 0-15.3-6.9-15.3-15.3v-489c0-8.4 6.9-15.3 15.3-15.3H889zM678.6 702.7c8.4 0 15.3 6.9 15.3 15.3v217.6c0 8.4-6.9 15.3-15.3 15.3H556c-8.4 0-15.3-6.9-15.3-15.3V718c0-8.4 6.9-15.3 15.3-15.3h122.6zM468.1 519.9c8.4 0 15.3 6.9 15.3 15.3v400.3c0 8.4-6.9 15.3-15.3 15.3H345.5c-8.4 0-15.3-6.9-15.3-15.3V535.2c0-8.4 6.9-15.3 15.3-15.3h122.6z m-210.5 87.3c8.4 0 15.3 6.9 15.3 15.3v313c0 8.4-6.7 15.3-15.3 15.3H135c-8.4 0-15.3-6.9-15.3-15.3v-313c0-8.4 6.9-15.3 15.3-15.3h122.6z" fill="#3296fc" p-id="40147"></path></svg>