<?xml version="1.0" standalone="no"?><!DOCTYPE svg PUBLIC "-//W3C//DTD SVG 1.1//EN" "http://www.w3.org/Graphics/SVG/1.1/DTD/svg11.dtd"><svg t="1574906727780" class="icon" viewBox="0 0 1024 1024" version="1.1" xmlns="http://www.w3.org/2000/svg" p-id="14300" xmlns:xlink="http://www.w3.org/1999/xlink" width="200" height="200"><defs><style type="text/css"></style></defs><path d="M590.3 532.7l-118 88.5c-9.8 7.3-23.6 5.3-31-4.4-2.9-3.8-4.4-8.5-4.4-13.3v-177c0-12.2 9.9-22.1 22.1-22.1 4.8 0 9.4 1.6 13.3 4.4l118 88.5c9.8 7.3 11.8 21.2 4.4 31-1.2 1.6-2.7 3.1-4.4 4.4zM247.5 205.3h530.9c48.9 0 88.5 39.6 88.5 88.5v442.4c0 48.9-39.6 88.5-88.5 88.5H247.5c-48.9 0-88.5-39.6-88.5-88.5V293.8c0-48.9 39.7-88.5 88.5-88.5z m442.4 44.3H336v530.9h353.9V249.6zM203.3 382.3h88.5V249.6h-44.2c-24.4 0-44.2 19.8-44.2 44.2v88.5z m619.3 0v-88.5c0-24.4-19.8-44.2-44.2-44.2h-44.2v132.7h88.4zM203.3 647.7v88.5c0 24.4 19.8 44.2 44.2 44.2h44.2V647.7h-88.4z m0-44.2h88.5v-177h-88.5v177z m619.3 44.2h-88.5v132.7h44.2c24.4 0 44.2-19.8 44.2-44.2v-88.5z m0-44.2v-177h-88.5v177h88.5z" p-id="14301" fill="#1296db"></path></svg>