<?xml version="1.0" standalone="no"?><!DOCTYPE svg PUBLIC "-//W3C//DTD SVG 1.1//EN" "http://www.w3.org/Graphics/SVG/1.1/DTD/svg11.dtd"><svg t="1574646857001" class="icon" viewBox="0 0 1024 1024" version="1.1" xmlns="http://www.w3.org/2000/svg" p-id="4223" xmlns:xlink="http://www.w3.org/1999/xlink" width="200" height="200"><defs><style type="text/css"></style></defs><path d="M856.064 126.976H167.936c-68.608 0-123.904 55.296-123.904 123.904v522.24c0 68.608 55.296 123.904 123.904 123.904h688.128c67.584 0 123.904-55.296 123.904-123.904v-522.24c0-68.608-55.296-123.904-123.904-123.904z m-612.352 706.56V190.464h536.576v644.096H243.712zM107.52 722.944h72.704v110.592h-12.288c-33.792 0-60.416-27.648-60.416-60.416v-50.176z m72.704-179.2v116.736h-72.704V543.744h72.704z m0-159.744v96.256h-72.704v-96.256h72.704z m-12.288-193.536H180.224v131.072h-72.704v-70.656c0-33.792 26.624-60.416 60.416-60.416z m675.84 532.48h73.728v50.176c0 33.792-27.648 60.416-60.416 60.416h-12.288V722.944z m72.704-179.2v116.736h-73.728V543.744h73.728z m0-159.744v96.256h-73.728v-96.256h73.728z m-60.416-193.536c33.792 0 60.416 27.648 60.416 60.416v70.656h-73.728V190.464h13.312z" p-id="4224" fill="#ffffff"></path><path d="M654.336 484.352L437.248 359.424c-5.12-3.072-10.24-4.096-15.36-4.096s-11.264 1.024-15.36 4.096c-10.24 5.12-16.384 16.384-16.384 27.648v250.88c0 11.264 6.144 21.504 15.36 27.648 4.096 3.072 10.24 4.096 16.384 4.096 5.12 0 10.24-1.024 15.36-4.096l217.088-124.928c10.24-5.12 16.384-16.384 16.384-27.648 0-12.288-6.144-22.528-16.384-28.672z m-200.704 98.304V441.344L575.488 512l-121.856 70.656z" p-id="4225" fill="#ffffff"></path></svg>