<?xml version="1.0" standalone="no"?><!DOCTYPE svg PUBLIC "-//W3C//DTD SVG 1.1//EN" "http://www.w3.org/Graphics/SVG/1.1/DTD/svg11.dtd"><svg t="1574646985327" class="icon" viewBox="0 0 1024 1024" version="1.1" xmlns="http://www.w3.org/2000/svg" p-id="7491" xmlns:xlink="http://www.w3.org/1999/xlink" width="200" height="200"><defs><style type="text/css"></style></defs><path d="M955.2 841.6c-14.4-19.2-36.8-32-62.4-32H153.6c-28.8 0-51.2-27.2-46.4-56 4.8-22.4 25.6-36.8 48-36.8h137.6c9.6 0 16-6.4 16-16s-6.4-16-16-16H158.4c-43.2 0-81.6 33.6-83.2 76.8 0 19.2 4.8 35.2 16 49.6 14.4 19.2 36.8 32 62.4 32h737.6c28.8 0 51.2 27.2 46.4 56-4.8 22.4-25.6 36.8-48 36.8H243.2c-9.6 0-16 6.4-16 16s6.4 16 16 16h644.8c43.2 0 81.6-33.6 83.2-76.8 0-19.2-6.4-35.2-16-49.6z" p-id="7492" fill="#ffffff"></path><path d="M523.2 72c-131.2 0-238.4 107.2-238.4 240 0 195.2 238.4 384 238.4 384s238.4-188.8 238.4-384c0-132.8-107.2-240-238.4-240z m0 576c-22.4-19.2-56-52.8-91.2-94.4-51.2-60.8-110.4-152-110.4-241.6 0-112 91.2-203.2 201.6-203.2 112 0 201.6 91.2 201.6 203.2 0 140.8-144 284.8-201.6 336z" p-id="7493" fill="#ffffff"></path><path d="M523.2 433.6c-68.8 0-124.8-56-124.8-124.8s56-124.8 124.8-124.8 124.8 56 124.8 124.8-56 124.8-124.8 124.8z m0-219.2c-51.2 0-92.8 41.6-92.8 92.8s41.6 92.8 92.8 92.8 92.8-41.6 92.8-92.8-41.6-92.8-92.8-92.8z" p-id="7494" fill="#ffffff"></path></svg>