<?xml version="1.0" standalone="no"?><!DOCTYPE svg PUBLIC "-//W3C//DTD SVG 1.1//EN" "http://www.w3.org/Graphics/SVG/1.1/DTD/svg11.dtd"><svg t="1574646953798" class="icon" viewBox="0 0 1024 1024" version="1.1" xmlns="http://www.w3.org/2000/svg" p-id="6650" xmlns:xlink="http://www.w3.org/1999/xlink" width="200" height="200"><defs><style type="text/css"></style></defs><path d="M857.884444 434.062222h-104.106666L557.511111 271.473778a40.391111 40.391111 0 0 0-5.347555-3.640889A61.326222 61.326222 0 0 0 523.377778 260.551111H360.903111a61.326222 61.326222 0 0 0-32.654222 9.443556l-2.616889 1.934222L118.328889 434.062222H98.759111a72.362667 72.362667 0 0 0-72.248889 72.248889v133.233778a48.696889 48.696889 0 0 0 48.696889 48.696889h83.171556a101.148444 101.148444 0 0 0 177.038222 3.982222h345.315555a101.148444 101.148444 0 0 0 177.038223-3.982222h89.884444a48.810667 48.810667 0 0 0 48.810667-48.696889v-66.901333A138.808889 138.808889 0 0 0 857.884444 434.062222z m69.176889 95.459556a32.312889 32.312889 0 0 1-11.377777 2.275555 32.995556 32.995556 0 0 1-32.881778-32.881777 24.917333 24.917333 0 0 1 0-4.096 81.578667 81.578667 0 0 1 44.259555 34.702222z m-274.773333-95.459556H381.952V325.404444h139.377778zM341.333333 341.333333v92.501334H223.573333z m-93.297777 336.327111a36.408889 36.408889 0 1 1 36.408888-36.408888 36.522667 36.522667 0 0 1-36.408888 36.408888z m520.078222 0a36.408889 36.408889 0 1 1 36.408889-36.408888 36.522667 36.522667 0 0 1-36.408889 36.408888z m171.463111-46.307555h-70.656a101.262222 101.262222 0 0 0-201.045333-3.982222H348.273778a101.262222 101.262222 0 0 0-201.045334 3.982222H83.399111v-125.155556a15.246222 15.246222 0 0 1 15.36-15.36h749.909333a60.984889 60.984889 0 0 0 0 7.964445 66.901333 66.901333 0 0 0 91.022223 62.691555 70.997333 70.997333 0 0 1 0.910222 11.377778z" p-id="6651" fill="#ffffff"></path><path d="M491.292444 520.988444h-65.991111a19.000889 19.000889 0 0 0-20.138666 20.024889 20.707556 20.707556 0 0 0 22.072889 20.138667h64.056888a20.138667 20.138667 0 0 0 0-40.163556z" p-id="6652" fill="#ffffff"></path></svg>