<?xml version="1.0" encoding="utf-8"?>
<!-- Generator: Adobe Illustrator 22.0.0, SVG Export Plug-In . SVG Version: 6.00 Build 0)  -->
<svg version="1.1" id="图层_1" xmlns="http://www.w3.org/2000/svg" xmlns:xlink="http://www.w3.org/1999/xlink" x="0px" y="0px"
	 viewBox="0 0 57.3 47.7" style="enable-background:new 0 0 57.3 47.7;" xml:space="preserve">
<style type="text/css">
	.st0{fill:#3296fc;}
</style>
<g>
	<path class="st0" d="M50.6,47.2l-3.6,0c-0.9,0-1.5-0.5-1.8-0.9c-0.7-0.9-0.7-2-0.7-2.2l0-3.4h-32v3.5c0,2-1.3,3-2.6,3H5.7
		c-1,0-1.6-0.5-1.9-0.9c-0.7-0.9-0.7-2-0.7-2.2l0-6c-0.5-1-1.7-3.7-1.7-7.5c0-4.4,3.2-11.5,3.8-12.8C5.7,15.7,8.9,0.5,17.4,0.5
		c4.6,0,9.7,0,14.1,0l8,0c6.9,0,10.8,13.7,11.4,16c0.6,1.2,3.9,7.9,3.9,13.9c0,4.8-1,7.1-1.7,8.1v5.6C53.2,46.3,51.9,47.2,50.6,47.2
		z M47,44.3C47,44.3,47,44.3,47,44.3l3.7,0c0,0,0.1,0,0.1,0c0,0,0-0.1,0-0.1V37l0.6-0.3c0.2-0.2,1.1-1.7,1.1-6.2
		c0-5.7-3.6-12.5-3.6-12.5l-0.1-0.2l0-0.2c-1-3.9-4.6-14.1-9.1-14.1l-8,0c-4.4,0-9.5,0-14.1,0c-7,0-9.7,15-9.7,15.1l0,0.2L7.5,19
		C6.5,21.1,4,27.3,4,30.6c0,3.8,1.4,6.2,1.4,6.2l0.2,0.4v7c0,0,0,0.1,0,0.1c0,0,0.1,0,0.1,0H10c0,0,0.1,0,0.1,0c0,0,0,0,0-0.1v-6.4
		h36.9l0,6.4C47,44.2,47,44.2,47,44.3z"/>
	<path class="st0" d="M50.6,47.7l-3.6,0c-1.1,0-1.8-0.6-2.2-1.1c-0.8-1-0.8-2.3-0.8-2.6l0-2.9H13v3c0,2.3-1.5,3.5-3.1,3.5H5.7
		c-1.2,0-1.9-0.6-2.3-1.1c-0.8-1-0.8-2.3-0.8-2.6l0-5.9C2.1,37.1,1,34.4,1,30.6c0-4.4,3.1-11.4,3.8-12.9C5.4,14.5,8.7,0,17.4,0
		l22.2,0c7.2,0,11.1,13.5,11.9,16.3c0.7,1.4,3.9,8,3.9,14.1c0,4.7-0.9,7-1.7,8.2v5.4C53.7,46.5,52.2,47.7,50.6,47.7z M12,40.2h33
		l0,3.9c0,0.1,0,1.2,0.6,1.9c0.4,0.5,0.9,0.7,1.5,0.7l3.6,0c1,0,2-0.8,2-2.5v-5.8l0.1-0.1c0.6-0.8,1.6-3,1.6-7.8
		c0-5.9-3.2-12.5-3.9-13.7l0-0.1C50.1,15.1,46.1,1,39.5,1L17.4,1C9.2,1,6.1,16.2,5.8,17.9l0,0.1C5.1,19.3,2,26.3,2,30.6
		c0,3.7,1.1,6.4,1.6,7.3L3.7,38l0,6.1c0,0.1,0,1.2,0.6,1.9c0.4,0.5,0.9,0.7,1.5,0.7H10c1,0,2.1-0.9,2.1-2.5V40.2z M5.7,44.8
		c0,0-0.1,0-0.2,0l-0.3-0.1l-0.1-0.5v-6.9l-0.2-0.3c-0.1-0.1-1.5-2.6-1.5-6.5c0-3.4,2.6-9.6,3.6-11.7l0.1-0.3
		C7.3,17.9,10.1,3,17.4,3l22.2,0c5.8,0,9.6,14.4,9.6,14.5l0.1,0.3c0.2,0.3,3.7,7,3.7,12.8c0,4.6-1,6.1-1.2,6.5l-0.2,0.1l-0.3,0.1
		l0,7.3l-0.3,0.1c-0.1,0-0.1,0-0.2,0l-3.8,0l-0.3-0.1l-0.1-0.3c0-0.1,0-0.1,0-0.2l0-5.9H10.6l0,6.3l-0.3,0.1c0,0-0.1,0.1-0.3,0.1
		L5.7,44.8C5.7,44.8,5.7,44.8,5.7,44.8z M47.5,43.8l2.8,0l0-7.1l0.7-0.4c0.2-0.4,1-1.8,1-5.8c0-5.5-3.5-12.2-3.6-12.3l-0.2-0.5
		C46.8,12.4,43.3,4,39.5,4L17.4,4c-6.5,0-9.2,14.6-9.2,14.7L8,19.1L8,19.2c-1,2.1-3.5,8.1-3.5,11.3c0,3.6,1.3,6,1.3,6l0.3,0.5v6.7
		l3.5,0v-6.5h37.9L47.5,43.8z"/>
</g>
<g>
	<path class="st0" d="M6.5,16.7h43.8v2.8H6.5C6.5,19.5,6.5,16.7,6.5,16.7z M19.8,27.1H37v2.8H19.8V27.1z M19.8,32.2H37V35H19.8V32.2
		z M11.8,32.2c-2.5,0-4.6-2.2-4.6-4.9c0-2.7,2.1-4.9,4.6-4.9c2.5,0,4.6,2.2,4.6,4.9C16.4,30,14.4,32.2,11.8,32.2z M11.8,25
		c-1.2,0-2.2,1-2.2,2.3c0,1.3,1,2.3,2.2,2.3c1.2,0,2.2-1,2.2-2.3C14,26.1,13,25,11.8,25z M44.6,32.2c-2.5,0-4.6-2.2-4.6-4.9
		c0-2.7,2.1-4.9,4.6-4.9c2.5,0,4.6,2.2,4.6,4.9C49.2,30,47.2,32.2,44.6,32.2z M44.6,25.1c-1.2,0-2.2,1-2.2,2.3c0,1.3,1,2.3,2.2,2.3
		c1.2,0,2.2-1,2.2-2.3C46.8,26.1,45.8,25.1,44.6,25.1z"/>
	<path class="st0" d="M37.5,35.5H19.3v-3.8h18.2V35.5z M20.3,34.5h16.2v-1.8H20.3V34.5z M44.6,32.7c-2.8,0-5.1-2.4-5.1-5.4
		c0-3,2.3-5.4,5.1-5.4c2.8,0,5.1,2.4,5.1,5.4C49.7,30.3,47.4,32.7,44.6,32.7z M44.6,23c-2.3,0-4.1,2-4.1,4.4c0,2.4,1.8,4.4,4.1,4.4
		c2.3,0,4.1-2,4.1-4.4C48.7,24.9,46.9,23,44.6,23z M11.8,32.7c-2.8,0-5.1-2.4-5.1-5.4c0-3,2.3-5.4,5.1-5.4c2.8,0,5.1,2.4,5.1,5.4
		C16.9,30.3,14.6,32.7,11.8,32.7z M11.8,22.9c-2.3,0-4.1,2-4.1,4.4c0,2.4,1.8,4.4,4.1,4.4s4.1-2,4.1-4.4
		C15.9,24.9,14.1,22.9,11.8,22.9z M37.5,30.4H19.3v-3.8h18.2V30.4z M20.3,29.4h16.2v-1.8H20.3V29.4z M44.6,30.1
		c-1.5,0-2.7-1.2-2.7-2.8c0-1.5,1.2-2.8,2.7-2.8c0.7,0,1.4,0.3,1.9,0.8c0.5,0.5,0.8,1.2,0.8,2C47.3,28.9,46.1,30.1,44.6,30.1z
		 M44.6,25.6c-0.9,0-1.7,0.8-1.7,1.8c0,1,0.7,1.8,1.7,1.8c0.9,0,1.7-0.8,1.7-1.8c0-0.5-0.2-0.9-0.5-1.3
		C45.5,25.7,45.1,25.6,44.6,25.6z M11.8,30.1c-1.5,0-2.7-1.3-2.7-2.8c0-1.5,1.2-2.8,2.7-2.8c1.5,0,2.7,1.2,2.7,2.8
		C14.5,28.9,13.3,30.1,11.8,30.1z M11.8,25.5c-0.9,0-1.7,0.8-1.7,1.8c0,1,0.7,1.8,1.7,1.8s1.7-0.8,1.7-1.8
		C13.5,26.3,12.7,25.5,11.8,25.5z M50.9,20H6v-3.8h44.8V20z M7,19h42.8v-1.8H7V19z"/>
</g>
<g>
	<path class="st0" d="M51.3,21.2l-0.7-2.7c1.9-0.7,3.8-2,3.6-2.6c-0.1-0.6-2.6-0.7-5,0l-0.6-2.7c1.2-0.3,7-1.7,7.9,2
		C57.5,18.9,52.3,20.9,51.3,21.2z M5.9,21.3c-1-0.4-6.2-2.4-5.2-6.1c1-3.7,6.8-2.3,7.9-2L8,16c-2.4-0.7-4.8-0.5-5,0
		c-0.2,0.6,1.7,2,3.6,2.6C6.6,18.6,5.9,21.3,5.9,21.3z"/>
	<path class="st0" d="M6.3,22l-0.5-0.2c-1.1-0.4-6.6-2.6-5.5-6.7c0.2-1,0.8-1.7,1.6-2.2c2.2-1.3,5.8-0.4,6.9-0.1l0.5,0.1l-0.8,3.7
		l-0.5-0.1C5.8,15.9,4,16,3.6,16.2c0.2,0.4,1.6,1.4,3.3,2l0.4,0.2L6.3,22z M4.9,13.2c-0.9,0-1.9,0.1-2.6,0.6c-0.6,0.4-1,0.9-1.2,1.6
		C0.4,18.2,4,20,5.6,20.6L6,18.9c-1.5-0.6-3.8-2-3.5-3.1c0-0.1,0.1-0.4,0.4-0.5c0.8-0.4,2.8-0.4,4.7,0L8,13.6
		C7.3,13.5,6.1,13.2,4.9,13.2z M50.9,21.9l-1-3.6l0.4-0.2c1.6-0.6,2.9-1.6,3.2-2c-0.5-0.2-2.2-0.3-4.3,0.3l-0.5,0.1L48,12.8l0.5-0.1
		c1.1-0.3,4.7-1.1,6.9,0.1c0.8,0.5,1.4,1.2,1.6,2.2c1.1,4.1-4.4,6.3-5.5,6.7L50.9,21.9z M51.2,18.9l0.5,1.7c1.5-0.6,5.2-2.4,4.4-5.3
		c-0.2-0.7-0.6-1.2-1.2-1.6c-1.7-1-4.5-0.4-5.7-0.2l0.4,1.7c1.9-0.4,3.9-0.5,4.7,0c0.3,0.2,0.4,0.4,0.4,0.5
		C54.9,16.9,52.7,18.2,51.2,18.9z"/>
</g>
</svg>
