<?xml version="1.0" encoding="utf-8"?>
<!-- Generator: Adobe Illustrator 22.0.0, SVG Export Plug-In . SVG Version: 6.00 Build 0)  -->
<svg version="1.1" id="图层_1" xmlns="http://www.w3.org/2000/svg" xmlns:xlink="http://www.w3.org/1999/xlink" x="0px" y="0px"
	 viewBox="0 0 32 32" style="enable-background:new 0 0 32 32;" xml:space="preserve">
<style type="text/css">
	.st0{fill:#0080E5;}
</style>
<path class="st0" d="M21.1,18h3c0.4,0,0.7-0.4,0.7-0.7v-2.1c0-0.4-0.4-0.7-0.7-0.7h-3c-0.4,0-0.7,0.4-0.7,0.7v2.1
	C20.4,17.9,20.6,18,21.1,18z M14.6,24h3c0.4,0,0.7-0.4,0.7-0.7v-2c0-0.4-0.4-0.7-0.7-0.7h-3c-0.4,0-0.7,0.4-0.7,0.7v2.1
	C13.9,23.6,14.2,24,14.6,24z M8.1,24h3c0.4,0,0.7-0.4,0.7-0.7v-2c0-0.4-0.4-0.7-0.7-0.7h-3c-0.4,0-0.7,0.4-0.7,0.7v2.1
	C7.4,23.6,7.7,24,8.1,24z M8.1,18h3c0.4,0,0.7-0.4,0.7-0.7v-1.9c0-0.4-0.4-0.7-0.7-0.7h-3c-0.4,0-0.7,0.4-0.7,0.7v2.1
	C7.4,17.9,7.7,18,8.1,18z M21.1,24h3c0.4,0,0.7-0.4,0.7-0.7v-2c0-0.4-0.4-0.7-0.7-0.7h-3c-0.4,0-0.7,0.4-0.7,0.7v2.1
	C20.4,23.6,20.6,24,21.1,24z M14.6,18h3c0.4,0,0.7-0.2,0.7-0.6v-2.1c0-0.4-0.4-0.7-0.7-0.7h-3c-0.4,0-0.7,0.4-0.7,0.7v2.1
	C13.9,17.9,14.2,18,14.6,18z M9,9.5c0.7,0,1.5-0.7,1.5-1.5V3.5C10.5,2.7,9.8,2,9,2S7.5,2.7,7.5,3.5V8C7.4,8.7,8.1,9.5,9,9.5z
	 M23.2,9.5c0.7,0,1.5-0.7,1.5-1.5V3.5c0-0.7-0.7-1.5-1.5-1.5s-1.5,0.7-1.5,1.5V8C21.7,8.7,22.4,9.5,23.2,9.5z M27.2,4.6h-1.7v3.2
	c0,1.3-1.1,2.4-2.4,2.4c-1.3,0-2.4-1.1-2.4-2.4V4.6h-9.3v3.2c0,1.5-1.1,2.6-2.4,2.6S6.5,9.3,6.5,8V4.6H4.8c-1.5,0-2.6,1.1-2.6,2.6
	v20.2c0,1.5,1.1,2.6,2.6,2.6h22.3c1.5,0,2.6-1.1,2.6-2.6V7.2C29.8,5.9,28.5,4.6,27.2,4.6z M27.5,27.4c0,0.2-0.2,0.4-0.4,0.4H4.8
	c-0.2,0-0.4-0.2-0.4-0.4V11.5h22.9L27.5,27.4z"/>
</svg>
