<?xml version="1.0" encoding="utf-8"?>
<!-- Generator: Adobe Illustrator 22.0.0, SVG Export Plug-In . SVG Version: 6.00 Build 0)  -->
<svg version="1.1" id="图层_1" xmlns="http://www.w3.org/2000/svg" xmlns:xlink="http://www.w3.org/1999/xlink" x="0px" y="0px"
	 viewBox="0 0 32 32" style="enable-background:new 0 0 32 32;" xml:space="preserve">
<style type="text/css">
	.st0{fill:#0080E5;}
</style>
<path class="st0" d="M17.2,27.7l0.2-0.3c2.9-3.6,8.2-10.2,8.2-14.1c0-5.6-4.1-9.6-9.6-9.6c-5.3,0-9.6,4.3-9.6,9.6
	c0,3.9,5.3,10.6,8.2,14.1l0.2,0.3c0.3,0.4,0.7,0.6,1.2,0.6C16.5,28.3,16.9,28.1,17.2,27.7z M12.4,12.6c0-2,1.6-3.6,3.6-3.6
	c2,0,3.6,1.6,3.6,3.6c0,2-1.6,3.6-3.6,3.6C14,16.1,12.4,14.5,12.4,12.6z"/>
</svg>
