<?xml version="1.0" encoding="utf-8"?>
<!-- Generator: Adobe Illustrator 22.0.0, SVG Export Plug-In . SVG Version: 6.00 Build 0)  -->
<svg version="1.1" id="图层_1" xmlns="http://www.w3.org/2000/svg" xmlns:xlink="http://www.w3.org/1999/xlink" x="0px" y="0px"
	 viewBox="0 0 32.8 32" style="enable-background:new 0 0 32.8 32;" xml:space="preserve">
<style type="text/css">
	.st0{fill:#FFFFFF;}
</style>
<path class="st0" d="M29,4h-9c0-2.2-1.7-3.9-3.9-3.9c0,0,0,0-0.1,0c-2.1,0-3.9,1.8-3.9,3.9h-9c-0.6,0-1,0.4-1,1c0,0,0,0,0,0v25.9
	c0,0.6,0.4,1,1,1c0,0,0,0,0,0H29c0.6,0,1-0.4,1-1c0,0,0,0,0,0V5C30.1,4.5,29.6,4,29,4C29,4,29,4,29,4z M16.1,2.1c1.1,0,2,0.9,2,2
	c0,0,0,0,0,0c0,1.1-0.9,2-2,2c0,0,0,0,0,0c-1.1,0-2-0.9-2-2c0,0,0,0,0,0C14.1,3,15,2.1,16.1,2.1C16.1,2.1,16.1,2.1,16.1,2.1z M28,30
	H4V6H8v3c0,0.6,0.4,1,1,1c0,0,0,0,0,0h14c0.6,0,1-0.4,1-1c0,0,0,0,0,0V6h3.9v24H28z"/>
<path class="st0" d="M14.5,24.7L14.5,24.7l-0.3,0.3l-5.3-5.3l2-2l3.3,3.3l7.2-7.3l2,2L14.5,24.7z"/>
</svg>
