<?xml version="1.0" encoding="utf-8"?>
<!-- Generator: Adobe Illustrator 22.0.0, SVG Export Plug-In . SVG Version: 6.00 Build 0)  -->
<svg version="1.1" id="图层_1" xmlns="http://www.w3.org/2000/svg" xmlns:xlink="http://www.w3.org/1999/xlink" x="0px" y="0px"
	 viewBox="0 0 32.8 32" style="enable-background:new 0 0 32.8 32;" xml:space="preserve">
<style type="text/css">
	.st0{fill:#FFFFFF;}
</style>
<path class="st0" d="M29.3,4h-9c0-2.2-1.7-3.9-3.9-3.9c0,0,0,0-0.1,0c-2.1,0-3.9,1.8-3.9,3.9h-9c-0.6,0-1,0.4-1,1c0,0,0,0,0,0v25.9
	c0,0.6,0.4,1,1,1c0,0,0,0,0,0h25.9c0.6,0,1-0.4,1-1c0,0,0,0,0,0V5C30.3,4.5,29.9,4,29.3,4C29.3,4,29.3,4,29.3,4z M16.4,2.1
	c1.1,0,2,0.9,2,2c0,0,0,0,0,0c0,1.1-0.9,2-2,2c0,0,0,0,0,0c-1.1,0-2-0.9-2-2c0,0,0,0,0,0C14.3,3,15.2,2.1,16.4,2.1
	C16.4,2.1,16.4,2.1,16.4,2.1z M28.3,30h-24V6h3.9v3c0,0.6,0.4,1,1,1c0,0,0,0,0,0h14c0.6,0,1-0.4,1-1c0,0,0,0,0,0V6h3.9v24H28.3z"/>
<path class="st0" d="M16,12.2c-4.2,0-7.6,3.4-7.6,7.6c0,4.2,3.4,7.6,7.6,7.6c4.2,0,7.6-3.4,7.6-7.6C23.6,15.6,20.2,12.2,16,12.2z
	 M17.2,24.3h-1.8v-1.7h1.8V24.3z M17,21.8h-1.5l-0.2-5.7h1.8L17,21.8z"/>
</svg>
