<?xml version="1.0" encoding="utf-8"?>
<!-- Generator: Adobe Illustrator 22.0.0, SVG Export Plug-In . SVG Version: 6.00 Build 0)  -->
<svg version="1.1" id="图层_1" xmlns="http://www.w3.org/2000/svg" xmlns:xlink="http://www.w3.org/1999/xlink" x="0px" y="0px"
	 viewBox="0 0 32 32" style="enable-background:new 0 0 32 32;" xml:space="preserve">
<style type="text/css">
	.st0{fill:#FFFFFF;}
</style>
<path class="st0" d="M25.9,16.3c-2.1-0.9-4.6,0.1-5.5,2.2c-0.6,1.4-0.4,3,0.5,4.2h-0.3c-1.5,0-2.8,1.2-2.8,2.8v2.1H6.3
	c-0.4,0-0.7-0.3-0.7-0.7v-22c0-0.4,0.3-0.7,0.7-0.7h18.9c0.4,0,0.7,0.3,0.7,0.7V16.3z M11.2,9.6c-0.5,0-0.9,0.4-0.9,0.9
	c0,0.5,0.4,0.9,0.9,0.9h9.4c0.5,0,0.9-0.4,0.9-0.9c0-0.5-0.4-0.9-0.9-0.9H11.2L11.2,9.6z M11.2,14.4c-0.5,0-0.9,0.4-0.9,0.9
	c0,0.5,0.4,0.9,0.9,0.9h9.4c0.5,0,0.9-0.4,0.9-0.9c0-0.5-0.4-0.9-0.9-0.9H11.2L11.2,14.4z M11.2,19.3c-0.5,0-0.9,0.4-0.9,0.9
	s0.4,0.9,0.9,0.9h4.6c0.5,0,0.9-0.4,0.9-0.9s-0.4-0.9-0.9-0.9H11.2L11.2,19.3z M23,24.1v-1.4c-1-0.4-1.7-1.4-1.7-2.6
	c0-1.6,1.3-2.8,2.8-2.8c1.6,0,2.8,1.3,2.8,2.8c0,0,0,0,0,0c0,1.1-0.7,2.1-1.7,2.6l0,1.4h2.5c0.8,0,1.4,0.6,1.4,1.4v1.4H19.1v-1.4
	c0-0.8,0.6-1.4,1.4-1.4L23,24.1z M19.6,27.4h9v1.1h-9V27.4z"/>
</svg>
