<?xml version="1.0" encoding="utf-8"?>
<!-- Generator: Adobe Illustrator 22.0.0, SVG Export Plug-In . SVG Version: 6.00 Build 0)  -->
<svg version="1.1" id="图层_1" xmlns="http://www.w3.org/2000/svg" xmlns:xlink="http://www.w3.org/1999/xlink" x="0px" y="0px"
	 viewBox="0 0 32 32" style="enable-background:new 0 0 32 32;" xml:space="preserve">
<style type="text/css">
	.st0{fill:#FFFFFF;}
</style>
<path class="st0" d="M27.8,12.7h-2.3c-0.1,0-0.2,0-0.3,0.1l-1.1-3.2c-0.3-1.8-1.6-2.7-3.2-2.7l-9.9,0c-1.8,0-2.9,1.2-3.2,2.7
	l-1.1,3.2c-0.1-0.1-0.2-0.1-0.3-0.1l-2.3,0c-0.4,0-0.6,0.3-0.6,0.6v0.6c0,0.4,0.3,0.6,0.6,0.6l0.9,0.1c-0.3,0.5-0.4,1.2-0.4,1.9
	l-0.3,3.7c0,0.1,0,0.2,0,0.3c0,0.1,0,0.1,0,0.2v4.5c0,0.6,0.5,1.2,1.2,1.2h1.8c0.6,0,1.2-0.5,1.2-1.2v-1.4h15.2v1.4
	c0,0.6,0.5,1.2,1.2,1.2h1.8c0.6,0,1.2-0.5,1.2-1.2v-4.5c0-0.1,0-0.1,0-0.2c0-0.1,0-0.2,0-0.3l-0.3-3.7c0-0.7-0.2-1.3-0.4-1.9
	l0.9-0.1c0.4,0,0.6-0.3,0.6-0.6v-0.6C28.4,13,28.1,12.7,27.8,12.7L27.8,12.7z M8.7,12l0.8-2l0,0C9.6,9.5,9.7,9.4,10,9.1h12.1
	c0.3,0.3,0.4,0.4,0.5,0.8l0.8,2.1l0.3,1.1c-0.1,0.8-1.1,1.5-1.9,1.5l-11.4,0c-0.8,0-1.8-0.7-1.9-1.5L8.7,12L8.7,12z M9.3,21.8
	c-1,0-1.7-0.8-1.7-1.7s0.8-1.7,1.7-1.7S11,19.1,11,20S10.2,21.8,9.3,21.8L9.3,21.8z M19,20.5L19,20.5c0,0.3-0.2,0.5-0.5,0.5h-4.9
	c-0.3,0-0.5-0.2-0.5-0.5V19c0-0.3,0.2-0.5,0.5-0.5h4.9c0.3,0,0.5,0.2,0.5,0.5V20.5L19,20.5z M22.8,21.8c-1,0-1.8-0.8-1.8-1.7
	s0.8-1.7,1.8-1.7c1,0,1.7,0.8,1.7,1.7S23.7,21.8,22.8,21.8L22.8,21.8z"/>
</svg>
