<?xml version="1.0" encoding="utf-8"?>
<!-- Generator: Adobe Illustrator 22.0.0, SVG Export Plug-In . SVG Version: 6.00 Build 0)  -->
<svg version="1.1" id="图层_1" xmlns="http://www.w3.org/2000/svg" xmlns:xlink="http://www.w3.org/1999/xlink" x="0px" y="0px"
	 viewBox="0 0 32 32" style="enable-background:new 0 0 32 32;" xml:space="preserve">
<style type="text/css">
	.st0{fill:#FFFFFF;}
</style>
<path class="st0" d="M25.4,7.7c-0.1,0.1-0.1,0.8-0.3,0.9c-0.1,0.1-0.3,0.2-0.5,0.2H22v1.6l0,0c0-0.5,0.4-0.9,0.9-0.9h5
	c0.4,0,0.9,0.2,1.1,0.6l2.8,4.6c0.1,0.2,0.2,0.4,0.2,0.7v8c0,0.5-0.4,0.8-0.8,0.8c0,0,0,0,0,0h-3l0,0l0,0.1
	c-0.3,2.1-2.1,3.7-4.3,3.7s-4-1.6-4.3-3.7l0,0h-8.5v0l0,0.1C10.9,26.4,9.1,28,6.9,28s-4-1.6-4.3-3.7l0,0H0.8c-0.5,0-0.8-0.4-0.8-0.8
	c0,0,0,0,0,0v-8.9l1.6-4c0-0.1,0.1-0.1,0.1-0.1H18l1-2.7L25.4,7.7L25.4,7.7z M6.9,22c-1,0-1.8,0.8-1.8,1.8s0.8,1.8,1.8,1.8
	s1.8-0.8,1.8-1.8C8.7,22.7,7.9,22,6.9,22z M23.9,22c-1,0-1.8,0.8-1.8,1.8s0.8,1.8,1.8,1.8s1.8-0.8,1.8-1.8
	C25.7,22.7,24.9,22,23.9,22z M10.8,13.3H8.6L6,19.1h2.2L10.8,13.3z M19.3,13.3h-2.2l-2.6,5.8h2.2L19.3,13.3L19.3,13.3z M15,13.3
	h-2.2l-2.6,5.8h2.2L15,13.3L15,13.3z M6.5,13.3H4.3l-1.7,3.9h2.2L6.5,13.3z M27.7,11.1h-4c-0.1,0-0.2,0.1-0.2,0.2c0,0,0,0,0,0v3.9
	c0,0.1,0.1,0.2,0.2,0.2h6.4c0.1,0,0.2-0.1,0.2-0.2c0,0,0,0,0,0c0,0,0-0.1,0-0.1l-2.3-3.9C27.8,11.1,27.8,11.1,27.7,11.1z M6.7,4
	C6.8,4,6.9,4,7,4l0,0l2.1,1l0,0c0,0,0.1,0,0.1,0l0,0l2.6,0.3l0,0c0.1,0,0.2,0.1,0.3,0.2l0,0l1.2,1.6l0,0c0.1,0.1,0.2,0.2,0.3,0.2
	h2.1l0,0c0.1,0,0.1,0,0.2,0l0,0l1.6,0.9l0,0c0.2,0.1,0.2,0.4,0.1,0.6l0,0l-0.3,0.6l0,0c-0.1,0.1-0.2,0.2-0.3,0.2h-15
	c-0.1,0-0.3-0.1-0.4-0.2c-0.1-0.1-0.1-0.3,0-0.4l0,0l0.9-1.4l0,0c0.1-0.1,0.2-0.1,0.3-0.2l0,0l0.9-0.2h1.1c0.2,0,0.3-0.1,0.4-0.2
	l0,0l1.2-2.8l0,0C6.5,4.1,6.6,4.1,6.7,4z"/>
</svg>
