<?xml version="1.0" standalone="no"?><!DOCTYPE svg PUBLIC "-//W3C//DTD SVG 1.1//EN" "http://www.w3.org/Graphics/SVG/1.1/DTD/svg11.dtd"><svg t="1568863499063" class="icon" viewBox="0 0 1024 1024" version="1.1" xmlns="http://www.w3.org/2000/svg" p-id="25752" xmlns:xlink="http://www.w3.org/1999/xlink" width="24" height="24"><defs><style type="text/css"></style></defs><path d="M297.940089 217.688243l0.512528 0.440424c-6.575177 9.494446 2.478846 28.629497 20.885054 43.235588 17.311969 13.952276 36.809493 18.845657 45.429912 11.835903l1.242346 1.091316c0.165646-0.191955 0.341036-0.376114 0.507656-0.567095l-62.577209-62.577209a264.33809 264.33809 0 0 0-6.000287 6.541073z" fill="#ffffff" p-id="25753"></path><path d="M200.067587 134.427679c-0.578787 0.513503-1.315425 0.952952-1.821133 1.531739-7.378073 9.207002 1.750003 28.853607 20.450476 43.826068 18.332154 14.677221 38.927814 19.353314 46.668361 10.809871l0.368319 0.362473a308.466218 308.466218 0 0 1 8.601906-9.416495l-61.265682-61.265682a394.157883 394.157883 0 0 0-13.002247 14.152026z" fill="#ffffff" p-id="25754"></path><path d="M921.328827 917.901707L63.498201 60.071081l45.455247-45.455246L966.784073 872.44646z" fill="#ffffff" p-id="25755"></path><path d="M265.330213 172.537981c-31.212602 43.190766-49.666555 96.252093-49.666556 153.683554 0 78.513341 34.621015 148.917817 89.250134 197.123763l0.440423-0.512528c9.494446 6.575177 28.629497-2.478846 43.235588-20.885054 13.952276-17.311969 18.845657-36.809493 11.835903-45.429912l1.091316-1.242346c-38.197997-32.938245-62.370639-81.511536-62.370639-135.774284 0-32.634236 8.680831-63.063429 23.814067-89.331982l-57.630236-57.631211z" fill="#ffffff" p-id="25756"></path><path d="M173.800009 81.007777c-54.020125 67.142222-86.460458 152.399309-86.460458 245.212783 0 117.730549 52.073296 223.197438 134.313675 294.996265 0.513503 0.578787 0.952952 1.315425 1.53174 1.822108 9.207002 7.378073 28.853607-1.750003 43.826068-20.450476 14.677221-18.332154 19.353314-38.927814 10.809871-46.668361l0.362473-0.368319c-63.909199-55.944544-104.368753-137.818552-104.368753-229.331217 0-69.012074 22.986811-132.554903 61.614513-183.583654l-61.629129-61.629129zM783.600893 316.372411c0-78.513341-34.621015-148.918792-89.250134-197.123764l-0.440423 0.512529c-9.494446-6.575177-28.629497 2.478846-43.235588 20.885053-13.952276 17.311969-18.845657 36.809493-11.835903 45.429912l-1.091316 1.242346c38.197023 32.938245 62.370639 81.511536 62.370639 135.774285 0 50.835822-21.037058 96.338813-54.776251 129.059769-0.368319 0.217289-0.730792 0.217289-1.097162 0.506683-1.27645 1.015313-2.213812 2.363868-2.893936 3.931659l55.139699 55.139698c53.395542-48.06466 87.110375-117.719831 87.110375-195.35817z" fill="#ffffff" p-id="25757"></path><path d="M911.924999 316.372411c0-117.730549-52.073296-223.197438-134.313675-294.996265-0.513503-0.578787-0.952952-1.315425-1.53174-1.821133-9.207002-7.378073-28.853607 1.750003-43.826068 20.450476-14.677221 18.332154-19.353314 38.927814-10.809871 46.66836l-0.362473 0.368319c63.908225 55.943569 104.367779 137.817578 104.367779 229.330243 0 89.199465-38.397747 169.265983-99.344803 224.9718l61.258861 61.258862c76.519741-71.53087 124.56199-173.282414 124.56199-286.230662zM586.637903 338.801871c0-49.448292-40.097081-89.618452-89.545373-89.618453-17.96481 0-34.672658 5.332831-48.683397 14.466754l123.596371 123.597345c9.196283-13.923044 14.632399-30.492529 14.632399-48.445646zM407.623159 338.801871c0 30.091081 14.972461 56.675335 37.980708 72.890142L232.186371 926.163551c-0.216314 0.584633-0.507657 1.091316-0.584633 1.531739l-0.875976 1.900059 0.218263 0.073079c-1.38753 3.944327-2.262531 8.106916-2.262531 12.631979-0.073079 22.061141 17.675416 39.736557 39.658606 39.736557a39.556295 39.556295 0 0 0 39.662504-39.658606l50.68674-126.941448h284.915237l50.251189 118.538317c-0.657713 2.702955-0.875976 5.478015-0.875976 8.403131a39.55727 39.55727 0 0 0 39.658606 39.658606c21.838006 0 39.730711-17.675416 39.730711-39.658606 0-6.720361-1.900059-12.927219-4.747223-18.483185L591.407538 498.615306 410.213085 317.420853a89.738302 89.738302 0 0 0-2.589926 21.381018z m215.74726 428.507044H377.895526l35.719151-89.545374h171.926064l37.829678 89.545374z m-60.107133-142.059094H434.571835l62.593774-156.665184 66.097677 156.665184z" fill="#ffffff" p-id="25758"></path></svg>