<?xml version="1.0" standalone="no"?><!DOCTYPE svg PUBLIC "-//W3C//DTD SVG 1.1//EN" "http://www.w3.org/Graphics/SVG/1.1/DTD/svg11.dtd"><svg t="1611287163592" class="icon" viewBox="0 0 1024 1024" version="1.1" xmlns="http://www.w3.org/2000/svg" p-id="14733" xmlns:xlink="http://www.w3.org/1999/xlink" width="32" height="32"><defs><style type="text/css"></style></defs><path d="M549.254095 958.805333a2852.864 2852.864 0 0 0 50.663619-62.610285 2923.641905 2923.641905 0 0 0 110.787048-150.357334 1932.263619 1932.263619 0 0 0 72.094476-112.64C843.50781 530.017524 877.714286 444.708571 877.714286 377.977905 877.714286 175.981714 713.99619 12.263619 512.024381 12.263619 310.076952 12.263619 146.334476 175.981714 146.334476 377.953524c0 66.755048 34.206476 152.039619 94.915048 255.268571a1932.263619 1932.263619 0 0 0 72.118857 112.64 2923.641905 2923.641905 0 0 0 110.787048 150.332953 2852.864 2852.864 0 0 0 50.663619 62.610285L512 1002.73981l37.229714-43.934477z" fill="#f44336" p-id="14734"></path></svg>