<?xml version="1.0" standalone="no"?><!DOCTYPE svg PUBLIC "-//W3C//DTD SVG 1.1//EN" "http://www.w3.org/Graphics/SVG/1.1/DTD/svg11.dtd"><svg t="1600350433341" class="icon" viewBox="0 0 1028 1024" version="1.1" xmlns="http://www.w3.org/2000/svg" p-id="14777" xmlns:xlink="http://www.w3.org/1999/xlink" width="50.1953125" height="50"><defs><style type="text/css"></style></defs><path d="M511.815835 0C229.206516 0 0.019738 229.186778 0.019738 512s229.186778 512 511.796097 512 512-229.186778 512-512S794.629057 0 511.815835 0z m303.407407 815.203505c-39.353246 39.353246-85.231382 70.346476-136.410991 91.960175-52.810832 22.225408-108.88411 33.643967-166.996416 33.643966-58.112306 0-113.981681-11.214656-166.792513-33.643966-50.975707-21.6137-97.057746-52.60693-136.410992-91.960175C169.259085 775.850259 138.265855 729.972123 116.652155 678.996416c-22.225408-52.810832-33.643967-108.88411-33.643966-166.996416 0-57.908403 11.418558-114.185583 33.643966-166.996416 21.6137-50.975707 52.60693-97.057746 91.960175-136.410991C247.965576 169.239347 293.843712 138.246117 345.023322 116.632417c52.810832-22.225408 108.88411-33.643967 166.996416-33.643966 58.112306 0 114.185583 11.418558 166.996416 33.643966 50.975707 21.6137 97.057746 52.60693 136.410991 91.960176 39.353246 39.353246 70.346476 85.231382 91.960175 136.410991 22.225408 52.810832 33.643967 108.88411 33.643967 166.996416 0 57.908403-11.418558 114.185583-33.643967 166.996416-21.817603 50.975707-52.810832 96.853843-92.164078 136.207089z" p-id="14778" fill="#469eff"></path><path d="M782.190984 364.578256L509.98071 704.280366c-7.748307 9.583433-19.166866 15.292712-31.604939 15.496615h-0.815611c-11.826364 0-23.244922-5.097571-30.99323-14.069295l-188.610115-215.117483c-14.884906-17.127838-13.253684-43.431302 3.874153-58.316209 17.127838-14.884906 43.431302-13.253684 58.316209 3.874154l155.985663 178.007169 241.420948-301.164477c6.932696-8.563919 16.720032-14.069295 27.730785-15.292712 11.010753-1.223417 21.817603 1.835125 30.381521 8.767822 4.281959 3.466348 7.748307 7.544405 10.399044 12.438072 2.650737 4.893668 4.281959 9.991239 4.893668 15.496615 1.42732 10.80685-1.835125 21.6137-8.767822 30.177619z" p-id="14779" fill="#469eff"></path></svg>