<?xml version="1.0" encoding="utf-8"?>
<!-- Generator: Adobe Illustrator 22.0.0, SVG Export Plug-In . SVG Version: 6.00 Build 0)  -->
<svg version="1.1" id="图层_1" xmlns="http://www.w3.org/2000/svg" xmlns:xlink="http://www.w3.org/1999/xlink" x="0px" y="0px"
	 viewBox="0 0 719.9 551.9" style="enable-background:new 0 0 719.9 551.9;" xml:space="preserve">
<style type="text/css">
	.st0{fill:url(#SVGID_1_);}
</style>
<linearGradient id="SVGID_1_" gradientUnits="userSpaceOnUse" x1="126.308" y1="511.1446" x2="591.4199" y2="46.0327">
	<stop  offset="0" style="stop-color:#E3C5A6"/>
	<stop  offset="1" style="stop-color:#AB8260"/>
</linearGradient>
<path class="st0" d="M646,130.3c-39.6,0-71.7,32.1-71.7,71.7c0,9,1.7,17.4,4.6,25.4l-115.3,46.2l-76.7-135.8
	C412.8,127,431,101.5,431,71.7C431,32.1,398.9,0,359.3,0c-39.6,0-71.7,32.1-71.7,71.7c0,30.1,18.6,55.8,44.9,66.5l-78,135.4
	l-113.2-51.1c1.9-6.5,3-13.4,3-20.6c0-39.6-32.1-71.7-71.7-71.7c-39.6,0-71.7,32.1-71.7,71.7c0,39.6,32.1,71.7,71.7,71.7h0.5
	L126,497.1c7,29.4,33.2,50.2,63.4,50.2h338.1c31.3,0,58.1-22.2,64-52.8L634,273.7l-0.9-1.1c4.2,0.7,8.5,1.1,12.9,1.1
	c39.6,0,71.7-32.1,71.7-71.7S685.6,130.3,646,130.3z M407.2,454c-3.8,8.3-9.2,15.4-16,21.3c-6.7,5.7-14.8,10.2-24,13.2
	c-9,3-19,4.5-29.7,4.5c-9.4,0-18.4-1-26.8-3c-8.7-2-16.7-5.2-23.7-9.4l-4.8-2.9v-51.3l15.7,10.7c3,2,6.2,3.9,9.6,5.6
	c3.5,1.7,7,3.2,10.5,4.3c3.4,1.2,6.9,2.1,10.1,2.7c3.1,0.6,6,0.9,8.5,0.9c9.7,0,16.6-2,20.5-5.9c4-4,5.9-9.5,5.9-16.9
	c0-3.3-0.7-6.1-2-8.5c-1.4-2.5-3.4-4.6-6.1-6.4c-3-2-6.8-3.6-11.2-4.7c-4.7-1.2-10.1-1.7-16-1.7h-24v-43.9h18.9
	c6.4,0,12-0.7,16.6-2.1c4.3-1.3,7.8-3.1,10.5-5.2c2.4-1.9,4.1-4.1,5.3-6.6c1.2-2.7,1.8-5.5,1.8-8.7c0-3.6-0.5-6.5-1.4-8.7
	c-0.9-2.1-2-3.7-3.5-4.9c-1.5-1.3-3.3-2.2-5.6-2.9c-2.7-0.8-5.7-1.1-9.1-1.1c-2.2,0-4.7,0.3-7.7,0.8c-3.1,0.6-6.4,1.5-9.8,2.6
	c-3.5,1.2-7.2,2.6-10.8,4.3c-3.4,1.6-6.7,3.4-9.7,5.4L283.6,346v-49.6l4.7-2.9c7.8-4.9,16.2-8.5,24.9-10.7
	c8.5-2.2,17.5-3.3,26.7-3.3c9.8,0,18.8,1.3,26.7,3.8c8.2,2.7,15.3,6.6,21,11.7c5.9,5.2,10.4,11.6,13.5,18.9c3,7.2,4.6,15.3,4.6,24.2
	c0,6.6-1.1,13-3.4,18.8c-2.2,5.7-5.2,10.9-8.9,15.5c-2.6,3.2-5.6,6.2-8.9,8.9c5.2,2.9,9.9,6.4,13.9,10.4c4.6,4.7,8.2,10.1,10.7,16
	c2.5,6,3.8,12.4,3.8,19C412.8,436.5,410.9,445.7,407.2,454z"/>
</svg>
