<?xml version="1.0" encoding="utf-8"?>
<!-- Generator: Adobe Illustrator 22.0.0, SVG Export Plug-In . SVG Version: 6.00 Build 0)  -->
<svg version="1.1" id="图层_1" xmlns="http://www.w3.org/2000/svg" xmlns:xlink="http://www.w3.org/1999/xlink" x="0px" y="0px"
	 viewBox="0 0 722.9 551.9" style="enable-background:new 0 0 722.9 551.9;" xml:space="preserve">
<style type="text/css">
	.st0{fill:url(#SVGID_1_);}
</style>
<g>
	<linearGradient id="SVGID_1_" gradientUnits="userSpaceOnUse" x1="129.3083" y1="508.1443" x2="594.4202" y2="43.0324">
		<stop  offset="0" style="stop-color:#FFD400"/>
		<stop  offset="1" style="stop-color:#FF8D00"/>
	</linearGradient>
	<path class="st0" d="M398.9,489.9V281.5h-54.2l-49,34.2v47.5l46.4-32.4h2.6v159.1H398.9z M581.9,224.3c-3-7.9-4.6-16.4-4.6-25.4
		c0-39.6,32.1-71.7,71.7-71.7c39.6,0,71.7,32.1,71.7,71.7s-32.1,71.7-71.7,71.7c-4.4,0-8.7-0.4-12.9-1.1l0.9,1.1l-42.5,220.8
		c-5.9,30.6-32.7,52.8-64,52.8H192.4c-30.2,0-56.5-20.8-63.4-50.2L76.1,270.6h-0.5c-39.6,0-71.7-32.1-71.7-71.7
		c0-39.6,32.1-71.7,71.7-71.7c39.6,0,71.7,32.1,71.7,71.7c0,7.1-1,14.1-3,20.6l113.2,51.1l78-135.4c-26.3-10.6-44.9-36.4-44.9-66.5
		c0-39.6,32.1-71.7,71.7-71.7C401.9-3,434,29.1,434,68.7c0,29.8-18.2,55.4-44.1,66.2l76.7,135.8L581.9,224.3z M581.9,224.3"/>
</g>
</svg>
