<?xml version="1.0" encoding="utf-8"?>
<!-- Generator: Adobe Illustrator 22.0.0, SVG Export Plug-In . SVG Version: 6.00 Build 0)  -->
<svg version="1.1" id="图层_1" xmlns="http://www.w3.org/2000/svg" xmlns:xlink="http://www.w3.org/1999/xlink" x="0px" y="0px"
	 viewBox="0 0 43.1 42.9" style="enable-background:new 0 0 43.1 42.9;" xml:space="preserve">
<style type="text/css">
	.st0{fill:#38bc9c;}
</style>
<path class="st0" d="M21.8,16.5c0.9,0.6,2,1.3,3,2c2,1.4,9.6,0.9,12.8,1.1c3.1,0.3,5.5,0.9,5.5,0.9l-4.4-7.2c0,0,4.7-7.1,4.1-6.9
	c-0.6,0.1-3.5,0.2-5.4-0.3C35.5,5.6,31,5.6,28,5.6c-2.2,0-5-1.9-6.2-2.9l0-2.4h-3.5v37.6h3.5L21.8,16.5L21.8,16.5z M26.7,29.6v2.6
	c5,0.7,8.5,2.1,8.5,3.8c0,2.3-6.7,4.2-14.9,4.2S5.5,38.3,5.5,36c0-1.6,3.3-3.1,8.2-3.7v-2.7C5.8,30.5,0.1,33.1,0.1,36
	c0,3.8,9.1,6.8,20.2,6.8c11.2,0,20.2-3,20.2-6.8C40.6,33,34.8,30.5,26.7,29.6z"/>
</svg>
