<?xml version="1.0" standalone="no"?><!DOCTYPE svg PUBLIC "-//W3C//DTD SVG 1.1//EN" "http://www.w3.org/Graphics/SVG/1.1/DTD/svg11.dtd"><svg t="1589363876652" class="icon" viewBox="0 0 1024 1024" version="1.1" xmlns="http://www.w3.org/2000/svg" p-id="3454" xmlns:xlink="http://www.w3.org/1999/xlink" width="50" height="50"><defs><style type="text/css"></style></defs><path d="M438.054 622.509v400.599H585.46V622.632c-23.545 5.913-48.063 9.399-73.46 9.399-25.568 0-50.25-3.528-73.946-9.522zM512 0.892c-165.35 0-299.392 133.218-299.392 297.545 0 164.332 134.042 297.545 299.392 297.545 165.352 0 299.392-133.213 299.392-297.545C811.392 134.11 677.351 0.892 512 0.892zM394.627 169.746c-23.26 0-42.12-18.857-42.12-42.113 0-23.26 18.857-42.118 42.12-42.118 23.26 0 42.118 18.851 42.118 42.118-0.003 23.256-18.858 42.113-42.118 42.113z" p-id="3455" fill="#38bc9c"></path></svg>