<?xml version="1.0" encoding="utf-8"?>
<!-- Generator: Adobe Illustrator 22.0.0, SVG Export Plug-In . SVG Version: 6.00 Build 0)  -->
<svg version="1.1" id="图层_1" xmlns="http://www.w3.org/2000/svg" xmlns:xlink="http://www.w3.org/1999/xlink" x="0px" y="0px"
	 viewBox="0 0 36.6 50" style="enable-background:new 0 0 36.6 50;" xml:space="preserve">
<style type="text/css">
	.st0{fill:#38bc9c;}
</style>
<path class="st0" d="M32.4,25c2.3,0,4.2,1.9,4.2,4.2c0,0,0,0,0,0c0,2.3-1.9,4.2-4.2,4.2c-7,0-12.6,5.6-12.6,12.5
	c0,2.3-1.9,4.2-4.2,4.2c-2.3,0-4.2-1.9-4.2-4.2C11.3,34.3,20.8,25,32.4,25L32.4,25z"/>
<path class="st0" d="M19.8,45.7c0,2.4-1.9,4.3-4.3,4.3s-4.3-1.9-4.3-4.3V20.5c0-1.2-0.9-2.1-2.1-2.1c0,0,0,0,0,0H1.6
	c-0.8,0-1.4-0.6-1.4-1.4c0,0,0,0,0,0c0-0.3,0.1-0.6,0.3-0.9l14-15.7c0.5-0.6,1.5-0.6,2.1-0.1c0,0,0.1,0.1,0.1,0.1l14,15.7
	c0.5,0.5,0.4,1.4-0.1,1.9c0,0,0,0-0.1,0c-0.3,0.2-0.6,0.3-0.9,0.3h-7.6c-1.2,0-2.1,0.9-2.1,2.1C19.8,20.5,19.8,45.7,19.8,45.7z"/>
</svg>
