<?xml version="1.0" encoding="utf-8"?>
<!-- Generator: Adobe Illustrator 22.0.0, SVG Export Plug-In . SVG Version: 6.00 Build 0)  -->
<svg version="1.1" id="图层_1" xmlns="http://www.w3.org/2000/svg" xmlns:xlink="http://www.w3.org/1999/xlink" x="0px" y="0px"
	 viewBox="0 0 49.4 50" style="enable-background:new 0 0 49.4 50;" xml:space="preserve">
<style type="text/css">
	.st0{fill:#38bc9c;}
</style>
<path class="st0" d="M15.9,41.7l-5.7-18.5l15-11.5l15,11.5v18.5H15.9z M14,7.9l2,2.9l2.6-1.9l-1-3.7C17.6,5.1,14,7.9,14,7.9z
	 M7.1,33.2l-1-3.2l-3.3,0.3l1.3,4.3L7.1,33.2z M5.1,26.7l-1.3-4.1l-3.7-1L1.8,27C1.8,27,5.1,26.7,5.1,26.7z M4.3,19.4L8,16.7l-2.9-2
	l-4.7,3.6C0.4,18.3,4.3,19.4,4.3,19.4z M10.8,14.6l2.5-1.9l-2-2.8l-3.5,2.7L10.8,14.6z M45.9,21.1v2l3.3-0.3v-3.8l-1.5-1.2L44,19.7
	L45.9,21.1z M38.6,15.5l2.4,1.9l3.7-1.7l-3.6-2.7L38.6,15.5z M33.8,11.9l2.1,1.6l2.6-2.6l-3.1-2.4L33.8,11.9z M28.4,7.8l2.7,2.1
	l1.6-3.4l-3.9-3C28.8,3.5,28.4,7.8,28.4,7.8z M37.1,46.7h-4.9l0.9,3.3h6.3L37.1,46.7z M21.5,6.7l2.8-2.1l1,0.8l0.4-4.3L24.3,0
	l-3.8,2.9C20.5,2.9,21.5,6.7,21.5,6.7z M14,46.7h-2.6l-0.9-2.9l-2.7,2.7L8.9,50h3.6L14,46.7z M45.9,43.3v3.4h-4.8l2.3,3.3h5.8v-4.4
	L45.9,43.3z M45.9,26.5v4l3.3,0.9v-5.2C49.3,26.2,45.9,26.5,45.9,26.5z M9.3,40.2l-1.2-3.7l-3,1.4l1.5,5C6.6,42.8,9.3,40.2,9.3,40.2
	z M49.3,34.9L45.9,34v5.2l3.3,2.3V34.9z M21.4,50l0.3-3.3h-4.1L16.1,50C16.1,50,21.4,50,21.4,50z M28.8,46.7H25L24.8,50h4.9
	C29.6,50,28.8,46.7,28.8,46.7z"/>
</svg>
