<?xml version="1.0" standalone="no"?><!DOCTYPE svg PUBLIC "-//W3C//DTD SVG 1.1//EN" "http://www.w3.org/Graphics/SVG/1.1/DTD/svg11.dtd"><svg t="1572947544457" class="icon" viewBox="0 0 1024 1024" version="1.1" xmlns="http://www.w3.org/2000/svg" p-id="2619" xmlns:xlink="http://www.w3.org/1999/xlink" width="200" height="200"><defs><style type="text/css"></style></defs><path d="M952 72v880H72V72h880m0-72H72C32.2 0 0 32.2 0 72v952h952c39.8 0 72-32.2 72-72V72c0-39.8-32.2-72-72-72z" p-id="2620" fill="#dbdbdb"></path><path d="M67.5 146h889v36h-889zM259.7 656.6l-12 14.6-134.1-120.9 132.8-122.2 13.3 13.3-119.5 108.9 119.5 106.3zM721.7 623.1v49.7c-48.7-3.4-110.2-4.9-200.7-4.9-90.5 0-152 1.5-200.7 4.9v-49.7c44.8 3 99.4 4.4 177.6 4.9V508.5c-59 0.5-100.4 2-134.8 4.9v-45.8c34.4 3 75.8 4.4 134.8 4.9v-97.4c-66.4 0.5-113.7 2-152.5 4.9v-46.7c43.3 3.4 97.4 4.9 177.1 4.9s133.8-1.5 177.1-4.9V380c-39.4-3-87.6-4.4-156-4.9v97.4c57.1-0.5 97.4-2 131.4-4.9v45.8c-33.9-3-74.3-4.4-131.4-4.9V628c78.2-0.5 133.3-1.9 178.1-4.9zM515.6 330.9c-10.8-24.6-21.2-41.8-35.4-60l47.7-20.2c15.3 21.2 26.1 36.9 36.9 57.1l-49.2 23.1zM921.7 550.3L787.6 671.2l-12-14.6 119.5-106.3-119.5-108.9 13.3-13.3 132.8 122.2z" p-id="2621" fill="#dbdbdb"></path><path d="M789 112m-18 0a18 18 0 1 0 36 0 18 18 0 1 0-36 0Z" p-id="2622" fill="#dbdbdb"></path><path d="M846 112m-18 0a18 18 0 1 0 36 0 18 18 0 1 0-36 0Z" p-id="2623" fill="#dbdbdb"></path><path d="M900 112m-18 0a18 18 0 1 0 36 0 18 18 0 1 0-36 0Z" p-id="2624" fill="#dbdbdb"></path><path d="M457 745h500v36H457z" p-id="2625" fill="#dbdbdb"></path><path d="M249 871h708v36H249z" p-id="2626" fill="#dbdbdb"></path><path d="M512 807h445v36H512z" p-id="2627" fill="#dbdbdb"></path></svg>