<?xml version="1.0" encoding="utf-8"?>
<!-- Generator: Adobe Illustrator 25.1.0, SVG Export Plug-In . SVG Version: 6.00 Build 0)  -->
<svg version="1.1" id="图层_1" xmlns="http://www.w3.org/2000/svg" xmlns:xlink="http://www.w3.org/1999/xlink" x="0px" y="0px"
	 viewBox="0 0 1024 1080" style="enable-background:new 0 0 1024 1080;" xml:space="preserve">
<style type="text/css">
	.st0{fill:#4AB0FF;}
	.st1{fill:#017BDB;}
</style>
<g>
	<polygon class="st0" points="618.1,258.6 607.5,174.9 168.5,152.3 110.8,251.5 54.4,251.5 54.4,891 968,891 959.7,266.5 	"/>
	<g>
		<path class="st1" d="M990.6,958.8H33.9C15.2,958.8,0,943.8,0,925V326c0-8.6,3.3-17,9.2-23.3l161-170.9
			c6.4-6.8,15.4-10.7,24.7-10.7h360.2c8.2,0,16.2,3,22.4,8.4l140.1,123l273.2,6.4c9.8,0.3,19.1,4.7,25.3,12.3
			c6.3,7.6,8.9,17.5,7.4,27.2l0.5,632.1C1021.3,946.8,1007.2,958.8,990.6,958.8z M67.9,891h891.8V325.8l-256-5.7
			c-8-0.2-15.6-3.2-21.6-8.4L542.3,189H209.6L67.9,339.5V891z"/>
	</g>
	<path class="st0" d="M116.3,189"/>
</g>
</svg>
