<?xml version="1.0" encoding="utf-8"?>
<!-- Generator: Adobe Illustrator 18.1.1, SVG Export Plug-In . SVG Version: 6.00 Build 0)  -->
<svg version="1.1" id="图层_1" xmlns="http://www.w3.org/2000/svg" xmlns:xlink="http://www.w3.org/1999/xlink" x="0px" y="0px"
	 viewBox="0 0 50 50" enable-background="new 0 0 50 50" xml:space="preserve">
<path fill="#007ADB" d="M35.2,2.1c3.3,0,6,2.7,6,6s-2.7,6-6,6s-6-2.7-6-6S31.9,2.1,35.2,2.1 M35.2,0.1c-4.4,0-7.9,3.6-7.9,7.9
	s3.6,7.9,7.9,7.9s7.9-3.6,7.9-7.9S39.6,0.1,35.2,0.1L35.2,0.1z"/>
<g>
	<path fill="#007ADB" d="M42.1,36.1c3.4,0,6.1,2.7,6.1,6.1s-2.7,6.1-6.1,6.1S36,45.6,36,42.2C36,38.8,38.7,36.1,42.1,36.1
		 M42.1,34.3c-4.4,0-7.9,3.6-7.9,7.9s3.6,7.9,7.9,7.9s7.9-3.6,7.9-7.9S46.4,34.3,42.1,34.3L42.1,34.3z"/>
</g>
<path fill="#007ADB" d="M10.3,16.7c4.4,0,8,3.6,8,8s-3.6,8-8,8s-8-3.6-8-8C2.3,20.3,5.9,16.7,10.3,16.7 M10.3,14.6
	c-5.6,0-10.1,4.5-10.1,10.1s4.5,10.1,10.1,10.1s10.1-4.5,10.1-10.1S15.9,14.6,10.3,14.6L10.3,14.6z"/>
<rect x="16.7" y="16.1" transform="matrix(0.8005 -0.5993 0.5993 0.8005 -5.4141 17.9596)" fill="#007ADB" width="15.2" height="1.9"/>
<rect x="15" y="34.6" transform="matrix(0.9009 0.434 -0.434 0.9009 17.9881 -7.6983)" fill="#007ADB" width="21.8" height="1.9"/>
</svg>
