<?xml version="1.0" encoding="utf-8"?>
<!-- Generator: Adobe Illustrator 25.1.0, SVG Export Plug-In . SVG Version: 6.00 Build 0)  -->
<svg version="1.1" id="图层_1" xmlns="http://www.w3.org/2000/svg" xmlns:xlink="http://www.w3.org/1999/xlink" x="0px" y="0px"
	 viewBox="0 0 1024 1080" style="enable-background:new 0 0 1024 1080;" xml:space="preserve">
<style type="text/css">
	.st0{fill:#017BDB;}
	.st1{fill:#4AB0FF;}
</style>
<g>
	<g>
		<path class="st0" d="M810.8,921.7H34.3c-17.1,0-31-13.8-31-31V345c0-7.9,3-15.4,8.4-21.2L158.5,168c5.8-6.3,14-9.7,22.5-9.7h328.2
			c7.5,0,14.7,2.7,20.4,7.7l127.7,112l249,5.8c9,0.2,17.4,4.3,23.1,11.2c5.7,6.9,8.2,15.9,6.7,24.8l-94.6,575.9
			C838.9,910.8,826.1,921.7,810.8,921.7z M65.2,859.9h719.3l84.8-515l-224.6-5.2c-7.3-0.2-14.2-2.9-19.7-7.7L497.6,220.1H194.4
			L65.2,357.3L65.2,859.9L65.2,859.9z"/>
	</g>
	<g>
		<g>
			<polygon class="st1" points="866,890.7 83.3,890.7 207.1,451.8 989.7,451.8 			"/>
		</g>
		<g>
			<path class="st0" d="M866,921.7H83.3c-9.7,0-18.8-4.5-24.6-12.3c-5.8-7.8-7.8-17.7-5.1-27l123.7-439
				c3.7-13.3,15.9-22.5,29.7-22.5h782.7c9.7,0,18.8,4.5,24.6,12.3c5.8,7.8,7.8,17.7,5.1,27l-123.6,439
				C892.1,912.5,879.9,921.7,866,921.7z M124.2,859.9h718.4l106.3-377.2H230.5L124.2,859.9z"/>
		</g>
	</g>
</g>
</svg>
