<?xml version="1.0" encoding="utf-8"?>
<!-- Generator: Adobe Illustrator 18.1.1, SVG Export Plug-In . SVG Version: 6.00 Build 0)  -->
<svg version="1.1" id="图层_1" xmlns="http://www.w3.org/2000/svg" xmlns:xlink="http://www.w3.org/1999/xlink" x="0px" y="0px"
	 viewBox="0 0 50 50" enable-background="new 0 0 50 50" xml:space="preserve">
<g>
	<path fill="#007ADB" d="M-87.5,31.6c-0.2,0-0.3,0.1-0.5,0.1C-87.8,31.7-87.6,31.6-87.5,31.6z"/>
	<g>
		<path fill="#007ADB" d="M-51.8,8.6L-51.8,8.6c1.1,0,1.9-0.9,1.9-1.8c0-1.1-0.9-1.9-1.9-1.9s-1.9,0.9-1.9,1.8
			C-53.7,7.8-52.8,8.6-51.8,8.6z"/>
		<path fill="#007ADB" d="M-41.5,22.3c0-5.6-4.5-10.3-10.3-10.3l0,0c-5.6,0-10.3,4.5-10.3,10.3c0,5.6,4.5,10.3,10.3,10.3
			C-46.1,32.5-41.5,28-41.5,22.3z M-59.1,22.3c0-4,3.2-7.3,7.3-7.3c4,0,7.3,3.2,7.3,7.3c0,4-3.2,7.3-7.3,7.3
			C-55.7,29.6-59.1,26.3-59.1,22.3z"/>
		<path fill="#007ADB" d="M-58.1,34.6L-58.1,34.6L-58.1,34.6z"/>
		<path fill="#007ADB" d="M-51.8-4.6c-12.2,0-22.1,9.9-22.1,22.1s9.9,22.1,22.1,22.1s22.1-9.9,22.1-22.1S-39.6-4.6-51.8-4.6z
			 M-51.8,36.8c-10.7-0.1-19.3-8.7-19.3-19.3c0-10.7,8.6-19.3,19.3-19.3s19.3,8.6,19.3,19.3C-32.4,28.2-41.1,36.8-51.8,36.8z"/>
		<polygon fill="#007ADB" points="-61.1,41.7 -63.8,41.7 -63.8,34.2 -61.1,36.3 		"/>
		<rect x="-71.5" y="40.7" fill="#007ADB" width="37.9" height="2.7"/>
		<rect x="-43.6" y="35.8" fill="#007ADB" width="2.7" height="6"/>
	</g>
</g>
<g>
	<path fill="#007ADB" d="M24.7,40.7c-11,0-20-9-20-20s9-20,20-20s20,9,20,20S35.7,40.7,24.7,40.7z M24.7,2.6
		c-10,0-18.1,8.1-18.1,18.1s8.1,18.1,18.1,18.1s18.1-8.1,18.1-18.1S34.7,2.6,24.7,2.6z"/>
	<path fill="#007ADB" d="M24.7,34.1c-6.3,0-11.4-5.1-11.4-11.4s5.1-11.4,11.4-11.4s11.4,5.1,11.4,11.4S31,34.1,24.7,34.1z
		 M24.7,13.1c-5.3,0-9.5,4.3-9.5,9.5s4.3,9.5,9.5,9.5s9.5-4.3,9.5-9.5S29.9,13.1,24.7,13.1z"/>
	<path fill="#007ADB" d="M22.8,6.4c0,1.1,0.9,1.9,1.9,1.9c1.1,0,1.9-0.9,1.9-1.9c0,0,0,0,0,0c0-1.1-0.9-1.9-1.9-1.9
		S22.8,5.4,22.8,6.4z"/>
	<path fill="#007ADB" d="M11.8,47.4h25.7v1.9H11.8V47.4z"/>
	<path fill="#007ADB" d="M35.4,49.3H14l5.8-10.5h9.7L35.4,49.3z M17.2,47.4h14.9l-3.7-6.7H21L17.2,47.4z"/>
</g>
</svg>
