<?xml version="1.0" standalone="no"?><!DOCTYPE svg PUBLIC "-//W3C//DTD SVG 1.1//EN" "http://www.w3.org/Graphics/SVG/1.1/DTD/svg11.dtd"><svg t="1600223112324" class="icon" viewBox="0 0 1024 1024" version="1.1" xmlns="http://www.w3.org/2000/svg" p-id="4564" xmlns:xlink="http://www.w3.org/1999/xlink" width="50" height="50"><defs><style type="text/css"></style></defs><path d="M877.714286 605.110857v260.022857H146.285714V605.110857a32.475429 32.475429 0 0 0-32.475428-32.548571H32.475429A32.475429 32.475429 0 0 0 0 605.110857v260.022857a146.285714 146.285714 0 0 0 146.285714 146.285715h731.428572a146.285714 146.285714 0 0 0 146.285714-146.285715V605.110857a32.475429 32.475429 0 0 0-32.475429-32.548571h-81.334857a32.475429 32.475429 0 0 0-32.475428 32.548571z" fill="#01b87f" p-id="4565"></path><path d="M463.652571 698.953143a64.731429 64.731429 0 0 0 92.818286 0l259.218286-264.630857a64.950857 64.950857 0 1 0-92.891429-90.916572L582.729143 494.226286l0.731428-420.498286a73.142857 73.142857 0 0 0-72.923428-73.142857h-0.146286a72.923429 72.923429 0 0 0-73.142857 72.777143v0.146285l-0.804571 420.571429-139.264-150.747429a65.097143 65.097143 0 0 0-92.891429 90.916572L463.725714 698.953143z" fill="#01b87f" p-id="4566"></path></svg>