<?xml version="1.0" standalone="no"?><!DOCTYPE svg PUBLIC "-//W3C//DTD SVG 1.1//EN" "http://www.w3.org/Graphics/SVG/1.1/DTD/svg11.dtd"><svg t="1568428717218" class="icon" viewBox="0 0 1024 1024" version="1.1" xmlns="http://www.w3.org/2000/svg" p-id="75399" xmlns:xlink="http://www.w3.org/1999/xlink" width="20" height="20"><defs><style type="text/css"></style></defs><path d="M914.65379385 122.75213054L522.09036953 45.39263077h-15.85629497l-392.56342432 77.35949977c-12.97333226 2.40246893-21.14172664 12.97333226-21.14172665 25.9466645v334.90416984c0 255.1422011 208.05380993 437.72984033 416.10761988 489.62316939h10.57086335c205.651341-51.41283527 416.10761988-234.48096824 416.10761988-489.62316939v-334.90416984c0.48049377-12.97333226-7.20740682-23.54419559-20.66123285-25.9466645z m-31.71258995 360.37034054c0 223.91010493-184.50961436 388.71947401-368.53873497 437.72984032-184.50961436-49.01036631-368.53873494-211.41726644-368.53873494-437.72984032v-314.24293695l368.53873494-72.07406813 368.53873497 72.07406813v314.24293695z" p-id="75400" fill="#ffffff"></path><path d="M514.40246893 190.02126076l-295.02318546 82.64493147v218.62467327c0 127.33085367 189.79504603 303.19157985 295.02318546 330.57972571 105.22813942-27.38814587 295.02318546-204.69035344 295.02318547-330.57972571v-218.62467327l-295.02318547-82.64493147z m178.74368893 206.13183481l-208.53430373 208.53430374c-8.16839438 8.16839438-21.62222042 8.16839438-29.79061484 0l-119.16245929-119.16245928c-8.16839438-8.16839438-8.16839438-21.62222042 0-29.79061485 8.16839438-8.16839438 21.62222042-8.16839438 29.79061483 0l104.26715188 104.26715187 193.63899632-193.63899632c8.16839438-8.16839438 21.62222042-8.16839438 29.79061483 0 8.16839438 8.16839438 8.16839438 21.62222042 0 29.79061484z" p-id="75401" fill="#ffffff"></path></svg>