<?xml version="1.0" standalone="no"?><!DOCTYPE svg PUBLIC "-//W3C//DTD SVG 1.1//EN" "http://www.w3.org/Graphics/SVG/1.1/DTD/svg11.dtd"><svg t="1603166485216" class="icon" viewBox="0 0 1024 1024" version="1.1" xmlns="http://www.w3.org/2000/svg" p-id="4384" width="20" height="20" xmlns:xlink="http://www.w3.org/1999/xlink"><defs><style type="text/css"></style></defs><path d="M927.5 795.1c1-7.4 1.7-14.8 1.7-22.6-0.1-7.5-0.6-15.1-1.7-22.6l50-38c4.5-3.5 5.7-9.8 2.8-14.7L933 617.5c-3-4.9-9.1-7-14.5-5.1l-59 23c-12.3-9.2-25.8-16.8-40.1-22.5l-9-61c-0.9-5.7-5.9-9.9-11.7-9.7H704c-5.8-0.2-10.8 4-11.6 9.7l-9 61c-14.2 5.8-27.7 13.4-40.1 22.5l-59-23c-5.4-2.1-11.6 0-14.5 5.1l-47.4 79.7c-3 4.9-1.8 11.3 2.8 14.7l50 38c-1 7.5-1.6 15-1.6 22.6 0 7.6 0.7 15.2 1.6 22.6l-50 38c-4.5 3.5-5.7 9.8-2.8 14.7l47.4 79.7c2.9 5 9.3 6.9 14.5 5l59-23c12.3 9.2 25.6 16.8 40.1 22.5l9 61c0.9 5.7 5.9 9.8 11.6 9.7h94.7c6 0 11-4.2 11.7-9.7l9-61c14.3-5.8 27.7-13.3 40.1-22.5l59 23c5.4 2.1 11.6 0 14.5-5l47.4-79.7c2.9-4.9 1.7-11.2-2.8-14.7l-50.1-38z m-176 58c-45.7 0-83-36.2-83-80.6 0-44.4 37.2-80.6 83-80.6 45.7 0 82.9 36.2 82.9 80.6 0 44.4-37.2 80.6-82.9 80.6z m0 0" p-id="4385" fill="#ffffff"></path><path d="M476.5 57.4l0.3 115.7c0 2.3 0.1 4.6 0.4 6.9 2.8 18.4 18.5 32.8 37.8 33.2 21.6 0.5 39.6-16.6 40.1-38.2l-0.3-115.7c0.5-21.1-15.9-38.7-36.8-40h-5.4c-19.8 1.4-35.6 17.8-36.1 38.1zM170 923.5c0 30.8 25 55.8 55.8 55.8h290C491 946.9 473 908.9 464 867.7H225.9c-30.9 0-55.9 24.9-55.9 55.8zM789.9 455c3.3 21.4 23.3 36.1 44.7 32.9L949 470.5c21.4-3.3 36.1-23.2 32.9-44.6-3.3-21.4-23.2-36.1-44.6-32.8l-114.4 17.4c-21.6 3.1-36.3 23.1-33 44.5zM511.9 297.7h-3.5c-132.8 0-240.6 107.7-240.6 240.5v295.6h190.7c-0.9-9.1-1.3-18.3-1.3-27.6C457.3 648.7 585 521 742.5 521c3.1 0 6.3 0.1 9.4 0.2-8.8-124.9-112.9-223.5-240-223.5zM696.5 284c16.2 14.3 41 12.7 55.3-3.5l76.4-86.9c14.3-16.3 12.7-41-3.5-55.3-16.3-14.3-41-12.7-55.3 3.5L693 228.7c-8 9.1-11 20.7-9.3 31.8 1.3 8.8 5.6 17.2 12.8 23.5zM229.2 441.8c4.3-21.2-9.5-41.9-30.7-46.1L85 372.9c-21.2-4.2-41.9 9.5-46.1 30.7-0.9 4.5-1 9.1-0.3 13.6 2.4 15.8 14.4 29.2 31 32.5L183 472.5c21.3 4.2 41.9-9.5 46.2-30.7zM203.2 179l72.3 90.4c13.5 16.9 38.2 19.6 55.1 6.1 16.9-13.5 19.6-38.2 6.1-55.1L264.4 130c-13.5-16.9-38.2-19.6-55.1-6.1C197.9 133 193 147 195 160.4c1.1 6.8 3.9 13.2 8.2 18.6z" fill="#ffffff" p-id="4386"></path></svg>