<?xml version="1.0" standalone="no"?><!DOCTYPE svg PUBLIC "-//W3C//DTD SVG 1.1//EN" "http://www.w3.org/Graphics/SVG/1.1/DTD/svg11.dtd"><svg t="1591873885631" class="icon" viewBox="0 0 1024 1024" version="1.1" xmlns="http://www.w3.org/2000/svg" p-id="5331" xmlns:xlink="http://www.w3.org/1999/xlink" width="50" height="50"><defs><style type="text/css"></style></defs><path d="M964.69485543 427.16113983c0-32.47737616-70.91998467-77.54802062-96.76932488-103.39736082-64.95475232-84.17605657-168.35211315-187.57341741-355.92553055-187.57341741-180.94538145 0-285.00554587 110.02539678-355.92553055 187.57341741-32.47737616 25.84934021-96.76932489 64.29194871-96.76932488 103.39736082 0 58.32671636 70.91998467 90.14128893 116.65343273 90.14128894v51.6986804c0 6.62803595 6.62803595 12.5932683 13.25607191 12.59326831 77.54802062 6.62803595 446.72962307 45.07064446 646.89630877 0 6.62803595 0 13.2560719-6.62803595 13.25607191-13.2560719v-58.32671636c57.00110917-5.30242877 115.32782555-24.52373301 115.32782554-82.85044939zM188.5518456 646.54912979v12.59326831c0 122.61866509 122.61866509 219.38798996 316.82011845 219.38798997 226.67882951 0 316.82011843-96.76932489 316.82011844-219.38798997v-12.59326831c-187.57341741 32.47737616-523.6148401 6.62803595-633.64023689 0z m303.56404655-139.18875495l-64.29194872-96.10652129c-19.22130427-19.22130427-19.22130427-51.03587682-6.62803596-70.91998466l19.22130426-38.44260853c12.5932683-25.84934021 38.44260851-38.44260851 64.29194872-38.44260851h19.22130426c25.84934021 0 57.66391277 19.22130427 64.29194872 45.07064447l19.22130426 38.44260851c6.62803595 19.22130427 6.62803595 45.07064446-6.62803595 64.29194872l-64.29194873 96.10652129c-12.5932683 12.5932683-31.81457257 12.5932683-44.40784086 0z" p-id="5332" fill="#ffffff"></path></svg>