<?xml version="1.0" standalone="no"?><!DOCTYPE svg PUBLIC "-//W3C//DTD SVG 1.1//EN" "http://www.w3.org/Graphics/SVG/1.1/DTD/svg11.dtd"><svg t="1568429495282" class="icon" viewBox="0 0 1024 1024" version="1.1" xmlns="http://www.w3.org/2000/svg" p-id="102070" xmlns:xlink="http://www.w3.org/1999/xlink" width="19" height="19"><defs><style type="text/css"></style></defs><path d="M806.4 172.8c-25.6-25.6-64-19.2-89.6 6.4-25.6 25.6-19.2 64 6.4 89.6C793.6 332.8 832 422.4 832 512c0 179.2-140.8 320-320 320s-320-140.8-320-320c0-89.6 38.4-179.2 108.8-243.2 25.6-25.6 32-64 6.4-89.6-25.6-25.6-64-32-89.6-6.4C121.6 262.4 64 384 64 512c0 249.6 198.4 448 448 448s448-198.4 448-448c0-128-57.6-249.6-153.6-339.2z" p-id="102071" fill="#ffffff"></path><path d="M512 576c38.4 0 64-25.6 64-64V64c0-38.4-25.6-64-64-64S448 25.6 448 64v448c0 38.4 25.6 64 64 64z" p-id="102072" fill="#ffffff"></path></svg>