<?xml version="1.0" standalone="no"?><!DOCTYPE svg PUBLIC "-//W3C//DTD SVG 1.1//EN" "http://www.w3.org/Graphics/SVG/1.1/DTD/svg11.dtd"><svg t="1585103312236" class="icon" viewBox="0 0 1024 1024" version="1.1" xmlns="http://www.w3.org/2000/svg" p-id="5808" xmlns:xlink="http://www.w3.org/1999/xlink" width="17" height="17"><defs><style type="text/css"></style></defs><path d="M510.286 138.829c-155.983 0-282.403 123.767-282.403 276.484 0 152.696 126.42 276.48 282.403 276.48 155.985 0 282.405-123.784 282.405-276.48 0-152.717-126.42-276.484-282.405-276.484z" p-id="5809" fill="#ffffff"></path><path d="M184.191 521.44V266.188c-3.577 0-7.118 0.146-10.621 0.423C231.441 140.98 360.333 53.489 510.326 53.489c149.994 0 278.888 87.491 336.756 213.124a134.44 134.44 0 0 0-10.62-0.424V521.44c72.03 0 130.462-57.148 130.462-127.624 0-47.864-26.952-89.57-66.808-111.413-56.084-157.976-209.19-271.441-389.79-271.441-180.593 0-333.696 113.458-389.784 271.428-39.868 21.84-66.813 63.553-66.813 111.425 0 70.477 58.39 127.624 130.462 127.624zM792.095 667.77C718.3 735.195 619.23 776.482 510.285 776.482c-108.742 0-207.647-41.135-281.397-108.338C96.897 734.637 10.24 852.99 10.24 1013.766h1003.52c0-161.076-88.278-279.57-221.665-345.996z" p-id="5810" fill="#ffffff"></path></svg>