<?xml version="1.0" standalone="no"?><!DOCTYPE svg PUBLIC "-//W3C//DTD SVG 1.1//EN" "http://www.w3.org/Graphics/SVG/1.1/DTD/svg11.dtd"><svg t="1568432883899" class="icon" viewBox="0 0 1024 1024" version="1.1" xmlns="http://www.w3.org/2000/svg" p-id="11112" width="24" height="24" xmlns:xlink="http://www.w3.org/1999/xlink"><defs><style type="text/css"></style></defs><path d="M834.32522 700.591182l-71.42716-86.055732v-126.735803c0-163.93933-98.652557-233.786243-202.497355-247.150617v-15.44127a48.400705 48.400705 0 1 0-96.84656 0v15.44127c-103.844797 13.409524-202.497354 83.211287-202.497355 247.105467v126.780953L189.62963 700.591182a22.484656 22.484656 0 0 0 17.382716 36.932628h609.975308a22.484656 22.484656 0 0 0 17.337566-36.932628zM512 847.238095a69.079365 69.079365 0 0 0 69.034215-69.034215H442.965785a69.079365 69.079365 0 0 0 69.034215 69.034215z" fill="#ffffff" p-id="11113"></path></svg>