<?xml version="1.0" standalone="no"?><!DOCTYPE svg PUBLIC "-//W3C//DTD SVG 1.1//EN" "http://www.w3.org/Graphics/SVG/1.1/DTD/svg11.dtd"><svg t="1597201012273" class="icon" viewBox="0 0 1024 1024" version="1.1" xmlns="http://www.w3.org/2000/svg" p-id="2837" width="20" height="20" xmlns:xlink="http://www.w3.org/1999/xlink"><defs><style type="text/css"></style></defs><path d="M199.0656 1011.712c-12.6976-7.9872-15.9744-19.8656-15.7696-34.2016 0.4096-41.3696 0.2048-82.7392 0.2048-125.5424H146.2272c-8.8064 0-17.6128 0.2048-26.4192-0.2048-13.1072-0.8192-20.2752-8.3968-20.6848-21.2992-0.2048-8.192 0-16.384 0.4096-24.3712 0.6144-9.0112 4.5056-17.2032 13.1072-20.0704 6.7584-2.2528 7.168-5.9392 7.168-11.4688v-181.8624c0-23.7568 6.7584-30.9248 30.5152-30.9248 32.9728 0 65.7408 0 98.7136 0.2048 6.144 0 9.4208-1.2288 11.8784-7.9872 6.7584-18.6368 14.9504-36.864 22.9376-54.8864 7.5776-16.7936 20.6848-24.7808 39.5264-24.7808 125.7472 0.2048 251.4944 0.2048 377.2416 0 19.2512 0 32.3584 8.6016 39.936 25.8048 7.9872 17.8176 15.7696 35.84 22.528 54.0672 2.4576 6.7584 5.7344 7.9872 11.8784 7.9872 33.1776-0.2048 66.56-0.2048 99.7376-0.2048 22.3232 0 29.4912 7.5776 29.4912 30.1056v182.6816c0 5.5296 0.4096 9.216 7.168 11.4688 8.6016 2.8672 12.4928 11.0592 13.1072 20.0704 0.4096 7.3728 0.6144 14.9504 0.6144 22.528-0.2048 14.9504-7.7824 22.9376-22.9376 23.3472-17.6128 0.4096-35.2256 0.2048-52.8384 0.2048-2.4576 0-5.12 0.2048-8.8064 0.4096v10.8544c0 38.0928-0.4096 76.1856 0.2048 114.2784 0.2048 14.336-3.2768 26.2144-15.7696 34.2016h-99.7376c-13.312-8.6016-15.7696-21.7088-15.5648-36.4544 0.4096-37.4784 0.2048-74.9568 0.2048-112.4352v-10.4448H314.368v11.4688c0 37.0688-0.2048 74.3424 0.2048 111.4112 0.2048 14.5408-2.2528 27.8528-15.5648 36.4544-33.5872-0.4096-66.7648-0.4096-99.9424-0.4096z m313.344-404.8896h-126.1568c-18.6368 0-26.8288 8.3968-26.8288 26.8288 0 18.2272-0.2048 36.4544 0 54.6816 0.2048 19.2512 7.9872 27.4432 27.4432 27.4432 83.3536 0.2048 166.912 0.2048 250.2656 0 19.2512 0 27.2384-8.3968 27.4432-27.4432v-52.8384c0-21.2992-7.5776-28.672-28.8768-28.672h-123.2896z m-263.168 45.2608c-9.8304 0-19.6608 0.4096-29.2864 0-27.4432-1.2288-38.2976 5.3248-36.6592 36.864 1.024 20.8896 7.9872 28.672 29.2864 28.672h62.6688c34.816 0 40.3456-5.7344 39.1168-40.1408-0.6144-16.5888-9.216-24.9856-25.8048-25.3952-13.312-0.2048-26.2144 0-39.3216 0z m526.1312 0h-28.2624c-32.3584 0-37.2736 4.9152-37.2736 37.2736 0 20.2752 7.9872 28.2624 28.4672 28.2624 21.0944 0.2048 42.3936 0 63.488 0 34.816 0 39.3216-4.5056 38.7072-39.7312-0.2048-17.2032-8.8064-25.6-26.0096-25.8048-13.1072-0.2048-26.2144 0-39.1168 0z" p-id="2838" fill="#ffffff"></path><path d="M558.8992 10.4448c17.408 1.2288 35.0208 2.4576 52.4288 4.096 63.488 5.7344 126.1568 15.36 184.5248 42.8032 32.9728 15.5648 62.6688 35.2256 78.848 69.632 4.5056 9.4208 7.3728 20.48 7.3728 30.9248 0.4096 123.904 0.4096 247.6032 0.2048 371.5072 0 3.072-0.4096 6.3488-0.6144 10.6496-24.7808 0-48.7424 0.2048-72.704-0.2048-1.6384 0-4.096-3.6864-4.3008-5.7344-0.6144-4.7104-0.4096-9.8304-0.4096-14.5408 0-98.5088 0-196.8128 0.2048-295.3216 0-24.3712-4.096-32.1536-28.4672-36.6592-30.9248-5.7344-62.464-10.0352-93.7984-12.0832-41.5744-2.6624-83.3536-2.8672-124.928-3.8912-2.8672 0-5.7344 0.4096-9.6256 0.6144v267.4688h-70.2464V171.8272c-6.7584 0-12.4928-0.2048-18.2272 0-47.104 1.6384-94.4128 2.8672-141.5168 5.5296-20.6848 1.2288-41.3696 4.9152-61.8496 8.192-7.3728 1.2288-14.336 4.096-21.2992 6.9632-8.6016 3.6864-14.336 10.0352-14.1312 20.0704 0 6.5536-0.4096 13.1072-0.4096 19.456 0 99.328-0.2048 198.8608 0 298.1888 0 8.3968-2.6624 10.4448-10.4448 10.24-22.1184-0.4096-44.2368-0.2048-67.584-0.2048v-13.5168c0-119.1936 0.6144-238.592-0.4096-357.7856C140.9024 135.168 154.2144 110.1824 178.176 89.2928c33.1776-29.0816 73.3184-44.2368 115.0976-55.296C346.112 19.8656 400.1792 14.336 454.4512 11.8784c3.4816-0.2048 6.9632-0.8192 10.4448-1.4336h94.0032zM119.808 337.7152c0 23.7568 0.2048 47.5136-0.2048 71.2704 0 5.7344-1.4336 11.8784-4.096 16.7936-5.9392 11.0592-15.7696 11.8784-24.576 3.2768-8.6016-8.6016-16.5888-17.408-25.6-25.3952-5.9392-5.12-12.6976-9.4208-19.6608-13.312-8.192-4.5056-12.9024-11.0592-12.9024-20.2752-0.2048-35.84-0.4096-71.68 0-107.52 0.2048-13.9264 9.0112-22.3232 23.7568-22.9376 12.6976-0.6144 25.3952-0.4096 38.0928 0 17.2032 0.6144 24.7808 8.6016 24.9856 25.8048 0.4096 23.9616 0.2048 48.128 0.2048 72.2944zM903.9872 338.1248c0-23.7568-0.2048-47.5136 0-71.2704 0.2048-19.0464 7.7824-27.0336 26.4192-27.2384 13.7216-0.2048 27.4432-0.4096 40.96 0.8192 12.4928 1.2288 19.456 9.216 19.456 21.504 0.4096 36.2496 0.4096 72.2944 0 108.544-0.2048 9.8304-5.5296 16.7936-15.1552 20.6848-4.7104 1.8432-9.216 4.5056-12.9024 7.9872-10.4448 9.8304-20.2752 20.2752-30.5152 30.3104-7.9872 7.9872-17.408 7.3728-23.3472-2.2528-3.072-4.9152-4.7104-11.4688-4.7104-17.408-0.4096-24.1664-0.2048-47.9232-0.2048-71.68z" p-id="2839" fill="#ffffff"></path></svg>