<?xml version="1.0" standalone="no"?><!DOCTYPE svg PUBLIC "-//W3C//DTD SVG 1.1//EN" "http://www.w3.org/Graphics/SVG/1.1/DTD/svg11.dtd"><svg t="1568427129602" class="icon" viewBox="0 0 1024 1024" version="1.1" xmlns="http://www.w3.org/2000/svg" p-id="45100" xmlns:xlink="http://www.w3.org/1999/xlink" width="26" height="26"><defs><style type="text/css"></style></defs><path d="M430.631808 624.11138l183.260837-91.63093c16.861016-8.432043 16.861016-32.530904 0-40.960901L430.631808 399.889643c-15.256472-7.605212-33.17047 3.436262-33.17047 20.48045L397.461337 603.63093C397.461337 620.673072 415.375336 631.715569 430.631808 624.11138L430.631808 624.11138zM810.028721 237.107209 213.971279 237.107209c-37.706787 0-68.493977 31.06246-68.493977 69.043493l0 411.651524c0 38.164205 30.558993 69.089541 68.493977 69.089541l596.057441 0c37.70781 0 68.493977-31.061436 68.493977-69.089541L878.522698 306.151725C878.522698 268.033569 847.964728 237.107209 810.028721 237.107209L810.028721 237.107209zM282.923698 717.940372c0 12.782118-9.80532 23.136953-23.137976 23.136953l-45.357024 0c-12.782118 0-23.13593-9.80532-23.13593-23.136953l0-45.356001c0-12.783141 9.804297-23.137976 23.13593-23.137976l45.403073 0c12.737092 0 23.091928 9.80532 23.091928 23.137976L282.923698 717.940372 282.923698 717.940372zM282.923698 534.677489c0 12.783141-9.80532 23.137976-23.137976 23.137976l-45.357024 0c-12.782118 0-23.13593-9.80532-23.13593-23.137976l0-45.356001c0-12.783141 9.804297-23.136953 23.13593-23.136953l45.403073 0c12.737092 0 23.091928 9.80532 23.091928 23.136953L282.923698 534.677489 282.923698 534.677489zM282.923698 351.416652c0 12.783141-9.80532 23.136953-23.137976 23.136953l-45.357024 0c-12.782118 0-23.13593-9.804297-23.13593-23.136953l0-45.357024c0-12.782118 9.804297-23.13593 23.13593-23.13593l45.403073 0c12.737092 0 23.091928 9.804297 23.091928 23.13593L282.923698 351.416652 282.923698 351.416652zM695.260837 741.076302 328.73814 741.076302 328.73814 282.922674l366.522698 0L695.260837 741.076302 695.260837 741.076302zM832.709279 717.940372c0 12.782118-9.806343 23.136953-23.137976 23.136953L764.16823 741.077326c-12.737092 0-23.091928-9.80532-23.091928-23.136953l0-45.356001c0-12.783141 9.80532-23.137976 23.137976-23.137976l45.403073 0c12.737092 0 23.091928 9.80532 23.091928 23.137976L832.709279 717.940372 832.709279 717.940372zM832.709279 534.677489c0 12.783141-9.806343 23.137976-23.137976 23.137976L764.16823 557.815465c-12.737092 0-23.091928-9.80532-23.091928-23.137976l0-45.356001c0-12.783141 9.80532-23.136953 23.137976-23.136953l45.403073 0c12.737092 0 23.091928 9.80532 23.091928 23.136953L832.709279 534.677489 832.709279 534.677489zM832.709279 351.416652c0 12.783141-9.806343 23.136953-23.137976 23.136953L764.16823 374.553605c-12.737092 0-23.091928-9.804297-23.091928-23.136953l0-45.357024c0-12.782118 9.80532-23.13593 23.137976-23.13593l45.403073 0c12.737092 0 23.091928 9.804297 23.091928 23.13593L832.709279 351.416652 832.709279 351.416652z" p-id="45101" fill="#ffffff"></path></svg>