<?xml version="1.0" standalone="no"?><!DOCTYPE svg PUBLIC "-//W3C//DTD SVG 1.1//EN" "http://www.w3.org/Graphics/SVG/1.1/DTD/svg11.dtd"><svg t="1568425814609" class="icon" viewBox="0 0 1024 1024" version="1.1" xmlns="http://www.w3.org/2000/svg" p-id="17827" width="20" height="20" xmlns:xlink="http://www.w3.org/1999/xlink"><defs><style type="text/css"></style></defs><path d="M796.71296 537.66144V791.28576a40.96 40.96 0 0 1-40.96 40.96H268.24704a40.96 40.96 0 0 1-40.96-40.96V537.66144c0-14.1312 7.2704-27.25888 19.2512-34.73408l243.75296-152.22784a40.96 40.96 0 0 1 43.39712 0l243.75296 152.22784c12.00128 7.4752 19.27168 20.60288 19.27168 34.73408z m99.6352-113.21344L533.7088 197.98016a40.96 40.96 0 0 0-43.39712 0L127.65184 424.448a40.96 40.96 0 0 0 43.39712 69.48864L512 281.00608l340.93056 212.91008a40.89856 40.89856 0 0 0 56.44288-13.04576 40.96 40.96 0 0 0-13.02528-56.4224z" p-id="17828" fill="#ffffff"></path></svg>