<?xml version="1.0" standalone="no"?><!DOCTYPE svg PUBLIC "-//W3C//DTD SVG 1.1//EN" "http://www.w3.org/Graphics/SVG/1.1/DTD/svg11.dtd"><svg t="1568428385978" class="icon" viewBox="0 0 1024 1024" version="1.1" xmlns="http://www.w3.org/2000/svg" p-id="73025" width="20" height="20" xmlns:xlink="http://www.w3.org/1999/xlink"><defs><style type="text/css"></style></defs><path d="M962.840058 482.694557c-0.983397-11.256368-10.498098-23.563672-21.141506-27.351951l-84.785012-30.17423c-10.643408-3.78828-22.38687-15.621792-26.094308-26.292829l-13.404288-32.466436c-4.891404-10.18599-4.923126-26.866904-0.071631-37.07029l38.512129-81.018222c4.851495-10.202363 2.650363-25.436322-4.891404-33.848922l-41.435715-41.435715c-8.4126-7.541767-23.64656-9.742898-33.848922-4.891404l-81.019245 38.514175c-10.204409 4.849448-26.886347 4.815679-37.07029-0.073678l-32.469506-13.390985c-10.671037-3.714602-22.500457-15.46318-26.288736-26.106588l-30.17423-84.782965c-3.78828-10.643408-16.095583-20.160155-27.351951-21.143553 0 0-12.470009-1.090844-29.30442-1.090844-16.833387 0-29.30442 1.090844-29.30442 1.090844-11.254322 0.983397-23.561625 10.500145-27.351951 21.143553l-30.173207 84.782965c-3.790326 10.643408-15.617699 22.396079-26.287713 26.114774l-32.414247 13.383822c-10.18599 4.889357-26.867928 4.924149-37.072337 0.075725l-81.072457-38.519292c-10.204409-4.849448-25.437345-2.64627-33.850969 4.895497l-41.437761 41.435715c-7.541767 8.4126-9.740852 23.64656-4.889357 33.848922l38.512129 81.018222c4.851495 10.204409 4.817726 26.885324-0.071631 37.07029l-13.390985 32.471552c-3.714602 10.66899-15.46318 22.499433-26.106588 26.287713l-84.785012 30.17423c-10.643408 3.78828-20.158109 16.095583-21.141506 27.351951 0 0-1.091868 12.470009-1.091868 29.30442 0 16.833387 1.091868 29.303396 1.091868 29.303396 0.983397 11.256368 10.498098 23.563672 21.143553 27.349905l84.838224 30.18037c10.645454 3.78828 22.38687 15.617699 26.094308 26.288736l13.404288 32.466436c4.891404 10.18599 4.924149 26.866904 0.073678 37.072337l-38.514175 81.017198c-4.851495 10.204409-2.653433 25.439392 4.882194 33.856086l41.446971 41.430598c8.4126 7.53972 23.644513 9.740852 33.848922 4.891404l81.017198-38.514175c10.206456-4.851495 26.886347-4.817726 37.072337 0.073678l32.469506 13.388938c10.66899 3.714602 22.497387 15.46318 26.28362 26.108634l30.18037 84.838224c3.78828 10.645454 16.095583 20.144806 27.353998 21.112853 0 0 12.410658 1.066285 29.244045 1.066285 16.835434 0 29.30442-1.090844 29.30442-1.090844 11.256368-0.985444 23.561625-10.500145 27.349905-21.143553l30.18037-84.84027c3.786233-10.643408 15.615653-22.38687 26.288736-26.094308l32.466436-13.404288c10.183943-4.891404 26.866904-4.924149 37.07029-0.073678l81.019245 38.514175c10.202363 4.851495 25.439392 2.653433 33.856086-4.882194l41.428551-41.444924c7.541767-8.4126 9.742898-23.64656 4.891404-33.850969l-38.512129-81.017198c-4.851495-10.204409-4.819772-26.886347 0.071631-37.07029l13.390985-32.469506c3.714602-10.671037 15.46318-22.499433 26.106588-26.287713l84.84027-30.18037c10.643408-3.786233 20.143783-16.09456 21.112853-27.351951 0 0 1.064238-12.410658 1.064238-29.244045C963.930903 495.164566 962.840058 482.694557 962.840058 482.694557zM512 717.422579c-113.444748 0-205.422579-91.978854-205.422579-205.422579 0-113.445772 91.978854-205.422579 205.422579-205.422579 113.445772 0 205.422579 91.976808 205.422579 205.422579C717.422579 625.443725 625.445772 717.422579 512 717.422579z" p-id="73026" fill="#ffffff"></path><path d="M512 512m-92.440365 0a90.335 90.335 0 1 0 184.880731 0 90.335 90.335 0 1 0-184.880731 0Z" p-id="73027" fill="#ffffff"></path></svg>