<?xml version="1.0" standalone="no"?><!DOCTYPE svg PUBLIC "-//W3C//DTD SVG 1.1//EN" "http://www.w3.org/Graphics/SVG/1.1/DTD/svg11.dtd"><svg t="1568859294493" class="icon" viewBox="0 0 1024 1024" version="1.1" xmlns="http://www.w3.org/2000/svg" p-id="8579" width="20" height="20" xmlns:xlink="http://www.w3.org/1999/xlink"><defs><style type="text/css"></style></defs><path d="M959.4 800.2c3 18.9-0.8 36-11.3 51.1-10.4 15.2-24.7 24.4-42.6 27.6l-108 18.1c-17.4 3.2-33.5-0.8-48.1-11.9s-23.6-26.1-26.6-44.9L631 228.4c-1.2-9.5-0.8-18.5 1.3-27s5.5-16.4 10.4-23.7c4.8-7.3 11-13.2 18.5-18 7.5-4.7 15.7-8 24.8-10l107-18c18-3.2 34.2 0.9 48.5 12.3 14.4 11.4 23.1 26.5 26.1 45.5l91.8 610.7zM507.1 128c18 0 33.3 6.6 45.8 19.9 12.6 13.2 18.9 29.3 18.9 48.3v632.5c0 18.9-6.3 35-18.9 48.3-12.6 13.2-27.9 19.9-45.8 19.9h-93.6c-18 0-33.3-6.6-45.8-19.9-12.6-13.2-18.9-29.3-18.9-48.3V196.1c0-18.9 4.8-35 14.4-48.3 9.6-13.2 23.7-19.9 42.2-19.9 0.1 0.1 101.7 0.1 101.7 0.1z m0 477.2c6 0 11.1-2.9 15.3-8.9 4.2-6 6.3-13.1 6.3-21.2 0-8.8-2.1-16.1-6.3-21.9-4.2-5.7-9.3-8.5-15.3-8.5h-93.6c-6 0-11.1 2.8-15.3 8.5-4.2 5.7-6.3 12.9-6.3 21.9 0 8.2 2.1 15.4 6.3 21.2 4.2 6 9.3 8.9 15.3 8.9h93.6z m0-120.3c6 0 11.1-2.9 15.3-8.9 4.2-6 6.3-13.4 6.3-22.3 0-8.8-2.1-16.1-6.3-21.9-4.2-5.8-9.3-8.5-15.3-8.5h-93.6c-6 0-11.1 2.8-15.3 8.5-4.2 5.7-6.3 12.9-6.3 21.9 0 8.8 2.1 16.3 6.3 22.3 4.2 6 9.3 8.9 15.3 8.9h93.6zM224.7 128c18 0 33.5 6.6 46.2 19.9 12.8 13.2 19.3 29.3 19.3 48.3v632.5c0 18.9-6.4 35-19.3 48.3-12.9 13.2-28.4 19.9-46.2 19.9h-93.6c-18 0-33.5-6.6-46.2-19.9-12.9-13.2-19.3-29.3-19.3-48.3V196.1c0-18.9 6.4-35 19.3-48.3 12.9-13.2 28.4-19.9 46.2-19.9h93.6z m-89.9 236.7c-6.6 0-12 2.8-16.2 8.5-4.2 5.7-6.3 12.9-6.3 21.9 0 8.2 2.1 15.4 6.3 21.2 4.2 5.9 9.6 8.9 16.2 8.9h86.3c6.6 0 11.9-2.9 15.7-8.9 3.9-6 5.9-13.1 5.9-21.2 0-8.8-1.9-16.1-5.9-21.9-3.9-5.7-9.1-8.5-15.7-8.5h-86.3zM224.7 662c6.6 0 11.9-2.8 15.7-8.5 3.9-5.7 5.9-12.6 5.9-20.8 0-8.8-1.9-15.9-5.9-21.2-4-5.4-9.1-8.1-15.7-8.1h-89.9c-6.6 0-12 2.6-16.2 8.1-4.1 5.4-6.3 12.5-6.3 21.2 0 8.2 2.1 15.1 6.3 20.8 4.2 5.7 9.6 8.5 16.2 8.5h89.9z m0-116.4c6.6 0 11.9-2.8 15.7-8.5 3.9-5.7 5.9-12.9 5.9-21.8 0-8.8-1.9-16.1-5.9-21.9-3.9-5.7-9.1-8.5-15.7-8.5h-89.9c-6.6 0-12 2.8-16.2 8.5-4.2 5.7-6.3 12.9-6.3 21.9 0 8.8 2.1 16.1 6.3 21.8s9.6 8.5 16.2 8.5h89.9z" p-id="8580" fill="#ffffff"></path></svg>