<svg id="图层_1" data-name="图层 1" xmlns="http://www.w3.org/2000/svg" viewBox="0 0 47.5 47.5"><defs><style>.cls-1{fill:#409EFF;}</style></defs><title>播放</title><path class="cls-1" d="M47.75,24a24.12,24.12,0,0,1-3.86,13.06,1.6,1.6,0,0,1-1,.67,1.46,1.46,0,0,1-1.15-.21,1.54,1.54,0,0,1-.67-1,1.43,1.43,0,0,1,.21-1.14,20.65,20.65,0,0,0-6-28.64,20.65,20.65,0,1,0-.19,34.64,1.55,1.55,0,0,1,2.09.25A1.57,1.57,0,0,1,37,43.78l-.1,0a.31.31,0,0,1-.16.09A22.64,22.64,0,0,1,24,47.75,23.75,23.75,0,1,1,47.75,24ZM19,34.2l15.7-9a1.21,1.21,0,0,0,.5-.5,1.41,1.41,0,0,0-.5-1.8L19,13.8a1.42,1.42,0,0,0-.6-.2,1.32,1.32,0,0,0-1.3,1.3V33.1a1.32,1.32,0,0,0,1.3,1.3A1.42,1.42,0,0,0,19,34.2Z" transform="translate(-0.25 -0.25)"/></svg>