<svg id="图层_1" data-name="图层 1" xmlns="http://www.w3.org/2000/svg" viewBox="0 0 47.33 47.33"><defs><style>.cls-1{fill:#409EFF;}</style></defs><title>暂停</title><path class="cls-1" d="M24,.33a23.67,23.67,0,0,0,0,47.34,22.58,22.58,0,0,0,12.68-3.82.35.35,0,0,0,.15-.09l.11,0a1.5,1.5,0,0,0-1.86-2.36A20.59,20.59,0,0,1,6.74,12.72,20.65,20.65,0,0,1,41.26,35.38a1.43,1.43,0,0,0-.21,1.14,1.6,1.6,0,0,0,.67,1,1.43,1.43,0,0,0,1.14.2,1.56,1.56,0,0,0,1-.67,24,24,0,0,0,3.85-13A23.7,23.7,0,0,0,24,.33Z" transform="translate(-0.33 -0.33)"/><path class="cls-1" d="M27.05,14.6v17a1.55,1.55,0,1,0,3.1,0v-17a1.55,1.55,0,1,0-3.1,0Z" transform="translate(-0.33 -0.33)"/><path class="cls-1" d="M17.75,14.6v17a1.55,1.55,0,1,0,3.1,0v-17a1.55,1.55,0,0,0-3.1,0Z" transform="translate(-0.33 -0.33)"/></svg>