<?xml version="1.0" standalone="no"?><!DOCTYPE svg PUBLIC "-//W3C//DTD SVG 1.1//EN" "http://www.w3.org/Graphics/SVG/1.1/DTD/svg11.dtd"><svg t="1594361690623" class="icon" viewBox="0 0 1024 1024" version="1.1" xmlns="http://www.w3.org/2000/svg" p-id="2101" xmlns:xlink="http://www.w3.org/1999/xlink" width="50" height="50"><defs><style type="text/css"></style></defs><path d="M947.904 255.616a29.056 29.056 0 0 0 29.12-29.056v-153.6a29.056 29.056 0 0 0-29.12-28.992h-153.6a29.056 29.056 0 0 0-29.056 29.056v47.744h-94.336a29.184 29.184 0 0 0-8.832 0H258.752V72.96a29.056 29.056 0 0 0-29.056-29.056h-153.6a29.056 29.056 0 0 0-29.12 29.056v153.6c0 16 13.056 28.992 29.12 28.992h47.68v506.624H76.16a29.056 29.056 0 0 0-29.12 29.056v153.6c0 16 13.056 28.992 29.12 28.992h153.6c16 0 29.056-12.992 29.056-29.056v-47.744h506.496v47.744c0 16.064 13.056 29.056 29.056 29.056h153.6a29.056 29.056 0 0 0 29.12-29.056v-153.6a29.056 29.056 0 0 0-29.12-28.992h-47.68V354.56 255.616h47.68z m-124.48-153.536h95.424v95.424h-95.424V102.08zM181.952 459.904a29.184 29.184 0 0 0 4.8-3.84l277.12-277.184h132.16l-414.08 414.08V459.904z m-76.8-357.824h95.424v95.424H105.152V102.08z m124.544 153.6c16 0 29.056-13.056 29.056-29.12v-47.68h123.008L181.952 378.688V255.616h47.744z m-47.744 419.456l496.256-496.256h87.04v35.584L217.6 762.24h-35.584v-87.104z m-76.8 240.64v-95.424h95.424v95.424H105.152z m736.896-362.048L563.84 832a29.056 29.056 0 0 0-5.12 7.04H426.368l415.68-415.744v130.432z m76.8 362.048h-95.424v-95.424h95.424v95.424z m-124.544-153.6a29.056 29.056 0 0 0-29.056 29.12v47.68H639.04l203.008-203.072v126.336h-47.744z m47.744-421.12l-497.92 497.92H258.816v-35.84l547.584-547.52h35.712V341.12z" p-id="2102" fill="#1296db"></path></svg>