<?xml version="1.0" standalone="no"?><!DOCTYPE svg PUBLIC "-//W3C//DTD SVG 1.1//EN" "http://www.w3.org/Graphics/SVG/1.1/DTD/svg11.dtd"><svg t="1589514784865" class="icon" viewBox="0 0 1024 1024" version="1.1" xmlns="http://www.w3.org/2000/svg" p-id="26501" xmlns:xlink="http://www.w3.org/1999/xlink" width="50" height="50"><defs><style type="text/css"></style></defs><path d="M512.194019 0a511.992539 511.992539 0 1 0 511.806021 511.992539A512.552094 512.552094 0 0 0 512.194019 0z m0 949.191269a437.385248 437.385248 0 1 1 437.198729-437.19873 437.758284 437.758284 0 0 1-437.198729 437.19873z" p-id="26502" fill="#ffffff"></path><path d="M799.432092 484.947396l-167.866407-96.429924-166.933815-96.429925a31.708099 31.708099 0 0 0-47.562148 27.41818v385.160143a31.708099 31.708099 0 0 0 47.562148 27.41818l167.866406-96.243407 167.866407-96.429924a31.708099 31.708099 0 0 0-0.932591-54.463323zM321.012834 287.424591a37.303646 37.303646 0 0 0-37.303646 37.303646v375.274677a37.303646 37.303646 0 0 0 74.607291 0V324.728237a37.303646 37.303646 0 0 0-37.303645-37.303646z" p-id="26503" fill="#ffffff"></path></svg>