<?xml version="1.0" standalone="no"?><!DOCTYPE svg PUBLIC "-//W3C//DTD SVG 1.1//EN" "http://www.w3.org/Graphics/SVG/1.1/DTD/svg11.dtd"><svg t="1574066963203" class="icon" viewBox="0 0 1079 1024" version="1.1" xmlns="http://www.w3.org/2000/svg" p-id="14204" xmlns:xlink="http://www.w3.org/1999/xlink" width="210.7421875" height="200"><defs><style type="text/css"></style></defs><path d="M286.549333 457.557333l40.106667-155.648-54.101333 3.754667-41.984 156.16 44.373333 6.144zM362.325333 288.085333h263.68l19.285334-51.541333H370.688L345.941333 281.6z" fill="#1296db" p-id="14205"></path><path d="M1042.261333 728.064H37.546667c-20.650667 0-37.546667-16.896-37.546667-37.546667v-60.074666c0-94.037333 76.629333-170.666667 170.666667-170.666667h738.474666c94.037333 0 170.666667 76.629333 170.666667 170.666667v60.074666c0 20.650667-16.896 37.546667-37.546667 37.546667zM170.666667 493.909333c-75.264 0-136.533333 61.269333-136.533334 136.533334v60.074666c0 1.877333 1.536 3.413333 3.413334 3.413334h1004.714666c1.877333 0 3.413333-1.536 3.413334-3.413334v-60.074666c0-75.264-61.269333-136.533333-136.533334-136.533334H170.666667z" fill="#1296db" p-id="14206"></path><path d="M896.512 493.909333H196.437333l46.933334-178.005333c6.144-24.917333 24.234667-40.277333 46.933333-40.277333H684.714667c23.722667 0 45.909333 11.605333 64.170666 33.621333l0.170667 0.341333 147.456 184.32z m-655.701333-34.133333h584.704l-102.912-128.853333c-11.776-13.994667-24.405333-21.162667-37.888-21.162667H290.304c-8.533333 0-12.117333 7.850667-13.824 14.506667v0.341333l-35.669333 135.168z" fill="#1296db" p-id="14207"></path><path d="M308.053333 468.48l-32.938666-9.216 55.637333-198.997333c7.509333-30.890667 29.354667-50.005333 57.514667-50.005334h264.874666c5.461333 0 10.752 2.730667 13.994667 7.168s4.096 10.24 2.218667 15.530667l-23.210667 66.218667-32.256-11.264 15.189333-43.52h-240.64c-16.213333 0-22.186667 15.018667-24.405333 24.064 0 0.170667-0.170667 0.512-0.170667 0.682666l-55.808 199.338667z" fill="#1296db" p-id="14208"></path><path d="M244.053333 712.192m-93.696 0a93.696 93.696 0 1 0 187.392 0 93.696 93.696 0 1 0-187.392 0Z" fill="#1296db" p-id="14209"></path><path d="M244.053333 822.954667c-61.098667 0-110.762667-49.664-110.762666-110.762667s49.664-110.762667 110.762666-110.762667 110.762667 49.664 110.762667 110.762667-49.664 110.762667-110.762667 110.762667z m0-187.392c-42.325333 0-76.629333 34.304-76.629333 76.629333s34.304 76.629333 76.629333 76.629333c42.325333 0 76.629333-34.304 76.629334-76.629333s-34.304-76.629333-76.629334-76.629333z" fill="#1296db" p-id="14210"></path><path d="M808.789333 712.192m-93.696 0a93.696 93.696 0 1 0 187.392 0 93.696 93.696 0 1 0-187.392 0Z" fill="#1296db" p-id="14211"></path><path d="M808.789333 822.954667c-61.098667 0-110.762667-49.664-110.762666-110.762667s49.664-110.762667 110.762666-110.762667 110.762667 49.664 110.762667 110.762667-49.664 110.762667-110.762667 110.762667z m0-187.392c-42.325333 0-76.629333 34.304-76.629333 76.629333s34.304 76.629333 76.629333 76.629333 76.629333-34.304 76.629334-76.629333-34.304-76.629333-76.629334-76.629333z" fill="#1296db" p-id="14212"></path><path d="M537.316693 303.82592l25.78432-22.367573 159.704747 184.09984-25.78432 22.367573z" fill="#1296db" p-id="14213"></path><path d="M624.981333 569.173333h-137.728c-9.386667 0-17.066667-7.68-17.066666-17.066666s7.68-17.066667 17.066666-17.066667H624.981333c9.386667 0 17.066667 7.68 17.066667 17.066667s-7.68 17.066667-17.066667 17.066666z" fill="#1296db" p-id="14214"></path></svg>