<?xml version="1.0" standalone="no"?><!DOCTYPE svg PUBLIC "-//W3C//DTD SVG 1.1//EN" "http://www.w3.org/Graphics/SVG/1.1/DTD/svg11.dtd"><svg t="1594266586742" class="icon" viewBox="0 0 1024 1024" version="1.1" xmlns="http://www.w3.org/2000/svg" p-id="3152" xmlns:xlink="http://www.w3.org/1999/xlink" width="50" height="50"><defs><style type="text/css"></style></defs><path d="M844.8 102.4c42.496 0 76.8 34.304 76.8 76.8v665.6c0 42.496-34.304 76.8-76.8 76.8H179.2c-42.496 0-76.8-34.304-76.8-76.8V179.2c0-42.496 34.304-76.8 76.8-76.8h665.6m0-71.68H179.2C97.28 30.72 30.72 97.28 30.72 179.2v665.6c0 81.92 66.56 148.48 148.48 148.48h665.6c81.92 0 148.48-66.56 148.48-148.48V179.2c0-81.92-66.56-148.48-148.48-148.48z" fill="#707070" p-id="3153"></path><path d="M855.04 204.8v204.8c0 19.968-15.872 35.84-35.84 35.84s-35.84-15.872-35.84-35.84V291.328L640 435.2c-7.168 7.168-16.384 10.24-25.6 10.24s-18.432-3.584-25.6-10.24c-13.824-13.824-13.824-36.864 0-50.688l143.36-143.36h-117.76c-19.968 0-35.84-15.872-35.84-35.84s15.872-35.84 35.84-35.84h208.384c1.024 0 2.048 0 3.072 0.512 1.024 0 2.048 0.512 3.072 1.024 1.024 0 2.048 0.512 2.56 1.024 1.536 0.512 2.56 1.024 3.584 1.536 1.024 0.512 1.536 1.024 2.56 1.536 2.048 1.536 4.096 3.072 6.144 5.12s3.584 4.096 5.12 6.144c0.512 1.024 1.024 1.536 1.536 2.56 0.512 1.024 1.024 2.56 1.536 3.584 0.512 1.024 0.512 1.536 1.024 2.56s0.512 2.048 1.024 3.072c0 1.024 0.512 2.048 0.512 3.072 0.512 1.024 0.512 2.56 0.512 3.584zM445.44 819.2c0 19.968-15.872 35.84-35.84 35.84H201.216c-1.024 0-2.048 0-3.072-0.512-1.024 0-2.048-0.512-3.072-1.024-1.024 0-2.048-0.512-2.56-1.024-1.536-0.512-2.56-1.024-3.584-1.536-1.024-0.512-1.536-1.024-2.56-1.536-2.048-1.536-4.096-3.072-6.144-5.12-2.048-2.048-3.584-4.096-5.12-6.144-0.512-1.024-1.024-1.536-1.536-2.56-0.512-1.024-1.024-2.56-1.536-3.584-0.512-1.024-0.512-1.536-1.024-2.56s-0.512-2.048-1.024-3.584c0-1.024-0.512-2.048-0.512-3.072V614.4c0-19.968 15.872-35.84 35.84-35.84s35.84 15.872 35.84 35.84v118.272l143.36-143.36c13.824-13.824 36.864-13.824 50.688 0s13.824 36.864 0 50.688l-143.36 143.36h117.76c19.968 0 35.84 15.872 35.84 35.84z" fill="#707070" p-id="3154"></path></svg>