<?xml version="1.0" standalone="no"?><!DOCTYPE svg PUBLIC "-//W3C//DTD SVG 1.1//EN" "http://www.w3.org/Graphics/SVG/1.1/DTD/svg11.dtd"><svg t="1594267013393" class="icon" viewBox="0 0 1024 1024" version="1.1" xmlns="http://www.w3.org/2000/svg" p-id="11750" xmlns:xlink="http://www.w3.org/1999/xlink" width="50" height="50"><defs><style type="text/css"></style></defs><path d="M887.100952 999.619048h-225.060571c-20.72381 0-37.522286-16.774095-37.522286-37.522286 0-20.72381 16.774095-37.497905 37.522286-37.497905h225.03619c20.72381 0 37.546667-16.822857 37.546667-37.497905v-187.562666c0-20.72381 16.749714-37.497905 37.497905-37.497905 20.72381 0 37.497905 16.774095 37.497905 37.497905v187.562666A112.664381 112.664381 0 0 1 887.100952 999.619048z m-562.639238 0H136.899048A112.664381 112.664381 0 0 1 24.380952 887.100952v-187.562666a37.497905 37.497905 0 1 1 75.020191 0v187.562666c0 20.699429 16.822857 37.497905 37.497905 37.497905h187.562666a37.497905 37.497905 0 1 1 0 75.020191zM61.878857 361.959619c-20.699429 0-37.497905-16.822857-37.497905-37.497905V136.899048A112.64 112.64 0 0 1 136.899048 24.380952h187.562666a37.546667 37.546667 0 0 1 0 75.020191H136.899048c-20.650667 0-37.497905 16.822857-37.497905 37.497905v187.562666c0 20.699429-16.822857 37.497905-37.497905 37.497905z m900.242286 0c-20.74819 0-37.522286-16.822857-37.522286-37.497905V136.899048a37.546667 37.546667 0 0 0-37.497905-37.497905h-225.060571a37.497905 37.497905 0 1 1 0-75.020191h225.03619A112.64 112.64 0 0 1 999.619048 136.899048v187.562666c0 20.699429-16.749714 37.497905-37.497905 37.497905z" p-id="11751" fill="#1296db"></path><path d="M358.595048 658.285714l-151.454477 136.362667a36.571429 36.571429 0 0 0 48.956953 54.369524l161.962666-145.871238v137.99619a36.571429 36.571429 0 1 0 73.142858 0v-219.428571a36.571429 36.571429 0 0 0-37.156572-36.571429h-219.428571a36.571429 36.571429 0 0 0 0 73.142857h123.977143zM693.394286 390.095238l151.454476-136.362667a36.571429 36.571429 0 0 0-48.932572-54.369523L633.904762 345.234286V207.238095a36.571429 36.571429 0 0 0-73.142857 0v219.428572a36.571429 36.571429 0 0 0 37.180952 36.571428h219.428572a36.571429 36.571429 0 1 0 0-73.142857h-124.001524z" p-id="11752" fill="#1296db"></path></svg>