<?xml version="1.0" standalone="no"?><!DOCTYPE svg PUBLIC "-//W3C//DTD SVG 1.1//EN" "http://www.w3.org/Graphics/SVG/1.1/DTD/svg11.dtd"><svg t="1589514399511" class="icon" viewBox="0 0 1024 1024" version="1.1" xmlns="http://www.w3.org/2000/svg" p-id="6794" xmlns:xlink="http://www.w3.org/1999/xlink" width="50" height="50"><defs><style type="text/css"></style></defs><path d="M776.142592 142.08c30.8736 22.016 58.368 46.848 82.3808 74.7008 24.0128 27.8016 44.5952 57.856 61.7472 90.112A454.3488 454.3488 0 0 1 972.801792 519.0144a444.928 444.928 0 0 1-36.5568 179.712 469.76 469.76 0 0 1-98.816 146.176 470.016 470.016 0 0 1-146.2784 98.816 444.928 444.928 0 0 1-179.712 36.608 442.368 442.368 0 0 1-178.5856-36.5568 476.16 476.16 0 0 1-146.7392-98.8672 458.7008 458.7008 0 0 1-98.8672-146.2272A450.3552 450.3552 0 0 1 51.201792 518.9632c0-36.352 4.3008-72.0896 12.8512-107.0592a474.9312 474.9312 0 0 1 36.5568-99.8912 439.9616 439.9616 0 0 1 58.7264-88.576A500.6336 500.6336 0 0 1 237.569792 149.2992c15.104-10.9568 31.4368-15.104 48.9472-12.3392 17.5104 2.7648 31.744 11.3152 42.7008 25.7536a61.44 61.44 0 0 1 12.3904 48.384c-2.7648 17.8688-11.3664 32.256-25.7536 43.264A319.6928 319.6928 0 0 0 216.475392 370.688a327.0144 327.0144 0 0 0-34.5088 148.2752c0 45.312 8.6016 88.064 25.7536 128.2048a330.752 330.752 0 0 0 175.5648 176.128 317.1328 317.1328 0 0 0 128.2048 26.2144c45.312 0 88.064-8.704 128.2048-26.2656a337.92 337.92 0 0 0 104.96-71.0144 337.6128 337.6128 0 0 0 71.1168-105.0624 317.1328 317.1328 0 0 0 26.2656-128.2048 325.632 325.632 0 0 0-37.12-151.8592 321.2288 321.2288 0 0 0-103.936-117.9136 61.952 61.952 0 0 1-27.3408-42.1888c-3.072-17.92 0.512-34.304 10.8032-49.4592 10.3424-14.3872 24.3712-23.1424 42.24-26.2656 17.8688-3.072 34.304 0.512 49.4592 10.8032z m-264.704 380.0064a62.464 62.464 0 0 1-45.7728-19.0464 62.464 62.464 0 0 1-19.0464-45.824V65.8944c0-17.8176 6.3488-33.28 19.0464-46.336S493.620992 0 511.489792 0c18.5344 0 34.1504 6.5024 46.848 19.5584s19.0464 28.5184 19.0464 46.336V457.216c0 17.8176-6.3488 33.1264-19.0464 45.824a63.6928 63.6928 0 0 1-46.848 19.0464z" p-id="6795" fill="#ffffff"></path></svg>