<?xml version="1.0" encoding="utf-8"?>
<!-- Generator: Adobe Illustrator 25.0.0, SVG Export Plug-In . SVG Version: 6.00 Build 0)  -->
<svg version="1.1" id="图层_1" xmlns="http://www.w3.org/2000/svg" xmlns:xlink="http://www.w3.org/1999/xlink" x="0px" y="0px"
	 viewBox="0 0 18.7 18.7" style="enable-background:new 0 0 18.7 18.7;" xml:space="preserve">
<style type="text/css">
	.st0{fill:#555555;}
</style>
<path class="st0" d="M4,12.5H2V10L0,9.7v8.1L2,17.1v-2.8h3.1L6.8,12l-2.2-1.2L4,12.5L4,12.5z M14,13.1l4.5-2.9L4.5,0.9H2.8L0.6,4.4
	v1.2L13,13.1L14,13.1L14,13.1L14,13.1z M12.3,13.7L1.7,6.7L0.6,7.9l12.4,7.5H14l0.6-0.6l0.6-1.7c0,0-1.6,1.2-1.7,1.2
	C12.9,13.9,12.3,13.7,12.3,13.7L12.3,13.7z"/>
</svg>
