<?xml version="1.0" standalone="no"?><!DOCTYPE svg PUBLIC "-//W3C//DTD SVG 1.1//EN" "http://www.w3.org/Graphics/SVG/1.1/DTD/svg11.dtd"><svg t="1614060148539" class="icon" viewBox="0 0 1024 1024" version="1.1" xmlns="http://www.w3.org/2000/svg" p-id="3965" xmlns:xlink="http://www.w3.org/1999/xlink" width="32" height="32"><defs><style type="text/css"></style></defs><path d="M325.95555556 961.99999999c-18.00000001 0-32.4-14.40000002-32.40000002-32.39999997 0-9.00000001 3.59999999-17.09999998 9.89999999-22.50000001L698.55555553 512 303.45555553 116.89999999c-5.4-5.4-9.89999998-13.50000003-9.89999999-22.50000001 0-18.00000001 14.40000002-32.4 32.40000002-32.39999997 9.00000001 0 17.09999998 3.59999999 22.49999997 9.9l417.60000004 417.6c6.29999999 5.4 9.89999998 13.50000003 9.90000001 22.49999999s-3.59999999 17.09999998-9.90000001 22.49999999L348.45555553 953c-5.4 5.4-13.50000003 9.00000001-22.49999997 8.99999999z m0 0" fill="#b1b1b1" p-id="3966"></path></svg>