<?xml version="1.0" encoding="utf-8"?>
<!-- Generator: Adobe Illustrator 24.1.2, SVG Export Plug-In . SVG Version: 6.00 Build 0)  -->
<svg version="1.1" id="图层_1" xmlns="http://www.w3.org/2000/svg" xmlns:xlink="http://www.w3.org/1999/xlink" x="0px" y="0px"
	 viewBox="0 0 40 48" style="enable-background:new 0 0 40 48;" xml:space="preserve">
<style type="text/css">
	.st0{fill:#0080E5;}
</style>
<path class="st0" d="M20,28.2c-4.6,0-8.3-3.7-8.3-8.3s3.7-8.3,8.3-8.3c4.6,0,8.3,3.7,8.3,8.3S24.6,28.2,20,28.2L20,28.2z M20,15.7
	c-2.3,0-4.2,1.9-4.2,4.2c0,2.3,1.9,4.2,4.2,4.2c2.3,0,4.2-1.9,4.2-4.2c0,0,0,0,0,0C24.2,17.5,22.3,15.7,20,15.7
	C20,15.7,20,15.7,20,15.7z"/>
<path class="st0" d="M20,47.5c-0.6,0-1.1-0.2-1.5-0.6L6,34.3c-7.7-7.7-7.8-20.3,0-28c3.7-3.7,8.7-5.8,14-5.8
	c10.9,0,19.8,8.9,19.8,19.8c0,5.2-2.1,10.3-5.8,14l-0.8,0.8c-0.8,0.8-2.1,0.8-2.9,0c-0.8-0.8-0.8-2.1,0-2.9l0.8-0.8
	c6.1-6.1,6.1-16,0-22.1C28.1,6.4,24.1,4.7,20,4.7c-8.6,0-15.6,7-15.6,15.6c0,4.1,1.6,8.1,4.6,11.1l11.1,11l4.4-4.4
	c0.7-0.9,2-1,2.9-0.3c0.9,0.7,1,2,0.3,2.9c-0.1,0.1-0.2,0.2-0.3,0.3l-5.9,5.9C21,47.2,20.5,47.4,20,47.5z"/>
</svg>
