<?xml version="1.0" standalone="no"?><!DOCTYPE svg PUBLIC "-//W3C//DTD SVG 1.1//EN" "http://www.w3.org/Graphics/SVG/1.1/DTD/svg11.dtd"><svg t="1590997762181" class="icon" viewBox="0 0 1024 1024" version="1.1" xmlns="http://www.w3.org/2000/svg" p-id="2579" xmlns:xlink="http://www.w3.org/1999/xlink" width="15" height="15"><defs><style type="text/css"></style></defs><path d="M85.3 329.5c0-14.4 5.3-26.7 15.8-36.9 10.3-10.2 22.9-15.3 37.5-15.3 15.1 0 27.7 5 38 15.1L512 620.8l335.8-328.4c10.3-10 22.9-15.1 38-15.1 14.6 0 27.2 5.1 37.3 15.3 10.3 10.2 15.5 22.5 15.5 36.9 0 14.7-5.2 27-15.5 37.1L550 731.6c-10.8 10.1-23.5 15.1-38 15.1-14 0-26.7-5-37.5-15.1l-373.2-365c-10.7-10.3-15.8-22.7-15.8-37.1h-0.2z" fill="#ffffff" p-id="2580"></path></svg>