<?xml version="1.0" standalone="no"?><!DOCTYPE svg PUBLIC "-//W3C//DTD SVG 1.1//EN" "http://www.w3.org/Graphics/SVG/1.1/DTD/svg11.dtd"><svg t="1592535221286" class="icon" viewBox="0 0 1024 1024" version="1.1" xmlns="http://www.w3.org/2000/svg" p-id="67648" xmlns:xlink="http://www.w3.org/1999/xlink" width="50" height="50"><defs><style type="text/css"></style></defs><path d="M513.706667 309.333333v-38.4c0-13.653333-15.36-23.893333-29.44-23.893333-14.08 0-31.146667 10.24-31.146667 23.893333v38.4h-34.133333v-38.4c0-13.653333-16.64-24.746667-30.293334-24.746666-14.08 0-29.866667 11.093333-29.866666 24.746666v38.4H308.48V209.493333h-17.066667V122.453333c0-13.653333-15.786667-24.746667-29.866666-24.746666s-30.72 11.093333-30.72 24.746666v87.04H213.333333v107.946667h1.28c-38.4 15.786667-65.28 53.333333-65.28 96.853333v162.986667c0 33.28 16.213333 63.146667 40.96 82.346667V851.2c0 7.68 0.853333 15.36 2.56 23.04 10.666667 46.933333 53.333333 81.92 104.106667 81.92h174.506667c50.773333 0 93.44-34.986667 104.106666-81.92 1.706667-7.253333 2.56-14.933333 2.56-23.04v-190.72-0.853333c24.746667-19.2 40.96-49.066667 40.96-82.346667v-162.986667c0.426667-57.6-46.933333-104.533333-105.386666-104.96z m28.586666 240.213334H225.28V407.466667h317.013333v142.08z m332.373334-177.066667c0.426667 5.546667-1.706667 10.24-5.973334 14.08-3.413333 3.413333-7.68 5.12-12.373333 5.12h-1.28c-5.12 0-9.386667-2.133333-13.226667-5.973333-3.413333-3.413333-5.12-7.68-5.12-12.373334-1.28-34.56-8.533333-67.413333-22.186666-98.56-13.653333-31.146667-32-58.88-55.893334-83.626666-23.466667-24.32-50.773333-43.946667-81.92-58.88-31.146667-14.933333-64-23.893333-99.413333-26.88-4.693333-0.426667-8.533333-2.133333-11.946667-5.973334-3.84-4.266667-5.546667-8.96-5.12-14.506666 0.426667-4.693333 2.133333-8.533333 5.973334-11.946667 4.266667-3.84 8.96-5.546667 14.506666-5.12 39.68 3.413333 77.226667 13.653333 112.64 30.72s66.133333 39.253333 93.013334 66.986667c26.88 27.733333 47.786667 59.306667 63.146666 94.72 15.36 35.413333 23.893333 72.96 25.173334 112.213333z m-224-81.066667c11.946667 12.373333 19.626667 26.453333 23.466666 43.093334 0.853333 3.413333 0.853333 6.4-0.426666 9.813333-0.853333 2.986667-2.56 5.973333-5.12 8.106667s-5.546667 3.84-8.533334 4.693333c-1.706667 0.426667-3.413333 0.426667-4.693333 0.426667-5.12 0-9.386667-2.133333-13.226667-5.973334-2.56-2.56-3.84-5.546667-4.693333-8.533333-2.56-9.813333-7.253333-18.346667-14.08-25.6-7.253333-7.253333-15.786667-12.373333-25.6-15.36-3.413333-0.853333-6.4-2.56-8.533333-5.12-5.12-5.12-6.4-11.093333-4.693334-17.92 0.853333-3.413333 2.56-5.973333 5.12-8.533333 5.12-4.693333 11.52-6.4 18.346667-4.693334 16.64 4.693333 30.72 13.226667 42.666667 25.6z m101.973333-0.426666c9.813333 21.333333 15.786667 44.373333 17.493333 68.266666 0.426667 5.973333-1.28 10.666667-5.973333 14.933334-3.413333 2.986667-7.253333 4.693333-11.52 5.12h-1.706667c-5.12 0-9.386667-2.133333-13.226666-5.973334-2.986667-3.413333-5.12-7.253333-5.12-11.52-1.28-19.626667-6.4-37.973333-14.08-55.893333-8.106667-17.493333-18.773333-33.28-32-47.36-13.226667-13.653333-29.013333-25.173333-46.506667-34.133333-17.493333-8.96-36.266667-14.506667-55.893333-17.066667-4.266667-0.426667-8.106667-2.56-11.52-5.546667-4.266667-4.266667-5.973333-9.386667-5.12-15.36 0.426667-4.266667 2.56-8.106667 5.546666-11.093333 4.266667-4.266667 9.386667-5.546667 15.36-5.12 24.32 2.986667 46.933333 9.813333 68.266667 20.48s40.106667 24.746667 56.746667 41.813333c16.213333 17.92 29.44 37.12 39.253333 58.453334z" fill="#1282e2" p-id="67649"></path></svg>