<?xml version="1.0" standalone="no"?><!DOCTYPE svg PUBLIC "-//W3C//DTD SVG 1.1//EN" "http://www.w3.org/Graphics/SVG/1.1/DTD/svg11.dtd"><svg t="1587369988780" class="icon" viewBox="0 0 1024 1024" version="1.1" xmlns="http://www.w3.org/2000/svg" p-id="20554" xmlns:xlink="http://www.w3.org/1999/xlink" width="15" height="15"><defs><style type="text/css"></style></defs><path d="M969.386667 423.253333c27.306667 0 47.786667 20.48 54.613333 54.613334v354.986666c0 109.226667-88.746667 191.146667-191.146667 191.146667H191.146667C81.92 1024 0 935.253333 0 832.853333V191.146667C0 81.92 88.746667 0 191.146667 0h361.813333c27.306667 0 54.613333 13.653333 54.613333 47.786667S580.266667 102.4 552.96 102.4H191.146667c-40.96 0-81.92 34.133333-81.92 81.92v648.533333c0 40.96 34.133333 81.92 81.92 81.92h641.706666c40.96 0 81.92-34.133333 81.92-81.92V477.866667c0-34.133333 27.306667-54.613333 54.613334-54.613334zM293.546667 709.973333c-13.653333-20.48-13.653333-47.786667 0-68.266666L887.466667 34.133333c20.48-20.48 54.613333-20.48 75.093333 0s20.48 54.613333 0 75.093334L361.813333 709.973333c-6.826667 6.826667-20.48 13.653333-34.133333 13.653334-13.653333 0-27.306667-6.826667-34.133333-13.653334z" fill="#ffffff" p-id="20555"></path></svg>