<?xml version="1.0" standalone="no"?><!DOCTYPE svg PUBLIC "-//W3C//DTD SVG 1.1//EN" "http://www.w3.org/Graphics/SVG/1.1/DTD/svg11.dtd"><svg t="1614221694886" class="icon" viewBox="0 0 1582 1024" version="1.1" xmlns="http://www.w3.org/2000/svg" p-id="2814" xmlns:xlink="http://www.w3.org/1999/xlink" width="308.984375" height="200"><defs><style type="text/css"></style></defs><path d="M473.367273 343.970909h232.727272a11.869091 11.869091 0 1 0 0-23.272727h-232.727272a11.869091 11.869091 0 0 0 0 23.272727zM636.276364 525.963636h-162.909091a11.636364 11.636364 0 0 0-11.636364 11.636364 11.636364 11.636364 0 0 0 11.636364 11.636364h162.909091a11.636364 11.636364 0 0 0 11.636363-11.636364 11.869091 11.869091 0 0 0-11.636363-11.636364zM818.036364 421.236364H473.367273a11.636364 11.636364 0 0 0-11.636364 11.636363 11.636364 11.636364 0 0 0 11.636364 11.636364h344.669091a11.636364 11.636364 0 0 0 11.636363-11.636364 11.869091 11.869091 0 0 0-11.636363-11.636363zM177.570909 917.643636H48.64a11.636364 11.636364 0 0 0-11.636364 11.636364 11.636364 11.636364 0 0 0 11.636364 11.636364h128.930909a11.636364 11.636364 0 0 0 11.636364-11.636364 11.636364 11.636364 0 0 0-11.636364-11.636364z" p-id="2815" fill="#8a8a8a"></path><path d="M1223.214545 818.734545H1117.090909a93.090909 93.090909 0 0 0 31.883636-69.818181V194.327273a93.090909 93.090909 0 0 0-93.090909-93.090909H581.818182a93.090909 93.090909 0 0 0-93.090909 93.090909v13.730909h-74.938182A71.214545 71.214545 0 0 0 342.807273 279.272727v590.661818a69.818182 69.818182 0 0 0 18.850909 46.545455h-94.72a11.636364 11.636364 0 0 0-11.636364 11.636364 11.636364 11.636364 0 0 0 11.636364 11.636363h504.552727l69.818182 69.818182A29.090909 29.090909 0 0 0 884.363636 970.472727l-29.323636-29.556363h149.876364a11.636364 11.636364 0 0 0 11.636363-11.636364 11.636364 11.636364 0 0 0-11.636363-11.636364h-26.065455a69.818182 69.818182 0 0 0 18.850909-46.545454v-27.927273h225.512727a11.869091 11.869091 0 0 0 11.636364-11.636364 11.636364 11.636364 0 0 0-11.636364-12.8z m-392.610909 98.909091l-66.327272-66.327272a29.090909 29.090909 0 0 0-31.883637-6.050909l-22.109091-23.272728a128 128 0 1 0-16.756363 16.058182l23.272727 23.272727a28.858182 28.858182 0 0 0 6.516364 30.254546l25.134545 25.134545H413.789091a47.709091 47.709091 0 0 1-47.709091-46.545454V279.272727a47.709091 47.709091 0 0 1 47.709091-47.941818h512a47.709091 47.709091 0 0 1 46.545454 47.941818v590.661818a47.709091 47.709091 0 0 1-46.545454 46.545455z m-216.669091-74.705454a104.261818 104.261818 0 1 1 104.261819-104.029091 104.029091 104.029091 0 0 1-104.261819 104.029091z m385.629091-23.272727h-1.861818V279.272727a71.214545 71.214545 0 0 0-69.818182-71.214545H512v-13.730909a69.818182 69.818182 0 0 1 69.818182-69.818182h474.996363a69.818182 69.818182 0 0 1 69.818182 69.818182v554.821818a69.818182 69.818182 0 0 1-69.818182 69.818182zM135.68 349.090909a58.88 58.88 0 1 0-58.647273 58.647273A58.647273 58.647273 0 0 0 135.68 349.090909z m-100.072727 0a41.425455 41.425455 0 1 1 41.425454 41.192727A41.425455 41.425455 0 0 1 35.607273 349.090909zM1354.007273 165.701818a58.88 58.88 0 1 0 58.647272 58.88 59.112727 59.112727 0 0 0-58.647272-58.88z m0 100.072727A41.425455 41.425455 0 1 1 1396.363636 224.581818a41.425455 41.425455 0 0 1-42.356363 41.192727zM274.152727 128.930909V93.090909h36.305455a11.636364 11.636364 0 0 0 11.636363-11.636364 11.636364 11.636364 0 0 0-11.636363-11.636363h-36.305455V33.047273a11.636364 11.636364 0 0 0-11.636363-11.636364 11.636364 11.636364 0 0 0-11.636364 11.636364V69.818182H214.574545a11.636364 11.636364 0 0 0-11.636363 11.636363 11.636364 11.636364 0 0 0 11.636363 11.636364h36.305455v35.84a11.636364 11.636364 0 0 0 11.636364 11.636364 11.636364 11.636364 0 0 0 11.636363-11.636364zM195.490909 712.145455H170.821818v-24.669091a8.843636 8.843636 0 0 0-17.454545 0v24.669091H128.698182a8.843636 8.843636 0 0 0-8.843637 8.843636 8.610909 8.610909 0 0 0 8.843637 8.610909h24.669091v24.901818a8.843636 8.843636 0 0 0 17.454545 0v-24.901818H195.490909a8.610909 8.610909 0 0 0 8.843636-8.145455 8.843636 8.843636 0 0 0-8.843636-9.30909zM1555.549091 628.363636h-27.694546v-28.16a8.378182 8.378182 0 0 0-8.610909-8.610909 8.610909 8.610909 0 0 0-8.843636 8.610909V628.363636h-27.461818a8.843636 8.843636 0 1 0 0 17.454546h27.461818v27.694545a8.843636 8.843636 0 0 0 8.843636 8.610909 8.610909 8.610909 0 0 0 8.610909-8.610909v-28.16h27.694546a8.843636 8.843636 0 1 0 0-17.454545z" p-id="2816" fill="#8a8a8a"></path></svg>