<?xml version="1.0" standalone="no"?><!DOCTYPE svg PUBLIC "-//W3C//DTD SVG 1.1//EN" "http://www.w3.org/Graphics/SVG/1.1/DTD/svg11.dtd"><svg t="1591766692980" class="icon" viewBox="0 0 1024 1024" version="1.1" xmlns="http://www.w3.org/2000/svg" p-id="8371" xmlns:xlink="http://www.w3.org/1999/xlink" width="50" height="50"><defs><style type="text/css"></style></defs><path d="M47.616 884.224c17.92-1.024 36.352-2.048 56.32-2.56v-17.408h-46.08V849.92c3.072-4.096 8.192-12.8 15.872-25.088H49.664v-12.8h31.232c4.096-7.68 8.192-15.872 11.776-23.04l14.848 4.608c-2.56 6.144-5.632 12.288-9.216 18.432h58.368v12.8H91.136c-7.168 12.288-12.8 20.48-15.872 25.088h28.672v-16.896h14.848v16.896h35.84v13.824h-35.84v16.896c3.584 0 9.728-0.512 17.408-1.024 7.68 0 13.824-0.512 17.408-1.024 0 5.12-0.512 9.728-1.024 13.824-3.584 0-9.216 0.512-16.896 1.024-8.192 0-13.824 0.512-17.408 1.024v17.408h-14.848v-16.896c-11.264 1.024-26.624 2.56-46.08 3.584H49.664l-2.048-14.336z m34.304 33.28h153.088v92.16h-15.872v-9.216H97.28v9.216h-15.36v-92.16z m15.36 13.824v20.992h121.856v-20.992H97.28z m0 34.816v20.48h121.856v-20.48H97.28z m72.192-157.696c26.624 0 55.808-2.56 88.576-7.168l4.608 13.824c-27.648 3.584-53.76 5.632-78.336 6.656v28.672h82.944v13.824h-32.256v47.104h-15.872v-47.104h-35.84c-2.048 16.896-8.704 33.792-20.992 50.688-7.168-6.656-11.776-10.24-12.8-11.264 14.848-15.872 21.504-38.912 20.48-68.096l-0.512-27.136z m134.656 1.024h181.76v15.872H401.92c-0.512 20.48-2.56 37.888-5.632 53.76h105.984v16.896H415.744v72.192c-0.512 12.8 5.12 18.944 17.408 18.432h31.232c12.288 0.512 18.944-4.096 19.456-13.824 0-2.56 0.512-5.632 1.024-10.24 0.512-7.68 1.024-14.848 2.048-20.48 2.048 0.512 5.12 1.536 9.216 2.56 3.584 2.048 6.656 3.072 8.192 3.584-0.512 12.288-2.048 22.528-3.584 30.208-1.024 17.408-12.8 25.088-35.328 24.064h-35.84c-21.504 0.512-31.744-10.24-31.232-32.256v-74.752h-5.632c-10.752 48.64-42.496 87.552-95.744 117.248-3.072-5.632-7.168-11.264-12.8-16.896 49.664-24.064 79.872-57.344 90.624-100.352H287.232v-16.896h90.624c3.584-15.36 5.632-33.28 5.632-53.76H304.128v-15.36z m227.84-8.192h196.608v208.384H711.68V998.4h-163.328v11.264h-16.896l0.512-208.384z m16.384 15.36v166.912H711.68v-166.912h-163.328z m7.68 54.784c21.504-15.872 38.4-33.28 50.688-51.712l14.848 6.656c-2.56 4.096-5.632 8.192-9.216 11.776h78.336v13.824c-11.776 14.336-25.088 25.6-39.936 35.328 16.896 6.656 35.328 11.264 56.32 12.8-1.024 3.072-3.072 7.168-5.632 12.8 0.512-1.024 0 0-2.048 3.584-25.6-5.12-47.616-11.776-64.512-20.48-18.944 9.728-44.032 17.92-75.776 25.088-1.024-4.096-3.584-9.728-7.168-15.872 24.064-3.584 46.08-9.728 66.56-18.432-11.776-8.704-20.992-16.896-28.672-25.088-7.168 7.68-14.848 14.336-23.04 20.48l-10.752-10.752z m16.384 85.504l4.608-14.848c5.12 0.512 13.312 2.048 25.6 3.584 42.496 6.144 69.632 10.752 81.408 13.824l-5.632 16.896c-30.208-7.168-65.536-13.824-105.984-19.456z m23.04-28.16l4.608-15.872c2.56 0.512 6.656 1.024 11.776 2.048 28.16 5.12 47.616 8.192 57.344 10.24l-5.632 15.872c-23.04-5.632-46.08-9.728-68.096-12.288z m73.728-75.776h-67.072c9.216 10.752 20.48 18.944 33.28 25.6 13.824-7.68 25.088-16.384 33.792-25.6z m228.864-59.904h17.408v64.512h60.928v16.896h-160.256v14.848c0 9.216-0.512 17.408-1.024 25.088h109.568v95.744h-17.408v-79.36H814.08c-2.56 30.72-14.848 57.344-36.864 80.384-2.048-2.048-4.096-4.608-7.168-8.192-3.584-3.584-5.632-6.144-6.656-7.168 25.088-22.528 36.864-57.856 35.328-104.96v-92.16h17.408v59.904h81.92v-65.536zM126.464 110.08v437.248c0 40.96 8.192 48.64 47.616 48.64h536.576c38.912 0 47.616-7.68 47.616-48.64V110.08c0-39.936-7.168-48.64-47.616-48.64H173.568c-38.912 0.512-47.104 7.168-47.104 48.64z m557.056 372.224H200.704c52.736-78.848 99.328-210.432 170.496-210.432s101.376 105.984 136.704 143.36c0 0 18.432-62.464 69.12-62.464s105.472 129.024 106.496 129.536z m-141.824-274.944c0-33.28 26.112-59.904 58.368-59.904s58.368 26.624 58.368 59.904c0 32.768-26.112 59.904-58.368 59.904-32.256 0-58.368-26.624-58.368-59.904zM422.4 32.256l-92.16-17.92c-30.72-6.144-43.008-3.584-50.176 17.92h142.336z m435.2 84.992l-72.192-13.824V547.84c0 20.48-1.536 43.52-16.896 59.392-15.36 15.36-37.376 16.896-56.832 16.896h-43.52l92.672 17.92c38.4 7.68 47.616 1.536 55.296-38.912l79.36-429.568c6.656-38.912 1.024-49.152-37.888-56.32z" p-id="8372" fill="#8a8a8a"></path></svg>