<?xml version="1.0" encoding="utf-8"?>
<!-- Generator: Adobe Illustrator 22.0.0, SVG Export Plug-In . SVG Version: 6.00 Build 0)  -->
<svg version="1.1" id="图层_1" xmlns="http://www.w3.org/2000/svg" xmlns:xlink="http://www.w3.org/1999/xlink" x="0px" y="0px"
	 viewBox="0 0 64 64" style="enable-background:new 0 0 64 64;" xml:space="preserve">
<path d="M23.2,31.3l27.8,27.8L23.2,31.3L51.1,3.5L23.2,31.3z M26.7,31.3l26.1,26.1c0.9,1,0.9,2.5,0,3.4c-0.9,1-2.5,1-3.5,0.1
	L21.5,33.1c-1-1-1-2.5,0-3.5L49.3,1.7c1-0.9,2.5-0.9,3.4,0c1,0.9,1,2.5,0.1,3.5L26.7,31.3L26.7,31.3z M12.3,62.7
	c-1.4,0-2.5-1.1-2.5-2.5V6c0,0,0,0,0,0c0-1.4,1.1-2.5,2.5-2.5s2.5,1.1,2.5,2.5v54.2v0C14.8,61.6,13.7,62.7,12.3,62.7
	C12.3,62.7,12.3,62.7,12.3,62.7z" fill="#888"/>
</svg>
