<?xml version="1.0" standalone="no"?><!DOCTYPE svg PUBLIC "-//W3C//DTD SVG 1.1//EN" "http://www.w3.org/Graphics/SVG/1.1/DTD/svg11.dtd"><svg t="1614238942350" class="icon" viewBox="0 0 1025 1024" version="1.1" xmlns="http://www.w3.org/2000/svg" p-id="6297" width="32" height="32" xmlns:xlink="http://www.w3.org/1999/xlink"><defs><style type="text/css"></style></defs><path d="M239.104 124.416h96.768V204.8H239.104V124.416zM683.008 124.416h96.768V204.8h-96.768V124.416zM335.872 820.736V660.48H239.104v160.768M859.136 241.152H159.232v381.952h699.904V241.152zM254.464 391.168l54.784-54.784h68.608L254.464 459.776V391.168z m37.376 136.704l193.024-191.488h67.072l-191.488 191.488H291.84z m173.568 0l193.024-191.488h69.12l-191.488 191.488H465.408z m299.008-51.2l-52.224 51.712h-70.656l122.368-121.856 0.512 70.144zM776.192 820.736V660.48h-96.768v160.768" p-id="6298" fill="#ff4878"></path></svg>