<?xml version="1.0" standalone="no"?><!DOCTYPE svg PUBLIC "-//W3C//DTD SVG 1.1//EN" "http://www.w3.org/Graphics/SVG/1.1/DTD/svg11.dtd"><svg t="1612426327439" class="icon" viewBox="0 0 1024 1024" version="1.1" xmlns="http://www.w3.org/2000/svg" p-id="9393" xmlns:xlink="http://www.w3.org/1999/xlink" width="200" height="200"><defs><style type="text/css"></style></defs><path d="M509.130868 0.869434C318.869736 0.869434 164.583849 155.995774 164.583849 347.483774c0 95.637736 38.622189 182.28166 100.921962 245.035471l243.625057 245.103095 243.683019-245.103095A346.546717 346.546717 0 0 0 853.687547 347.541736c0-191.488-154.218264-346.61434-344.547019-346.61434V0.869434z m0 500.571774A153.571019 153.571019 0 0 1 355.936604 347.483774v-0.135246A153.513057 153.513057 0 0 1 509.063245 193.400755h0.067623a153.571019 153.571019 0 0 1 153.194264 153.957434v0.135245c0.212528 84.721509-68.269887 153.60966-153.001057 153.889811h-0.193207v0.067623z m-153.194264 448.821132c0 35.550189 68.588679 64.367094 153.194264 64.367094 84.605585 0 153.194264-28.816906 153.194264-64.367094s-68.588679-64.367094-153.194264-64.367095c-84.605585 0-153.194264 28.816906-153.194264 64.367095z" fill="#3dced3" p-id="9394"></path></svg>