<?xml version="1.0" encoding="utf-8"?>
<!-- Generator: Adobe Illustrator 22.0.0, SVG Export Plug-In . SVG Version: 6.00 Build 0)  -->
<svg version="1.1" id="图层_1" xmlns="http://www.w3.org/2000/svg" xmlns:xlink="http://www.w3.org/1999/xlink" x="0px" y="0px"
	 viewBox="0 0 32 32" style="enable-background:new 0 0 32 32;" xml:space="preserve">
<style type="text/css">
	.st0{fill:#FFFFFF;}
</style>
<path class="st0" d="M8.5,19.5L8.5,19.5c0,0-2.7-1.3-3.8-1.6c-0.2-0.1-0.5,0.1-0.5,0.3C3.8,19.5,2.4,24,2,25.5C2,25.7,2.1,26,2.3,26
	c0,0,0.1,0,0.1,0h0.8c0.2,0,0.3-0.1,0.4-0.3c0.5-1.1,1.8-5.1,2-5.1c1.5,0,2.8,2,2.7,2.5C8.3,24,8,24.7,7.6,25.4
	c-0.1,0.2,0,0.5,0.2,0.6c0.1,0,0.1,0.1,0.2,0.1h0.9c0.2,0,0.3-0.1,0.4-0.2c0.8-1.4,1.1-2.2,1.1-2.7C10.4,21.8,9.2,19.8,8.5,19.5z
	 M11,10.5c1.2,0,2.3-1,2.3-2.2c0-0.6-0.2-1.2-0.7-1.6C12,6,11,5.8,10.2,6.1C9.3,6.5,8.8,7.3,8.8,8.3C8.8,9.5,9.8,10.4,11,10.5z"/>
<path class="st0" d="M29.6,24l-7.2-10.1c-0.9-1.2-2.2-1.2-3.1,0l-5.1,7l-0.8-0.7c0-0.1,0-0.3,0-0.4c-0.3-1.6-1.5-7.2-2.4-8.1
	c0,0-0.1-0.1-0.1-0.1l-2.8-1.5C7.9,10.1,7.8,10,7.6,10c-1,0-3.2,0.4-3.9,0.5c-0.1,0-0.3,0.1-0.3,0.2c-0.2,0.4-0.9,1.5-1.2,2.4
	c-0.1,0.3-0.1,0.7,0.2,1l0.5,0.4l1.7,1.3c0.1,0.1,0.2,0.3,0.2,0.5c-0.1,0.5,0,0.1-0.1,0.3c-0.1,0.2,0.1,0.5,0.3,0.5
	c0.8,0.3,2.8,1.4,3.6,1.6c0.2,0.1,0.2-0.2,0.3-0.4l-0.1-0.1l4.8,3.7L12,24c-0.8,1.1-0.3,2.1,1.1,2.1h15.4C29.9,26,30.5,25.2,29.6,24
	z M6.1,12.6L6.1,12.6c-0.3,0.5-0.5,1-0.7,1.5c-0.1,0.2-0.4,0.3-0.6,0.3c-0.1,0-0.1-0.1-0.1-0.1l-0.9-0.8c0.1-0.5,0.3-0.9,0.6-1.3
	c0.1-0.2,0.2-0.2,0.4-0.2l0.9,0c0.2,0,0.4,0.2,0.4,0.5C6.1,12.4,6.1,12.5,6.1,12.6z M9.2,16.9l0.6-1.5c0.1-0.2,0.4-0.3,0.6-0.3
	c0.1,0.1,0.2,0.2,0.3,0.3c0.4,1.3,0.8,2.5,1.3,3.7L9.2,16.9z"/>
</svg>
