<?xml version="1.0" encoding="utf-8"?>
<!-- Generator: Adobe Illustrator 22.0.0, SVG Export Plug-In . SVG Version: 6.00 Build 0)  -->
<svg version="1.1" id="图层_1" xmlns="http://www.w3.org/2000/svg" xmlns:xlink="http://www.w3.org/1999/xlink" x="0px" y="0px"
	 viewBox="0 0 32 32" style="enable-background:new 0 0 32 32;" xml:space="preserve">
<style type="text/css">
	.st0{fill:#FFFFFF;}
</style>
<path class="st0" d="M7.6,8.3h6c0.2,0,0.4-0.1,0.4-0.3l1.9-5.8c0-0.1,0-0.3-0.1-0.4c-0.1-0.1-0.2-0.2-0.4-0.2h-6
	C9.3,1.6,9.1,1.7,9,1.9L7.2,7.7c0,0.1,0,0.3,0.1,0.4C7.3,8.2,7.5,8.3,7.6,8.3L7.6,8.3z M23,8.3c0.2,0,0.4-0.1,0.4-0.3l1.9-5.8
	c0-0.1,0-0.3-0.1-0.4c-0.1-0.1-0.2-0.2-0.4-0.2h-6c-0.2,0-0.4,0.1-0.4,0.3l-1.9,5.8c0,0.1,0,0.3,0.1,0.4c0.1,0.1,0.2,0.2,0.4,0.2H23
	z M2.1,8.3h2.2c0.2,0,0.4-0.1,0.4-0.3l1.8-5.8c0-0.1,0-0.3-0.1-0.4C6.4,1.7,6.3,1.6,6.2,1.6H2.1C1.8,1.6,1.6,1.8,1.6,2c0,0,0,0,0,0
	v5.8C1.6,8.1,1.8,8.3,2.1,8.3L2.1,8.3z M29.9,1.6h-1.8c-0.2,0-0.4,0.1-0.4,0.3l-1.9,5.8c0,0.1,0,0.3,0.1,0.4
	c0.1,0.1,0.2,0.2,0.4,0.2H30c0.2,0,0.4-0.2,0.4-0.4v0V2c0-0.1,0-0.2-0.1-0.3C30.2,1.6,30.1,1.6,29.9,1.6z M2.5,10.5
	c-0.5,0-0.9,0.4-0.9,0.9c0,0,0,0,0,0v17.9c0,0.6,0.4,1.1,1,1.2c0.3,0,0.6-0.1,0.9-0.3c0.2-0.2,0.4-0.5,0.4-0.8v-4.5h24.3v4.5
	c0,0.6,0.4,1.1,1,1.2c0.3,0,0.6-0.1,0.9-0.3c0.2-0.2,0.4-0.5,0.4-0.8V11.4c0-0.5-0.4-0.9-0.9-0.9L2.5,10.5z M26.7,15h-4.5
	c-0.6,0-1.1-0.5-1.1-1.1c0-0.6,0.5-1.1,1.1-1.1h4.5c0.6,0,1.1,0.5,1.1,1.1c0,0,0,0,0,0C27.9,14.5,27.3,15,26.7,15z"/>
</svg>
