<?xml version="1.0" encoding="utf-8"?>
<!-- Generator: Adobe Illustrator 22.0.0, SVG Export Plug-In . SVG Version: 6.00 Build 0)  -->
<svg version="1.1" id="图层_1" xmlns="http://www.w3.org/2000/svg" xmlns:xlink="http://www.w3.org/1999/xlink" x="0px" y="0px"
	 viewBox="0 0 32.8 32" style="enable-background:new 0 0 32.8 32;" xml:space="preserve">
<style type="text/css">
	.st0{fill:#FFFFFF;}
</style>
<path class="st0" d="M18,21.6L18,21.6l-0.5,0.5l-7.6-7.6l2.8-2.8l4.7,4.7L27.9,6l2.8,2.8L18,21.6z M16,6C10.5,6,6,10.5,6,16
	s4.5,10,10,10s10-4.5,10-10h4c0,7.7-6.3,14-14,14C8.3,30,2,23.7,2,16S8.3,2,16,2c1.5,0,2.9,0.2,4.3,0.7l-1.2,3.8
	C18.1,6.2,17.1,6,16,6z"/>
</svg>
