<?xml version="1.0" encoding="utf-8"?>
<!-- Generator: Adobe Illustrator 22.0.0, SVG Export Plug-In . SVG Version: 6.00 Build 0)  -->
<svg version="1.1" id="图层_1" xmlns="http://www.w3.org/2000/svg" xmlns:xlink="http://www.w3.org/1999/xlink" x="0px" y="0px"
	 viewBox="0 0 32 32" style="enable-background:new 0 0 32 32;" xml:space="preserve">
<style type="text/css">
	.st0{fill:#FFFFFF;}
</style>
<path class="st0" d="M29,3.9h-9C20,1.8,18.2,0,16.1,0c0,0,0,0-0.1,0c-2.1,0-3.9,1.8-3.9,3.9H3c-0.6,0-1,0.4-1,1c0,0,0,0,0,0v25.9
	c0,0.6,0.4,1,1,1c0,0,0,0,0,0H29c0.6,0,1-0.4,1-1c0,0,0,0,0,0V5C30,4.4,29.5,3.9,29,3.9C29,3.9,29,3.9,29,3.9z M16,2
	c1.1,0,2,0.9,2,2c0,0,0,0,0,0c0,1.1-0.9,2-2,2c0,0,0,0,0,0c-1.1,0-2-0.9-2-2c0,0,0,0,0,0C14,2.9,14.9,2,16,2C16,2,16,2,16,2z
	 M27.9,30h-24V6h3.9v3c0,0.6,0.4,1,1,1c0,0,0,0,0,0h14c0.6,0,1-0.4,1-1c0,0,0,0,0,0V6h3.9v24H27.9z"/>
<path class="st0" d="M24.6,25v1H7.3v-1l2.1-4.4h4.3v2.3H18v-2.3h4.4L24.6,25z"/>
<path class="st0" d="M11,17.5l4.8-4.8l4.8,4.8H17v4.3h-2.1v-4.3H11z"/>
</svg>
