<?xml version="1.0" encoding="utf-8"?>
<!-- Generator: Adobe Illustrator 22.0.0, SVG Export Plug-In . SVG Version: 6.00 Build 0)  -->
<svg version="1.1" id="图层_1" xmlns="http://www.w3.org/2000/svg" xmlns:xlink="http://www.w3.org/1999/xlink" x="0px" y="0px"
	 viewBox="0 0 32 32" style="enable-background:new 0 0 32 32;" xml:space="preserve">
<style type="text/css">
	.st0{fill:#FFFFFF;}
</style>
<path class="st0" d="M23.5,26.6c-1.2,0-2.3-0.7-2.7-1.8c-0.5-1.1-0.2-2.4,0.6-3.3c0.8-0.9,2.1-1.1,3.2-0.7c1.1,0.5,1.8,1.6,1.8,2.8
	C26.4,25.2,25.1,26.6,23.5,26.6z M15.5,18.3h8.2c0.7,0,1.2-0.4,1.2-0.8V6.2c0-0.5-0.5-0.9-1.2-0.9H12.5c-0.7,0-1.2,0.4-1.2,0.9v11.2
	c0,0.5,0.5,0.8,1.2,0.8L15.5,18.3z M28.7,18.3c0.7,0,1.2-0.4,1.2-0.8c-0.5-5.5-1-9.1-1.4-10.8c-0.2-1-0.7-1.4-1.5-1.3
	c-0.7,0-1.2,0.4-1.2,0.9v11.2c0,0.5,0.5,0.8,1.2,0.8L28.7,18.3z M9.3,21c-1.6,0-2.8,1.3-2.8,2.9s1.3,2.9,2.8,2.9s2.8-1.3,2.8-2.9
	S10.9,21,9.3,21z M11.1,19.2c-0.4-0.1-0.7-0.5-0.7-0.9V8.6H7.7c-0.5,0-1,0.3-1.4,0.7l-3.7,5.5c-0.3,0.5-0.5,1.1-0.5,1.7v5.4
	c0,0.5,0.4,0.9,0.9,0.9h3c0.4-1.6,1.8-2.6,3.3-2.6s2.9,1.1,3.3,2.6h7.5c0,0,0.2-2.9,3.6-2.9c2.5,0,3.4,2.9,3.4,2.9
	c1.7,0,1.9,0.1,1.9-0.9v-2.7L11.1,19.2z M8.9,16.8c0,0.5-0.4,0.9-0.9,0.9H4.6c-0.5,0-0.9-0.4-0.9-0.9v-0.1c0-0.6,0.2-1.2,0.5-1.7
	L7,10.7C7.3,10.3,7.7,10,8.2,10C8.7,10,9,10.4,9,10.9L8.9,16.8L8.9,16.8z"/>
</svg>
