<?xml version="1.0" encoding="utf-8"?>
<!-- Generator: Adobe Illustrator 22.0.0, SVG Export Plug-In . SVG Version: 6.00 Build 0)  -->
<svg version="1.1" id="图层_1" xmlns="http://www.w3.org/2000/svg" xmlns:xlink="http://www.w3.org/1999/xlink" x="0px" y="0px"
	 viewBox="0 0 32 32" style="enable-background:new 0 0 32 32;" xml:space="preserve">
<style type="text/css">
	.st0{fill:#FFFFFF;}
</style>
<path class="st0" d="M25.3,26.2V7L22,4.4L11,8.1v0.9L21,6v21.6h6.7v-1.4L25.3,26.2L25.3,26.2z M7.4,20.3l5.2-1v-2.4l-5.2,1.3
	L7.4,20.3L7.4,20.3L7.4,20.3z M7.4,27.6h5.2V25l-5.2,0.3L7.4,27.6z M7.4,23.9l5.2-0.5V21l-5.2,0.8L7.4,23.9z M7.4,16.5l5.2-1.3v-2.5
	l-5.2,1.6L7.4,16.5L7.4,16.5z M18.5,10.3l-3-1.6L4.4,12.3l0,15.3h1.5V13l8.3-2.5v17h4.3L18.5,10.3C18.5,10.3,18.5,10.3,18.5,10.3z"
	/>
</svg>
