<?xml version="1.0" encoding="utf-8"?>
<!-- Generator: Adobe Illustrator 22.0.0, SVG Export Plug-In . SVG Version: 6.00 Build 0)  -->
<svg version="1.1" id="图层_1" xmlns="http://www.w3.org/2000/svg" xmlns:xlink="http://www.w3.org/1999/xlink" x="0px" y="0px"
	 viewBox="0 0 32 32" style="enable-background:new 0 0 32 32;" xml:space="preserve">
<style type="text/css">
	.st0{fill:#FFFFFF;}
</style>
<path class="st0" d="M14.1,16.6l-12.5-6c-1.2-0.5-1.7-1.8-1.3-2.9C0.5,7.1,1,6.6,1.6,6.4l12.5-6c1.2-0.6,2.6-0.6,3.8,0l12.5,6
	c1.2,0.5,1.7,1.8,1.3,2.9c-0.2,0.6-0.7,1.1-1.3,1.3l-12.5,6C16.7,17.1,15.3,17.1,14.1,16.6L14.1,16.6z"/>
<path class="st0" d="M16,24.5c-0.9,0-1.8-0.2-2.6-0.6L1.1,17.8c-0.9-0.3-1.3-1.3-1-2.2c0.3-0.9,1.3-1.3,2.2-1c0.1,0,0.2,0.1,0.3,0.1
	l12.3,6.1c0.7,0.3,1.5,0.3,2.3,0l12.3-6.1c0.8-0.5,1.8-0.2,2.3,0.6c0.5,0.8,0.2,1.8-0.6,2.3c-0.1,0.1-0.2,0.1-0.3,0.1l-12.3,6.1
	C17.8,24.3,16.9,24.5,16,24.5z M16,31.7c-0.9,0-1.8-0.2-2.6-0.6L1.1,25c-0.9-0.3-1.3-1.3-1-2.2s1.3-1.3,2.2-1c0.1,0,0.2,0.1,0.3,0.1
	L14.9,28c0.7,0.4,1.5,0.4,2.3,0l12.3-6.1c0.8-0.5,1.8-0.2,2.3,0.6c0.5,0.8,0.2,1.8-0.6,2.3c-0.1,0.1-0.2,0.1-0.3,0.1l-12.3,6.1
	C17.8,31.5,16.9,31.7,16,31.7z"/>
</svg>
