<?xml version="1.0" standalone="no"?><!DOCTYPE svg PUBLIC "-//W3C//DTD SVG 1.1//EN" "http://www.w3.org/Graphics/SVG/1.1/DTD/svg11.dtd"><svg t="1595916896505" class="icon" viewBox="0 0 1024 1024" version="1.1" xmlns="http://www.w3.org/2000/svg" p-id="4573" xmlns:xlink="http://www.w3.org/1999/xlink" width="120" height="120"><defs><style type="text/css"></style></defs><path d="M451.30171 294.9c73.6-19.2 151.9-2.3 211 45.5h31.6c-100.2-98-260.1-99.2-361.7-2.7h31.6c25.9-20.1 55.7-34.7 87.5-42.8z m148.9-52.7l19.6 8.9v-21l15.4-15.3-20.9-5.9-10.1-18.4-12.8 17.4-21.6 3.9 13 16.6-3.3 20.8 20.7-7z m-292.1 29l-19.9-7.2 1.7 21.7-13.8 17.1 20.7 4 11.3 17.5 11.1-19 20.7-6.1-13.9-15.7 1.6-21.6-19.5 9.3z m148.3-68.9l-16.6-12.9-4.6 21-18.3 12.2 18.3 10.1 5.2 20.4 16.6-14.7 21.5 0.4-8.7-19.5 8.1-20.1-21.5 2.8v0.3z m258.7 67.9l-20.6-7.6 2.8 20.9-13.3 16.3 21.5 4.4 12.4 17.6 10.5-18.1 21-5.5-15-15.6 0.6-21-19.8 8.5-0.1 0.1z m266.8 93.4l-938-6.9c-11.1-0.1-21.7 4.2-29.6 12-7.9 7.8-12.4 18.4-12.4 29.4L0.00171 648.2c-0.1 11.1 4.2 21.7 12 29.6 7.8 7.9 18.3 12.4 29.4 12.4l938 6.9c11.1 0.1 21.7-4.2 29.6-12 7.9-7.8 12.4-18.4 12.4-29.4l1.8-250.2c0.1-11.1-4.2-21.7-12-29.6-7.7-7.8-18.3-12.3-29.3-12.3z m20.4 52.2l-1.7 229.2c-0.1 8.3-3.4 16.2-9.3 22.1-5.9 5.8-13.9 9.1-22.2 9L52.00171 669.5c-8.3-0.1-16.2-3.4-22.1-9.3-5.8-5.9-9.1-13.9-9-22.2l1.7-229.3c0.2-17.3 14.3-31.1 31.5-31l917.4 6.7c17.3 0.2 31.1 14.3 31 31.5l-0.2-0.1z m-585.2-252C581.50171 121 754.10171 194 838.00171 341.7h23.9c-68.2-128.8-201.6-209.8-347.3-210.8-145.7-1-280.3 78.1-350.3 205.9h23.8c50.3-85.9 132.7-148.1 229-173z m242.5 551.8c-87.9 68.8-211.6 67.9-298.5-2.2h-31.6c100.3 98 260 99.2 361.7 2.7h-31.6v-0.5zM454.00171 813.8l-19.5-8.9v20.9l-15.2 15.3L440.00171 847l10.1 18.4 12.7-17.4 21.4-3.9-12.9-16.6 3.2-20.7-20.5 7z m140 29.9l16.6 12.9 4.9-20.9 18.1-12.1-18.4-10.1-5.2-20.3-16.2 14.6-21.3-0.5 8.4 19.2-8 20.1 21.3-2.8h-0.2z m-288-60.5l19.9 9-1.2-21L339.00171 756l-21.1-6-11.1-18.4-11.6 17.4-21.2 3.9 13.8 16.6-1.8 20.8 20-7.1zM606.10171 890c-164.4 42.8-337-30.2-420.9-177.9h-23.9c68.1 128.9 201.5 210 347.3 211 145.8 1.1 280.4-78 350.4-205.9h-23.8a374.295 374.295 0 0 1-229.1 173.2v-0.4z m126.6-112l19.6 7.3-1.8-21.4 13.6-17-20.6-4-11.1-17.8-11 18.9-20.5 6.1 13.8 15.8-1.5 21.6 19.5-9.2v-0.3z m0 0" p-id="4574" fill="#d81e06"></path><path d="M355.90171 527.8H209.70171v65.4c0 8.8 4.3 13.3 13 13.3h119c4.1 0 7.8-1.4 11.1-4.3 3.6-3.5 6.1-17.7 7.3-42.7l22 7.1c-2.8 29.7-6.7 47.4-11.6 53.1-5.7 5.2-13.3 8.1-22.8 8.5H216.40171c-19.6 0-29.4-10.3-29.4-30.8V474h22.8v32.2h123.5v-56.4H176.10171v-21.6H356.00171v99.6zM469.70171 420.9c-1.9 10.6-4 20.9-6.4 30.8h52.1v20.1c-5.7 40.6-17.3 74.7-34.8 102.1 4.7 7.1 9.7 12.6 14.9 16.4 17.7 12.6 45.7 19.2 83.9 19.7 11.1 0 24.9-0.6 41.5-1.7l-4.5 23.5h-26.3c-49.8 0-85.6-8.3-107.4-24.9-5.5-4.4-10.5-9.5-14.9-15.2-14.1 17.1-31 31.1-51 42.2l-12.1-21.3c19.7-10.9 36.3-25.1 49.5-42.7-7-13.6-13.1-29.5-18.5-47.9-5.8 9.6-11.9 18.2-18.2 25.8l-15.4-19.2c22.6-27.8 37.8-65 45.5-111.6l22.1 3.9zM467.30171 550c12.2-21.3 20.9-46.9 26.1-76.8h-36.3c-2.1 6.2-4.8 13.6-8.3 22.3 5.6 21.5 11.7 39.7 18.5 54.5zM542.00171 418.3h22.5v60c19.4 14.2 38.9 29.7 58.3 46.4l-13.5 20.1c-18.5-19-33.4-33.3-44.8-42.9v92H542.00171V418.3zM644.80171 502.9h23.5v-50.5h-26.8v-21.3h76.1v21.3H691.00171v50.5h24v21.8h-24v46.7c10.6-3.9 19.2-7.4 25.8-10.4v21.6c-22.8 9.5-46.9 17.5-72.5 24.2l-5.5-21.6c10.7-2.1 20.5-4.3 29.4-6.6v-53.8h-23.5v-21.9z m84.4-78h117.3v113.5h-47.4v23.9h50v20.9h-50v24.4h57.6v21.6H719.20171v-21.6h57.6v-24.4h-50.5v-20.9h50.5v-23.9h-47.6V424.9z m21.6 47.2h26.1v-27.3h-26.1v27.3z m26 46.4v-27h-26.1v27h26.1z m22.3-73.7v27.3h25.8v-27.3h-25.8z m25.8 73.7v-27h-25.8v27h25.8z" fill="#d81e06" p-id="4575"></path></svg>