<?xml version="1.0" encoding="utf-8"?>
<!-- Generator: Adobe Illustrator 22.0.0, SVG Export Plug-In . SVG Version: 6.00 Build 0)  -->
<svg version="1.1" id="图层_1" xmlns="http://www.w3.org/2000/svg" xmlns:xlink="http://www.w3.org/1999/xlink" x="0px" y="0px"
	 viewBox="0 0 50 50" style="enable-background:new 0 0 50 50;" xml:space="preserve">
<style type="text/css">
	.st0{fill:#c0c4cc;}
</style>
<path class="st0" d="M44.2,17.4h-5v-6c0-1.3-1.1-2.4-2.4-2.4H23.6V5.9c0-1.4-1.1-2.6-2.6-2.6h-15c-1.8,0-3.2,1.4-3.2,3.2v37
	c0,1.8,1.4,3.2,3.2,3.2h38.1c1.6,0,2.8-1.3,2.8-2.8V20.3C47.1,18.7,45.8,17.4,44.2,17.4z M13.4,17.4c-1.4,0.1-2.6,1.2-2.7,2.7
	c0,0,0,0.1,0,0.1v22.9H6.4V6.8h13.7v2.2c0,1.9,1.6,3.5,3.5,3.5h12.2v4.9H13.6C13.5,17.4,13.5,17.4,13.4,17.4z M43.6,43.2H14.3V20.9
	h29.3V43.2z"/>
<path class="st0" d="M27.2,40.2c0.5,0.6,1.4,0.6,1.9,0l6.2-6.8c0.2-0.3,0.1-0.7-0.3-0.7h-5.1v-6.8c0-1-0.8-1.8-1.8-1.8
	c-1,0-1.8,0.8-1.8,1.8v6.8h-5.1c-0.4,0-0.5,0.4-0.3,0.7L27.2,40.2z"/>
</svg>
