<?xml version="1.0" standalone="no"?><!DOCTYPE svg PUBLIC "-//W3C//DTD SVG 1.1//EN" "http://www.w3.org/Graphics/SVG/1.1/DTD/svg11.dtd"><svg t="1600913842986" class="icon" viewBox="0 0 1024 1024" version="1.1" xmlns="http://www.w3.org/2000/svg" p-id="14400" xmlns:xlink="http://www.w3.org/1999/xlink" width="50" height="50"><defs><style type="text/css"></style></defs><path d="M679.424 51.2h251.392a39.936 39.936 0 0 1 29.696 12.288 39.936 39.936 0 0 1 12.288 29.696v251.392a41.984 41.984 0 1 1-83.968 0V194.56l-347.648 347.648a39.936 39.936 0 0 1-29.696 12.288 41.984 41.984 0 0 1-29.696-71.68l347.648-347.648h-150.016a41.984 41.984 0 0 1-41.984-41.984 40.448 40.448 0 0 1 12.288-29.696 40.448 40.448 0 0 1 29.696-12.288z" p-id="14401"></path><path d="M176.64 51.2h293.376a39.936 39.936 0 0 1 29.696 12.288 39.936 39.936 0 0 1 12.288 29.696 41.984 41.984 0 0 1-41.984 41.984H176.64a41.984 41.984 0 0 0-41.984 41.984v670.208a41.984 41.984 0 0 0 41.984 41.984h670.208a41.984 41.984 0 0 0 41.984-41.984v-293.376a41.984 41.984 0 0 1 83.968 0v293.376A125.44 125.44 0 0 1 847.36 972.8H176.64a120.832 120.832 0 0 1-89.088-36.864A120.832 120.832 0 0 1 51.2 847.36V177.152a120.832 120.832 0 0 1 36.864-88.576A120.832 120.832 0 0 1 176.64 51.2z" p-id="14402"></path></svg>