<?xml version="1.0" standalone="no"?><!DOCTYPE svg PUBLIC "-//W3C//DTD SVG 1.1//EN" "http://www.w3.org/Graphics/SVG/1.1/DTD/svg11.dtd"><svg t="1619494767357" class="icon" viewBox="0 0 1026 1024" version="1.1" xmlns="http://www.w3.org/2000/svg" p-id="2604" xmlns:xlink="http://www.w3.org/1999/xlink" width="50.09765625" height="50"><defs><style type="text/css"></style></defs><path d="M513.28 0c-282.88 0-512 229.12-512 512s229.12 512 512 512 512-229.12 512-512S796.16 0 513.28 0z m239.36 550.4H550.4v208.64c0 21.76-16.64 38.4-38.4 38.4s-38.4-16.64-38.4-38.4V550.4H266.24c-21.76 0-38.4-16.64-38.4-38.4s16.64-38.4 38.4-38.4H473.6V272.64c0-21.76 16.64-38.4 38.4-38.4s38.4 16.64 38.4 38.4V473.6h202.24c21.76 0 38.4 16.64 38.4 38.4s-16.64 38.4-38.4 38.4z" fill="#409EFF" p-id="2605"></path></svg>