<?xml version="1.0" standalone="no"?><!DOCTYPE svg PUBLIC "-//W3C//DTD SVG 1.1//EN" "http://www.w3.org/Graphics/SVG/1.1/DTD/svg11.dtd"><svg t="1598321037526" class="icon" viewBox="0 0 1024 1024" version="1.1" xmlns="http://www.w3.org/2000/svg" p-id="2624" xmlns:xlink="http://www.w3.org/1999/xlink" width="50" height="50"><defs><style type="text/css"></style></defs><path d="M906.1 357H804V233.6c0-26.8-21.8-48.6-48.6-48.6H484v-64.7c0-28.8-23.5-52.3-52.3-52.3H125.4C89.3 68 60 97.3 60 133.4v757.3c0 36 29.3 65.4 65.4 65.4h780.7c31.9 0 57.9-26 57.9-57.9V414.9c0-31.9-26-57.9-57.9-57.9z m-631.2 0.1c-29.6 1.5-53.4 25.3-54.9 54.9-0.1 1-0.1 2-0.1 3v469h-88V140h280v45.9c0 39.2 31.9 71.1 71.1 71.1h249v100H277.9c-1 0-2 0-3 0.1zM892 884H292V429h600v455z" fill="#44A8E8" p-id="2625"></path><path d="M595.3 503.2c-10.4-11.4-28.3-11.4-38.7 0L428.9 642.8c-4.9 5.4-1.1 14.1 6.2 14.1H540v139c0 19.9 16.1 36 36 36s36-16.1 36-36V657h104.9c7.3 0 11.2-8.7 6.2-14.1L595.3 503.2z" fill="#44A8E8" p-id="2626"></path></svg>