<?xml version="1.0" standalone="no"?><!DOCTYPE svg PUBLIC "-//W3C//DTD SVG 1.1//EN" "http://www.w3.org/Graphics/SVG/1.1/DTD/svg11.dtd"><svg t="1600916539875" class="icon" viewBox="0 0 1059 1024" version="1.1" xmlns="http://www.w3.org/2000/svg" p-id="23717" xmlns:xlink="http://www.w3.org/1999/xlink" width="51.708984375" height="50"><defs><style type="text/css"></style></defs><path d="M1024.03531 185.096828c-131.601655 6.567724-128.529655 262.214621-160.308965 353.809655-41.207172 118.289655-143.501241 219.277241-281.211586 178.458483-117.371586-34.674759-194.489379-261.367172-337.496276-175.351173-98.021517 58.932966-147.138207 187.745103-170.93738 295.088552-0.282483 1.05931-0.741517 1.977379-0.953379 2.930758v110.768552h914.361379a36.616828 36.616828 0 0 1 0 73.198345H36.581517C16.489931 1024 0 1007.616 0 987.418483V36.581517a36.616828 36.616828 0 0 1 73.198345 0v592.154483c26.341517-47.880828 59.003586-91.806897 99.857655-125.846069 124.115862-103.494621 253.281103-30.225655 339.508966 75.246345 54.483862 66.842483 161.156414 110.768552 231.141517 32.485517 54.166069-60.45131 66.56-149.256828 82.414345-225.950896 24.011034-116.630069 53.424552-265.463172 197.843862-272.595863 47.209931-2.401103 46.998069 70.726621 0.07062 73.021794" fill="#000000" p-id="23718"></path></svg>