<?xml version="1.0" standalone="no"?><!DOCTYPE svg PUBLIC "-//W3C//DTD SVG 1.1//EN" "http://www.w3.org/Graphics/SVG/1.1/DTD/svg11.dtd"><svg t="1595903789975" class="icon" viewBox="0 0 1243 1024" version="1.1" xmlns="http://www.w3.org/2000/svg" p-id="2161" xmlns:xlink="http://www.w3.org/1999/xlink" width="145.6640625" height="120"><defs><style type="text/css"></style></defs><path d="M1135.648675 510.684529a502.490352 502.490352 0 0 0-91.428375-288.767382c-0.877712-1.462854-1.462854-2.925708-2.194281-4.095991a542.133695 542.133695 0 0 0-22.74738-28.818224l-2.70628-3.437707A512.364616 512.364616 0 0 0 822.890488 42.424961a190.317306 190.317306 0 0 1-6.143987-2.852566 659.015731 659.015731 0 0 0-36.425064-13.165686c-4.681133-1.462854-9.069695-3.071993-13.677685-4.388562a498.248075 498.248075 0 0 0-32.548502-8.265125c-5.997701-1.389711-12.141688-2.925708-18.285675-4.095991-3.071993-0.511999-5.851416-1.462854-8.850267-1.974853-8.265125-1.462854-16.457108-1.974853-24.722233-3.071994-5.558845-0.731427-11.263976-1.609139-16.895964-2.194281a547.838826 547.838826 0 0 0-41.106197-1.974853C621.748062 0.367908 619.334353 0.002194 616.774358 0.002194a520.337171 520.337171 0 0 0-297.398219 92.379231 60.708441 60.708441 0 0 0-15.359968 85.357531 62.902722 62.902722 0 0 0 86.820386 14.994254A396.872292 396.872292 0 0 1 654.369706 124.344785l10.459407 1.462854c9.508551 1.023998 18.724531 2.340566 27.867368 4.095991 4.022849 0.731427 8.045697 1.755425 11.995403 2.633137 8.996552 2.047996 17.993104 4.169134 26.770229 6.729129l8.191982 2.852565c10.02055 3.145136 19.821672 6.582843 29.549651 10.605692l2.998851 1.389711a395.409438 395.409438 0 0 1 148.625967 109.714051l0.731427 0.950855a382.316895 382.316895 0 0 1 89.526665 245.978901h-91.355232c-3.657135-0.073143-6.582843 2.779423-6.582844 6.290272 0 1.316569 0.365714 2.559995 1.097141 3.657135l153.672814 226.9618a6.729128 6.729128 0 0 0 11.044547 0l153.599671-226.9618c3.583992 0 6.5097-2.925708 6.436558-6.436557a6.5097 6.5097 0 0 0-6.582843-6.363415 6.582843 6.582843 0 0 0-5.41256 2.852565h-91.428376v-0.146285z m-292.717087 318.024461a395.409438 395.409438 0 0 1-263.167436 68.315282c-4.388562-0.365714-8.630839-1.097141-13.019401-1.682282-8.411411-1.097141-16.822821-2.194281-24.941661-3.730278a290.010807 290.010807 0 0 1-14.994253-3.364564 343.697549 343.697549 0 0 1-23.771378-5.997701c-3.657135-1.097141-7.31427-2.413709-11.190833-3.657135a389.265452 389.265452 0 0 1-62.463866-26.550801l-1.316569-0.585141a398.335146 398.335146 0 0 1-114.541468-93.037515c-1.609139-1.828568-3.071993-3.949706-4.607991-5.851416A382.316895 382.316895 0 0 1 222.388918 510.684529h91.428375a6.582843 6.582843 0 0 0 5.851416-3.437707 6.070844 6.070844 0 0 0-0.29257-6.582843l-153.599671-226.9618a6.729128 6.729128 0 0 0-11.044548 0l-153.599671 227.034942a6.070844 6.070844 0 0 0-0.365713 6.582843c1.243426 2.121138 3.437707 3.364564 5.851416 3.364565h91.428375c0 107.51977 34.084498 207.140128 91.794089 289.498808l1.974853 3.510849c5.997701 8.411411 12.653687 16.237679 19.017102 24.210234l7.241127 9.069695c9.435408 11.337119 19.455958 21.796525 29.842222 32.329074l2.852566 2.852565a511.92576 511.92576 0 0 0 157.695662 106.056916l9.508551 4.095991c10.971405 4.461705 22.381666 8.411411 33.645642 12.141688 5.339417 1.755425 10.605692 3.657135 16.018251 5.193132 9.947407 2.925708 20.0411 5.339417 30.281078 7.679983 6.802271 1.609139 13.458257 3.291422 20.479956 4.60799 2.779423 0.658284 5.485703 1.462854 8.338268 1.828568 9.654836 1.682282 19.23653 2.633137 28.96451 3.730278l10.386263 1.462854a520.995455 520.995455 0 0 0 348.305539-89.965522 60.708441 60.708441 0 0 0 15.359967-85.211246 62.902722 62.902722 0 0 0-86.893528-15.067396z" fill="#1296db" p-id="2162"></path></svg>