<?xml version="1.0" encoding="utf-8"?>
<!-- Generator: Adobe Illustrator 26.0.0, SVG Export Plug-In . SVG Version: 6.00 Build 0)  -->
<svg version="1.1" id="图层_1" xmlns="http://www.w3.org/2000/svg" xmlns:xlink="http://www.w3.org/1999/xlink" x="0px" y="0px"
	 viewBox="0 0 58 63.22" style="enable-background:new 0 0 58 63.22;" xml:space="preserve">
<style type="text/css">
	.st0{fill:#1296DB;}
</style>
<g>
	<path class="st0" d="M29,22.43c-5.06,0-9.17,4.12-9.17,9.17s4.12,9.17,9.17,9.17s9.17-4.12,9.17-9.17S34.06,22.43,29,22.43z
		 M29,36.31c-2.59,0-4.7-2.11-4.7-4.7c0-2.59,2.11-4.7,4.7-4.7s4.7,2.11,4.7,4.7C33.7,34.2,31.59,36.31,29,36.31z"/>
	<path class="st0" d="M49.82,31.61l4.24-5.56c0.41-0.58,0.54-1.29,0.36-1.96c-1.1-3.71-2.95-7.05-5.48-9.95
		c-0.46-0.49-1.09-0.76-1.74-0.76c-0.05,0-0.1,0-0.16,0.01l-7.68,0.83l-3.32-7.3c-0.31-0.64-0.87-1.09-1.56-1.25
		C32.68,5.28,30.84,5.09,29,5.09s-3.68,0.19-5.48,0.56c-0.69,0.16-1.26,0.61-1.56,1.24l-3.32,7.31l-7.66-0.83
		c-0.07-0.01-0.13-0.01-0.18-0.01c-0.65,0-1.29,0.27-1.73,0.75c-2.55,2.91-4.39,6.26-5.49,9.95c-0.18,0.69-0.05,1.39,0.35,1.96
		l4.25,5.57l-4.24,5.56c-0.41,0.58-0.54,1.29-0.36,1.96c1.1,3.71,2.95,7.05,5.48,9.95c0.47,0.49,1.1,0.76,1.76,0.76
		c0.05,0,0.09,0,0.14,0L18.63,49l3.32,7.3c0.31,0.64,0.87,1.09,1.56,1.25c1.78,0.38,3.6,0.57,5.41,0.57l0.09,0l0.08,0
		c1.81,0,3.63-0.19,5.4-0.57c0.69-0.16,1.26-0.61,1.56-1.24L39.37,49l7.66,0.83c0.07,0.01,0.13,0.01,0.18,0.01
		c0.65,0,1.29-0.27,1.73-0.75c2.55-2.91,4.39-6.26,5.49-9.95c0.18-0.69,0.05-1.39-0.35-1.96L49.82,31.61z M12.75,32.95
		c0.63-0.79,0.63-1.9-0.01-2.7L8.39,24.3c0.79-2.3,1.96-4.43,3.48-6.33l8.16,0.84c0.07,0.01,0.14,0.01,0.2,0.01
		c0.87,0,1.69-0.51,2.07-1.29l3.37-7.71c1.15-0.17,2.31-0.26,3.47-0.26s2.32,0.09,3.47,0.26l3.36,7.69c0.39,0.8,1.21,1.31,2.08,1.31
		c0.06,0,0.13,0,0.19-0.01l8.07-0.84c1.52,1.9,2.69,4.02,3.48,6.32l-4.52,5.96c-0.63,0.79-0.63,1.9,0.01,2.7l4.38,5.95
		c-0.79,2.3-1.96,4.43-3.48,6.33l-8.06-0.84c-0.08-0.01-0.15-0.01-0.22-0.01c-0.87,0-1.68,0.51-2.05,1.3l-3.37,7.71
		c-1.15,0.17-2.31,0.26-3.47,0.26c-1.16,0-2.33-0.09-3.47-0.26l-3.5-7.7c-0.39-0.8-1.2-1.31-2.08-1.31c-0.06,0-0.13,0-0.19,0.01
		l-8.07,0.84c-1.52-1.9-2.69-4.02-3.48-6.32L12.75,32.95z"/>
</g>
</svg>
