<?xml version="1.0" standalone="no"?><!DOCTYPE svg PUBLIC "-//W3C//DTD SVG 1.1//EN" "http://www.w3.org/Graphics/SVG/1.1/DTD/svg11.dtd"><svg t="1599463594107" class="icon" viewBox="0 0 1024 1024" version="1.1" xmlns="http://www.w3.org/2000/svg" p-id="14695" xmlns:xlink="http://www.w3.org/1999/xlink" width="50" height="50"><defs><style type="text/css"></style></defs><path d="M797.049616 376.140753l120.273271-69.048609c22.293749-13.389962 40.116673-2.234901 40.116673 20.030195v349.72001c0 24.50102-17.822924 33.402761-40.116673 20.040428l-120.273271-69.048609c-22.274306-13.371542-40.098253-26.734898-40.098253-48.999994V422.905846c0.001023-22.264073 17.824971-33.420157 40.098253-46.765093zM605.503069 244.703211H151.076322c-46.77328 0-84.644819 37.862329-84.644819 84.656075v365.289614c0 46.794769 37.871539 84.646865 84.644819 84.646865h454.426747c46.77328 0 84.626399-37.851073 84.626399-84.646865v-365.289614c0-46.793746-37.85312-84.656075-84.626399-84.656075zM331.514881 449.632557c-6.694469 31.194466-31.194466 55.686277-60.163241 62.380746-55.67809 11.137665-102.45137-37.881772-91.304496-91.341335 6.65763-31.18628 31.176047-55.686277 60.144822-60.128449 55.659671-13.362332 102.45137 33.402761 91.322915 89.089038z" fill="#979797" p-id="14696"></path></svg>