<?xml version="1.0" standalone="no"?><!DOCTYPE svg PUBLIC "-//W3C//DTD SVG 1.1//EN" "http://www.w3.org/Graphics/SVG/1.1/DTD/svg11.dtd"><svg t="1599462455726" class="icon" viewBox="0 0 1024 1024" version="1.1" xmlns="http://www.w3.org/2000/svg" p-id="12639" xmlns:xlink="http://www.w3.org/1999/xlink" width="50" height="50"><defs><style type="text/css"></style></defs><path d="M911.80032 645.632c4.5568 9.1136 8.38656 16.5632 8.51968 16.5632 0.128 0 0.2304 8.33024 0.2304 18.51392v168.30976a18.57024 18.57024 0 0 1-18.51392 18.51904H122.0096a18.57024 18.57024 0 0 1-18.51904-18.51904v-168.15104c0-10.1888-0.1024-18.51904-0.23552-18.51904s3.50208-7.44448 8.07424-16.54272L231.33696 406.9888c4.57216-9.09824 16.64512-16.54784 26.8288-16.54784l98.51392-0.03584a18.56512 18.56512 0 0 1 18.51904 18.51392v31.18592a18.55488 18.55488 0 0 1-18.51904 18.50368l-30.64832-0.01536c-10.1888-0.01024-22.33856 7.39328-27.00288 16.44032l-88.51968 171.58144c-4.66944 9.04704-0.1536 16.45568 10.03008 16.45568H357.6832a18.57024 18.57024 0 0 1 18.51904 18.51392v96.8704a18.57024 18.57024 0 0 0 18.51392 18.51904h232.97024a18.57024 18.57024 0 0 0 18.51392-18.51904v-96.8704a18.57024 18.57024 0 0 1 18.51904-18.51392h134.4256c10.1888 0 14.8224-7.47008 10.30656-16.59904l-84.63872-171.02336c-4.51584-9.12896-16.54272-16.60416-26.7264-16.60928l-31.46752-0.02048a18.5856 18.5856 0 0 1-18.51904-18.5344V408.832a18.58048 18.58048 0 0 1 18.51904-18.51904l98.9696-0.03584c10.18368 0 22.24128 7.4496 26.79296 16.55808l119.41376 238.80192zM578.56 509.32736h88.33024a15.36 15.36 0 0 1 11.40224 25.6512l-154.89024 171.63264a15.36 15.36 0 0 1-22.80448 0L345.7024 534.97856a15.36 15.36 0 0 1 11.40224-25.6512H445.44v-332.8a20.48 20.48 0 0 1 20.48-20.48h92.16a20.48 20.48 0 0 1 20.48 20.48v332.8z" fill="#069bff" p-id="12640"></path></svg>