<?xml version="1.0" standalone="no"?><!DOCTYPE svg PUBLIC "-//W3C//DTD SVG 1.1//EN" "http://www.w3.org/Graphics/SVG/1.1/DTD/svg11.dtd"><svg t="1592207947659" class="icon" viewBox="0 0 1151 1024" version="1.1" xmlns="http://www.w3.org/2000/svg" p-id="2323" xmlns:xlink="http://www.w3.org/1999/xlink"><defs><style type="text/css"></style></defs><path d="M997.305767 504.06725l131.583177-132.159174a54.719658 54.719658 0 0 0 0-76.479522 54.207661 54.207661 0 0 0-76.159524 0l-131.647177 132.159174-131.583177-132.159174a54.207661 54.207661 0 0 0-76.159524 0 54.719658 54.719658 0 0 0 0 76.479522l124.67122 132.159174-131.583177 132.095174a54.719658 54.719658 0 0 0 0 76.543522 54.207661 54.207661 0 0 0 76.159524 0l131.583177-132.159174 131.583178 132.159174a54.207661 54.207661 0 0 0 76.159524 0 54.719658 54.719658 0 0 0 0-76.543522l-124.607221-132.095174zM519.420754 24.198249c62.33561-48.639696 110.783308-20.86387 110.783307 55.679652V949.120468c0 76.479522-48.447697 97.343392-103.871351 48.639696L277.118268 789.249467H138.495134A139.19913 139.19913 0 0 1 0 650.114337V364.996119C0 288.452597 62.33561 225.924988 138.495134 225.924988H270.078312L519.420754 24.198249z" p-id="2324" fill="#fff"></path></svg>