<?xml version="1.0" standalone="no"?><!DOCTYPE svg PUBLIC "-//W3C//DTD SVG 1.1//EN" "http://www.w3.org/Graphics/SVG/1.1/DTD/svg11.dtd"><svg t="1592551245327" class="icon" viewBox="0 0 1024 1024" version="1.1" xmlns="http://www.w3.org/2000/svg" p-id="15125" xmlns:xlink="http://www.w3.org/1999/xlink" width="50" height="50"><defs><style type="text/css"></style></defs><path d="M512 512m-512 0a512 512 0 1 0 1024 0 512 512 0 1 0-1024 0Z" fill="#F56C6C" p-id="15126" data-spm-anchor-id="a313x.7781069.0.i11" class="selected"></path><path d="M280.0512 599.7696h-10.9824c-0.4864-0.128-0.9472-0.3328-1.4464-0.384-12.48-1.3056-22.3744-7.0016-29.76-16.9472-5.2992-7.1424-9.0112-15.104-11.7888-23.424-2.4832-7.4624-4.4544-15.104-6.656-22.656v-7.3216c1.1136-3.776 1.856-7.68 3.3792-11.2896 3.776-8.896 10.3936-15.7184 17.7024-21.9136 9.9712-8.4352 21.1328-15.1552 32.3968-21.7216 18.5088-10.8032 37.504-20.5824 57.9328-27.4944 28.6592-9.7024 58.2528-14.848 88.2688-18.048a779.5712 779.5712 0 0 1 69.44-4.0704c0.64 0 1.2928-0.1792 1.9328-0.2688h42.176c0.7936 0.1024 1.5744 0.256 2.368 0.2944 19.5712 1.1776 39.1552 2.0352 58.688 3.6096 23.9872 1.9328 47.7312 5.7728 71.168 11.2512 32.9216 7.6928 64.4864 18.432 91.968 38.7712 10.5088 7.7824 21.5296 14.8992 30.7712 24.2176 6.3744 6.4256 11.9424 13.4272 14.9632 22.0416 0.8192 2.3424 1.344 4.8 1.9968 7.2064v7.3344c-1.472 5.4656-2.8672 10.944-4.416 16.384-2.5856 9.0368-5.0688 18.1248-9.7536 26.4192-4.928 8.704-12.288 14.2848-22.272 16.32-3.7632 0.768-7.616 1.1392-11.4432 1.6896h-8.3456c-0.8576-0.1152-1.7152-0.256-2.5856-0.3328-4.4416-0.3584-8.9216-0.5376-13.3376-1.0752-26.2912-3.2256-51.776-9.8048-76.864-17.9968-13.056-4.2624-21.3376-13.1456-24.384-26.2528a100.3136 100.3136 0 0 1-2.3424-18.752c-0.4608-12.096-5.888-21.0176-16.6144-26.7136-3.84-2.048-7.936-3.712-12.096-4.992-13.8112-4.2368-28.1216-5.44-42.4704-5.5936-26.2016-0.2816-52.4032-0.2048-78.6048-0.2048-14.72-0.0128-29.4144 0.4608-43.9296 3.1744-8.96 1.664-17.6512 4.1088-25.3696 9.088-7.6288 4.928-12.4544 11.6864-13.568 20.672-0.5888 4.6976-0.5504 9.472-1.024 14.1824-1.6384 17.0112-9.9328 29.184-26.5856 35.456-24.7168 9.3184-50.3552 14.8224-76.544 18.048-3.9808 0.4864-7.9744 0.8576-11.968 1.2928z" fill="#FFFFFF" p-id="15127"></path></svg>