<?xml version="1.0" standalone="no"?><!DOCTYPE svg PUBLIC "-//W3C//DTD SVG 1.1//EN" "http://www.w3.org/Graphics/SVG/1.1/DTD/svg11.dtd"><svg t="1592550236155" class="icon" viewBox="0 0 1024 1024" version="1.1" xmlns="http://www.w3.org/2000/svg" p-id="13220" xmlns:xlink="http://www.w3.org/1999/xlink" width="50" height="50"><defs><style type="text/css"></style></defs><path d="M768 352c-11.8 0-21.3 9.5-21.3 21.3v102.4c0 129.4-105.3 234.7-234.7 234.7-129.4 0-234.7-105.3-234.7-234.7V373.3c0-11.8-9.5-21.3-21.3-21.3s-21.3 9.5-21.3 21.3v102.4c0 145.7 113 265.3 256 276.3v159h-128c-11.8 0-21.3 9.5-21.3 21.3s9.5 21.3 21.3 21.3h298.7c11.8 0 21.3-9.5 21.3-21.3s-9.5-21.3-21.3-21.3h-128V752c143-11 256-130.5 256-276.3V373.3c-0.1-11.8-9.6-21.3-21.4-21.3z" fill="#868A91" p-id="13221"></path><path d="M512 625.1c82.1 0 149.3-67.2 149.3-149.3v-256c0-82.1-67.2-149.3-149.3-149.3-82.1 0-149.3 67.2-149.3 149.3v256c0 82.1 67.2 149.3 149.3 149.3z" fill="#868A91" p-id="13222"></path></svg>