<?xml version="1.0" standalone="no"?><!DOCTYPE svg PUBLIC "-//W3C//DTD SVG 1.1//EN" "http://www.w3.org/Graphics/SVG/1.1/DTD/svg11.dtd"><svg t="1591787948959" class="icon" viewBox="0 0 1024 1024" version="1.1" xmlns="http://www.w3.org/2000/svg" p-id="2679" data-spm-anchor-id="a313x.7781069.0.i4" xmlns:xlink="http://www.w3.org/1999/xlink" width="50" height="50"><defs><style type="text/css"></style></defs><path d="M513 65.8C266 65.8 65.7 266 65.7 512.9c0 247 200.3 447.2 447.3 447.2s447.3-200.2 447.3-447.2C960.4 266 760.2 65.8 513 65.8z m186.7 557.4c-5.3 4.9-12.1 7.5-19.2 7.5s-14-2.6-19.2-7.5L540.1 508.6v234.6c0 13.8-12.1 25.1-27 25.1-14.8 0-27-11.3-27-25.1V508.5L364.7 623.2c-5.3 4.9-12.1 7.5-19.2 7.5-7.1 0.1-14-2.6-19.3-7.5-4.9-4.6-7.7-10.9-7.7-17.6 0-6.6 2.8-12.9 7.7-17.6l167.5-158.2c5.3-4.9 12.1-7.5 19.2-7.5 7.2 0 14 2.6 19.2 7.5l167.5 158.1c5 4.7 7.7 11 7.7 17.6s-2.5 12.9-7.6 17.7zM687 385.4H339.1c-16 0-29.1-12.2-29.1-27.2s13-27 29.1-27H687c16 0 29 12.2 29 27 0.1 15.1-13 27.2-29 27.2z m0 0" fill="#409EFF" p-id="2680" data-spm-anchor-id="a313x.7781069.0.i0" class=""></path></svg>