<?xml version="1.0" standalone="no"?><!DOCTYPE svg PUBLIC "-//W3C//DTD SVG 1.1//EN" "http://www.w3.org/Graphics/SVG/1.1/DTD/svg11.dtd"><svg t="1611048984591" class="icon" viewBox="0 0 1024 1024" version="1.1" xmlns="http://www.w3.org/2000/svg" p-id="12531" xmlns:xlink="http://www.w3.org/1999/xlink" width="64" height="64"><defs><style type="text/css"></style></defs><path d="M196.923077 55.689846l445.597538 445.597539L196.923077 946.884923l445.597538-445.597538L196.923077 55.689846z m389.907692 445.597539L169.038769 83.495385A39.384615 39.384615 0 0 1 224.768 27.844923l445.597538 445.597539a39.384615 39.384615 0 0 1 0 55.689846L224.768 974.729846a39.384615 39.384615 0 0 1-55.689846-55.689846l417.713231-417.752615z m229.533539 501.287384a39.384615 39.384615 0 0 1-39.384616-39.384615v-866.461539a39.384615 39.384615 0 1 1 78.769231 0v866.461539a39.384615 39.384615 0 0 1-39.384615 39.384615z" fill="#409EFF" p-id="12532"></path></svg>