<?xml version="1.0" encoding="utf-8"?>
<!-- Generator: Adobe Illustrator 22.0.0, SVG Export Plug-In . SVG Version: 6.00 Build 0)  -->
<svg version="1.1" id="图层_1" xmlns="http://www.w3.org/2000/svg" xmlns:xlink="http://www.w3.org/1999/xlink" x="0px" y="0px"
	 viewBox="0 0 39 39" style="enable-background:new 0 0 39 39;" xml:space="preserve">
<style type="text/css">
	.st0{fill:#ffffff;}
</style>
<path class="st0" d="M19.5,0.4C11,0.4,4,7.3,4,15.9S11,31.3,19.5,31.3s15.4-6.9,15.4-15.4C34.9,7.3,28,0.4,19.5,0.4z M11.2,7.1
	c0-1,0.8-1.8,1.8-1.8s1.8,0.8,1.8,1.8S14,8.9,13,8.9S11.2,8.1,11.2,7.1z M19.5,22.3c-3.6,0-6.5-2.9-6.5-6.5c0-3.6,2.9-6.5,6.5-6.5
	c3.6,0,6.5,2.9,6.5,6.5S23.1,22.3,19.5,22.3z"/>
<path class="st0" d="M31,29.6c-2.8,3.2-6.9,5.2-11.5,5.2c-4.5,0-8.6-1.9-11.4-5l-2.8,6.5c-0.5,1.2,0.5,2.3,2.3,2.3h24
	c1.8,0,2.9-1.1,2.3-2.3C33.9,36.3,31,29.6,31,29.6z"/>
</svg>
