<?xml version="1.0" encoding="utf-8"?>
<!-- Generator: Adobe Illustrator 22.0.0, SVG Export Plug-In . SVG Version: 6.00 Build 0)  -->
<svg version="1.1" id="图层_1" xmlns="http://www.w3.org/2000/svg" xmlns:xlink="http://www.w3.org/1999/xlink" x="0px" y="0px"
	 viewBox="0 0 54.1 43.8" style="enable-background:new 0 0 54.1 43.8;" xml:space="preserve">
<path d="M11.9,10.2v23.4H4.1c-2.2,0-3.9-1.8-3.9-3.9V14.1c0-2.1,1.7-3.9,3.9-3.9L11.9,10.2L11.9,10.2z M24.4,0.8
	c1.7-1.3,3.1-0.6,3.1,1.6v39c0,2.2-1.4,2.9-3.1,1.6l-12.5-9.4V10.2L24.4,0.8z M46.4,40.6c10.3-10.3,10.3-27,0-37.3
	c-1.1-1.1-3-1.1-4.1,0c-1.1,1.1-1.1,3,0,4.1c8,8,8,21,0,29c-1.1,1.1-1.1,3,0,4.1C43.4,41.7,45.3,41.7,46.4,40.6L46.4,40.6z
	 M38.1,32.3c5.7-5.7,5.7-15,0-20.7c-1.1-1.1-3-1.1-4.1,0c-1.1,1.1-1.1,3,0,4.1c3.4,3.4,3.4,9,0,12.4c-1.1,1.1-1.1,3,0,4.1
	C35.1,33.4,37,33.4,38.1,32.3L38.1,32.3z" fill="#fff"/>
</svg>
