<?xml version="1.0" standalone="no"?><!DOCTYPE svg PUBLIC "-//W3C//DTD SVG 1.1//EN" "http://www.w3.org/Graphics/SVG/1.1/DTD/svg11.dtd"><svg t="1614241946348" class="icon" viewBox="0 0 1024 1024" version="1.1" xmlns="http://www.w3.org/2000/svg" p-id="9176" width="32" height="32" xmlns:xlink="http://www.w3.org/1999/xlink"><defs><style type="text/css"></style></defs><path d="M850.432 830.464V269.312c0-18.944-15.36-34.304-34.304-34.304H691.2c-18.944 0-34.304 15.36-34.304 34.304v163.328H304.128l-113.664 113.664v284.672h-34.304v45.568h728.064v-45.568l-33.792-0.512z m-455.168-50.688h-102.4v-87.04h102.4v87.04z m0-169.472h-102.4v-87.04h102.4v87.04z m171.008 169.472h-102.4v-87.04h102.4v87.04z m0-169.472h-102.4v-87.04h102.4v87.04z m181.76 169.472h-102.4v-87.04h102.4v87.04z m0-169.472h-102.4v-87.04h102.4v87.04z" p-id="9177" fill="#108ee9"></path></svg>