<?xml version="1.0" standalone="no"?><!DOCTYPE svg PUBLIC "-//W3C//DTD SVG 1.1//EN" "http://www.w3.org/Graphics/SVG/1.1/DTD/svg11.dtd"><svg t="1594192695583" class="icon" viewBox="0 0 1024 1024" version="1.1" xmlns="http://www.w3.org/2000/svg" p-id="5089" xmlns:xlink="http://www.w3.org/1999/xlink" width="50" height="50"><defs><style type="text/css"></style></defs><path d="M561.536 792.768H462.464V561.536H231.232V462.464h231.232V231.232h99.072v231.232h231.232v99.072H561.536v231.232zM512 99.072a412.864 412.864 0 1 0 0 825.792A412.864 412.864 0 0 0 512 99.072zM512 1024a512 512 0 0 1-512-512 512 512 0 0 1 512-512 512 512 0 0 1 512 512 512 512 0 0 1-512 512z" p-id="5090" fill="#ffffff"></path></svg>