<?xml version="1.0" standalone="no"?><!DOCTYPE svg PUBLIC "-//W3C//DTD SVG 1.1//EN" "http://www.w3.org/Graphics/SVG/1.1/DTD/svg11.dtd"><svg t="1585554941781" class="icon" viewBox="0 0 1024 1024" version="1.1" xmlns="http://www.w3.org/2000/svg" p-id="11441" xmlns:xlink="http://www.w3.org/1999/xlink" width="64" height="64"><defs><style type="text/css"></style></defs><path d="M926.182495 594.714459L547.198418 968.386871a55.29251 55.29251 0 0 1-77.435112 0 53.564619 53.564619 0 0 1 0-76.411177l378.856085-373.736408a55.29251 55.29251 0 0 1 77.563104 0 53.756607 53.756607 0 0 1 0 76.475173zM831.21249 401.254671a39.549503 39.549503 0 0 1-39.805488-39.037536V208.434843l-131.831678-129.9118H111.641913v866.953274h238.768927a39.485507 39.485507 0 0 1 39.549504 39.293519 39.485507 39.485507 0 0 1-39.549504 39.229524H71.772429a40.125467 40.125467 0 0 1-28.094226-11.519273 39.037536 39.037536 0 0 1-11.647265-27.710251V39.229524A39.037536 39.037536 0 0 1 43.678203 11.519273 40.125467 40.125467 0 0 1 71.836425 0h604.313853c10.495337 0 20.606699 4.095741 28.158223 11.455277l155.062211 152.886349a39.037536 39.037536 0 0 1 11.583269 27.774247V362.217135a39.485507 39.485507 0 0 1-39.741491 39.037536zM196.820536 594.778455c0-21.566639 17.662885-39.037536 39.549503-39.229524H395.527992c21.758626 0 39.421512 17.470897 39.6135 39.229524a39.485507 39.485507 0 0 1-39.6135 39.293519H236.370039a39.549503 39.549503 0 0 1-39.549503-39.293519zM196.692544 280.942266c0-21.566639 17.790877-39.101532 39.677495-39.229524h318.315906a39.485507 39.485507 0 0 1 39.6135 39.229524 39.485507 39.485507 0 0 1-39.6135 39.229523H236.370039a39.549503 39.549503 0 0 1-39.677495-39.229523zM395.527992 477.089884H236.370039a39.549503 39.549503 0 0 1-39.805487-39.229524c0-21.694631 17.790877-39.29352 39.805487-39.29352H395.527992c21.950614 0 39.741491 17.598889 39.741492 39.29352a39.485507 39.485507 0 0 1-39.741492 39.229524z" fill="#0080e5" p-id="11442"></path></svg>