<?xml version="1.0" standalone="no"?><!DOCTYPE svg PUBLIC "-//W3C//DTD SVG 1.1//EN" "http://www.w3.org/Graphics/SVG/1.1/DTD/svg11.dtd"><svg t="1619682187504" class="icon" viewBox="0 0 1024 1024" version="1.1" xmlns="http://www.w3.org/2000/svg" p-id="2090" xmlns:xlink="http://www.w3.org/1999/xlink" width="50" height="50"><defs><style type="text/css"></style></defs><path d="M464.62 617.65H288.05a32 32 0 0 1 0-64h176.57a32 32 0 0 1 0 64zM599.1 425.7h-311a32 32 0 0 1 0-64h311a32 32 0 0 1 0 64z" p-id="2091" fill="#0080E5"></path><path d="M685.71 907.29h-524.3a64.07 64.07 0 0 1-64-64V171.66a64.07 64.07 0 0 1 64-64h160.11a32 32 0 0 1 0 64H161.41v671.63h524.3a32 32 0 0 1 0 64zM769.55 282.46a32 32 0 0 1-32-32v-78.8h-160a32 32 0 0 1 0-64h160a64.07 64.07 0 0 1 64 64v78.8a32 32 0 0 1-32 32z" p-id="2092" fill="#0080E5"></path><path d="M769.55 732.48a32 32 0 0 0-32 32v78.81h-160a32 32 0 0 0 0 64h160a64.07 64.07 0 0 0 64-64v-78.81a32 32 0 0 0-32-32zM577.53 43.7h-256a32 32 0 0 0-32 32v128a32 32 0 0 0 32 32h256a32 32 0 0 0 32-32v-128a32 32 0 0 0-32-32z m-32 128h-192v-64h192zM579.45 764a23 23 0 0 0 22.44 1.65l115-54.39a22.69 22.69 0 0 0 9.23-8L924 407.05a22.83 22.83 0 0 0-6.19-31.69h-0.06l-108.86-72.72a22.81 22.81 0 0 0-31.67 6.17l-0.06 0.08-197.87 296.3-0.19 0.3a23.15 23.15 0 0 0-3.62 11.14l-6.16 127.31A22.92 22.92 0 0 0 579.45 764z m222.9-411.34L874 400.47l-34.85 52.17-71.63-47.8z m-182 272.5l122-182.7L814 490.28 692 673l-75.7 35.74z" p-id="2093" fill="#0080E5"></path></svg>