<?xml version="1.0" standalone="no"?><!DOCTYPE svg PUBLIC "-//W3C//DTD SVG 1.1//EN" "http://www.w3.org/Graphics/SVG/1.1/DTD/svg11.dtd"><svg t="1594193259859" class="icon" viewBox="0 0 1024 1024" version="1.1" xmlns="http://www.w3.org/2000/svg" p-id="10405" xmlns:xlink="http://www.w3.org/1999/xlink" width="50" height="50"><defs><style type="text/css"></style></defs><path d="M902.19 584.39c-30.84 0-55.81 24.98-55.81 55.81v173.62c0 17.09-13.9 31.01-31.01 31.01H207.65c-17.12 0-31.02-13.92-31.02-31.01V640.2c0-30.82-24.96-55.81-55.81-55.81S65 609.37 65 640.2v173.62c0 78.65 63.99 142.64 142.64 142.64h607.72c78.64 0 142.63-63.99 142.63-142.64V640.2c0.01-30.83-24.95-55.81-55.8-55.81z m-430.54 94.86c8.92 9.1 20.92 15.16 34.33 16.48 0.09 0.01 0.18 0.01 0.26 0.02 0.82 0.08 1.64 0.14 2.47 0.18 0.93 0.05 1.86 0.07 2.8 0.07 0.94 0 1.87-0.02 2.8-0.07 0.78-0.04 1.56-0.1 2.34-0.17l0.4-0.03c13.34-1.31 25.28-7.31 34.18-16.33L768 462.6c21.81-21.81 21.81-57.15 0-78.92-21.8-21.8-57.11-21.8-78.92 0L567.32 505.45V119.27c0-30.82-24.96-55.81-55.81-55.81s-55.81 24.99-55.81 55.81v386.19L333.93 383.67c-21.8-21.8-57.12-21.8-78.92 0-21.8 21.77-21.8 57.11 0 78.92l216.64 216.66z" fill="#ffffff" p-id="10406"></path></svg>