<?xml version="1.0" standalone="no"?><!DOCTYPE svg PUBLIC "-//W3C//DTD SVG 1.1//EN" "http://www.w3.org/Graphics/SVG/1.1/DTD/svg11.dtd"><svg t="1585554484528" class="icon" viewBox="0 0 1024 1024" version="1.1" xmlns="http://www.w3.org/2000/svg" p-id="5955" width="64" height="64" xmlns:xlink="http://www.w3.org/1999/xlink"><defs><style type="text/css"></style></defs><path d="M564.562738 511.72189l151.291689-151.291689a37.266703 37.266703 0 1 0-52.284628-52.284628L511.72189 459.437262 360.98642 308.701793a37.266703 37.266703 0 0 0-52.284627 52.284627L459.437262 511.72189l-150.735469 151.29169a37.266703 37.266703 0 0 0 52.284627 52.284627l150.73547-150.735469 151.29169 151.291689a37.266703 37.266703 0 0 0 52.284627-52.284628z" p-id="5956" fill="#0080e5"></path><path d="M511.72189 0a511.72189 511.72189 0 1 0 511.721891 511.72189A511.72189 511.72189 0 0 0 511.72189 0z m0 952.803911a441.082021 441.082021 0 1 1 441.082021-441.082021 441.082021 441.082021 0 0 1-441.082021 441.082021z" p-id="5957" fill="#0080e5"></path></svg>