<?xml version="1.0" standalone="no"?><!DOCTYPE svg PUBLIC "-//W3C//DTD SVG 1.1//EN" "http://www.w3.org/Graphics/SVG/1.1/DTD/svg11.dtd"><svg t="1587432062281" class="icon" viewBox="0 0 1024 1024" version="1.1" xmlns="http://www.w3.org/2000/svg" p-id="21973" xmlns:xlink="http://www.w3.org/1999/xlink" width="50" height="50"><defs><style type="text/css"></style></defs><path d="M512.4 959.6c-246.9 0-447.7-200.8-447.7-447.7C64.7 265 265.5 64.2 512.4 64.2c246.9 0 447.7 200.8 447.7 447.7 0 246.9-200.8 447.7-447.7 447.7z m0-825.4c-208.3 0-377.8 169.5-377.8 377.8s169.5 377.8 377.8 377.8S890.2 720.3 890.2 512 720.7 134.2 512.4 134.2z" p-id="21974" fill="#d81e06"></path><path d="M759.7 759.3c-20.5 20.5-53.7 20.5-74.2 0L265.1 338.8c-20.5-20.5-20.5-53.7 0-74.2s53.7-20.5 74.2 0l420.5 420.5c20.4 20.4 20.4 53.7-0.1 74.2z" p-id="21975" fill="#d81e06"></path></svg>