<?xml version="1.0" standalone="no"?><!DOCTYPE svg PUBLIC "-//W3C//DTD SVG 1.1//EN" "http://www.w3.org/Graphics/SVG/1.1/DTD/svg11.dtd"><svg t="1587433487112" class="icon" viewBox="0 0 1118 1024" version="1.1" xmlns="http://www.w3.org/2000/svg" p-id="66189" xmlns:xlink="http://www.w3.org/1999/xlink" width="54.58984375" height="50"><defs><style type="text/css"></style></defs><path d="M559.267132 425.117774a34.167053 34.167053 0 0 1-34.126426-34.126427V296.5749a296.5749 296.5749 0 0 1 593.149799 0v94.37582a34.167053 34.167053 0 1 1-68.293481 0V296.615526a228.281419 228.281419 0 0 0-456.562838 0v94.335194a34.167053 34.167053 0 0 1-34.126427 34.167054z" fill="#188ce7" p-id="66190"></path><path d="M809.608849 365.315273H109.163939A109.285819 109.285819 0 0 0 0 474.438586v440.393412a109.285819 109.285819 0 0 0 109.163939 109.163939h700.44491a109.285819 109.285819 0 0 0 109.163939-109.123312v-440.393412a109.285819 109.285819 0 0 0-109.163939-109.16394z m40.789205 549.516725a40.870459 40.870459 0 0 1-40.789205 40.829832H109.163939a40.870459 40.870459 0 0 1-40.829832-40.829832v-440.393412a40.870459 40.870459 0 0 1 40.829832-40.829832h700.44491a40.870459 40.870459 0 0 1 40.789205 40.829832z" fill="#188ce7" p-id="66191"></path><path d="M459.366081 537.084955a157.50971 157.50971 0 1 0 157.550337 157.550337 157.712844 157.712844 0 0 0-157.550337-157.50971z m0 246.766567a89.175603 89.175603 0 1 1 89.21623-89.175603 89.297483 89.297483 0 0 1-89.21623 89.175603z" fill="#188ce7" p-id="66192"></path></svg>