<?xml version="1.0" encoding="utf-8"?>
<!-- Generator: Adobe Illustrator 18.1.1, SVG Export Plug-In . SVG Version: 6.00 Build 0)  -->
<svg version="1.1" id="图层_1" xmlns="http://www.w3.org/2000/svg" xmlns:xlink="http://www.w3.org/1999/xlink" x="0px" y="0px"
	 viewBox="0 0 14 14" enable-background="new 0 0 14 14" xml:space="preserve">
<g>
	<g>
		<path fill="#0080E5" d="M10,1.8c0.6,0,1.1,0.5,1.1,1.1S10.7,4,10,4S8.9,3.5,8.9,2.9S9.4,1.8,10,1.8 M10,0.6c-1.3,0-2.3,1-2.3,2.3
			s1,2.3,2.3,2.3s2.3-1,2.3-2.3S11.3,0.6,10,0.6L10,0.6z"/>
		<g>
			<path fill="#0080E5" d="M11.6,9.9c0.7,0,1.2,0.5,1.2,1.2c0,0.7-0.5,1.2-1.2,1.2c-0.7,0-1.2-0.5-1.2-1.2S10.9,9.9,11.6,9.9
				 M11.6,8.9c-1.3,0-2.3,1-2.3,2.3s1,2.3,2.3,2.3s2.3-1,2.3-2.3S12.9,8.9,11.6,8.9L11.6,8.9z"/>
		</g>
		<path fill="#0080E5" d="M3,5.9c1,0,1.8,0.8,1.8,1.8S4,9.4,3,9.4S1.2,8.6,1.2,7.6C1.2,6.7,2,5.9,3,5.9 M3,4.7
			C1.4,4.7,0.1,6,0.1,7.6s1.3,2.9,2.9,2.9s2.9-1.3,2.9-2.9S4.6,4.7,3,4.7L3,4.7z"/>
		<polygon fill="#0080E5" points="8.2,3.2 8.1,3.3 8.1,3.3 8.1,3.3 4.4,5.8 5.1,6.8 8.8,4.2 		"/>
	</g>
	<polygon fill="#0080E5" points="10.3,10.5 4.8,7.9 4.3,8.9 9.8,11.5 	"/>
</g>
</svg>
