<?xml version="1.0" standalone="no"?><!DOCTYPE svg PUBLIC "-//W3C//DTD SVG 1.1//EN" "http://www.w3.org/Graphics/SVG/1.1/DTD/svg11.dtd"><svg t="1636017514642" class="icon" viewBox="0 0 1024 1024" version="1.1" xmlns="http://www.w3.org/2000/svg" p-id="2034" xmlns:xlink="http://www.w3.org/1999/xlink" width="50" height="50"><defs><style type="text/css"></style></defs><path d="M373.39591111 520.6016a240.87893333 240.87893333 0 0 0-71.2704-23.52924445c78.50666667-17.36248889 137.50044445-87.51786667 137.5232-171.20142222 0-96.71111111-78.62044445-175.43395555-175.34293333-175.46808888h-0.06826667a175.44533333 175.44533333 0 0 0-37.96764444 346.71502222 240.58311111 240.58311111 0 0 0-70.95182222 23.41546666c-32.8704 16.78222222-62.29333333 40.68693333-87.46097778 71.0656-50.87004445 61.44-78.90488889 142.71146667-78.92764445 228.9664a28.44444445 28.44444445 0 0 0 28.44444445 28.44444445 28.44444445 28.44444445 0 0 0 28.44444444-28.44444445c0-148.71893333 98.04231111-269.65333333 218.45333334-269.65333333h0.06826666c57.32124445 0 111.50222222 27.40906667 152.63288889 77.09582222 42.3936 51.2 65.72942222 119.7056 65.69528889 192.75093333a28.44444445 28.44444445 0 0 0 28.44444444 28.44444445 28.44444445 28.44444445 0 0 0 28.44444445-28.44444445c0-86.26631111-27.93244445-167.60604445-78.7456-229.03466666-25.14488889-30.37866667-54.55644445-54.31751111-87.41546667-71.12248889z m-227.66933333-194.84444445a118.64746667 118.64746667 0 0 1 118.51093333-118.4768 118.52231111 118.52231111 0 0 1 0 237.04462223 118.65884445 118.65884445 0 0 1-118.51093333-118.56782223zM882.16462222 425.91573333v-87.02862222A131.98222222 131.98222222 0 0 0 750.36444445 207.07555555H555.52a28.44444445 28.44444445 0 0 0 0 56.8888889H750.36444445a74.99093333 74.99093333 0 0 1 74.91128888 74.91128888v87.01724445H566.79537778a28.44444445 28.44444445 0 0 0 0 56.88888889H880.64a97.67822222 97.67822222 0 0 1 97.57582222 97.57582222v121.0368h-97.84888889c-13.47128889-65.01262222-71.19075555-114.03946667-140.15146666-114.03946667A143.13244445 143.13244445 0 1 0 880.64 758.28337778h125.98613333a28.44444445 28.44444445 0 0 0 28.44444445-28.44444445V580.36906667c0-84.66204445-68.44871111-153.61137778-152.90595556-154.45333334zM740.18133333 816.71964445A86.24355555 86.24355555 0 1 1 826.41351111 730.45333333a86.33457778 86.33457778 0 0 1-86.23217778 86.26631112z" fill="#0080e5" p-id="2035"></path></svg>