<?xml version="1.0" standalone="no"?><!DOCTYPE svg PUBLIC "-//W3C//DTD SVG 1.1//EN" "http://www.w3.org/Graphics/SVG/1.1/DTD/svg11.dtd"><svg t="1585558212159" class="icon" viewBox="0 0 1088 1024" version="1.1" xmlns="http://www.w3.org/2000/svg" p-id="5007" xmlns:xlink="http://www.w3.org/1999/xlink" width="68" height="64"><defs><style type="text/css"></style></defs><path d="M204.416 253.632L577.984 10.368A50.752 50.752 0 0 1 658.944 57.6v848.576a50.752 50.752 0 0 1-83.2 45.44l-372.608-241.28v-0.192H50.752A50.624 50.624 0 0 1 0 659.52V304.192a50.56 50.56 0 0 1 50.752-50.56H202.88a32.64 32.64 0 0 1 1.536 0z m726.464 241.472l112.576 112.512a36.736 36.736 0 0 1-51.904 51.904l-112.576-112.512-112.512 112.512a36.736 36.736 0 0 1-51.904-51.904l112.512-112.512-112.512-112.512a36.736 36.736 0 0 1 51.904-51.904l112.512 112.512 112.576-112.512a36.736 36.736 0 0 1 51.904 51.904l-112.576 112.512z" p-id="5008" fill="#fff"></path></svg>