<?xml version="1.0" standalone="no"?><!DOCTYPE svg PUBLIC "-//W3C//DTD SVG 1.1//EN" "http://www.w3.org/Graphics/SVG/1.1/DTD/svg11.dtd"><svg t="1585555834209" class="icon" viewBox="0 0 1024 1024" version="1.1" xmlns="http://www.w3.org/2000/svg" p-id="13244" xmlns:xlink="http://www.w3.org/1999/xlink" width="64" height="64"><defs><style type="text/css"></style></defs><path d="M81.5 373.875c8.013-22.11 24.07-30.325 47.102-29.641 31.605 0.94 63.265 0.488 94.892 0.003 5.685-0.088 12.093-2.023 16.867-5.113 89.598-58.007 178.979-116.348 268.452-174.546 23.658-15.389 52.279-4.192 58.469 22.776 0.677 2.953 0.854 6.075 0.854 9.118 0.036 210.995 0.029 421.99 0.032 632.987 0 15.423-6.162 27.604-19.984 34.714-13.629 7.011-26.911 5.502-39.957-2.985-90.754-59.043-181.624-117.904-272.58-176.636-3.073-1.983-7.438-2.729-11.211-2.754-31.939-0.211-63.902-0.829-95.815 0.116-23.043 0.681-39.056-7.6-47.12-29.643L81.5 373.875zM724.945 943.572c-21.482-9.955-28.312-28.338-16.431-44.72 2.126-2.932 5.071-5.305 7.794-7.761 86.328-77.847 141.846-173.432 161.597-288.14 26.563-154.271-10.608-292.645-109.471-414.006-14.875-18.26-31.95-34.896-49.191-51.016-23.095-21.591-22.393-38.96 3.858-55.357h14.749c5.051 3.34 10.857 5.934 15.025 10.147 21.135 21.364 43.362 41.899 62.431 65.013 67.116 81.359 107.736 174.694 121.865 279.363 1.963 14.546 3.561 29.141 5.328 43.712v64.529c-0.573 3.293-1.297 6.568-1.692 9.881-2.107 17.652-3.256 35.47-6.33 52.948-18.958 107.791-65.114 202.467-138.889 283.354-17.471 19.155-34.581 39.051-57.738 52.052l-12.905 0.001z" p-id="13245" fill="#ffffff"></path><path d="M737.759 512.833c-1.858-64.041-23.99-119.295-67.084-166.284-11.765-12.829-11.721-30.077-0.018-41.1 11.656-10.976 29.072-9.998 40.925 2.735 6.892 7.404 13.459 15.151 19.676 23.131 88.535 113.629 80.252 281.894-18.916 386.053-16.154 16.966-40.86 13.376-48.578-7.317-4.242-11.371-1.491-21.517 6.83-30.453 30.778-33.047 51.604-71.468 60.412-115.86 3.323-16.756 4.562-33.925 6.753-50.905z" p-id="13246" fill="#ffffff"></path></svg>