<?xml version="1.0" encoding="utf-8"?>
<!-- Generator: Adobe Illustrator 25.0.0, SVG Export Plug-In . SVG Version: 6.00 Build 0)  -->
<svg version="1.1" id="图层_1" xmlns="http://www.w3.org/2000/svg" xmlns:xlink="http://www.w3.org/1999/xlink" x="0px" y="0px"
	 viewBox="0 0 12.3 12.4" style="enable-background:new 0 0 12.3 12.4;" xml:space="preserve">
<style type="text/css">
	.st0{display:none;fill:#FC5A3C;}
	.st1{fill:#0CB027;}
	.st2{fill:#FFFFFF;}
</style>
<g>
	<path class="st1" d="M7.5,2.9C7.2,2,6.5,1.2,5.2,1.2C2.3,1.2,1.9,5,4.1,6C4.6,4.4,5.9,3.2,7.5,2.9z"/>
	<path class="st1" d="M3.8,7.9C3.7,7.8,3.6,7.6,3.5,7.5c-2.9,0.4-3,1.2-3.3,3.8h5.8C4.8,10.5,4,9.3,3.8,7.9z"/>
	<path class="st1" d="M8.3,11.2c-2.1,0-3.8-1.7-3.8-3.8c0-2.1,1.7-3.8,3.8-3.8s3.8,1.7,3.8,3.8C12.2,9.5,10.4,11.2,8.3,11.2z"/>
	<path class="st2" d="M9,7.6c0.3-0.2,1-0.5,1-1.4S9.3,4.7,8.6,4.5C7.9,4.4,7.3,4.5,6.8,5C6.4,5.4,6.3,5.8,6.3,6.7h1V6.5
		c0-0.5,0-0.9,0.7-1.1c0.4-0.1,0.7,0,0.9,0.2s0.2,0.7-0.1,1L8.1,6.9C7.8,7.2,7.7,7.4,7.7,7.7v1.1h1V8.1C8.6,7.9,8.8,7.7,9,7.6L9,7.6
		L9,7.6L9,7.6L9,7.6z M8.8,9.8c0,0.3-0.3,0.6-0.6,0.6c-0.3,0-0.6-0.3-0.6-0.6s0.3-0.6,0.6-0.6C8.5,9.2,8.8,9.4,8.8,9.8z"/>
</g>
</svg>
