<?xml version="1.0" encoding="utf-8"?>
<!-- Generator: Adobe Illustrator 18.1.1, SVG Export Plug-In . SVG Version: 6.00 Build 0)  -->
<svg version="1.1" id="图层_1" xmlns="http://www.w3.org/2000/svg" xmlns:xlink="http://www.w3.org/1999/xlink" x="0px" y="0px"
	 viewBox="0 0 50 50" enable-background="new 0 0 50 50" xml:space="preserve">
<path display="none" fill="#FC5A3C" d="M1564.6,1389.3c0,1714.1,1372.3,3200.9,3200.9,3200.9s3200.9-1372.3,3200.9-3200.9
	c0-1714.1-1372.3-3200.9-3200.9-3200.9S1564.6-439.3,1564.6,1389.3z M6252.3,1389.3c114.5,914.3-570.8,1601.3-1486.8,1714.1
	c-914.3,114.5-1601.3-570.8-1714.1-1486.8c0-114.5,0-114.5,0-229c-114.5-914.2,570.8-1601.2,1486.8-1714
	c914.3-114.5,1601.3,570.8,1714.1,1486.8C6252.3,1160.3,6252.3,1274.8,6252.3,1389.3z M3736.7,1389.3c0,570.8,458,914.3,914.3,914.3
	c570.8,0,914.3-458,914.3-914.3c0-570.8-458-914.3-914.3-914.3C4194.7,360.5,3736.7,816.8,3736.7,1389.3z M8653.3,3103.4
	c114.5-114.5,0-229-114.5-343.5h-114.5c-229,0-343.5,114.5-458,343.5C6937.6,4932,4651,5504.5,2822.4,4475.7
	c-570.8-343.5-1028.8-799.8-1372.3-1372.3c-114.5-114.5-229-343.5-458-343.5c-114.5,0-229,114.5-229,229v114.5
	c458,1028.8,1372.3,1714.1,2401.1,2172.1H1677.4c-229,0-458,229-458,458l0,0v456.3c0,229,229,458,458,458l0,0h5716.4
	c229,0,458-229,458-458l0,0v-458c0-229-229-458-458-458l0,0H6021.6C7281.1,4933.7,8080.9,4132.2,8653.3,3103.4z M535.8,3217.9
	l-229-343.5c-114.5-114.5-114.5-229-114.5-343.5l0,0c0-114.5,0-229,114.5-343.5c0-114.5,114.5-114.5,114.5-229
	c114.5-114.5,343.5-229,570.8-229l0,0c-114.5-229-114.5-570.8-114.5-799.8c0-343.5,0-570.8,114.5-914.3H77.9
	c-1257.8,0-2515.6-229-3658.9-458c343.5-914.3,685.3-1828.6,1028.8-2742.9c114.5-229,343.5-343.5,458-343.5
	c458-114.5,914.3-229,1486.8-229c1486.8,0,2857.4,114.5,4344.2,114.5c570.8,0,1028.8,343.5,1143.3,799.8v229l114.5,343.5H5338
	c229,0,570.8,0,799.8,114.5v-114.5l-114.5-229l0,0l-114.5-229l-229-685.3c-114.5-458-570.8-914.3-1028.8-1028.8
	c-685.3-229-1372.3-343.5-2057.6-458c-1028.8-114.5-1943.1-114.5-2971.9,0c-343.5,114.5-799.8,114.5-1143.3,229
	c-1028.8,114.5-1828.6,799.8-2057.6,1714.1c-229,685.3-458,1257.8-685.3,1943.1c0,114.5-229,343.5-343.5,343.5
	C-5293.5-786.2-5637-328.2-5751.5,242.6c0,114.5,0,229,0,343.5l685.3,229v4573.1c0,229,114.5,570.8,229,799.8
	c799.8,114.5,1486.8,114.5,2286.6,0c114.5-114.5,229-914.3,343.5-1372.3H993.8c114.5-229,229-458,570.8-570.8
	C1108.3,4017.7,764.8,3675.9,535.8,3217.9z M-1750.7,2418.1c-114.5,114.5-229,343.5-458,343.5s-458,114.5-685.3,114.5
	c-343.5,0-685.3-114.5-1028.8-114.5c-458-114.5-570.8-458-458-1028.8c114.5-458,458-458,685.3-343.5
	c570.8,229,1143.3,458,1714.1,685.3C-1863.5,2074.6-1636.2,2303.6-1750.7,2418.1L-1750.7,2418.1z"/>
<path display="none" fill="#FC5A3C" d="M1564.6,1389.3c0,1714.1,1372.3,3200.9,3200.9,3200.9s3200.9-1372.3,3200.9-3200.9
	c0-1714.1-1372.3-3200.9-3200.9-3200.9S1564.6-439.3,1564.6,1389.3z M6252.3,1389.3c114.5,914.3-570.8,1601.3-1486.8,1714.1
	c-914.3,114.5-1601.3-570.8-1714.1-1486.8c0-114.5,0-114.5,0-229c-114.5-914.2,570.8-1601.2,1486.8-1714
	c914.3-114.5,1601.3,570.8,1714.1,1486.8C6252.3,1160.3,6252.3,1274.8,6252.3,1389.3z M3736.7,1389.3c0,570.8,458,914.3,914.3,914.3
	c570.8,0,914.3-458,914.3-914.3c0-570.8-458-914.3-914.3-914.3C4194.7,360.5,3736.7,816.8,3736.7,1389.3z M8653.3,3103.4
	c114.5-114.5,0-229-114.5-343.5h-114.5c-229,0-343.5,114.5-458,343.5C6937.6,4932,4651,5504.5,2822.4,4475.7
	c-570.8-343.5-1028.8-799.8-1372.3-1372.3c-114.5-114.5-229-343.5-458-343.5c-114.5,0-229,114.5-229,229v114.5
	c458,1028.8,1372.3,1714.1,2401.1,2172.1H1677.4c-229,0-458,229-458,458l0,0v456.3c0,229,229,458,458,458l0,0h5716.4
	c229,0,458-229,458-458l0,0v-458c0-229-229-458-458-458l0,0H6021.6C7281.1,4933.7,8080.9,4132.2,8653.3,3103.4z"/>
<path display="none" fill="#FC5A3C" d="M4880,4933.7c1828.6,0,3315.4-1486.8,3315.4-3429.9S6710.3-1926,4880-1926
	S1564.6-439.3,1564.6,1503.8S3051.4,4933.7,4880,4933.7z M4880-1240.7c1486.8,0,2742.9,1257.8,2742.9,2857.4S6365.1,4474,4880,4474
	S2137.1,3217.9,2137.1,1618.3C2251.6,17,3394.9-1240.7,4880-1240.7z M7624.6,4246.7c-114.5-114.5-343.5,0-343.5,114.5
	s0,343.5,114.5,343.5c229,114.5,229,229,229,229c0,229-1028.8,685.3-2742.9,685.3s-2742.9-458-2742.9-570.8c0,0,0-114.5,229-229
	c114.5-114.5,229-229,114.5-343.5c-114.5-229-229-229-343.5-229c-458,229-570.8,570.8-570.8,799.8
	c0,799.8,1714.1,1257.8,3315.4,1257.8s3315.4-343.5,3315.4-1257.8C8195.4,4819.2,8080.9,4475.7,7624.6,4246.7L7624.6,4246.7z
	 M4880,3103.4c914.3,0,1601.3-685.3,1601.3-1601.3S5796-99.1,4880-99.1c-914.3,0-1601.3,685.3-1601.3,1601.3
	S3965.7,3103.4,4880,3103.4L4880,3103.4z M4309.2,246c343.5,0,685.3,343.5,685.3,685.3c0,343.5-343.5,685.3-685.3,685.3l0,0
	c-343.5,0-685.3-343.5-685.3-685.3C3736.7,475,3965.7,246,4309.2,246z"/>
<g>
	<path fill="#555555" d="M22.5,22l-0.6-0.9c-0.3-0.3-0.3-0.6-0.3-0.9l0,0c0-0.3,0-0.6,0.3-0.9c0-0.3,0.3-0.3,0.3-0.6
		c0.3-0.3,0.9-0.6,1.5-0.6l0,0c-0.3-0.6-0.3-1.5-0.3-2.1c0-0.9,0-1.5,0.3-2.4h-2.4c-3.4,0-6.7-0.6-9.8-1.2c0.9-2.4,1.8-4.9,2.8-7.3
		c0.3-0.6,0.9-0.9,1.2-0.9c1.2-0.3,2.4-0.6,4-0.6c4,0,7.7,0.3,11.6,0.3c1.5,0,2.8,0.9,3.1,2.1v0.6l0.3,0.9h0.9c0.6,0,1.5,0,2.1,0.3
		V7.5l-0.3-0.6l0,0l-0.3-0.6l-0.6-1.8c-0.3-1.2-1.5-2.4-2.8-2.8c-1.8-0.6-3.7-0.9-5.5-1.2c-2.8-0.3-5.2-0.3-8,0
		c-0.9,0.3-2.1,0.3-3.1,0.6c-2.8,0.3-4.9,2.1-5.5,4.6c-0.6,1.8-1.2,3.4-1.8,5.2c0,0.3-0.6,0.9-0.9,0.9c-1.8-0.3-2.8,0.9-3.1,2.4
		c0,0.3,0,0.6,0,0.9l1.8,0.6v12.2c0,0.6,0.3,1.5,0.6,2.1c2.1,0.3,4,0.3,6.1,0c0.3-0.3,0.6-2.4,0.9-3.7h8.6c0.3-0.6,0.6-1.2,1.5-1.5
		C24,24.2,23.1,23.2,22.5,22z M16.4,19.9c-0.3,0.3-0.6,0.9-1.2,0.9c-0.6,0-1.2,0.3-1.8,0.3c-0.9,0-1.8-0.3-2.8-0.3
		c-1.2-0.3-1.5-1.2-1.2-2.8c0.3-1.2,1.2-1.2,1.8-0.9c1.5,0.6,3.1,1.2,4.6,1.8C16.1,18.9,16.7,19.6,16.4,19.9L16.4,19.9z"/>
	<path fill="#555555" d="M41.8,17.1c0-2.1-0.9-4.3-2.4-6.1c-1.5-1.5-4-2.4-6.1-2.4c-2.4,0-4.6,0.9-6.1,2.4c-1.8,1.8-2.4,4-2.4,6.1
		s0.9,4.3,2.4,6.1c1.5,1.5,4,2.4,6.1,2.4c2.4,0,4.6-0.9,6.1-2.4C40.8,21.7,41.8,19.6,41.8,17.1z M37.2,21.4c-0.9,0.9-2.4,1.5-4,1.5
		c-1.5-0.3-2.8-0.9-4-1.8c-0.9-1.2-1.5-2.4-1.5-4c0-1.5,0.6-2.8,1.5-4c0.9-0.9,2.4-1.5,4-1.5s3.1,0.6,4,1.8c0.9,0.9,1.5,2.4,1.5,4
		C38.7,18.9,38.1,20.2,37.2,21.4z"/>
	<path fill="#555555" d="M33.2,13.2c-1,0-2.1,0.3-3.1,1c-0.7,1-1,2.1-1,3.1s0.3,2.1,1.4,3.1c0.7,0.7,1.7,1,2.8,1s2.1-0.3,3.1-1
		c1.7-1.7,1.7-4.1,0-5.8C35.3,13.9,34.2,13.2,33.2,13.2z"/>
	<path fill="#555555" d="M35,29.8c0.2,0.2,0.4,0.5,0.6,0.8h4.7v-1.2c0-0.6-0.3-1.2-1.2-1.5l-3.7-0.6v-1.5h-0.7c-0.3,0-0.9,0-1.5,0
		c-0.3,0-1.2,0-1.5,0h-0.6v1.5l-3.7,0.6c-0.4,0-0.8,0.3-1,0.7h5.7C33.2,28.5,34.2,29,35,29.8z"/>
	<path fill="#555555" d="M45.8,29.5c-0.8,0-1.6,0.3-2.1,0.9l-8.8,8.9h-7.2c-0.5,0-1-0.3-1.3-0.7s-0.3-1,0-1.5s0.8-0.7,1.3-0.8h4
		c1.6,0,3.1-1.2,3.2-2.9c0-0.8-0.3-1.6-0.8-2.2c0,0-0.1,0-0.1-0.1c-0.6-0.5-1.3-0.9-2.1-0.9h-6.6h-7.9c-0.8,0-1.5,0.3-2.1,0.9l0,0
		l-2.5,2.7c-0.6,0.6-1.3,1-2.2,1.2l-7.8,1.4c-1.1,0.2-1.8,1.2-1.6,2.3c0,0.2,0.1,0.4,0.2,0.5L6,48.7c0.3,0.6,0.8,1,1.4,1.1
		c0.1,0,0.3,0,0.4,0c0.5,0,0.9-0.2,1.3-0.5l4-3.6c0.4-0.3,0.8-0.5,1.3-0.5h21.4c0,0,0,0,0.1,0s0.1,0,0.2,0c0.8,0,1.5-0.3,2.1-0.9
		l9.7-9.8c0.6-0.6,0.9-1.3,0.9-2.1C48.8,30.8,47.4,29.5,45.8,29.5z"/>
</g>
</svg>
