<?xml version="1.0" encoding="utf-8"?>
<!-- Generator: Adobe Illustrator 18.1.1, SVG Export Plug-In . SVG Version: 6.00 Build 0)  -->
<svg version="1.1" id="图层_1" xmlns="http://www.w3.org/2000/svg" xmlns:xlink="http://www.w3.org/1999/xlink" x="0px" y="0px"
	 viewBox="0 0 50 50" enable-background="new 0 0 50 50" xml:space="preserve">
<path display="none" fill="#FC5A3C" d="M619,454.9C619,556.7,700.5,645,809.1,645s190.1-81.5,190.1-190.1
	c0-101.8-81.5-190.1-190.1-190.1S619,346.3,619,454.9z M897.4,454.9c6.8,54.3-33.9,95.1-88.3,101.8c-54.3,6.8-95.1-33.9-101.8-88.3
	c0-6.8,0-6.8,0-13.6c-6.8-54.3,33.9-95.1,88.3-101.8c54.4-6.7,95.1,33.9,101.8,88.3C897.4,441.3,897.4,448.1,897.4,454.9z
	 M748,454.9c0,33.9,27.2,54.3,54.3,54.3c33.9,0,54.3-27.2,54.3-54.3c0-33.9-27.2-54.3-54.3-54.3C775.2,393.8,748,420.9,748,454.9z
	 M1040,556.7c6.8-6.8,0-13.6-6.8-20.4h-6.8c-13.6,0-20.4,6.8-27.2,20.4c-61.1,108.6-196.9,142.6-305.5,81.5
	c-33.9-20.4-61.1-47.5-81.5-81.5c-6.8-6.8-13.6-20.4-27.2-20.4c-6.8,0-13.6,6.8-13.6,13.6v6.8c27.2,61.1,81.5,101.8,142.6,129h-88.3
	c-13.6,0-27.2,13.6-27.2,27.2l0,0V740c0,13.6,13.6,27.2,27.2,27.2l0,0h339.5c13.6,0,27.2-13.6,27.2-27.2l0,0v-27.2
	c0-13.6-13.6-27.2-27.2-27.2l0,0h-81.5C958.5,665.4,1006,617.8,1040,556.7z M557.9,563.5l-13.6-20.4c-6.8-6.8-6.8-13.6-6.8-20.4l0,0
	c0-6.8,0-13.6,6.8-20.4c0-6.8,6.8-6.8,6.8-13.6c6.8-6.8,20.4-13.6,33.9-13.6l0,0c-6.8-13.6-6.8-33.9-6.8-47.5
	c0-20.4,0-33.9,6.8-54.3h-54.3c-74.7,0-149.4-13.6-217.3-27.2c20.4-54.3,40.7-108.6,61.1-162.9c6.8-13.6,20.4-20.4,27.2-20.4
	c27.2-6.8,54.3-13.6,88.3-13.6c88.3,0,169.7,6.8,258,6.8c33.9,0,61.1,20.4,67.9,47.5v13.6l6.8,20.4h20.4c13.6,0,33.9,0,47.5,6.8
	v-6.8l-6.8-13.6l0,0l-6.8-13.6l-13.6-40.7c-6.8-27.2-33.9-54.3-61.1-61.1c-40.7-13.6-81.5-20.4-122.2-27.2
	c-61.1-6.8-115.4-6.8-176.5,0c-20.4,6.8-47.5,6.8-67.9,13.6c-61.1,6.8-108.6,47.5-122.2,101.8c-13.6,40.7-27.2,74.7-40.7,115.4
	c0,6.8-13.6,20.4-20.4,20.4c-40.7-6.8-61.1,20.4-67.9,54.3c0,6.8,0,13.6,0,20.4l40.7,13.6v271.6c0,13.6,6.8,33.9,13.6,47.5
	c47.5,6.8,88.3,6.8,135.8,0c6.8-6.8,13.6-54.3,20.4-81.5h190.1c6.8-13.6,13.6-27.2,33.9-33.9C591.9,611,571.5,590.7,557.9,563.5z
	 M422.1,516c-6.8,6.8-13.6,20.4-27.2,20.4s-27.2,6.8-40.7,6.8c-20.4,0-40.7-6.8-61.1-6.8c-27.2-6.8-33.9-27.2-27.2-61.1
	c6.8-27.2,27.2-27.2,40.7-20.4c33.9,13.6,67.9,27.2,101.8,40.7C415.4,495.6,428.9,509.2,422.1,516L422.1,516z"/>
<path display="none" fill="#FC5A3C" d="M619,454.9C619,556.7,700.5,645,809.1,645s190.1-81.5,190.1-190.1
	c0-101.8-81.5-190.1-190.1-190.1S619,346.3,619,454.9z M897.4,454.9c6.8,54.3-33.9,95.1-88.3,101.8c-54.3,6.8-95.1-33.9-101.8-88.3
	c0-6.8,0-6.8,0-13.6c-6.8-54.3,33.9-95.1,88.3-101.8c54.4-6.7,95.1,33.9,101.8,88.3C897.4,441.3,897.4,448.1,897.4,454.9z
	 M748,454.9c0,33.9,27.2,54.3,54.3,54.3c33.9,0,54.3-27.2,54.3-54.3c0-33.9-27.2-54.3-54.3-54.3C775.2,393.8,748,420.9,748,454.9z
	 M1040,556.7c6.8-6.8,0-13.6-6.8-20.4h-6.8c-13.6,0-20.4,6.8-27.2,20.4c-61.1,108.6-196.9,142.6-305.5,81.5
	c-33.9-20.4-61.1-47.5-81.5-81.5c-6.8-6.8-13.6-20.4-27.2-20.4c-6.8,0-13.6,6.8-13.6,13.6v6.8c27.2,61.1,81.5,101.8,142.6,129h-88.3
	c-13.6,0-27.2,13.6-27.2,27.2l0,0V740c0,13.6,13.6,27.2,27.2,27.2l0,0h339.5c13.6,0,27.2-13.6,27.2-27.2l0,0v-27.2
	c0-13.6-13.6-27.2-27.2-27.2l0,0h-81.5C958.5,665.4,1006,617.8,1040,556.7z"/>
<path display="none" fill="#FC5A3C" d="M815.9,665.4c108.6,0,196.9-88.3,196.9-203.7S924.6,258,815.9,258S619,346.3,619,461.7
	S707.3,665.4,815.9,665.4z M815.9,298.7c88.3,0,162.9,74.7,162.9,169.7s-74.7,169.7-162.9,169.7S653,563.5,653,468.5
	C659.8,373.4,727.7,298.7,815.9,298.7z M978.9,624.6c-6.8-6.8-20.4,0-20.4,6.8s0,20.4,6.8,20.4c13.6,6.8,13.6,13.6,13.6,13.6
	c0,13.6-61.1,40.7-162.9,40.7s-162.9-27.2-162.9-33.9c0,0,0-6.8,13.6-13.6c6.8-6.8,13.6-13.6,6.8-20.4
	c-6.8-13.6-13.6-13.6-20.4-13.6c-27.2,13.6-33.9,33.9-33.9,47.5c0,47.5,101.8,74.7,196.9,74.7s196.9-20.4,196.9-74.7
	C1012.8,658.6,1006,638.2,978.9,624.6L978.9,624.6z M815.9,556.7c54.3,0,95.1-40.7,95.1-95.1s-40.7-95.1-95.1-95.1
	c-54.3,0-95.1,40.7-95.1,95.1S761.6,556.7,815.9,556.7L815.9,556.7z M782,387c20.4,0,40.7,20.4,40.7,40.7
	c0,20.4-20.4,40.7-40.7,40.7l0,0c-20.4,0-40.7-20.4-40.7-40.7C748,400.6,761.6,387,782,387z"/>
<g>
	<path fill="none" d="M36.2,6.9c-1.6-0.7-3.4-1.2-5.2-1.2c-4.9,0-9.3,3-11.4,7.1c1.3,0.2,2.6,0.3,4,0.3H26c-0.3,0.9-0.3,1.5-0.3,2.4
		c0,0.6,0,1.5,0.3,2.1c-0.6,0-1.2,0.3-1.5,0.6c0,0.3-0.3,0.3-0.3,0.6c-0.3,0.3-0.3,0.6-0.3,0.9s0,0.6,0.3,0.9l0.6,0.9
		c0.6,1.2,1.5,2.1,2.7,2.7c-0.9,0.3-1.2,0.9-1.5,1.5h-5.5c2.3,3.4,6.2,5.6,10.5,5.6c6.9,0,12.7-5.8,12.7-12.7
		c0-4.8-2.8-9.1-6.9-11.3h-0.5L36.2,6.9z"/>
	<path fill="none" d="M18.9,19.4c0.3-0.3-0.3-0.9-0.6-0.9l0,0l0,0c0,0.5,0,1,0.1,1.5C18.5,19.8,18.7,19.6,18.9,19.4z"/>
	<path fill="none" d="M31,5.2c1.8,0,3.5,0.4,5,1V5.8c-0.3-1.2-1.5-2.1-3-2.1c-3.8,0-7.4-0.3-11.2-0.3c-1.5,0-2.7,0.3-3.8,0.6
		c-0.3,0-0.9,0.3-1.2,0.9C15.9,7.3,15,9.6,14.1,12c1.6,0.3,3.2,0.6,4.9,0.8C21.2,8.4,25.8,5.2,31,5.2z"/>
	<path fill="none" d="M17.7,18.3c-1.3-0.5-2.6-1-3.9-1.6c-0.6-0.3-1.5-0.3-1.8,0.9c-0.3,1.5,0,2.4,1.2,2.7c0.9,0,1.8,0.3,2.7,0.3
		c0.6,0,1.2-0.3,1.8-0.3c0.1,0,0.1,0,0.1,0c-0.1-0.6-0.1-1.1-0.1-1.7C17.7,18.4,17.7,18.4,17.7,18.3z"/>
	<path fill="#0CB027" d="M17.7,20.3c-0.6,0-1.2,0.3-1.8,0.3c-0.9,0-1.8-0.3-2.7-0.3C12,20,11.7,19.1,12,17.6
		c0.3-1.2,1.2-1.2,1.8-0.9c1.3,0.5,2.6,1,3.9,1.6c0-1.9,0.5-3.8,1.3-5.4c-1.7-0.2-3.3-0.5-4.9-0.8C15,9.7,15.9,7.4,16.8,5
		c0.3-0.6,0.9-0.9,1.2-0.9c1.2-0.3,2.4-0.6,3.8-0.6c3.8,0,7.4,0.3,11.2,0.3c1.5,0,2.7,0.9,3,2.1v0.4c0.7,0.3,1.3,0.6,2,1.1
		c0.4,0,0.9,0.1,1.3,0.3V7.4L39,6.8l-0.3-0.7l-0.6-1.8c-0.3-1.2-1.5-2.4-2.7-2.7c-1.8-0.6-3.6-0.9-5.3-1.2c-2.7-0.3-5-0.3-7.7,0
		c-0.9,0.3-2.1,0.3-3,0.6c-2.7,0.3-4.7,2.1-5.3,4.4c-0.6,1.8-1.2,3.3-1.8,5c0,0.3-0.6,0.9-0.9,0.9c-1.8-0.3-2.7,0.9-3,2.4
		c0,0.3,0,0.6,0,0.9l1.8,0.6v11.9c0,0.6,0.3,1.5,0.6,2.1c2.1,0.3,3.8,0.3,5.9,0c0.3-0.3,0.6-2.4,0.9-3.6h2.2c-1-1.6-1.7-3.4-2-5.4
		C17.8,20.3,17.7,20.3,17.7,20.3z"/>
	<path fill="#0CB027" d="M27.4,24.1c-1.2-0.6-2.1-1.5-2.7-2.7l-0.6-0.9c-0.3-0.3-0.3-0.6-0.3-0.9s0-0.6,0.3-0.9
		c0-0.3,0.3-0.3,0.3-0.6c0.3-0.3,0.9-0.6,1.5-0.6c-0.3-0.6-0.3-1.5-0.3-2.1c0-0.9,0-1.5,0.3-2.4h-2.4c-1.3,0-2.7-0.1-4-0.3
		c-0.9,1.7-1.4,3.6-1.4,5.6l0,0c0.3,0,0.9,0.6,0.6,0.9c-0.2,0.2-0.3,0.4-0.5,0.6c0.2,2.1,1,4,2.1,5.6h5.5
		C26.3,25,26.6,24.4,27.4,24.1z"/>
	<path fill="#0CB027" d="M36.3,7.3h0.5c-0.2-0.1-0.4-0.2-0.6-0.3L36.3,7.3z"/>
	<path fill="#FFFFFF" d="M31,5.8c1.9,0,3.6,0.4,5.2,1.2L36,6.4V6.3c-1.6-0.7-3.3-1-5-1c-5.2,0-9.8,3.2-12,7.6c0.2,0,0.4,0,0.6,0.1
		C21.7,8.7,26.1,5.8,31,5.8z"/>
	<path fill="#FFFFFF" d="M18.3,18.5c-0.2-0.1-0.4-0.1-0.6-0.2c0,0.1,0,0.1,0,0.2c0,0.6,0.1,1.2,0.1,1.7c0.2,0,0.4-0.1,0.5-0.3
		C18.3,19.5,18.3,19,18.3,18.5L18.3,18.5z"/>
	<path fill="#FFFFFF" d="M18.3,20c-0.1,0.1-0.3,0.2-0.5,0.3c0.3,1.9,1,3.8,2,5.4h0.7C19.4,24,18.6,22,18.3,20z"/>
	<path fill="#FFFFFF" d="M36,6.4L36.2,7c0.2,0.1,0.4,0.2,0.6,0.3h0.3c0.2,0,0.5,0,0.8,0c-0.6-0.4-1.3-0.8-2-1.1L36,6.4L36,6.4z"/>
	<path fill="#FFFFFF" d="M19.6,12.9c-0.2,0-0.4,0-0.6-0.1c-0.8,1.7-1.3,3.5-1.3,5.4c0.2,0.1,0.4,0.1,0.6,0.2
		C18.3,16.5,18.8,14.6,19.6,12.9z"/>
	<path fill="#0CB027" d="M34.5,31c5.4-1.6,9.5-6.6,9.5-12.5c0-7.1-5.9-13-13-13s-13,5.9-13,13c0,4.8,2.7,9,6.6,11.3h7
		C32.6,29.8,33.7,30.2,34.5,31z"/>
	<path fill="#0CB027" d="M44.8,30.4c-0.8,0-1.5,0.3-2,0.8l-8.4,8.5h-6.8c-0.5,0-1-0.3-1.2-0.7c-0.2-0.4-0.2-1,0-1.4s0.7-0.7,1.2-0.7
		h3.8c1.6,0,3-1.2,3-2.7c0-0.8-0.2-1.5-0.8-2.1c-0.2-0.3-0.5-0.5-0.9-0.6c-0.4-0.2-0.8-0.3-1.2-0.3h-3.6H17.7c-0.7,0-1.5,0.3-2,0.8
		l0,0l-2.4,2.5c-0.6,0.6-1.3,1-2.1,1.1L3.8,37c-1,0.2-1.7,1.2-1.5,2.2c0,0.2,0.1,0.3,0.2,0.5l4.4,9.1c0.3,0.5,0.8,0.9,1.3,1
		c0.1,0,0.2,0,0.4,0c0.5,0,0.9-0.2,1.2-0.5l3.8-3.4c0.3-0.3,0.8-0.5,1.3-0.5h20.4c0,0,0,0,0.1,0c0,0,0.1,0,0.2,0
		c0.7,0,1.5-0.3,2-0.8l9.3-9.3c0.5-0.5,0.8-1.3,0.8-2C47.6,31.7,46.3,30.4,44.8,30.4z"/>
	<path fill="#FFFFFF" d="M33.1,19.1c0.9-0.6,3-1.5,3-4.1c0-2.7-2.1-4.4-4.1-5c-2.1-0.3-3.8,0-5.3,1.5c-1.2,1.2-1.5,2.4-1.5,5h3v-0.6
		c0-1.5,0-2.7,2.1-3.3c1.2-0.3,2.1,0,2.7,0.6c0.6,0.6,0.6,2.1-0.3,3l-2.1,0.9c-0.9,0.9-1.2,1.5-1.2,2.4v3.3h3v-2.1
		C31.9,20,32.5,19.4,33.1,19.1L33.1,19.1L33.1,19.1L33.1,19.1L33.1,19.1z M30.4,24.1c-0.9,0-1.5,0.6-1.5,1.5s0.6,1.5,1.5,1.5
		c0.9-0.3,1.5-0.9,1.5-1.8C31.9,24.7,31.3,24.1,30.4,24.1L30.4,24.1L30.4,24.1L30.4,24.1L30.4,24.1z"/>
</g>
</svg>
