<?xml version="1.0" standalone="no"?><!DOCTYPE svg PUBLIC "-//W3C//DTD SVG 1.1//EN" "http://www.w3.org/Graphics/SVG/1.1/DTD/svg11.dtd"><svg t="1573439994744" class="icon" viewBox="0 0 1024 1024" version="1.1" xmlns="http://www.w3.org/2000/svg" p-id="11224" xmlns:xlink="http://www.w3.org/1999/xlink" width="200" height="200"><defs><style type="text/css"></style></defs><path d="M512.3 66.2c-246.9 0-447.1 200.2-447.1 447s200.2 447 447.1 447 447-200.1 447-447-200.1-447-447-447z m-64.2 665.1c0 35-28.6 63.6-63.6 63.6s-63.6-28.6-63.6-63.6V294.6c0-35 28.6-63.6 63.6-63.6 17.5 0 33.4 7.2 44.9 18.7s18.7 27.4 18.7 44.9v436.7z m256 0c0 35-28.6 63.6-63.6 63.6s-63.6-28.6-63.6-63.6V294.6c0-35 28.6-63.6 63.6-63.6 17.5 0 33.4 7.2 44.9 18.7s18.7 27.4 18.7 44.9v436.7z" fill="#29ABE2" p-id="11225"></path></svg>