<?xml version="1.0" standalone="no"?><!DOCTYPE svg PUBLIC "-//W3C//DTD SVG 1.1//EN" "http://www.w3.org/Graphics/SVG/1.1/DTD/svg11.dtd"><svg t="1573439955741" class="icon" viewBox="0 0 1024 1024" version="1.1" xmlns="http://www.w3.org/2000/svg" p-id="6714" xmlns:xlink="http://www.w3.org/1999/xlink" width="200" height="200"><defs><style type="text/css"></style></defs><path d="M451.5 449.2l94.6 54c6.8 3.9 6.8 13.7 0 17.6l-94.6 54c-6.7 3.9-15.1-1-15.1-8.8V458c0-7.8 8.4-12.7 15.1-8.8z m-52.2 242.7l275.6-157.5c17.4-9.9 17.4-35 0-44.9L399.3 332.1c-17.2-9.8-38.7 2.6-38.7 22.5v315c0 19.7 21.4 32.2 38.7 22.3z" fill="#29CCB6" p-id="6715"></path><path d="M891 208.9v606.2H133.3V208.9H891m0-101H133.3c-55.8 0-101 45.2-101 101v606.2c0 55.8 45.2 101 101 101H891c55.8 0 101-45.2 101-101V208.9c0-55.8-45.2-101-101-101z" fill="#4585F5" p-id="6716"></path></svg>