<?xml version="1.0" standalone="no"?><!DOCTYPE svg PUBLIC "-//W3C//DTD SVG 1.1//EN" "http://www.w3.org/Graphics/SVG/1.1/DTD/svg11.dtd"><svg t="1572943298951" class="icon" viewBox="0 0 1024 1024" version="1.1" xmlns="http://www.w3.org/2000/svg" p-id="1654" xmlns:xlink="http://www.w3.org/1999/xlink" width="200" height="200"><defs><style type="text/css"></style></defs><path d="M952 72v880H72V72h880m0-72H72C32.2 0 0 32.2 0 72v952h952c39.8 0 72-32.2 72-72V72c0-39.8-32.2-72-72-72z" p-id="1655" fill="#ffffff"></path><path d="M67.5 146h889v36h-889zM259.7 656.6l-12 14.6-134.1-120.9 132.8-122.2 13.3 13.3-119.5 108.9 119.5 106.3zM921.7 550.3L787.6 671.2l-12-14.6 119.5-106.3-119.5-108.9 13.3-13.3 132.8 122.2z" p-id="1656" fill="#ffffff"></path><path d="M789 112m-18 0a18 18 0 1 0 36 0 18 18 0 1 0-36 0Z" p-id="1657" fill="#ffffff"></path><path d="M846 112m-18 0a18 18 0 1 0 36 0 18 18 0 1 0-36 0Z" p-id="1658" fill="#ffffff"></path><path d="M900 112m-18 0a18 18 0 1 0 36 0 18 18 0 1 0-36 0Z" p-id="1659" fill="#ffffff"></path><path d="M457 745h500v36H457zM249 871h708v36H249zM512 807h445v36H512z" p-id="1660" fill="#ffffff"></path><path d="M736.5 430.7v47.5c-47-2.9-102.4-4.4-184.7-4.9v151.9c0 29.9-21.1 47.5-93.1 48.5-0.5-14.2-4.9-28.4-16.7-49.5 57.3 4.9 66.6-2.9 66.6-20.1V473.4c-85.8 0-143.6 1.5-191.6 4.9v-47.5c48.5 3.4 105.8 4.9 191.6 4.9V369c37.7-17.6 59.3-30.4 98.5-63.2h-172c-30.9 0-50.5 0.5-72.5 2v-43.1c48 2.5 78.4 3.4 164.2 3.4 104.4 0 140.6-1 164.2-3.4v42.6c-16.2 0.5-28.9 5.4-40.2 13.2l-99 70.6v44.6c82.3-0.6 137.7-2 184.7-5z" p-id="1661" fill="#ffffff"></path></svg>