<?xml version="1.0" standalone="no"?><!DOCTYPE svg PUBLIC "-//W3C//DTD SVG 1.1//EN" "http://www.w3.org/Graphics/SVG/1.1/DTD/svg11.dtd"><svg t="1590033986991" class="icon" viewBox="0 0 1024 1024" version="1.1" xmlns="http://www.w3.org/2000/svg" p-id="8695" xmlns:xlink="http://www.w3.org/1999/xlink" width="200" height="200"><defs><style type="text/css"></style></defs><path d="M727.285645 321.445172a36.064851 36.064851 0 0 0-19.296692-20.627497c-7.319435-3.936969-15.692424-5.988628-24.564466-4.436021-20.627498 3.382466-34.989116 23.17821-31.5512 44.36021 2.05166 11.755456 8.872042 21.681053 18.742189 27.614231 37.040775 39.425137 59.719933 92.102886 59.719933 150.270211 0 63.601451-27.115178 120.770672-70.421833 161.193914-7.818487 6.820382-13.308063 17.245032-13.308063 28.667786 0 20.627498 16.690529 37.539828 37.539827 37.539827 10.923702 0 20.128445-4.436021 27.115179-11.256403 7.319435-4.436021 12.809011-10.923702 16.191476-19.296691 47.243624-52.178697 76.410462-121.269724 76.410462-197.181134-0.166351-75.578708-29.166838-144.669735-76.576812-196.848433zM859.479071 183.983971c-6.487681-12.809011-19.296691-21.681053-34.434613-21.681052-21.12655 0-38.371582 17.245032-38.371582 38.371581 0 13.807115 7.319435 26.117074 18.742189 33.103807 64.655006 68.591975 104.911897 160.694861 104.911897 262.667894 0 113.783939-50.293388 216.422375-130.141767 285.846104-12.254508 6.487681-21.12655 19.296691-21.12655 33.935561 0 20.627498 16.690529 37.872529 37.87253 37.872529 12.254508 0 23.732712-5.988628 30.553094-15.359722 0.499052-0.499052 0.499052-0.998105 0.998105-0.998105 95.152651-83.230844 155.205285-204.999621 155.205285-341.462717 0.443602-121.103374-47.465425-230.617642-124.208588-312.29588zM454.193101 118.829913L264.885905 312.57313h-115.336547c-49.295283 0-73.527048 26.616126-73.527048 73.527049v245.422862c0 46.41187 25.063519 73.527048 73.527048 73.527048h115.281096l189.307197 193.743218c54.230357 51.014242 137.128499 28.335084 137.128499-56.448367V175.111929c0.05545-85.781556-83.840797-106.630855-137.073049-56.282016z m63.656902 686.030649" fill="#ffffff" p-id="8696"></path></svg>