<?xml version="1.0" standalone="no"?><!DOCTYPE svg PUBLIC "-//W3C//DTD SVG 1.1//EN" "http://www.w3.org/Graphics/SVG/1.1/DTD/svg11.dtd"><svg t="1573446579068" class="icon" viewBox="0 0 1024 1024" version="1.1" xmlns="http://www.w3.org/2000/svg" p-id="15342" xmlns:xlink="http://www.w3.org/1999/xlink" width="200" height="200"><defs><style type="text/css"></style></defs><path d="M95.41 48.068c-3.918 0.022-7.827 1.535-10.806 4.532s-4.467 6.916-4.465 10.834l0.139 318.495a5.119 5.119 0 0 0 8.732 3.626l107.657-107.189 144.341 143.73a15.31 15.31 0 0 0 10.838 4.476c4.23 0 8.06-1.71 10.838-4.476l97.988-97.565c2.794-2.781 4.523-6.631 4.523-10.884s-1.728-8.103-4.523-10.884l-144.26-143.636L421.052 54.94a5.117 5.117 0 0 0 1.113-5.597 5.116 5.116 0 0 0-4.756-3.152l-322 1.877zM95.531 941.94a15.31 15.31 0 0 1-10.884-4.49 15.31 15.31 0 0 1-4.509-10.876l0.138-321.176a5.119 5.119 0 0 1 8.733-3.625l107.656 107.2 144.34-143.741c2.777-2.766 6.608-4.476 10.838-4.476s8.061 1.71 10.838 4.476l97.99 97.575a15.314 15.314 0 0 1 4.522 10.886c0 4.252-1.729 8.102-4.522 10.884L316.41 828.214 421.152 932.5a5.12 5.12 0 0 1-3.6 8.75l-322.02 0.692zM960.71 48.068a15.312 15.312 0 0 1 10.805 4.532 15.31 15.31 0 0 1 4.464 10.834l-0.138 318.495a5.118 5.118 0 0 1-8.731 3.626L859.453 278.366 715.1 422.096c-2.778 2.767-6.608 4.477-10.838 4.477s-8.06-1.71-10.838-4.476l-97.976-97.564a15.307 15.307 0 0 1-4.522-10.884c0-4.252 1.728-8.103 4.522-10.884l144.26-143.638L635.067 54.94a5.119 5.119 0 1 1 3.643-8.748l322 1.876zM960.587 941.94a15.312 15.312 0 0 0 10.885-4.49 15.305 15.305 0 0 0 4.508-10.876l-0.139-321.176a5.117 5.117 0 0 0-3.156-4.726 5.115 5.115 0 0 0-5.575 1.1L859.453 708.974 715.1 565.232c-2.778-2.766-6.609-4.476-10.839-4.476s-8.06 1.71-10.838 4.477l-97.978 97.574a15.313 15.313 0 0 0-4.521 10.886c0 4.252 1.728 8.101 4.523 10.883l144.26 143.638L634.968 932.5a5.12 5.12 0 1 0 3.6 8.749l322.019 0.693z" fill="#909399" p-id="15343"></path></svg>