<?xml version="1.0" encoding="utf-8"?>
<!-- Generator: Adobe Illustrator 22.0.0, SVG Export Plug-In . SVG Version: 6.00 Build 0)  -->
<svg version="1.1" id="图层_1" xmlns="http://www.w3.org/2000/svg" xmlns:xlink="http://www.w3.org/1999/xlink" x="0px" y="0px"
	 viewBox="0 0 42.5 42.5" style="enable-background:new 0 0 42.5 42.5;" xml:space="preserve">
<style type="text/css">
	.st0{fill:#FFFFFF;}
</style>
<path class="st0" d="M20.7,16.2h-8.6V14h8.6c-0.4-1.1-0.8-2.3-1.4-3.4l2.2-0.6c0.6,1.4,1,2.7,1.4,3.9l-0.1,0h8.8v2.2H23v4.9h7.5v2.1
	H23V29h9.5v2.2H11.2V29h9.5v-5.8h-7.5v-2.1h7.5C20.7,21.1,20.7,16.2,20.7,16.2z M3.7,0h35c2.1,0,3.8,1.7,3.8,3.8v35
	c0,2.1-1.7,3.8-3.8,3.8h-35c-2.1,0-3.7-1.7-3.8-3.8v-35C0,1.7,1.6,0,3.7,0L3.7,0z M3.7,2.5C3,2.5,2.5,3.1,2.5,3.8l0,0v35
	C2.5,39.4,3,40,3.7,40h35c0.7,0,1.3-0.6,1.3-1.3v-35c0-0.7-0.6-1.2-1.3-1.3H3.7z"/>
</svg>
