<?xml version="1.0" encoding="utf-8"?>
<!-- Generator: Adobe Illustrator 22.0.0, SVG Export Plug-In . SVG Version: 6.00 Build 0)  -->
<svg version="1.1" id="图层_1" xmlns="http://www.w3.org/2000/svg" xmlns:xlink="http://www.w3.org/1999/xlink" x="0px" y="0px"
	 viewBox="0 0 42.5 42.5" style="enable-background:new 0 0 42.5 42.5;" xml:space="preserve">
<style type="text/css">
	.st0{fill:#909399;}
</style>
<path class="st0" d="M10.8,20.3h10.3v-3.2c2-1.1,3.9-2.5,5.7-4.1H13.5v-2.2h16.6V13c-1.9,1.9-4.1,3.6-6.5,5.3v2h9.3v2.3h-9.3v7.6
	c0,1.6-0.8,2.5-2.4,2.5h-4.4l-0.6-2.3c1.3,0,2.6,0.1,4.1,0.1c0.7,0,1-0.3,1-1v-6.9H10.8C10.8,22.7,10.8,20.3,10.8,20.3z M3.8,0h35
	c2.1,0,3.8,1.7,3.8,3.8v35c0,2.1-1.7,3.8-3.8,3.8h-35c-2.1,0-3.7-1.7-3.8-3.8v-35C0,1.7,1.7,0,3.8,0L3.8,0z M3.8,2.5
	C3.1,2.5,2.5,3,2.5,3.7l0,0v35c0,0.7,0.6,1.3,1.3,1.3h35c0.7,0,1.3-0.6,1.3-1.3v-35c0-0.7-0.6-1.2-1.3-1.3H3.8z"/>
</svg>
