<?xml version="1.0" standalone="no"?><!DOCTYPE svg PUBLIC "-//W3C//DTD SVG 1.1//EN" "http://www.w3.org/Graphics/SVG/1.1/DTD/svg11.dtd"><svg t="1573445262343" class="icon" viewBox="0 0 1151 1024" version="1.1" xmlns="http://www.w3.org/2000/svg" p-id="9623" xmlns:xlink="http://www.w3.org/1999/xlink" width="224.8046875" height="200"><defs><style type="text/css"></style></defs><path d="M604.034359 0.112529a40.578697 40.578697 0 0 0-32.735755 12.787405l-289.037964 255.066093h-203.191856a82.095136 82.095136 0 0 0-79.068784 81.285267v348.925642a82.095136 82.095136 0 0 0 79.068784 81.285267h206.005085l284.988619 231.238896a44.244419 44.244419 0 0 0 32.735756 12.787405 54.81534 54.81534 0 0 0 54.559592-53.238227v-916.430649a52.769356 52.769356 0 0 0-53.323477-53.707099z m205.877211 246.626406a39.257332 39.257332 0 0 0-54.559592 12.787405 41.686938 41.686938 0 0 0 12.275909 56.051456 223.992701 223.992701 0 0 1 96.800651 187.761721 218.877739 218.877739 0 0 1-91.344692 180.771274 41.047568 41.047568 0 0 0-9.547929 56.051456 38.362213 38.362213 0 0 0 32.735755 15.430135 77.790043 77.790043 0 0 0 24.551817-5.626458 309.199439 309.199439 0 0 0-10.911919-502.97124z" fill="#909399" p-id="9624"></path><path d="M977.597067 99.598535a37.935966 37.935966 0 0 0-54.516968 2.813229 40.536072 40.536072 0 0 0 2.72798 56.051456 465.887767 465.887767 0 0 1 148.632264 340.52858 457.831702 457.831702 0 0 1-139.084335 330.724902 43.647674 43.647674 0 0 0-2.72798 56.051456 35.804732 35.804732 0 0 0 54.559592 0 532.808517 532.808517 0 0 0 163.636152-389.589587 522.237596 522.237596 0 0 0-173.226705-396.580036z" fill="#ffffff" p-id="9625"></path><path d="M1060.003347 29.364133m30.140202 30.140201l0 0q30.140201 30.140201 0 60.280402l-874.065836 874.065836q-30.140201 30.140201-60.280403 0l0 0q-30.140201-30.140201 0-60.280402l874.065836-874.065836q30.140201-30.140201 60.280403 0Z" fill="#909399" p-id="9626"></path></svg>