<?xml version="1.0" standalone="no"?><!DOCTYPE svg PUBLIC "-//W3C//DTD SVG 1.1//EN" "http://www.w3.org/Graphics/SVG/1.1/DTD/svg11.dtd"><svg t="1573444385192" class="icon" viewBox="0 0 1024 1024" version="1.1" xmlns="http://www.w3.org/2000/svg" p-id="34950" xmlns:xlink="http://www.w3.org/1999/xlink" width="200" height="200"><defs><style type="text/css"></style></defs><path d="M916.21376 942.08H107.79136C48.256 942.08 0 893.94688 0 834.56V350.72c0-59.37664 48.256-107.52 107.79136-107.52h161.68448l53.89824-107.52C336.04608 112.0512 347.49952 81.92 377.26208 81.92h323.36384c29.76768 0 41.03168 28.84608 53.89824 53.76l53.89824 107.52h107.79136c59.53024 0 107.78624 48.14336 107.78624 107.52V834.56c0 59.38688-48.256 107.52-107.78624 107.52zM512.00512 296.96c-148.82816 0-269.47584 120.35072-269.47584 268.8S363.17696 834.56 512.00512 834.56s269.47584-120.35072 269.47584-268.8S660.82816 296.96 512.00512 296.96z m390.7328 53.76c-22.32832 0-40.41728 18.05312-40.41728 40.31488 0 22.272 18.0992 40.31488 40.41728 40.31488s40.41728-18.05312 40.41728-40.31488c0.00512-22.26176-18.09408-40.31488-40.41728-40.31488zM512.00512 727.04c-89.29792 0-161.68448-72.20736-161.68448-161.28S422.7072 404.48 512.00512 404.48s161.68448 72.20736 161.68448 161.28-72.3968 161.28-161.68448 161.28z" p-id="34951" fill="#ffffff"></path></svg>