<?xml version="1.0" standalone="no"?><!DOCTYPE svg PUBLIC "-//W3C//DTD SVG 1.1//EN" "http://www.w3.org/Graphics/SVG/1.1/DTD/svg11.dtd"><svg t="1600073325228" class="icon" viewBox="0 0 1024 1024" version="1.1" xmlns="http://www.w3.org/2000/svg" p-id="7218" xmlns:xlink="http://www.w3.org/1999/xlink" width="50" height="50"><defs><style type="text/css"></style></defs><path d="M768.08 174.08a446.64 446.64 0 0 1 79.92 72 474.24 474.24 0 0 1 60 87.36 432 432 0 0 1 37.92 99.36 441.6 441.6 0 0 1 12.96 106.56 432 432 0 0 1-35.52 174.48 451.68 451.68 0 0 1-237.84 237.84 432 432 0 0 1-173.52 36 429.6 429.6 0 0 1-173.52-35.52 463.44 463.44 0 0 1-142.32-96 445.68 445.68 0 0 1-96-141.84 448.08 448.08 0 0 1-22.56-278.4 464.16 464.16 0 0 1 35.52-96 428.4 428.4 0 0 1 56.4-86.88 484.32 484.32 0 0 1 76.08-72 61.92 61.92 0 0 1 48-12 62.88 62.88 0 0 1 41.52 24 59.76 59.76 0 0 1 12 48 62.88 62.88 0 0 1-24 42 310.56 310.56 0 0 0-96 113.04 317.76 317.76 0 0 0-33.6 144 312 312 0 0 0 24 124.32 320.16 320.16 0 0 0 68.4 102 328.32 328.32 0 0 0 102 68.88 316.8 316.8 0 0 0 248.88 0 324.48 324.48 0 0 0 170.88-170.88 307.68 307.68 0 0 0 25.44-124.32A316.08 316.08 0 0 0 796.16 392a312 312 0 0 0-101.04-114.48 60.48 60.48 0 0 1-26.4-41.04 63.12 63.12 0 0 1 10.56-48 61.2 61.2 0 0 1 41.04-25.44 62.88 62.88 0 0 1 48 10.56zM512 542.96a63.12 63.12 0 0 1-62.88-62.88V100.16A62.4 62.4 0 0 1 466.88 56 60 60 0 0 1 512 36.08a60.96 60.96 0 0 1 44.64 19.92 62.16 62.16 0 0 1 18.48 44.88v378.96a60.48 60.48 0 0 1-18.48 44.4 61.68 61.68 0 0 1-45.36 18.48z m0 0" fill="#fff" p-id="7219"></path></svg>