<?xml version="1.0" standalone="no"?><!DOCTYPE svg PUBLIC "-//W3C//DTD SVG 1.1//EN" "http://www.w3.org/Graphics/SVG/1.1/DTD/svg11.dtd"><svg t="1572926581439" class="icon" viewBox="0 0 1024 1024" version="1.1" xmlns="http://www.w3.org/2000/svg" p-id="13610" xmlns:xlink="http://www.w3.org/1999/xlink" width="200" height="200"><defs><style type="text/css"></style></defs><path d="M896.4 127.9v767.6H128V127.9h768.4m4-64H124c-33.1 0-60 26.9-60 60v775.6c0 33.1 26.9 60 60 60h776.3c33.1 0 60-26.9 60-60V123.9c0.1-33.1-26.8-60-59.9-60z" p-id="13611" fill="#f4ea2a"></path><path d="M735.9 769.1H288c-17.6 0-32-14.4-32-32V289.3c0-17.6 14.4-32 32-32h447.8c17.6 0 32 14.4 32 32v447.8c0.1 17.6-14.3 32-31.9 32z" p-id="13612" fill="#909399"></path></svg>