<?xml version="1.0" standalone="no"?><!DOCTYPE svg PUBLIC "-//W3C//DTD SVG 1.1//EN" "http://www.w3.org/Graphics/SVG/1.1/DTD/svg11.dtd"><svg t="1573445880663" class="icon" viewBox="0 0 1024 1024" version="1.1" xmlns="http://www.w3.org/2000/svg" p-id="14215" xmlns:xlink="http://www.w3.org/1999/xlink" width="200" height="200"><defs><style type="text/css"></style></defs><path d="M872.64824889 946.77333333H145.85059555c-80.27022222 0-145.35566222-65.06382222-145.35566222-145.35452444V619.71797333c0-20.06357333 16.2816-36.33265778 36.33265778-36.33265778h72.69148444c20.06357333 0 36.33152 16.26908445 36.33152 36.33265778v109.02414222c0 40.14307555 32.53589333 72.67783111 72.67783112 72.67783112h581.44199111c40.14193778 0 72.67783111-32.53475555 72.67783111-72.67783112v-109.02414222c0-20.06357333 16.26794667-36.33265778 36.34403556-36.33265778h72.67896888c20.06471111 0 36.33265778 16.26908445 36.33265778 36.33265778v181.70311112c0 80.28842667-65.07064889 145.35224889-145.35566222 145.35224888zM213.83281778 233.82471111c14.70122667-14.70008889 38.5536-14.70008889 53.25596444 0l169.49475556 169.49703111V37.42492445c0-20.06357333 16.27249778-36.34858667 36.33379555-36.34858667h72.67669334c20.06812445 0 36.34744889 16.28501333 36.34744888 36.34858667v365.89681777l169.49475556-169.49703111c14.70236445-14.70008889 38.54336-14.70008889 53.24458667 0l53.26392889 53.26848c14.70236445 14.70236445 14.70236445 38.54108445 0 53.25596444L557.80807111 640.48924445c-1.29706667 1.29479111-24.64881778 15.56935111-48.14506666 15.5795911-23.75338667 0.01137778-47.65013333-14.27000889-48.94833778-15.5795911L160.56547555 340.34915555c-14.70350222-14.71601778-14.70350222-38.5536 0-53.25596444l53.26734223-53.26848z" fill="#ffffff" p-id="14216"></path></svg>