<?xml version="1.0" standalone="no"?><!DOCTYPE svg PUBLIC "-//W3C//DTD SVG 1.1//EN" "http://www.w3.org/Graphics/SVG/1.1/DTD/svg11.dtd"><svg t="1572937313660" class="icon" viewBox="0 0 1024 1024" version="1.1" xmlns="http://www.w3.org/2000/svg" p-id="6371" xmlns:xlink="http://www.w3.org/1999/xlink" width="200" height="200"><defs><style type="text/css"></style></defs><path d="M333.44 522.88l-17.28 18.096-26.496-30.528v135.696h-24.192v-135.712c-7.68 22.624-18.816 44.864-33.408 66.736-0.768-1.52-1.536-4.528-2.304-9.056a343.968 343.968 0 0 0-5.76-24.88c16.896-21.856 30.72-51.264 41.472-88.208v-1.136H229.76v-22.608h35.712v-55.424h24.192v55.424h32.256v22.608h-32.256v45.248l9.216-9.056c11.52 10.56 23.04 21.488 34.56 32.8z m93.312-27.152v114.224c0.768 21.104-10.752 32.032-34.56 32.8h-33.408c0-3.568-1.04-10.528-3.104-20.864 1.616 5.472 1.488 4.896-0.352-1.76l0.352 1.76-1.504-5.152a282.08 282.08 0 0 0 28.8 1.136c12.288 0.752 18.048-4.528 17.28-15.84v-106.304h-73.728v-23.744h176.256v23.744h-76.032zM339.2 417.712v-22.624h150.912v22.624H339.2z m14.976 102.896l24.192 7.92c-16.128 34.672-30.72 63.696-43.776 87.072-3.072-1.504-8.448-3.392-16.128-5.648a122.032 122.032 0 0 1-8.064-3.392 755.872 755.872 0 0 0 43.776-85.952z m112.896 0c5.376 11.312 13.056 27.888 23.04 49.76 7.68 15.84 13.44 27.904 17.28 36.192l-24.192 7.92c-4.608-9.808-11.904-25.264-21.888-46.368a1397.6 1397.6 0 0 1-17.28-38.464l23.04-9.04z m312.192-13.568v102.912c0.768 21.872-11.136 32.8-35.712 32.8h-19.584c-10.752 0.752-18.432 1.136-23.04 1.136-0.768-6.784-3.072-14.336-6.912-22.624 9.216 0.752 22.272 1.136 39.168 1.136 14.592 0.752 21.504-4.16 20.736-14.704v-9.056h-118.656v46.368H609.92V507.04h169.344z m-144 74.64h118.656v-20.352h-118.656v20.352z m0-36.192h118.656v-20.352h-118.656v20.352z m71.424-74.64H800v18.096H592.64v-18.096h87.552v-19.232h-73.728v-16.96h73.728v-19.216h-80.64v-18.096h80.64v-21.488h26.496v21.488h87.552v18.096h-87.552v19.216h79.488v16.96h-79.488v19.232zM525.824 634.832c7.68-20.352 17.664-53.536 29.952-99.52 5.376 2.256 13.824 5.28 25.344 9.04-3.072 10.56-7.68 26.768-13.824 48.64-7.68 24.128-12.672 41.088-14.976 50.88l-26.496-9.04z m35.712-125.536a344.496 344.496 0 0 0-42.624-37.312l18.432-18.096 3.456 3.392a400.912 400.912 0 0 1 40.32 32.784l-19.584 19.232z m-31.104-111.952l18.432-16.96c14.592 11.312 28.8 23.744 42.624 37.312l-19.584 18.096a1429.12 1429.12 0 0 0-41.472-38.448zM880 752H144a16 16 0 0 1-16-16V288a16 16 0 0 1 16-16h736a16 16 0 0 1 16 16v448a16 16 0 0 1-16 16z m-720-32h704V304H160v416z" p-id="6372" fill="#ffffff"></path></svg>