<?xml version="1.0" standalone="no"?><!DOCTYPE svg PUBLIC "-//W3C//DTD SVG 1.1//EN" "http://www.w3.org/Graphics/SVG/1.1/DTD/svg11.dtd"><svg t="1630025596808" class="icon" viewBox="0 0 1024 1024" version="1.1" xmlns="http://www.w3.org/2000/svg" p-id="5843" xmlns:xlink="http://www.w3.org/1999/xlink" width="48" height="48"><defs><style type="text/css"></style></defs><path d="M932.26666668 533.33333333C938.66666668 526.93333333 938.66666668 514.13333333 938.66666668 501.33333333s0-25.6-6.4-32c-6.4-12.8-19.2-19.2-25.6-25.59999999L177.06666668 27.73333333c-19.2-12.8-44.8-12.8-64 0-12.8 6.4-12.8 12.8-19.2 25.6s-6.4 19.2-6.4 32l0 819.2c0 12.8 0 25.6 6.40000001 32 6.4 12.8 12.8 19.2 19.19999999 25.6 19.2 12.8 44.8 12.8 64 0L906.66666668 558.93333333C913.06666668 552.53333333 925.86666668 546.13333333 932.26666668 533.33333333z" fill="#c5c6c8" p-id="5844"></path></svg>