<svg id="图层_1" data-name="图层 1" xmlns="http://www.w3.org/2000/svg" viewBox="0 0 150.65 175.78"><defs><style>.cls-1{fill:#1fc89f;}</style></defs><path class="cls-1" d="M86.26,71.43V86.18h4.22q8.58,0,8.58-7.46,0-7.29-8.49-7.29ZM143,52.29V11.1a11,11,0,0,0-11-11H44.15a11,11,0,0,0-11,11V52.29H12.67V121h20.5V164.9a11,11,0,0,0,11,11h87.9a11,11,0,0,0,11-11V121h20.3V52.29Zm-11-38.45V52.29H44.16V13.84ZM109.3,78.34a13.81,13.81,0,0,1-5.15,11.25,18.83,18.83,0,0,1-12.88,4.06h-5v15.93H76.52V63.88H92.25q17.06,0,17,14.46ZM38.82,99.11l-3.37,10.47H24.89l16.73-45.7H53.07l16.4,45.7H58.85L55.43,99.11ZM88.1,170.4a5.5,5.5,0,1,1,5.49-5.5A5.5,5.5,0,0,1,88.1,170.4Zm44-16.48H44.15V121h87.9v33ZM142.6,89.59a18.85,18.85,0,0,1-12.88,4.06h-5v15.93H115V63.88h15.72q17.06,0,17.06,14.46a13.83,13.83,0,0,1-5.15,11.25ZM129,71.43H124.7V86.18h4.22q8.58,0,8.59-7.46Q137.51,71.43,129,71.43Zm-81.78.33H47a16.66,16.66,0,0,1-.8,3.86l-5.22,16H53.13l-5.2-15.84a17.42,17.42,0,0,1-.7-4Z" transform="translate(-12.67 -0.11)"/></svg>