<svg id="图层_1" data-name="图层 1" xmlns="http://www.w3.org/2000/svg" viewBox="0 0 172.4 172.39"><defs><style>.cls-1{fill:#1fc89f;}</style></defs><path class="cls-1" d="M163.45,54.59c3.66-8.29,7.2-20.36,7.2-29.58,0-24.49-26.81-33.15-70.58-13C63.84,9.57,29,36.81,20.25,74.79,30.64,63,46.6,47.08,61.33,40.73,43,57,27.45,77.57,15.62,99,8.64,111.79.8,132.43.8,147.84.8,181,32.07,177,61.51,162c10.56,5.18,22.4,5.25,34.22,5.25,32.71,0,62.05-18.27,73-49.16H128.05c-17.69,29.82-66.25,17.85-66.25-16H172.49C174.65,87.43,171.94,69.86,163.45,54.59Zm-140.91,63a78.48,78.48,0,0,0,33.75,41.53C26.42,175.59-2,168.9,22.53,117.59ZM61.6,80.93C62.27,62.37,78.51,49,96.6,49s34.36,13.38,35,31.94Zm62.13-63.16c7.2-3.45,16.32-7.4,24.41-7.4,10.57,0,18.28,7.31,18.28,18.09,0,6.73-2.49,16.49-4.91,22.84C152.67,37,139.29,23.84,123.73,17.77Z" transform="translate(-0.8 -0.81)"/></svg>