<svg id="图层_1" data-name="图层 1" xmlns="http://www.w3.org/2000/svg" viewBox="0 0 155.56 177.78"><defs><style>.cls-1{fill:#3d3e3e;}</style></defs><path class="cls-1" d="M89,57.89c16.67,0,30-13.33,30-28.89S105.67.11,89,.11,59,13.44,59,29,72.33,57.89,89,57.89Zm62.22,48.89C145.67,82.33,124.56,64.56,99,64.56H79c-25.56,0-46.67,17.77-52.22,42.22L89,112.33Z" transform="translate(-11.22 -0.11)"/><path class="cls-1" d="M99,170.11V124.56L152.33,119c-2.22,2.22-4.44,4.44-4.44,7.78v15.55c0,4.45,3.33,8.89,8.89,10v11.11L99,170.11Zm-14.44,0-57.78-5.55V152.33a10.08,10.08,0,0,0,3.33-7.77V129a10.1,10.1,0,0,0-3.33-7.78v-3.33l57.78,5.55v46.67Zm77.77-50v-8.89l-71.11,6.67-71.11-6.67v8.89c-5.55,0-8.89,4.45-8.89,10v14.45c0,5.55,4.45,8.88,8.89,10v15.55l71.11,7.78,71.11-6.67v-20c2.23-2.22,4.45-4.44,4.45-7.78V127.89C166.78,124.56,165.67,121.22,162.33,120.11Z" transform="translate(-11.22 -0.11)"/></svg>