<svg id="图层_1" data-name="图层 1" xmlns="http://www.w3.org/2000/svg" viewBox="0 0 176.4 176.4"><defs><style>.cls-1{fill:#3d3e3e;}</style></defs><path class="cls-1" d="M176.9,51.7,126.3,1.1a.91.91,0,0,0-.7-.3H17.2A16.47,16.47,0,0,0,.8,17.2V160.8a16.47,16.47,0,0,0,16.4,16.4H160.8a16.47,16.47,0,0,0,16.4-16.4V52.4a1.08,1.08,0,0,0-.3-.7ZM33,153.8a.94.94,0,0,1-1,1H17.5a.94.94,0,0,1-1-1V139.3a.94.94,0,0,1,1-1H32a.94.94,0,0,1,1,1Zm0-29.5a.94.94,0,0,1-1,1H17.5a.94.94,0,0,1-1-1V109.7a.94.94,0,0,1,1-1H32a1,1,0,0,1,1,1.1Zm0-29.6a.94.94,0,0,1-1,1H17.5a.94.94,0,0,1-1-1V80.2a.94.94,0,0,1,1-1H32a.94.94,0,0,1,1,1Zm0-29.6a.94.94,0,0,1-1,1H17.5a.94.94,0,0,1-1-1V50.6a.94.94,0,0,1,1-1H32a1,1,0,0,1,1,1Zm0-29.5a.94.94,0,0,1-1,1H17.5a.94.94,0,0,1-1-1V21.1a.94.94,0,0,1,1-1H32a.94.94,0,0,1,1,1Zm83.6,67.1-37,21.4a14.4,14.4,0,0,1-7.5,2.2c-5.6,0-11.2-4-11.2-13V70.6c0-9,5.6-13,11.2-13a15.23,15.23,0,0,1,7.5,2.1l37,21.4c4.5,2.6,7.1,6.6,7.1,10.8S121.1,100.1,116.6,102.7Zm41.7,51.1a.94.94,0,0,1-1,1H142.8a.94.94,0,0,1-1-1V139.3a.94.94,0,0,1,1-1h14.5a.94.94,0,0,1,1,1Zm0-29.5a.94.94,0,0,1-1,1H142.8a1,1,0,0,1-1-1V109.8a.94.94,0,0,1,1-1h14.5a.94.94,0,0,1,1,1Zm0-29.6a.94.94,0,0,1-1,1H142.8a.94.94,0,0,1-1-1V80.2a.94.94,0,0,1,1-1h14.5a.94.94,0,0,1,1,1ZM133,55.4a10,10,0,0,1-10-10V13.1l42.3,42.3Z" transform="translate(-0.8 -0.8)"/></svg>