<svg id="图层_1" data-name="图层 1" xmlns="http://www.w3.org/2000/svg" viewBox="0 0 272.4 200"><defs><style>.cls-1{fill:#3d3e3e;}</style></defs><path class="cls-1" d="M234.12.45,220.87,13.7a130.05,130.05,0,0,1,0,172.33l13.61,13.52C285.09,146.85,285,52.43,234.48,0ZM203.28,31.29,189.49,45a86,86,0,0,1,0,110.11l13.61,13.52a105.41,105.41,0,0,0,0-137.33ZM51.71,13.15,38.2.45c-50.89,52.43-51,146.85,0,199.55l13.6-13.51a130.09,130.09,0,0,1,0-172.34ZM69.85,31.29a105.05,105.05,0,0,0,0,137.24L83.46,155a85.89,85.89,0,0,1,0-110.11L69.4,31.29Zm66.76,25a43.76,43.76,0,1,0-.45,87.52,43.9,43.9,0,1,0,4-87.7,37.93,37.93,0,0,0-4,0Z" transform="translate(0)"/></svg>