<svg id="图层_1" data-name="图层 1" xmlns="http://www.w3.org/2000/svg" viewBox="0 0 179.14 144.4"><defs><style>.cls-1{fill:#3d3e3e;}</style></defs><path class="cls-1" d="M28.94,35.16a63,63,0,0,1,3.81-9.41,16.21,16.21,0,0,1,3.88-5.17,10.89,10.89,0,0,1,4.61-2.16,49.86,49.86,0,0,1,6.34-.73h23l-23,143.74H17.29c-8.13,0-13.36-2.89-15.52-8.57S.05,139.05,3.2,128.47C4.29,125,5.47,120.71,7,115.54s3-10.76,4.62-16.81,3.26-12.19,5-18.53S19.86,67.75,21.47,62s3-11,4.25-15.71S28,37.87,28.94,35.16ZM96.69,42H82.22L83.4,17.91H95.33ZM99.4,102.1H79.51l2.16-48H97.31Zm.44,12,2.16,48H76.69l2.16-48ZM177,130.92a67.56,67.56,0,0,1,2.16,9.67,30.05,30.05,0,0,1,0,9.93,15.15,15.15,0,0,1-3.63,7.76c-1.9,2.09-4.79,3.15-8.57,3.15H131L107.9,17.73h18.53q9.88,0,16.62,4.32c4.51,2.89,7.87,8.13,10.29,15.64.81,2.34,1.8,6,3,11l4.32,17q2.31,9.51,4.87,19.78t4.61,19.33L174.25,121C175.46,125.76,176.38,129,177,130.92Z" transform="translate(-0.43 -17.69)"/></svg>