<?xml version="1.0" encoding="utf-8"?>
<!-- Generator: Adobe Illustrator 24.1.2, SVG Export Plug-In . SVG Version: 6.00 Build 0)  -->
<svg version="1.1" id="图层_1" xmlns="http://www.w3.org/2000/svg" xmlns:xlink="http://www.w3.org/1999/xlink" x="0px" y="0px"
	 viewBox="0 0 204 48" style="enable-background:new 0 0 204 48;" xml:space="preserve">
<style type="text/css">
	.st0{fill:#c5c6c8;}
</style>
<path class="st0" d="M2,31.8L2,31.8c0-1.2,1-2.2,2.1-2.2h195.8c1.2,0,2.1,0.9,2.1,2.1c0,1.2-0.9,2.1-2.1,2.1H9.1l8.4,8.5
	c0.8,0.8,0.8,2.2,0,3c0,0,0,0,0,0c-0.8,0.8-2.1,0.8-3,0l-11.9-12C2.2,32.9,2,32.4,2,31.8z M202,16.5c0.2,1.2-0.6,2.3-1.7,2.5
	c-0.1,0-0.2,0-0.3,0H4.1C2.9,19,2,18,2,16.9c0,0,0,0,0,0c0-1.2,1-2.1,2.1-2.1h191.4l-9-9.1c-0.8-0.8-0.8-2.2,0-3c0,0,0,0,0,0
	c0.8-0.8,2.1-0.8,3,0l11.9,12C201.9,15.2,202.1,15.9,202,16.5L202,16.5z"/>
</svg>
