<svg id="图层_1" data-name="图层 1" xmlns="http://www.w3.org/2000/svg" viewBox="0 0 152.1 118.7"><defs><style>.cls-1{fill:#3d3e3e;}</style></defs><path class="cls-1" d="M47.75,136v-20.6H36.45V136h-23v-20.6H1v-8.9h12.4V58.25H1v-8.8h12.4V28.65l11.7-11,11.3,11v20.6h11V28.65l11.7-11,11.7,11v20.6h11V28.65l11.7-11,11.7,11v20.9h11V28.65l11.7-11,11.7,11v20.9h13.5v8.9h-13.5V107h13.5v8.8h-13.5v20.6h-23.4v-20.6h-11v20.6H81.75v-20.6h-11v20.6H51.65Zm57.3-29.4h11V58.35h-11Zm-34.3,0h11V58.35h-11Zm-34.3,0h11V58.35h-11Z" transform="translate(-0.95 -17.65)"/></svg>