<svg id="图层_1" data-name="图层 1" xmlns="http://www.w3.org/2000/svg" viewBox="0 0 126.73 148.83"><defs><style>.cls-1{fill:#3d3e3e;}</style></defs><path class="cls-1" d="M83.69,93.48A5,5,0,0,1,81.6,85,24.63,24.63,0,0,0,88.36,67.8c0-10.24-6.46-16.49-14.43-16.49S59.5,57.56,59.5,67.8a24.69,24.69,0,0,0,6.72,17.12h0a5,5,0,0,1-2.09,8.56C50.69,96.07,44,103.49,44,109c0,6.84,11.76,8.25,30,8.25s30-1.41,30-8.25c0-5.56-6.76-13-20.21-15.54Zm44.21,55.93H22.1a10.48,10.48,0,0,1-10.46-10.47V26.88A10.49,10.49,0,0,1,22.1,16.4H33.44L31.26,29.22H24.44V136.6H125.57V29.22h-7l-2-12.82H127.9a10.48,10.48,0,0,1,10.46,10.48V138.94a10.47,10.47,0,0,1-10.46,10.47ZM66.92.59A5.86,5.86,0,0,0,61.5,4.81L59.68,9.2a5.88,5.88,0,0,1-5.42,4.23H48.5a5.88,5.88,0,0,0-5.43,4.24L40.83,31.14a3.23,3.23,0,0,0,3.3,4.22h61.11a3.25,3.25,0,0,0,3.46-3,3.47,3.47,0,0,0-.15-1.2l-2.24-13.47a5.88,5.88,0,0,0-5.43-4.24H95.11A5.89,5.89,0,0,1,89.69,9.2L87.88,4.81A5.88,5.88,0,0,0,82.45.59Z" transform="translate(-11.64 -0.59)"/></svg>