<svg id="图层_1" data-name="图层 1" xmlns="http://www.w3.org/2000/svg" viewBox="0 0 139 139"><defs><style>.cls-1{fill:#3d3e3e;}</style></defs><path class="cls-1" d="M63.5,126.5c-25-3-45-23-49-49H3.5a3.19,3.19,0,0,1-3-3v-8a3.19,3.19,0,0,1,3-3h11c3-25,23-45,49-49V3.5c0-1,2-3,3-3h7a3.19,3.19,0,0,1,3,3v11c25,3,45,23,49,49h11a3.19,3.19,0,0,1,3,3v7a3.19,3.19,0,0,1-3,3h-11c-3,25-23,45-49,49v11a3.19,3.19,0,0,1-3,3h-7a3.19,3.19,0,0,1-3-3Zm7-14a42,42,0,1,0-42-42A42.25,42.25,0,0,0,70.5,112.5Zm0-21a20.51,20.51,0,0,1-21-21,20.51,20.51,0,0,1,21-21,20.51,20.51,0,0,1,21,21A20.51,20.51,0,0,1,70.5,91.5Z" transform="translate(-0.5 -0.5)"/></svg>