<svg id="图层_1" data-name="图层 1" xmlns="http://www.w3.org/2000/svg" viewBox="0 0 199.67 200"><defs><style>.cls-1{fill:#3d3e3e;}</style></defs><path class="cls-1" d="M69.67,94.33h62.12v7.18H69.67Zm0,26.69h62.12v7.34H69.67Zm0-13.42h62.12v7.18H69.67ZM198.91,19.72a6.12,6.12,0,0,0-.94-7.33L187.36,1.78A6.11,6.11,0,0,0,181,.37c-.31.16-24,9.68-37.93,9.37-20-.32-40.42-9.21-40.58-9.21A6,6,0,0,0,97.3.68c-.16.16-18.42,9.37-38.71,9.37-16.7,0-40-9.52-40.27-9.68a6.17,6.17,0,0,0-6.24,1.25L1.93,11.14A6.23,6.23,0,0,0,.53,18c4.06,9.21,10.61,26.06,11.39,31.84,1.25,8.9-2.5,29.19-4.06,36.68-1.09,3.59-9.52,33.4,4.06,58.06,7.65,14,20.92,23.41,39.18,28.1,22.79,5.77,44.64,25.44,45.11,25.75a6.2,6.2,0,0,0,4.05,1.56,5.69,5.69,0,0,0,4.38-1.87,107,107,0,0,1,47.29-26.22c22.16-5.31,36-17.17,41.36-35.12,4.53-15,2.34-31.84.62-45.27-.31-2.18-.46-4.21-.78-6.24-.31-3.12-1.09-7-2-11.71-1.56-8.11-3.9-19.35-3-24.19,2.18-15,10.77-29.5,10.77-29.66ZM45.48,55.47h22V32.52h7.65v8.74H97.46v6.4H75.14v8h28.25V62H45.48Zm54.63,20.29-4.68,5.77c-3.91-3.12-8.12-6.24-12.8-9.36L86.84,67C91.37,70,95.74,72.79,100.11,75.76ZM79,64.05V85H71.39V64.05ZM49.85,86.53a41.1,41.1,0,0,0-5-5.31A108.74,108.74,0,0,0,59.53,66.55l5.93,4.68C60.31,76.69,55,81.85,49.85,86.53Zm89.9,54.31h-8v-5.93H69.67v5.93h-8V87.62H139.6v53.22Zm10.93-52.28c-10.61-3.44-19.35-7.81-26.22-13a135.41,135.41,0,0,1-20.14,11.24,53.68,53.68,0,0,0-4.68-6.4A102.12,102.12,0,0,0,119,70.61a63.58,63.58,0,0,1-14-24h-3V40h46.36V46A71.79,71.79,0,0,1,130.7,70.76q9.6,6.8,24.35,10.31a48.38,48.38,0,0,0-4.37,7.49ZM112,46.57c3.12,8,7.34,14.52,12.8,19.51a55,55,0,0,0,14.67-19.51Z" transform="translate(-0.06 0)"/></svg>