<svg id="图层_1" data-name="图层 1" xmlns="http://www.w3.org/2000/svg" viewBox="0 0 91.75 167.67"><path d="M109.29,41.5V34c0-2.67-3-4.67-5.75-4.67s-6.08,2-6.08,4.67v7.5H90.79V34c0-2.67-3.25-4.83-5.92-4.83S79,31.33,79,34v7.5H69.21V22H65.87V5C65.87,2.33,62.79.17,60,.17S54,2.33,54,5V22H50.62V43.08h.25A20.5,20.5,0,0,0,38.12,62V93.83a20.43,20.43,0,0,0,8,16.09v37.41A20.5,20.5,0,0,0,67,167.83H101a20.76,20.76,0,0,0,20.33-16,19.15,19.15,0,0,0,.5-4.5V109.92a20.4,20.4,0,0,0,8-16.09V62a20.54,20.54,0,0,0-20.58-20.5Zm5.58,46.92H53V60.67h61.91Z" transform="translate(-38.12 -0.17)"/></svg>