<svg id="图层_1" data-name="图层 1" xmlns="http://www.w3.org/2000/svg" viewBox="0 0 200.01 154.55"><defs><style>.cls-1{fill:#3d3e3e;}</style></defs><path class="cls-1" d="M96.45,75.45,85.59,120.27a9.1,9.1,0,0,0,6.66,11h0a8.56,8.56,0,0,0,2.14.23,9.09,9.09,0,0,0,8.86-7l10.82-44.82a9.09,9.09,0,0,0-17.37-5.38A11,11,0,0,0,96.45,75.45Zm-19-3a9.1,9.1,0,0,0-12.86,0h0C39,97.59,39,97.59,41.45,103.5a8.69,8.69,0,0,0,2.87,3.77c2,1.82,11.63,11.59,20.23,20.37a9.12,9.12,0,1,0,13-12.78c-6.6-6.68-11.32-11.5-14.82-15,4-4,9.5-9.46,14.63-14.5a9.1,9.1,0,0,0,.24-12.86l-.1-.1Zm44.73,55.1a9.07,9.07,0,0,0,12.86.09c25.59-25.14,25.59-25.14,23.18-31a9.41,9.41,0,0,0-2.86-3.77c-2-1.82-11.64-11.59-20.27-20.37a9.1,9.1,0,0,0-13,12.78h0c6.59,6.68,11.32,11.5,14.82,15l-14.64,14.5a9.1,9.1,0,0,0-.14,12.86Z" transform="translate(0 -22.73)"/><path class="cls-1" d="M19.45,112.23A58.44,58.44,0,0,1,18.18,100,59.09,59.09,0,0,1,77.27,40.91h45.46a58.64,58.64,0,0,1,33.59,10.54h-5a9.1,9.1,0,0,0,0,18.19h26a9.09,9.09,0,0,0,9.09-9.09v-26a9.09,9.09,0,1,0-18.18,0h0v3a76.51,76.51,0,0,0-45.45-14.86H77.27A77.27,77.27,0,0,0,0,100H0a78.36,78.36,0,0,0,1.64,16,9.1,9.1,0,0,0,17.81-3.72ZM198.36,84.14a9.09,9.09,0,1,0-18,2.63,9.81,9.81,0,0,0,.22,1A60.79,60.79,0,0,1,181.82,100a59.09,59.09,0,0,1-59.09,59.09H77.27a58.74,58.74,0,0,1-33.09-10.18h4.55a9.09,9.09,0,0,0,0-18.18h-26a9.09,9.09,0,0,0-9.09,9.09h0v26a9.09,9.09,0,0,0,18.18,0v-3.41a76.85,76.85,0,0,0,45.45,14.91h45.46a77.25,77.25,0,0,0,75.63-93.13Z" transform="translate(0 -22.73)"/></svg>