<svg id="图层_1" data-name="图层 1" xmlns="http://www.w3.org/2000/svg" viewBox="0 0 200.01 200"><defs><style>.cls-1{fill:#3d3e3e;}</style></defs><path class="cls-1" d="M153.86,184a7.88,7.88,0,0,1,7.69,8v8H38.47v-8s3.45-8,7.7-8ZM176.94,0A23.55,23.55,0,0,1,200,24V136a23.55,23.55,0,0,1-23.08,24H123.09v8a8.23,8.23,0,0,1-7.71,8H84.61a7.87,7.87,0,0,1-7.69-8v-8H23.09A23.56,23.56,0,0,1,0,136V24A23.56,23.56,0,0,1,23.09,0ZM23.09,128H176.94a7.87,7.87,0,0,0,7.69-8V24a7.87,7.87,0,0,0-7.7-8H23.1a7.87,7.87,0,0,0-7.71,8v96a7.87,7.87,0,0,0,7.71,8Zm153.83,24.31a7.86,7.86,0,0,0,5.64-2.43,8.53,8.53,0,0,0,0-11.74,7.78,7.78,0,0,0-5.64-2.43,8.31,8.31,0,0,0,0,16.6ZM30.46,48H74.9V59.93H47.08V68.8H72.89V80.19H47.08v11H75.72v12.65H30.46Zm83.72,31.21a16.3,16.3,0,0,1,4.25,2,17.25,17.25,0,0,1,2.66,2.94,22.24,22.24,0,0,1,2.32,3.46l8,16.19H112.68l-8.86-17.06a12.65,12.65,0,0,0-3-4.3,6.75,6.75,0,0,0-4.07-1.29H95.3v22.66H78.65V48h27.64a38.62,38.62,0,0,1,11.76,1.37,12.52,12.52,0,0,1,6.55,5.08,15.92,15.92,0,0,1,2.5,9,16.19,16.19,0,0,1-1.9,8A15.27,15.27,0,0,1,120,77a19.58,19.58,0,0,1-5.81,2.2l.07,0Zm-18.9-8.6h7a24.39,24.39,0,0,0,4.4-.75,4.36,4.36,0,0,0,2.69-1.76,5.35,5.35,0,0,0,1-3.23,5.2,5.2,0,0,0-1.65-4.14,9.62,9.62,0,0,0-6.18-1.45h-7.3V70.63ZM130.43,48H158a18.41,18.41,0,0,1,13.49,4.45A17,17,0,0,1,176,65.15a17.56,17.56,0,0,1-4.9,13.23,20.67,20.67,0,0,1-14.92,4.76H147.1v20.72H130.44V48Zm16.66,23.8h4.06a10.19,10.19,0,0,0,6.74-1.73,5.65,5.65,0,0,0,1.94-4.44,6.34,6.34,0,0,0-1.69-4.46,8.51,8.51,0,0,0-6.33-1.82h-4.73Z" transform="translate(0)"/></svg>