<?xml version="1.0" standalone="no"?><!DOCTYPE svg PUBLIC "-//W3C//DTD SVG 1.1//EN" "http://www.w3.org/Graphics/SVG/1.1/DTD/svg11.dtd"><svg t="1631246791910" class="icon" viewBox="0 0 1024 1024" version="1.1" xmlns="http://www.w3.org/2000/svg" p-id="30958" xmlns:xlink="http://www.w3.org/1999/xlink" width="48" height="48"><defs><style type="text/css"></style></defs><path d="M841.09736 694.808275a146.265493 146.265493 0 1 1 0 292.530987h-266.061651a73.179929 73.179929 0 1 1 0-73.179929h265.825739a73.179929 73.179929 0 0 0 0-146.265493h-206.658988q33.97134-35.433995 65.489196-73.179929h141.216974zM511.952818 0a292.530986 292.530986 0 0 1 292.011979 274.412938l0.37746 9.059024V303.052666q-6.228079 196.75068-244.97111 437.145095l-22.081371 21.798276a36.566373 36.566373 0 0 1-47.182418 2.878128l-3.397134-2.878128-10.521679-10.238584Q232.396996 510.796848 220.17675 313.338432l-0.566189-10.993503v-9.719578A292.530986 292.530986 0 0 1 511.952818 0zM182.808275 475.410035h2.547851a671.452979 671.452979 0 0 0 35.905819 73.17993h-38.45367a73.132747 73.132747 0 0 0 0 146.265493h141.216975q30.102382 36.188914 65.442013 73.179929H182.90264a146.265493 146.265493 0 1 1 0-292.530987z m329.144543-292.530986a109.746302 109.746302 0 1 0 107.245634 109.69912 109.746302 109.746302 0 0 0-107.245634-109.746302z" fill="#1fc89f" p-id="30959"></path></svg>