<svg id="图层_1" data-name="图层 1" xmlns="http://www.w3.org/2000/svg" viewBox="0 0 175 200"><defs><style>.cls-1{fill:#3d3e3e;}</style></defs><path class="cls-1" d="M175,0a12.5,12.5,0,0,1,12.5,12.5v175A12.5,12.5,0,0,1,175,200H112.5A12.5,12.5,0,0,1,100,187.5V12.5A12.5,12.5,0,0,1,112.5,0ZM68.75,187.5a6.25,6.25,0,0,1,0,12.5h-50a6.25,6.25,0,0,1,0-12.5ZM175,12.5H112.5v175H175ZM150,25a12.5,12.5,0,0,1,12.5,12.5v125A12.5,12.5,0,0,1,150,175H137.5A12.5,12.5,0,0,1,125,162.5V37.5A12.5,12.5,0,0,1,137.5,25ZM46.5,26.21,73.87,55.4a4.35,4.35,0,0,1,0,5.87A3.74,3.74,0,0,1,71.1,62.5H50v75H71.1a3.76,3.76,0,0,1,2.16.7l.6.51a4.36,4.36,0,0,1,.55,5.14l-.55.75L46.51,173.79a3.74,3.74,0,0,1-4.81.59l-.71-.59L13.64,144.6a4.27,4.27,0,0,1-1.14-2.94,4.1,4.1,0,0,1,3.13-4.07l.76-.09H37.5v-75H16.4a4,4,0,0,1-3.9-4.16,4.29,4.29,0,0,1,1.14-2.94L41,26.21a3.74,3.74,0,0,1,5.52,0ZM68.75,0a6.25,6.25,0,0,1,0,12.5h-50a6.25,6.25,0,0,1,0-12.5Z" transform="translate(-12.5)"/></svg>