<svg id="图层_1" data-name="图层 1" xmlns="http://www.w3.org/2000/svg" viewBox="0 0 198.26 198.46"><defs><style>.cls-1{fill:#3d3e3e;}</style></defs><path class="cls-1" d="M169,30.47C130-8.77,67.07-9.18,28.71,29.57-9.29,68-8.25,130.92,31,169.8s102.26,39.29,140.27.9S208.25,69.35,169,30.47Zm-36,72.74L104.58,161c-.69,1.43-2.1,2.85-3.18,2.49a3.15,3.15,0,0,1-3.26-2.53L67.85,102.79a6.12,6.12,0,0,1-.09-5L96.15,40c.69-1.43,2.1-2.85,3.17-2.49a3.16,3.16,0,0,1,3.27,2.53h0l30.3,58.14A6.08,6.08,0,0,1,133,103.21Z" transform="translate(-0.87 -0.77)"/><path class="cls-1" d="M89.09,89.33a15.36,15.36,0,0,0,21.82,21.6c6-6,5.83-15.34-.35-21.46A15.23,15.23,0,0,0,89.09,89.33Z" transform="translate(-0.87 -0.77)"/></svg>