<svg id="图层_1" data-name="图层 1" xmlns="http://www.w3.org/2000/svg" viewBox="0 0 352.94 200"><defs><style>.cls-1{fill:#3d3e3e;}</style></defs><path class="cls-1" d="M309.64,77c-24.2,0-43.82,19.91-43.82,44.45a44.68,44.68,0,0,0,6.84,23.86L242.57,176a54.15,54.15,0,0,0-67.39,3.41l-13.52-13.77a39.67,39.67,0,0,0,4.92-19.2c0-21.78-17.42-39.45-38.92-39.45s-38.89,17.67-38.89,39.45a39.94,39.94,0,0,0,2.78,14.66l-22.9,23.34A43.09,43.09,0,0,0,44.37,177C20.15,177,.54,196.91.54,221.45s19.61,44.43,43.83,44.43S88.19,246,88.19,221.45A44.68,44.68,0,0,0,83.28,201l21.88-22.36a38.48,38.48,0,0,0,40.94,2.57l15.65,16a56,56,0,0,0-5.51,24.3c0,30.68,24.53,55.55,54.79,55.55s54.79-24.87,54.79-55.55a55.91,55.91,0,0,0-8.25-29.33l31.06-31.67a43.05,43.05,0,0,0,21,5.43c24.22,0,43.84-19.88,43.84-44.43S333.86,77,309.64,77Z" transform="translate(-0.54 -77)"/></svg>