<svg id="图层_1" data-name="图层 1" xmlns="http://www.w3.org/2000/svg" viewBox="0 0 174.38 175.46"><defs><style>.cls-1{fill:#3d3e3e;}</style></defs><path class="cls-1" d="M159.24.27H16.34A15.54,15.54,0,0,0,.81,15.8V31.34h174V15.8A15.54,15.54,0,0,0,159.24.27ZM21.39,23.57a7.77,7.77,0,1,1,7.76-7.77,7.77,7.77,0,0,1-7.76,7.77Z" transform="translate(-0.81 -0.27)"/><path class="cls-1" d="M1.22,45.27V160.2a15.54,15.54,0,0,0,15.54,15.53h142.9a15.53,15.53,0,0,0,15.53-15.53V45.27Zm96.67,94.78A4.67,4.67,0,0,1,91.66,147a3.06,3.06,0,0,1-.36-.36L88,143.35l-3.3,3.29a4.67,4.67,0,0,1-6.59-6.59l3.3-3.29-3.3-3.3a4.67,4.67,0,0,1,6.59-6.59l3.3,3.3,3.3-3.3a4.67,4.67,0,0,1,7,6.23,3.06,3.06,0,0,1-.36.36l-3.3,3.3ZM114.66,119a6.21,6.21,0,0,1-8.78,0h0a25.06,25.06,0,0,0-35.44-.09,1.14,1.14,0,0,1-.11.11,6.22,6.22,0,0,1-8.82-8.76,37.48,37.48,0,0,1,53-.19l.17.17a6.21,6.21,0,0,1,0,8.78h0Zm18.52-18.48a6.23,6.23,0,0,1-8.79,0,51.21,51.21,0,0,0-72.4-.16,6.21,6.21,0,1,1-8.83-8.74l.07-.07a63.64,63.64,0,0,1,90,.2,6.2,6.2,0,0,1,0,8.77Z" transform="translate(-0.81 -0.27)"/></svg>