<svg id="图层_1" data-name="图层 1" xmlns="http://www.w3.org/2000/svg" viewBox="0 0 183.33 183.33"><defs><style>.cls-1{fill:#3d3e3e;}</style></defs><path class="cls-1" d="M144.59,105.5H131.08v-27h13.51a39.08,39.08,0,0,0,27.63-66.72A39.09,39.09,0,0,0,105.5,39.41V52.92h-27V39.41A39.08,39.08,0,0,0,11.78,11.78,39.09,39.09,0,0,0,39.41,78.5H52.92v27H39.41a39.09,39.09,0,1,0,39.08,39.09V131.08h27v13.51a39.08,39.08,0,1,0,39.09-39.09Zm13.5,39.09a13.51,13.51,0,0,1-27,0V131.08h13.51A13.52,13.52,0,0,1,158.09,144.59Zm-27-105.18a13.51,13.51,0,1,1,13.51,13.51H131.08ZM105.5,78.5v27h-27v-27ZM52.92,39.41V52.92H39.41A13.51,13.51,0,1,1,52.92,39.41Zm0,91.67v13.51a13.51,13.51,0,1,1-13.51-13.51Z" transform="translate(-0.33 -0.33)"/></svg>