<svg id="图层_1" data-name="图层 1" xmlns="http://www.w3.org/2000/svg" viewBox="0 0 175 183.3"><defs><style>.cls-1{fill:#3d3e3e;}</style></defs><path class="cls-1" d="M92,157.85c31.7,0,65-5.8,84.2-19.2a19.92,19.92,0,0,1,3.3,10.8c0,23.4-45,34.2-87.5,34.2s-87.5-10.8-87.5-33.3a20.16,20.16,0,0,1,3.3-10.8c19.2,13.3,52.5,18.3,84.2,18.3Zm0-38.3c-31.7,0-65-5-84.2-18.3a20.16,20.16,0,0,0-3.3,10.8c0,23.3,45,34.2,87.5,34.2s87.5-10.8,87.5-34.2a19.92,19.92,0,0,0-3.3-10.8C157,113.75,123.7,119.55,92,119.55Zm0-38.3c-31.7,0-65-5-84.2-18.3A16,16,0,0,0,4.5,73c0,23.3,45,34.2,87.5,34.2s87.5-10.8,87.5-34.2a19.92,19.92,0,0,0-3.3-10.8C157,75.35,123.7,81.25,92,81.25ZM92,.35C49.5.35,4.5,11.15,4.5,34.55s45,34.2,87.5,34.2,87.5-10.8,87.5-34.2S134.5.35,92,.35Z" transform="translate(-4.5 -0.35)"/></svg>