<svg id="图层_1" data-name="图层 1" xmlns="http://www.w3.org/2000/svg" viewBox="0 0 195.55 174.83"><defs><style>.cls-1{fill:#1fc89f;}</style></defs><path class="cls-1" d="M59.83,185.4a21.33,21.33,0,0,1-10.75-2.72c-11.75-6.78-15.48-25.16-10.27-50.52C14.27,124,.23,111.56.23,98s14-26,38.58-34.16C33.64,38.48,37.37,20.1,49.11,13.3a21.17,21.17,0,0,1,10.74-2.73c10.77,0,24.29,6.76,38.15,19.06,13.86-12.29,27.38-19,38.13-19a21.3,21.3,0,0,1,10.76,2.73c11.74,6.77,15.48,25.14,10.3,50.49C181.73,72,195.77,84.42,195.77,98s-14,26-38.58,34.15c5.21,25.36,1.47,43.75-10.3,50.52a21.23,21.23,0,0,1-10.75,2.72c-10.77,0-24.29-6.76-38.14-19.06-13.86,12.3-27.39,19.07-38.17,19.07Zm46.82-27.48c11.55,9.83,22.7,15.67,29.94,15.67a8.92,8.92,0,0,0,4.46-1l.35-.21c6-3.94,7.61-18.26,4.17-36.89A186.24,186.24,0,0,1,122,139.59a182.79,182.79,0,0,1-15.35,18.33ZM55,172.55a8.75,8.75,0,0,0,4.43,1c7.23,0,18.35-5.86,29.88-15.7A185.9,185.9,0,0,1,74,139.55a186.85,186.85,0,0,1-23.6-4.07c-3.48,19-1.72,33.47,4.55,37.08Zm34.74-31.84c2.64,3.12,5.41,6.15,8.28,9.07q4.34-4.35,8.32-9c-2.88.11-5.61.17-8.29.17C95.51,140.92,92.88,140.85,89.69,140.71ZM80.2,128.6c5.91.62,11.86.94,17.81,1s11.87-.29,17.73-.87q5.15-7.23,9.59-14.92t8.09-15.92q-3.66-8-8.06-15.66l-.13-.23c-2.91-5-6.06-9.89-9.42-14.6q-8.88-.91-17.82-1t-17.73.86Q75.09,74.5,70.64,82.2T62.58,98.08c2.57,5.61,5.22,10.75,8.09,15.7s6.13,10,9.53,14.82Zm53.09-6q-1.18,2-2.42,3.92,6-1.12,12-2.69-1.63-5.94-3.7-11.74-1.92,3.72-4,7.35l-1.87,3.22v-.06Zm-80.16,1.26c3.46.91,7.39,1.76,11.94,2.59q-2.19-3.48-4.23-7t-4-7.19c-1.59,4.49-2.79,8.25-3.72,11.63ZM41.76,75.61C23.58,82,11.9,90.78,11.9,98s11.67,16,29.82,22.44A186.81,186.81,0,0,1,50,98a183.27,183.27,0,0,1-8.21-22.38ZM146,98a192.46,192.46,0,0,1,8.25,22.43c18.15-6.45,29.82-15.19,29.82-22.38s-12-16.1-29.86-22.46A188.37,188.37,0,0,1,146,98ZM53.13,72.1q1.63,5.93,3.7,11.71c1.19-2.29,2.53-4.79,4-7.29s2.83-4.76,4.29-7.1Q59.07,70.53,53.13,72.1ZM131,69.51c1.54,2.47,2.9,4.7,4.23,7s2.67,4.74,4,7.14c1.59-4.48,2.79-8.23,3.72-11.6-3.44-.9-7.29-1.73-11.92-2.57ZM55,23.44c-6.25,3.62-8,18.12-4.52,37.09A185.75,185.75,0,0,1,74,56.41,186.79,186.79,0,0,1,89.32,38.07C77.8,28.24,66.67,22.39,59.43,22.39a9.13,9.13,0,0,0-4.24.91Zm67.08,33a189.25,189.25,0,0,1,23.54,4.07c3.43-18.69,1.78-33-4.26-36.89l-.26-.15a8.86,8.86,0,0,0-4.44-1c-7.22,0-18.34,5.84-29.87,15.67A183.33,183.33,0,0,1,122,56.41ZM98.12,55c2.8,0,5.63.1,8.21.21q-4-4.68-8.31-9.06-4.32,4.35-8.31,9C92.53,55.1,95.31,55,98,55ZM98,105.45A7.45,7.45,0,1,1,105.45,98,7.46,7.46,0,0,1,98,105.45Z" transform="translate(-0.23 -10.57)"/></svg>