<svg id="图层_1" data-name="图层 1" xmlns="http://www.w3.org/2000/svg" viewBox="0 0 195.71 196.05"><defs><style>.cls-1{fill:#1fc89f;}</style></defs><path class="cls-1" d="M8.57,162.13C0,158.21,0,146.07,8.58,142.86l12.13-5.36a20.94,20.94,0,0,1,16.08,0l42.5,18.21a50.94,50.94,0,0,0,26.42,3.93,48.62,48.62,0,0,0,16.08-4.28l41.42-17.86a20.94,20.94,0,0,1,16.08,0l12.14,5.36a10.46,10.46,0,0,1,0,19.28L115,195a36.57,36.57,0,0,1-30,0L8.57,162.14Zm0-104.63L85,90.36a36.57,36.57,0,0,0,30,0L191.43,57.5a10.46,10.46,0,0,0,0-19.29L115,5.38a36.57,36.57,0,0,0-30,0L8.57,37.87C0,41.79,0,53.93,8.57,57.5Zm0,52.14L85,142.5a36.57,36.57,0,0,0,30,0l76.43-32.86a10.46,10.46,0,0,0,0-19.28L179.29,85a20.94,20.94,0,0,0-16.08,0l-41.42,17.86a48.62,48.62,0,0,1-16.08,4.28,50.94,50.94,0,0,1-26.42-3.93L36.79,85a20.94,20.94,0,0,0-16.08,0L8.57,90.36a10.46,10.46,0,0,0,0,19.28Z" transform="translate(-2.14 -2.16)"/></svg>