<svg id="图层_1" data-name="图层 1" xmlns="http://www.w3.org/2000/svg" viewBox="0 0 156.68 106.67"><defs><style>.cls-1{fill:#3d3e3e;}</style></defs><path class="cls-1" d="M79,25.66A78.34,78.34,0,0,0,.66,104c0,11.09,2.32,18.76,6.47,28.33H150.87c4.17-9.57,6.47-17.24,6.47-28.33A78.32,78.32,0,0,0,79,25.67Zm22.85,23.91,7.93,4.6L102,67.6,94.07,63Zm15.49,12.16L80.57,106.44l-7.89-8.13.28-.43,44.38-36.15Zm-45-17.41h9.18V59.84H72.36V44.32ZM35,107.06H19.46V97.88H35Zm5.65-22.5L27.2,76.8l4.6-8L45.23,76.6ZM52.26,67.62,44.5,54.19l8-4.6L60.21,63Zm25.28,49a14.44,14.44,0,0,1,0-28.88,13.66,13.66,0,0,1,3,.32L66,99.54l14.55,12.87,11-13.71a15.06,15.06,0,0,1,.41,3.44,14.43,14.43,0,0,1-14.42,14.44Zm34-40L125,68.85l4.6,8-13.43,7.76ZM138,107.06H122.52V97.88H138Z" transform="translate(-0.66 -25.66)"/></svg>