<svg id="图层_1" data-name="图层 1" xmlns="http://www.w3.org/2000/svg" viewBox="0 0 198.26 198.46"><defs><style>.cls-1{fill:#3d3e3e;}</style></defs><path class="cls-1" d="M89.34,90.3A15,15,0,1,0,110.8,90C104.76,84,95.46,84.12,89.34,90.3Z" transform="translate(-0.87 -0.77)"/><path class="cls-1" d="M169,30.47C130-8.77,67.07-9.18,28.71,29.57-9.29,68-8.25,130.92,31,169.8s102.26,39.29,140.27.9S208.25,69.35,169,30.47Zm-5.65,69a3.15,3.15,0,0,1-2.53,3.27L102.66,133a6.08,6.08,0,0,1-5,.08L39.89,104.71c-1.43-.69-2.85-2.1-2.49-3.18a3.16,3.16,0,0,1,2.53-3.26h0L98.07,68a6.08,6.08,0,0,1,5-.09l57.76,28.39C162.27,97,163.69,98.37,163.33,99.45Z" transform="translate(-0.87 -0.77)"/></svg>