<svg id="图层_1" data-name="图层 1" xmlns="http://www.w3.org/2000/svg" viewBox="0 0 175 162.7"><defs><style>.cls-1{fill:#3d3e3e;}</style></defs><path class="cls-1" d="M174.93,142.5,157,95c-1.61-4.27-6.35-7.17-11.71-7.17H131.43c-9.09,12.29-21.79,22.39-30.25,29.09l-1.46,1.16a19.51,19.51,0,0,1-23.46,0l-1.7-1.36c-8.92-7.07-21.3-16.92-30.14-28.87H29.57c-5.41,0-10.18,3-11.74,7.29L1,141.47c-2.76,7.63,5.48,14.86,14.72,12.92l37.85-7.91A14.16,14.16,0,0,1,64,148.26l30,19A14.26,14.26,0,0,0,104.51,169l61.82-13.51a12.17,12.17,0,0,0,7.64-5,8.8,8.8,0,0,0,1-8.05ZM84.31,110.38a5.4,5.4,0,0,0,7.38,0C105,97.92,130.83,74.75,130.83,48.9c0-23.34-19.18-42.25-42.83-42.25S45.17,25.56,45.17,48.89c0,25.94,25.5,48.69,39.14,61.49ZM88,33a16.1,16.1,0,0,1,14.1,7.86,15.64,15.64,0,0,1,0,16A16,16,0,1,1,88,33Z" transform="translate(-0.5 -6.65)"/></svg>