<svg id="图层_1" data-name="图层 1" xmlns="http://www.w3.org/2000/svg" viewBox="0 0 199.75 199.81"><defs><style>.cls-1{fill:#3d3e3e;}</style></defs><path class="cls-1" d="M190.8,11.78,186.87,8C175.65-2.44,157.14-2.44,147,7.42L58.94,96A52.66,52.66,0,0,0,16.3,110.77C5.08,120.07,0,133.74,0,147.4S6.2,174.2,16.3,184.05C26.4,195,39.87,199.91,54.45,199.91h0c14,0,26.93-6,38.71-15.31,12.91-13.13,18.52-31.18,14.59-48.13l84.16-85.86a23.64,23.64,0,0,0,7.86-18C199.78,24.91,195.85,16.71,190.8,11.78Zm-37,40.47-.28.28-.84-.82-7.29,7.11,10.1,9.84L140.31,84.52l-46,44.84A8,8,0,0,0,90.37,137c4.49,13.13,0,27.34-9.54,36.63-14.59,14.22-38.72,14.22-53.3,0-8.42-7.65-12.9-18.58-11.22-30.07,1.68-10.39,6.17-19.69,14-25.16a34.09,34.09,0,0,1,23.56-8.75c1.13,0,3.37,1.1,3.93.55,0,0,7.86-.55,10.1-5.47l86.42-85.86c6.73-6,17.38-4.92,23,.55l2.24,2.19c5.62,6.56,6.18,17,.56,22.42l-.56.55L163.31,28.74,156,36.4l15.71,15.85-8.71,9Zm4.48,15.32-9-8.75h0l9,8.75Zm-16.82-12c-4.49-4.37-11.78-4.92-16.27-.54L62.87,117.33c-10.66-3.28-23.56,0-31.42,7.65-5.6,6-9.53,13.68-9.53,22.43a31.9,31.9,0,0,0,9.53,22.42c6.17,6.56,15.15,9.3,23,9.3,9,0,16.83-3.83,23-9.3a31,31,0,0,0,5.61-37.19l32-31.71-5.61-5.48,4.49-3.82,5.61,5.46,12.34-12L130.73,84l0,0-8.38-7.69,4.46-4.34,9,7.66,6.83-5.71.46-.31.18-.23.38-.31a11.54,11.54,0,0,0-.56-15.86ZM107.2,94.91l0,0,0,0Zm-72.37,52c.55-5.47,2.8-10.93,7.29-14.22s7.85-4.92,11.78-4.92c3.37,0,5.61,1.64,7.86,2.73-6.74,1.1-22.45,6-26.38,25.16C35.38,153.42,34.26,150.69,34.83,146.86Zm.61,12.08-.06-.05c.08-.47.17-.92.25-1.37C35.56,158,35.5,158.45,35.44,158.94Zm19,18.95a30.87,30.87,0,0,0,20.95-8.24A30.43,30.43,0,0,1,54.43,177.89Zm21.35-8.61h0a32.3,32.3,0,0,0,6.65-10A28.31,28.31,0,0,1,75.78,169.28Zm37.54-79.34.6-.5L119,94.36l-.56.55Zm13-19.64.55-.55L135.29,78l-.59.51ZM162.19,113l-1.68,1.64c-.57,1.64-26.37,43.2-26.37,57.42,0,14.76,12.9,26.25,28.05,26.25,14.59,0,27.5-11.49,28.06-26.25,0-14.77-24.69-55.24-26.38-57.42Zm-14.84,72.81A20.37,20.37,0,0,1,142,172a31,31,0,0,1,.31-4.48c.29-.9.6-1.77.82-2.63h0c3.92,11.48,14,19.69,25.8,20.23a28.41,28.41,0,0,0,6.74-.54c-3.37,4.36-9.54,6.56-14.59,6.56A19.93,19.93,0,0,1,147.35,185.77Zm15.51,7a26.45,26.45,0,0,0,14-4.9,21.27,21.27,0,0,1-13.58,4.93Z" transform="translate(-0.03 -0.09)"/></svg>