<svg id="图层_1" data-name="图层 1" xmlns="http://www.w3.org/2000/svg" viewBox="0 0 174.26 169.03"><defs><style>.cls-1{fill:#1fc89f;}</style></defs><path class="cls-1" d="M28.15,90.78c0-2.83,2-5.13,4.35-5.13H79.9v22.83h12V85.65h47.51c2.36,0,4.36,2.35,4.36,5.13v17.7h12V90.78a16.46,16.46,0,0,0-16.34-16.55H91.88V53.63a25.65,25.65,0,0,0,18.43-24.89C110.31,14.52,99.17,3,85.42,3S60.54,14.52,60.54,28.74A25.6,25.6,0,0,0,79.9,53.87V74.23H32.5A16.46,16.46,0,0,0,16.17,90.78v17.7h12V90.78Zm57.27,28.91c-13.75,0-24.88,11.53-24.88,25.76S71.67,171.2,85.42,171.2s24.89-11.52,24.89-25.75-11.14-25.76-24.89-25.76Zm-60.16.7C11.52,120.39.37,131.91.37,146.14s11.15,25.77,24.89,25.77,24.9-11.54,24.9-25.77S39,120.39,25.26,120.39Zm124.48.11c-13.75,0-24.9,11.53-24.9,25.75S136,172,149.74,172s24.89-11.53,24.89-25.76-11.15-25.75-24.89-25.75Z" transform="translate(-0.37 -2.99)"/></svg>