<svg id="图层_1" data-name="图层 1" xmlns="http://www.w3.org/2000/svg" viewBox="0 0 154.34 199.17"><defs><style>.cls-1{fill:#3d3e3e;}</style></defs><path class="cls-1" d="M32.59,6.68v14H78.37v-14A6.48,6.48,0,0,0,71.9.19H39.07a6.48,6.48,0,0,0-6.48,6.48ZM177.44,181.92V111.3c0-6.83-3.52-14.58-8.19-18.18L94.52,35.53a16.2,16.2,0,0,0-10-3.3H32.38a9.27,9.27,0,0,0-9.28,9.28V181.92a17.43,17.43,0,0,0,17.43,17.44H160a17.44,17.44,0,0,0,17.44-17.44ZM74.74,154a14.93,14.93,0,1,1-29.86,0c0-6.53,3.11-14.82,14.93-40.35C71.62,139.2,74.73,147.49,74.73,154Zm78.12-36.65a9.93,9.93,0,0,1-13.92,1.83l0,0L85.5,78A9.95,9.95,0,1,1,97.65,62.28l53.4,41.15a9.94,9.94,0,0,1,1.8,13.95Z" transform="translate(-23.1 -0.19)"/></svg>