<svg id="图层_1" data-name="图层 1" xmlns="http://www.w3.org/2000/svg" viewBox="0 0 177.62 173.02"><defs><style>.cls-1{fill:#1fc89f;}</style></defs><path class="cls-1" d="M120.69,111.19l17.13,11.23a23.54,23.54,0,0,1,16.24-6.49,23.93,23.93,0,1,1-21.91,14.73l-17.46-11.47a35.33,35.33,0,0,1-48.2,1.92L45.56,141.56a24.06,24.06,0,0,1-21.62,33.95,24,24,0,0,1,0-48,23.54,23.54,0,0,1,15.63,5.93l20.3-19.84a36.34,36.34,0,0,1,1.46-41.89L46.39,57.14a17.57,17.57,0,0,1-8.26,2,17.89,17.89,0,0,1-17.81-18h0a17.82,17.82,0,1,1,35.63,0v0a18,18,0,0,1-2.38,9L68.44,64.69a35.37,35.37,0,0,1,36.75-3.36l13.37-21.54a21.33,21.33,0,1,1,14.68,5.9,21.15,21.15,0,0,1-6-.87L113.45,67a36.31,36.31,0,0,1,7.25,44.2Z" transform="translate(-0.19 -2.49)"/></svg>