<?xml version="1.0" standalone="no"?><!DOCTYPE svg PUBLIC "-//W3C//DTD SVG 1.1//EN" "http://www.w3.org/Graphics/SVG/1.1/DTD/svg11.dtd"><svg t="1631246146011" class="icon" viewBox="0 0 1036 1024" version="1.1" xmlns="http://www.w3.org/2000/svg" p-id="17143" xmlns:xlink="http://www.w3.org/1999/xlink" width="48.5625" height="48"><defs><style type="text/css"></style></defs><path d="M735.232 313.344C569.344 313.344 434.176 447.488 434.176 614.4S569.344 914.432 735.232 914.432s301.056-134.144 301.056-301.056-135.168-300.032-301.056-300.032z m-26.624 471.04c-10.24 10.24-27.648 10.24-38.912 0l-21.504-21.504L520.192 634.88c-10.24-10.24-10.24-27.648 0-38.912l21.504-21.504c10.24-10.24 27.648-10.24 38.912 0l108.544 108.544 204.8-204.8c10.24-10.24 27.648-10.24 38.912 0l21.504 21.504c10.24 10.24 10.24 27.648 0 38.912l-245.76 245.76z" p-id="17144" fill="#3d3e3e"></path><path d="M735.232 196.608c97.28 0 186.368 33.792 258.048 89.088V178.176c0-38.912-37.888-68.608-83.968-68.608H84.992c-47.104 0-83.968 29.696-83.968 68.608v353.28h324.608c37.888-191.488 206.848-334.848 409.6-334.848zM391.168 850.944H76.8c-20.48 0-37.888 14.336-37.888 30.72s17.408 30.72 37.888 30.72h366.592c-19.456-18.432-36.864-38.912-52.224-61.44zM317.44 593.92h-317.44v34.816c0 38.912 37.888 69.632 83.968 69.632h240.64c-5.12-26.624-8.192-55.296-8.192-83.968 1.024-7.168 1.024-14.336 1.024-20.48z" p-id="17145" fill="#3d3e3e"></path></svg>