<svg id="图层_1" data-name="图层 1" xmlns="http://www.w3.org/2000/svg" viewBox="0 0 150 165.62"><defs><style>.cls-1{fill:#3d3f3e;}</style></defs><path class="cls-1" d="M137.3.19a8.2,8.2,0,0,1,8.2,8.2V77.81a54.69,54.69,0,1,0-64.81,88H16.2a8.2,8.2,0,0,1-8.2-8.2V8.39A8.2,8.2,0,0,1,16.2.19Zm-8.77,84.18a1.61,1.61,0,0,1,2.61-1.21l26.21,20.53.05,0a1.56,1.56,0,0,1,0,2.48l-26.2,20.54,0,0a1.62,1.62,0,0,1-2.57-1.3v-12.8H103.7a8.54,8.54,0,0,0-8.38,8.53V125c0,.1,0,.2,0,.3l0,5.1v.2a11,11,0,0,0,11,10.83h34.86l8,15.33H103.83c-12.56,0-24-9.6-24-24.36V120.8a24,24,0,0,1,23.94-23.58h24.71V84.37ZM67.37,50.19H31.44a1.57,1.57,0,0,0-1.57,1.56v9.37a1.58,1.58,0,0,0,1.57,1.57H67.37a1.58,1.58,0,0,0,1.57-1.57V51.75A1.57,1.57,0,0,0,67.37,50.19Zm39.07-28.13h-75a1.58,1.58,0,0,0-1.57,1.56V33a1.57,1.57,0,0,0,1.57,1.56h75A1.56,1.56,0,0,0,108,33V23.62A1.57,1.57,0,0,0,106.44,22.06Z" transform="translate(-8 -0.19)"/></svg>