<svg id="图层_1" data-name="图层 1" xmlns="http://www.w3.org/2000/svg" viewBox="0 0 176.19 199.99"><defs><style>.cls-1{fill:#3d3e3e;}</style></defs><path class="cls-1" d="M100,200c-26.93,0-88.1-46.12-88.1-79.36V43.24a6.87,6.87,0,0,1,4-6.2C79.86,8.05,94.21,1.83,97.4.52a6.81,6.81,0,0,1,5.22,0c3.17,1.32,17.52,7.51,81.45,36.48a6.84,6.84,0,0,1,4,6.22v77.4c0,33.24-61.16,79.36-88.09,79.36ZM21.43,45v75.66c0,27,56.38,69.84,78.57,69.84s78.57-42.86,78.57-69.84V45c-58-26.19-74.19-33.34-78.57-35.22C95.62,11.62,79.43,18.69,21.43,45Z" transform="translate(-11.9 -0.01)"/><path class="cls-1" d="M100,19.05s-2,.5-69,31.66V117.6C31,142.57,79.29,181,100,181s69.05-38.38,69.05-63.35V50.71C102,19.55,100,19.05,100,19.05Zm39.91,65-46,43.6a1.84,1.84,0,0,1-1.28.51,1.87,1.87,0,0,1-1.29-.51h0L64.86,102.52a1.79,1.79,0,0,1,0-2.64L75.26,90a1.91,1.91,0,0,1,1.29-.51,1.87,1.87,0,0,1,1.28.51l13.55,12.86a1.91,1.91,0,0,0,1.29.51,1.89,1.89,0,0,0,1.28-.51l33-31.29a1.89,1.89,0,0,1,1.28-.51,1.91,1.91,0,0,1,1.29.51l10.4,9.88a1.78,1.78,0,0,1,.58,1.32A1.81,1.81,0,0,1,139.91,84.09Z" transform="translate(-11.9 -0.01)"/></svg>