<?xml version="1.0" standalone="no"?><!DOCTYPE svg PUBLIC "-//W3C//DTD SVG 1.1//EN" "http://www.w3.org/Graphics/SVG/1.1/DTD/svg11.dtd"><svg t="1582011718360" class="icon" viewBox="0 0 1024 1024" version="1.1" xmlns="http://www.w3.org/2000/svg" p-id="3697" xmlns:xlink="http://www.w3.org/1999/xlink" width="16" height="16"><defs><style type="text/css"></style></defs><path d="M692.84 330.67H112.1a142.3 142.3 0 0 0-0.94 16.28v330.1c0 78 63.46 141.47 141.47 141.47h518.74c3.09 0 6.16-0.11 9.21-0.31V417.73c0-48.98-38.39-87.06-87.74-87.06z" fill="#BBF2FF" p-id="3698"></path><path d="M771.37 205.47c78 0 141.47 63.46 141.47 141.47v330.11c0 78-63.46 141.47-141.47 141.47H252.63c-78 0-141.47-63.46-141.47-141.47v-330.1c0-78 63.46-141.47 141.47-141.47h518.74m0-47.16H252.63C148.45 158.32 64 242.77 64 346.95v330.1c0 104.18 84.45 188.63 188.63 188.63h518.74c104.18 0 188.63-84.45 188.63-188.63v-330.1c0-104.18-84.45-188.63-188.63-188.63z" fill="#2087E7" p-id="3699"></path><path d="M371.75 601.8h-1.25c-16.45 0-27.42 10.88-27.42 27.2s11 27.21 27.42 27.21h1.25c16.46 0 27.42-10.89 27.42-27.21s-11-27.2-27.42-27.2zM926.7 405.88H99.05c-16.45 0-27.42 10.88-27.42 27.21s11 27.21 27.42 27.21H926.7c16.45 0 27.42-10.89 27.42-27.21s-11-27.21-27.42-27.21zM267.86 601.8H213c-16.45 0-27.42 10.88-27.42 27.2s11 27.21 27.42 27.21h54.84c16.46 0 27.42-10.89 27.42-27.21s-11-27.2-27.42-27.2zM377.54 509.53H213c-16.45 0-27.42 10.88-27.42 27.21s11 27.21 27.42 27.21h164.54c16.45 0 27.42-10.89 27.42-27.21s-11-27.21-27.42-27.21z" fill="#2087E7" p-id="3700"></path></svg>