<?xml version="1.0" standalone="no"?><!DOCTYPE svg PUBLIC "-//W3C//DTD SVG 1.1//EN" "http://www.w3.org/Graphics/SVG/1.1/DTD/svg11.dtd"><svg t="1600343462846" class="icon" viewBox="0 0 1024 1024" version="1.1" xmlns="http://www.w3.org/2000/svg" p-id="21908" xmlns:xlink="http://www.w3.org/1999/xlink" width="50" height="50"><defs><style type="text/css"></style></defs><path d="M554.553165 1006.904647c-12.787234 8.677637-27.64871 13.002129-42.538839 13.002128-14.898315 0-29.772071-4.324492-42.575677-13.002128C185.934736 814.882262 64.977897 648.222521 64.977897 449.66735V230.382041c0-40.029692 33.370015-72.514547 74.528414-72.514547 166.249395 0 320.2887-132.444475 322.607512-134.455271 14.184047-12.429077 32.045857-18.658965 49.916876-18.658966 17.887392 0 35.790134 6.220678 49.986461 18.75618 1.526773 1.347694 157.14504 134.357034 322.529741 134.357034 41.142026 0 74.491575 32.493042 74.475202 72.514547v219.285308c0 198.556195-120.94149 365.215936-404.468938 557.238321zM877.744985 275.491425c0.016373-33.617655-27.267017-60.905138-60.946071-60.905139-135.307685 0-262.632559-111.723547-263.878946-112.868627-11.617595-10.524704-26.26827-15.754822-40.890292-15.754822-14.626115 0-29.239951 5.238304-40.841174 15.673981-1.904373 1.697665-127.933741 112.949468-263.972067 112.949468-33.646308 0-60.937884 27.279297-60.937884 60.905139v184.193069c0 166.797887 98.936313 306.783105 330.903456 468.090954a60.951187 60.951187 0 0 0 34.832319 10.922771c12.181437 0 24.327058-3.637854 34.828227-10.922771C778.800485 766.467599 877.744985 626.482381 877.744985 459.684494V275.491425zM552.327474 654.475945h-81.208557V492.051669H308.691571v-81.208557h162.42837V248.414743h81.208556v162.428369h163.699316v81.208557H552.327474v162.424276z" p-id="21909" fill="#469eff"></path></svg>