<?xml version="1.0" encoding="utf-8"?>
<!-- Generator: Adobe Illustrator 22.0.0, SVG Export Plug-In . SVG Version: 6.00 Build 0)  -->
<svg version="1.1" id="图层_1" xmlns="http://www.w3.org/2000/svg" xmlns:xlink="http://www.w3.org/1999/xlink" x="0px" y="0px"
	 viewBox="0 0 620.9 723" style="enable-background:new 0 0 620.9 723;" xml:space="preserve">
<style type="text/css">
	.st0{clip-path:url(#SVGID_2_);}
</style>
<g>
	<g>
		<defs>
			<rect id="SVGID_1_" x="3.9" y="6" width="615.8" height="715.9"/>
		</defs>
		<clipPath id="SVGID_2_">
			<use xlink:href="#SVGID_1_"  style="overflow:visible;"/>
		</clipPath>
		<path class="st0" d="M251.3,160.5c-4.8,2.3-9.4,4.8-13.9,7.6c-6,3.7-7.8,11.6-4.1,17.6c2.3,3.7,6.4,6,10.8,6
			c2.3,0,4.6-0.6,6.7-1.9c3.7-2.3,7.5-4.4,11.5-6.3c6.4-3,9-10.6,6-17C265.3,160.2,257.7,157.4,251.3,160.5L251.3,160.5z
			 M251.3,160.5" fill="#3296FC"/>
		<path class="st0" d="M604.6,568.1c-12-4.7-63.2-29.2-63.2-102.2V272.5c0-94-76.7-180.8-172.1-206.7v-1.6
			c0-31.6-25.8-57.4-57.4-57.4c-0.1,0-0.2,0-0.3,0c-0.1,0-0.2,0-0.3,0c-31.6,0-57.4,25.7-57.4,57.4v1.6
			C158.4,91.7,81.7,178.5,81.7,272.5v193.4c0,73-51.2,97.4-63.2,102.2c-8.7,4.4-14.7,13.5-14.7,23.9c0,14.9,12,26.9,26.9,26.9h561.7
			c14.9,0,26.9-12.1,26.9-26.9C619.4,581.6,613.4,572.5,604.6,568.1L604.6,568.1z M327.4,568H99.6c18.8-24.3,33.2-57.8,33.2-102.1
			V301.8c0.2,0.1,0.4,0.1,0.6,0.2v-29.5c0-84,86.6-163.5,178.2-163.7c91.6,0.2,178.2,79.6,178.2,163.7V302c0.2-0.1,0.4-0.1,0.6-0.2
			v164.1c0,44.3,14.3,77.7,33.2,102H327.4z M327.4,568" fill="#3296FC"/>
	</g>
	<path d="M217,200.7c-5.7-4.2-13.7-3.1-17.9,2.5c-18.4,24.5-28.1,53.5-28.1,84.2v127.5c0,7,5.7,12.8,12.8,12.8
		c7.1,0,12.7-5.7,12.7-12.8V287.4c0-25.1,8-48.9,22.9-68.8C223.7,212.9,222.6,204.9,217,200.7L217,200.7z M395.3,631.7h-36.5
		c-1.6,0.1-3,0.7-4.2,1.6c-0.2-0.3-0.4-0.5-0.5-0.8c-2.4,0.9-4.5,2.6-5.1,5.2c-2.9,17.7-17.9,31.5-36.3,32.1
		c-18.4-0.6-33.5-14.4-36.3-32.1c-0.6-2.6-2.7-4.3-5.1-5.2c-0.2,0.3-0.3,0.5-0.5,0.8c-1.2-0.9-2.7-1.5-4.3-1.6h-36.5
		c-3.8,0.2-6.6,3.1-7.2,6.8c3.5,46,41.7,82.5,88.6,82.5c0.4,0,0.9,0,1.3,0c0.4,0,0.9,0,1.3,0c46.9,0,85-36.5,88.6-82.5
		C401.9,634.8,399.1,631.9,395.3,631.7L395.3,631.7z M395.3,631.7" fill="#3296FC"/>
</g>
</svg>
