<?xml version="1.0" standalone="no"?><!DOCTYPE svg PUBLIC "-//W3C//DTD SVG 1.1//EN" "http://www.w3.org/Graphics/SVG/1.1/DTD/svg11.dtd"><svg t="1568426796337" class="icon" viewBox="0 0 1154 1024" version="1.1" xmlns="http://www.w3.org/2000/svg" p-id="43382" width="27.046875" height="24" xmlns:xlink="http://www.w3.org/1999/xlink"><defs><style type="text/css"></style></defs><path d="M106.62910156 389.26182725c-1.65498047-8.64755859-3.85664063-16.21318359-6.67792969-23.46943359 3.7538086 21.24755859 1.16367187 20.82216797-1.41767577 20.30976563-13.15371093-2.64111328-19.5758789-10.61367187-17.44365235-21.66767578 1.96523438-10.209375 10.79033203-15.0046875 23.79462891-12.965625 10.04677734 1.57148437 20.35107422 2.21396484 30.11220703 4.85419922 21.55957031 5.82714844 39.34335937 0.40957031 57.5296875-12.3319336 33.01611328-23.14775391 67.27324219-44.57373046 101.64374999-65.69824219 22.1765625-13.62919922 46.209375-23.44394531 72.28388672-27.41572265 55.77363281-8.48144531 111.81445312-11.90830078 168.14794922-8.30566407 52.39511718 3.35126954 103.85068359 10.91425781 151.790625 34.47685548 54.7866211 26.93759765 105.39316406 60.12861328 152.25205079 99.19951171 3.51035156 2.91445312 8.25908203 4.92451172 12.76699219 5.99238282 41.54853516 9.84550781 83.53476562 18.0703125 124.66406249 29.43808594 36.50976562 10.07929687 71.40058594 25.05498047 103.37783204 45.9571289 11.10585937 7.26767578 14.43339844 14.45097657 11.69033203 25.18330078-11.3633789-2.03027344-22.74960938-4.09306641-34.14990235-6.06972656-10.47392578-1.81494141-19.01513671 3.37148437-20.96367187 12.60439453-1.83779297 8.72314453 4.75576172 17.00332031 15.37207031 19.04853516 11.01533203 2.13134766 22.00517578 5.00273438 33.13212891 5.81572265 8.99472656 0.67851563 11.06542969 4.91572266 11.36601562 12.65449219 0.62841797 16.1578125 1.37373046 32.32177734 2.94257813 48.41279297 0.45 4.59755859 2.87666016 9.92197266 6.14970703 13.15458984 11.38007812 11.26054688 13.30048828 47.11113281 2.23505859 58.79882813-2.35019532 2.48378907-5.39560547 5.28134766-8.51044921 5.88339843-14.92910156 2.90654297-29.97861328 5.10732422-45.63017579 7.65351563 17.9709961-102.8241211-56.71582031-174.79775391-129.84521484-182.896875-40.86210938-4.528125-78.53291015 4.84189453-110.78085938 30.44179688-46.60927734 36.99404297-64.81494141 86.27958985-57.71601563 145.33505859h-363.65009765c4.58876954-29.34316406 1.18300781-57.11748047-10.01689453-83.92148438-11.42490235-27.31904297-29.24121093-49.50527344-53.61503906-66.15-23.98007812-16.37753906-50.52832031-25.61923828-79.74580079-26.57285156-39.25986329-1.28496094-74.15507812 10.48007812-103.87792968 36.0711914-40.63095703 34.98134766-56.65605469 80.27402343-53.06835937 134.04726564-9.29003906-1.07929687-17.57021485-2.16123046-25.89697267-2.97597657-21.26074219-2.06103516-34.64208985-8.12197266-32.58632811-36.35419922 0.26191406-3.50068359-0.93691406-7.41445312 0.24257812-10.47392578 2.61386719-6.82822266 4.92363281-14.76123046 9.97294922-19.38076172 5.01152343-4.58085937 7.08398437-8.45947266 6.80361328-14.82714844-0.40429687-9.12832031-0.16962891-18.28212891-0.17929688-27.43066406-0.01318359-17.82949219-0.00351563-35.66425781-0.00351563-54.7875 15.1734375 0 29.14277344 0.1415039 43.10771485-0.0413086 12.009375-0.15029297 20.30976562-7.50673828 19.87382813-17.19843749-0.40957031-9.33134766-8.27490235-15.45117187-20.19814453-15.51005859-13.96494141-0.06240235-27.94042969-0.01230468-42.81855469-0.0123047 0-4.60722656-0.05537109-8.02705078 0.00878906-11.45302733 0.44648437-24.68759765 3.25283203-28.36582031 26.44892578-36.14062501 10.45195312-3.49277344 20.72548828-7.50498047 31.07900391-11.28339844M462.41826172 295.58799914c2.76064453 37.88525391 5.50722656 75.63779297 8.34257812 114.48544921 106.0040039 5.53271485 211.28994141 18.23027344 317.57783203-5.86054688-94.96230468-80.98857422-200.76591797-122.70146484-325.92128905-108.62490233M427.2883789 298.64219835c-60.51708985 10.546875-102.88212891 45.63457031-137.78173827 95.77705078l145.74111328 12.30292969c-2.66660156-36.25136719-5.30771485-72.08701172-7.9584961-108.07998047M487.18232422 480.76563585c6.67089844 0 13.3461914 0.33574219 20.00214844-0.06943359 10.20322266-0.59414063 17.13867187-7.59023438 16.90048828-16.45576173-0.24257812-9.02197266-7.16132813-15.82470703-17.39267579-16.08310546-13.31279297-0.34013671-26.6616211-0.20830078-39.98408202 0.01757812-9.72246094 0.15644531-16.86972656 6.37558594-17.60361328 14.74189453-0.7461914 8.30302734 6.41689453 16.27558594 15.99169922 17.77763673 0.70048828 0.12128907 1.39306641 0.15996094 2.09443359 0.15996094 6.67001953 0.01142578 13.33212891 0.01142578 19.99160156 0.01142578v-0.10195313M487.18232422 480.76563585z" fill="#ffffff" p-id="43383"></path><path d="M241.82597657 737.29639757c-58.54306641 1.70332031-112.81552734-49.22666016-110.76591798-115.4663086 1.78330078-56.83007812 51.40107422-105.12597657 111.62197266-105.10312499 60.46875001 0.01933594 109.28847657 48.74414063 109.34648438 109.14169921 0.07294922 62.82597657-47.98300781 111.42773438-110.20253906 111.42773438M241.82597657 737.29639757zM1014.75898437 626.29317491c-0.08525391 63.4359375-47.93378907 111.03486329-111.53408202 111.00322266-60.89941406-0.03164063-108.65917969-49.29873046-109.00898438-111.6131836-0.3366211-58.67050781 50.2461914-111.12451172 114.8484375-109.18388672 56.94697266 1.70419922 105.78164063 50.88955078 105.6946289 109.79560548M1014.75898437 626.29317491z" fill="#ffffff" p-id="43384"></path></svg>