<?xml version="1.0" standalone="no"?><!DOCTYPE svg PUBLIC "-//W3C//DTD SVG 1.1//EN" "http://www.w3.org/Graphics/SVG/1.1/DTD/svg11.dtd"><svg t="1597031179786" class="icon" viewBox="0 0 1024 1024" version="1.1" xmlns="http://www.w3.org/2000/svg" p-id="3385" xmlns:xlink="http://www.w3.org/1999/xlink" width="50" height="50"><defs><style type="text/css"></style></defs><path d="M405 511.3c0-28 11.5-55.9 31.3-75.7 19.8-19.8 47.7-31.3 75.6-31.3 28 0 55.9 11.5 75.6 31.3 19.8 19.8 31.3 47.6 31.3 75.7 0 28-11.5 55.8-31.3 75.6-19.8 19.8-47.7 31.3-75.6 31.3-28 0-55.8-11.5-75.6-31.3-19.7-19.8-31.3-47.6-31.3-75.6z m107 177.1c-97.8 0-177.2-79.4-177.2-177.2 0-97.9 79.3-177.2 177.2-177.2 97.9 0 177.2 79.3 177.2 177.2 0 97.9-79.3 177.2-177.2 177.2z m413.4-239.6l-71.5-11c-19.1-2.9-38.9-18.2-44.3-34-5.3-15.7-15.4-66.8-4-82.4l42.7-58.3c11.4-15.6 9.6-39.4-4-53L813 178.9c-13.6-13.7-37.5-15.5-53-4l-58.3 42.7c-15.6 11.4-40.3 14.7-54.9 7.3-14.6-7.3-58.5-36.5-61.4-55.5l-11-71.4c-2.9-19.1-21.1-34.7-40.4-34.7h-44.3c-19.2 0-37.4 15.6-40.3 34.6l-11 71.4c-2.9 19.1-18.2 38.9-34 44.3-15.7 5.3-66.8 15.4-82.4 4l-58.3-42.7c-15.6-11.4-39.4-9.6-53.1 4l-31.3 31.2c-13.6 13.7-15.5 37.5-4.1 53l42.8 58.3c11.4 15.6 14.7 40.3 7.3 54.9-7.4 14.6-36.5 58.5-55.5 61.4l-71.4 11c-18.8 3-34.4 21.2-34.4 40.4v44.3c0 19.3 15.6 37.4 34.6 40.3l71.4 11c19.1 2.9 38.9 18.2 44.3 34 5.3 15.7 15.4 66.8 4 82.4l-42.8 58.3c-11.4 15.6-9.6 39.4 4.1 53l31.3 31.3c13.6 13.6 37.5 15.5 53.1 4l58.3-42.8c15.6-11.4 40.3-14.6 54.9-7.3 14.6 7.3 58.5 36.5 61.4 55.5l11 71.4c2.9 19.1 21.1 34.6 40.3 34.6h44.3c19.3 0 37.5-15.6 40.4-34.6l11-71.4c2.9-19.1 18.2-38.9 33.9-44.2 15.7-5.3 66.8-15.4 82.3-4l58.3 42.8c15.6 11.4 39.4 9.6 53-4l31.3-31.3c13.6-13.6 15.5-37.5 4-53l-42.7-58.3c-11.4-15.6-14.7-40.2-7.3-54.9 7.4-14.7 36.5-58.5 55.5-61.5l71.4-11c19.1-2.9 34.6-21.1 34.6-40.3v-44.3c0.1-19.2-15.4-37.4-34.5-40.3z" p-id="3386" fill="#4087f9"></path></svg>