<?xml version="1.0" standalone="no"?><!DOCTYPE svg PUBLIC "-//W3C//DTD SVG 1.1//EN" "http://www.w3.org/Graphics/SVG/1.1/DTD/svg11.dtd"><svg t="1585191124580" class="icon" viewBox="0 0 1024 1024" version="1.1" xmlns="http://www.w3.org/2000/svg" p-id="5744" xmlns:xlink="http://www.w3.org/1999/xlink" width="50" height="50"><defs><style type="text/css"></style></defs><path d="M332.245333 909.013333H180.010667a48 48 0 0 1-48-48v-88.021333A199.978667 199.978667 0 0 1 331.946667 573.013333h29.44l5.973333 7.722667a44.8 44.8 0 0 1-35.413333 72.277333 119.978667 119.978667 0 0 0-119.978667 119.978667v56.021333h120.234667a39.978667 39.978667 0 1 1 0 80z m321.408-40.021333c0-22.101333 17.92-39.978667 39.978667-39.978667h119.381333v-56.021333a119.978667 119.978667 0 0 0-120.021333-119.978667 43.648 43.648 0 0 1-34.730667-70.144l7.552-9.856h27.178667a199.978667 199.978667 0 0 1 200.021333 199.978667v88.021333c0 26.496-21.504 48-48 48h-151.381333a39.978667 39.978667 0 0 1-39.978667-40.021333zM512 557.013333a246.016 246.016 0 1 1 0-492.032 246.016 246.016 0 0 1 0 492.032z m0-80a165.973333 165.973333 0 1 0 0-332.032 165.973333 165.973333 0 0 0 0 332.032z m-52.394667 96h106.112a16 16 0 0 1 12.714667 25.685334l-20.053333 26.368c-9.088 11.946667-23.210667 18.944-38.186667 18.944h-14.72c-14.848 0-28.842667-6.869333-37.973333-18.645334l-20.522667-26.581333a16 16 0 0 1 12.629333-25.770667z m-35.84 323.157334l52.821334-218.922667a16 16 0 0 1 15.573333-12.245333h40.661333c7.424 0 13.866667 5.12 15.573334 12.288l51.925333 218.922666a16 16 0 0 1-7.253333 17.365334l-56.064 34.176c-15.36 9.386667-34.645333 9.386667-50.005334 0l-56.021333-34.133334a16 16 0 0 1-7.253333-17.450666z" p-id="5745" fill="#3296fc"></path></svg>