<?xml version="1.0" encoding="utf-8"?>
<!-- Generator: Adobe Illustrator 22.0.0, SVG Export Plug-In . SVG Version: 6.00 Build 0)  -->
<svg version="1.1" id="图层_1" xmlns="http://www.w3.org/2000/svg" xmlns:xlink="http://www.w3.org/1999/xlink" x="0px" y="0px"
	 viewBox="0 0 1104 848" style="enable-background:new 0 0 1104 848;" xml:space="preserve">
<g>
	<path d="M630,586.1L415.4,448.3c-13.4-8.6-31.1-5.8-41.2,6.4c-10.1,12.3-9.5,30.2,1.5,41.7L548,676.7c2.6,2.8,5.8,5,9.2,6.7
		c3.3,1.6,15.3,6.7,30.1,6.7c15.7,0,30-6,40.1-16.9c13.3-14.2,18.8-34.8,16.9-62.9C643.7,600.4,638.4,591.4,630,586.1L630,586.1z
		 M630,586.1" fill="#3296FC"/>
	<path d="M551.8,22C251.4,22,7,266.4,7,566.8c0,85.9,19.6,168.3,58.1,244.8C72.4,826.1,86.9,835,103,835h897.6
		c16.1,0,30.6-8.9,37.9-23.3c38.6-76.5,58.1-158.9,58.1-244.8C1096.7,266.4,852.3,22,551.8,22L551.8,22z M974.1,749.2l-0.4,0.9H130
		l-0.4-0.9c-25-57.6-37.7-119-37.7-182.4c0-253.6,206.3-460,460-460s460,206.3,460,460C1011.8,630.3,999.1,691.6,974.1,749.2
		L974.1,749.2z M974.1,749.2" fill="#3296FC"/>
	<path d="M254.3,572.1h-67.5c-23.4,0-42.4,19-42.4,42.4c0,23.4,19,42.4,42.4,42.4h67.5c23.4,0,42.4-19,42.4-42.4
		C296.8,591.1,277.7,572.1,254.3,572.1L254.3,572.1z M254.3,572.1" fill="#3296FC"/>
	<path d="M539.3,156.8c-23.4,0-42.4,19-42.4,42.4v67.5c0,23.4,19,42.4,42.4,42.4c23.4,0,42.4-19,42.4-42.4v-67.5
		C581.7,175.8,562.7,156.8,539.3,156.8L539.3,156.8z M539.3,156.8" fill="#3296FC"/>
	<path d="M825.2,295.8c-8-7.7-18.4-12-29.5-12c-11.6,0-22.4,4.6-30.5,12.9l-47,48.4c-7.9,8.1-12.1,18.9-12,30.2
		c0.2,11.3,4.7,21.9,12.9,29.8c8,7.7,18.5,12,29.5,12c11.6,0,22.4-4.6,30.5-12.9l47-48.4c7.9-8.1,12.1-18.9,12-30.2
		C837.9,314.2,833.3,303.7,825.2,295.8L825.2,295.8z M825.2,295.8" fill="#3296FC"/>
	<path d="M349.8,352.8l-56.1-37.6c-7-4.7-15.2-7.2-23.6-7.2c-14.2,0-27.4,7-35.3,18.8c-13,19.4-7.8,45.8,11.6,58.9l56.1,37.6
		c7,4.7,15.2,7.2,23.6,7.2c14.2,0,27.4-7,35.3-18.8C374.5,392.3,369.3,365.9,349.8,352.8L349.8,352.8z M349.8,352.8" fill="#3296FC"/>
	<path d="M807.6,633.3c0,23.4,19,42.4,42.4,42.4h67.5c23.4,0,42.4-19,42.4-42.4c0-23.4-19-42.4-42.4-42.4h-67.5
		C826.6,590.9,807.6,609.9,807.6,633.3L807.6,633.3z M807.6,633.3" fill="#3296FC"/>
</g>
</svg>
