<?xml version="1.0" encoding="utf-8"?>
<!-- Generator: Adobe Illustrator 22.0.0, SVG Export Plug-In . SVG Version: 6.00 Build 0)  -->
<svg version="1.1" id="图层_1" xmlns="http://www.w3.org/2000/svg" xmlns:xlink="http://www.w3.org/1999/xlink" x="0px" y="0px"
	 viewBox="0 0 720 550" style="enable-background:new 0 0 720 550;" xml:space="preserve">
<style type="text/css">
	.st0{fill:url(#SVGID_1_);}
</style>
<linearGradient id="SVGID_1_" gradientUnits="userSpaceOnUse" x1="128.368" y1="514.1713" x2="593.4799" y2="49.0594">
	<stop  offset="0" style="stop-color:#C8D4E1"/>
	<stop  offset="1" style="stop-color:#72889D"/>
</linearGradient>
<path class="st0" d="M648,133.3c-39.6,0-71.7,32.1-71.7,71.7c0,9,1.7,17.4,4.6,25.4l-115.3,46.2L389,140.8
	c25.8-10.8,44.1-36.3,44.1-66.2C433.1,35.1,401,3,361.4,3c-39.6,0-71.7,32.1-71.7,71.7c0,30.1,18.6,55.8,44.9,66.5l-78,135.4
	l-113.2-51.1c1.9-6.5,3-13.4,3-20.6c0-39.6-32.1-71.7-71.7-71.7C35.1,133.2,3,165.3,3,204.9c0,39.6,32.1,71.7,71.7,71.7h0.5
	L128,500.1c7,29.4,33.2,50.2,63.4,50.2h338.1c31.3,0,58.1-22.2,64-52.8L636,276.7l-0.9-1.1c4.2,0.7,8.5,1.1,12.9,1.1
	c39.6,0,71.7-32.1,71.7-71.7S687.6,133.3,648,133.3z M423.6,496.4H291.5v-34.1l46.6-57.7c4.6-5.8,8.8-11.1,12.7-15.9
	c3.5-4.5,6.6-8.9,9-13.1c2.3-3.9,4.1-8,5.3-12.2c1.2-4,1.8-8.6,1.8-13.6c0-7.1-1.5-12.4-4.6-15.8c-1-1.1-4.1-4.6-13.1-4.6
	c-3.1,0-6.5,0.5-10,1.5c-3.9,1.1-7.8,2.5-11.5,4.3c-3.9,1.8-7.6,3.9-11.1,6.3c-3.4,2.2-6.3,4.6-8.6,6.9l-17.1,17.1v-54.9l3.2-3
	c3.3-3.1,7.1-6,11.5-8.6c4.3-2.6,8.9-4.9,13.9-6.9c4.9-1.9,10.1-3.5,15.6-4.7c5.6-1.2,11.5-1.8,17.4-1.8c9.5,0,18.3,1.4,26.2,4.1
	c8.1,2.8,15.1,7,20.8,12.4c5.7,5.4,10.2,12,13.3,19.6c3.1,7.4,4.6,15.8,4.6,24.8c0,9-1.1,17.4-3.4,24.8c-2.2,7.3-5.3,14.4-9.3,21
	c-3.8,6.4-8.3,12.8-13.4,19c-4.7,5.8-10,12.2-15.8,19.2l-18.4,22.3h66.6V496.4z"/>
</svg>
