<?xml version="1.0" encoding="utf-8"?>
<!-- Generator: Adobe Illustrator 22.0.0, SVG Export Plug-In . SVG Version: 6.00 Build 0)  -->
<svg version="1.1" id="图层_1" xmlns="http://www.w3.org/2000/svg" xmlns:xlink="http://www.w3.org/1999/xlink" x="0px" y="0px"
	 viewBox="0 0 50 50" style="enable-background:new 0 0 50 50;" xml:space="preserve">
<style type="text/css">
	.st0{fill:#ff6c40;}
	.st1{display:none;fill:#FFFFFF;}
	.st2{display:none;fill:#FFFFFF;stroke:#FFFFFF;stroke-miterlimit:10;}
	.st3{font-family:'PingFang-SC-Heavy';}
	.st4{font-size:16.0389px;}
	.st5{fill:#FFFFFF;stroke:#FFFFFF;stroke-miterlimit:10;}
	.st6{font-size:15.8754px;}
</style>
<path class="st0" d="M24.8,15.7c-6.1,0-11,4.9-11,11v13.5H36V26.7c0-6.1-4.9-11-11-11H24.8z M12.1,22.3c0.2-1-0.4-1.9-1.4-2.1
	l-5.2-1c-1-0.2-1.9,0.4-2.1,1.4c0,0.2,0,0.4,0,0.6c0.1,0.7,0.7,1.3,1.4,1.5l5.2,1C10.9,23.9,11.9,23.3,12.1,22.3z M10.9,10.3
	l3.3,4.1c0.6,0.8,1.7,0.9,2.5,0.3c0.8-0.6,0.9-1.7,0.3-2.5l-3.3-4.1c-0.6-0.8-1.7-0.9-2.5-0.3c-0.5,0.4-0.7,1.1-0.7,1.7
	C10.5,9.8,10.7,10.1,10.9,10.3L10.9,10.3z M25.1,11.9c1,0,1.8-0.8,1.8-1.7l0-5.3c0-1-0.8-1.8-1.7-1.8c-1,0-1.8,0.8-1.8,1.7l0,5.3
	c0,0.1,0,0.2,0,0.3C23.5,11.2,24.2,11.8,25.1,11.9z M33.4,15.1c0.7,0.7,1.9,0.6,2.5-0.2l3.5-4c0.7-0.7,0.6-1.9-0.2-2.5
	c-0.7-0.7-1.9-0.6-2.5,0.2l-3.5,4c-0.4,0.4-0.5,0.9-0.4,1.5C32.9,14.4,33.1,14.8,33.4,15.1L33.4,15.1z M46.5,21.6
	c-0.1-1-1.1-1.7-2-1.5l-5.2,0.8c-1,0.1-1.7,1.1-1.5,2c0.1,1,1.1,1.7,2,1.5l5.2-0.8C45.9,23.5,46.6,22.6,46.5,21.6L46.5,21.6z
	 M39.9,44.3c0,1.4-1.1,2.6-2.6,2.6H11.9c-1.4,0-2.6-1.1-2.6-2.6c0-1.4,1.1-2.6,2.6-2.6h25.4C38.7,41.8,39.9,42.9,39.9,44.3
	L39.9,44.3z"/>
<path class="st1" d="M26.5,23.3V35h-2v-9.6c-0.8,0.7-1.8,1.2-3,1.5v-1.8c0.6-0.1,1.2-0.4,1.9-0.7c0.7-0.4,1.2-0.8,1.6-1.2L26.5,23.3
	z"/>
<text transform="matrix(1 0 0 1 21.168 34.4961)" class="st2 st3 st4">2</text>
<text transform="matrix(1 0 0 1 21.168 34.4961)" class="st5 st3 st6">3</text>
</svg>
