<?xml version="1.0" standalone="no"?><!DOCTYPE svg PUBLIC "-//W3C//DTD SVG 1.1//EN" "http://www.w3.org/Graphics/SVG/1.1/DTD/svg11.dtd"><svg t="1584603394201" class="icon" viewBox="0 0 1024 1024" version="1.1" xmlns="http://www.w3.org/2000/svg" p-id="6739" xmlns:xlink="http://www.w3.org/1999/xlink" width="64" height="64"><defs><style type="text/css"></style></defs><path d="M477.696 135.168c0 9.216 3.584 17.92 10.24 24.576 6.144 6.144 15.36 10.24 24.576 10.24s17.92-3.584 24.576-10.24c6.144-6.144 10.24-15.36 10.24-24.576s-3.584-17.92-10.24-24.576c-6.144-6.144-15.36-10.24-24.576-10.24s-17.92 3.584-24.576 10.24c-6.656 7.168-10.24 15.36-10.24 24.576z" fill="#3296fc" p-id="6740"></path><path d="M512 836.096c-230.4 0-418.304-187.904-418.304-418.304S281.6 0 512 0s418.304 187.904 418.304 418.304-187.904 417.792-418.304 417.792z m0-764.928c-190.976 0-347.136 155.648-347.136 347.136s155.648 347.136 347.136 347.136 347.136-155.648 347.136-347.136-156.16-347.136-347.136-347.136z" fill="#3296fc" p-id="6741"></path><path d="M512 634.368c-119.296 0-216.576-97.28-216.576-216.576s97.28-216.576 216.576-216.576 216.576 97.28 216.576 216.576-97.28 216.576-216.576 216.576z m0-360.96c-79.872 0-144.896 65.024-144.896 144.896S432.128 563.2 512 563.2s144.896-65.024 144.896-144.896-65.024-144.896-144.896-144.896zM827.392 1024H196.608c-19.968 0-35.328-15.872-35.328-35.328 0-19.456 15.872-35.328 35.328-35.328h630.784c19.968 0 35.328 15.872 35.328 35.328 0 19.456-15.872 35.328-35.328 35.328z" fill="#3296fc" p-id="6742"></path><path d="M315.392 1011.2c-6.656 0-13.824-2.048-19.968-6.144-15.872-11.264-20.48-33.28-9.216-49.664L399.36 791.04c11.264-15.872 33.28-20.48 49.664-9.216 15.872 11.264 20.48 33.28 9.216 49.664l-113.152 164.352c-7.168 10.24-18.432 15.36-29.696 15.36z m393.216 0c-11.264 0-22.016-5.12-29.696-15.36l-112.64-164.352c-11.264-15.872-6.656-38.4 9.216-49.664 15.872-11.264 38.4-6.656 49.664 9.216l113.152 164.352c11.264 15.872 6.656 38.4-9.216 49.664-6.656 4.608-13.312 6.144-20.48 6.144z" fill="#3296fc" p-id="6743"></path></svg>