<?xml version="1.0" encoding="utf-8"?>
<!-- Generator: Adobe Illustrator 22.0.0, SVG Export Plug-In . SVG Version: 6.00 Build 0)  -->
<svg version="1.1" id="图层_1" xmlns="http://www.w3.org/2000/svg" xmlns:xlink="http://www.w3.org/1999/xlink" x="0px" y="0px"
	 viewBox="0 0 835.2 844" style="enable-background:new 0 0 835.2 844;" xml:space="preserve">
<style type="text/css">
	.st0{clip-path:url(#SVGID_2_);fill:#3296fc;}
</style>
<g>
	<g>
		<defs>
			<rect id="SVGID_1_" x="12.1" y="6" width="819.8" height="820.7"/>
		</defs>
		<clipPath id="SVGID_2_">
			<use xlink:href="#SVGID_1_"  style="overflow:visible;"/>
		</clipPath>
		<path class="st0" d="M421.6,825.7C197.2,825.7,12,640.5,12,416.1C12,191.7,197.2,6.5,421.6,6.5c224.4,0,409.6,185.2,409.6,409.6
			C831.2,640.5,646,825.7,421.6,825.7L421.6,825.7z M421.6,77.8c-185.2,0-338.4,153.2-338.4,338.4c0,185.2,153.2,338.4,338.4,338.4
			c185.2,0,338.4-153.2,338.4-338.4C760,230.9,606.8,77.8,421.6,77.8L421.6,77.8z M425.1,476.7c-21.4,0-35.6-14.2-35.6-35.6V206
			c0-21.4,14.2-35.6,35.6-35.6c21.4,0,35.6,14.2,35.6,35.6v231.5C460.8,458.9,443,476.7,425.1,476.7L425.1,476.7z M375.3,580
			c0,27.5,22.3,49.9,49.9,49.9c27.5,0,49.9-22.3,49.9-49.9c0-27.5-22.3-49.9-49.9-49.9C397.6,530.1,375.3,552.4,375.3,580L375.3,580
			z M375.3,580"/>
	</g>
</g>
</svg>
