<?xml version="1.0" encoding="utf-8"?>
<!-- Generator: Adobe Illustrator 22.0.0, SVG Export Plug-In . SVG Version: 6.00 Build 0)  -->
<svg version="1.1" id="图层_1" xmlns="http://www.w3.org/2000/svg" xmlns:xlink="http://www.w3.org/1999/xlink" x="0px" y="0px"
	 viewBox="0 0 698.9 728.7" style="enable-background:new 0 0 698.9 728.7;" xml:space="preserve">
<style type="text/css">
	.st0{fill:#3296FC;}
</style>
<g>
	<g>
		<path class="st0" d="M143.8,425.1h150v150c0,11.3,9.3,18.8,18.8,18.8c9.3,0,18.8-7.5,18.8-18.8v-150h150c9.3,0,18.8-7.5,18.8-18.8
			c0-11.3-9.3-18.8-18.8-18.8h-150v-150c0-11.3-9.3-18.8-18.8-18.8c-9.3,0-18.8,7.5-18.8,18.8v150h-150c-9.3,0-18.8,7.5-18.8,18.8
			C125,417.6,134.5,425.1,143.8,425.1L143.8,425.1z"/>
		<path class="st0" d="M312.6,594.8c-9.5,0-19.7-7.5-19.7-19.7V426H143.8c-9.5,0-19.7-7.5-19.7-19.7c0-12.2,10.2-19.7,19.7-19.7
			h149.1V237.6c0-12.2,10.2-19.7,19.7-19.7s19.7,7.5,19.7,19.7v149.1h149.1c9.5,0,19.7,7.5,19.7,19.7c0,12.2-10.2,19.7-19.7,19.7
			H332.2v149.1C332.2,587.2,322,594.8,312.6,594.8z M143.8,388.5c-8.6,0-17.9,6.8-17.9,17.9c0,11,9.3,17.9,17.9,17.9h150.9v150.9
			c0,11,9.3,17.9,17.9,17.9s17.9-6.8,17.9-17.9V424.2h150.9c8.6,0,17.9-6.8,17.9-17.9c0-11-9.3-17.9-17.9-17.9H330.4V237.6
			c0-11-9.3-17.9-17.9-17.9s-17.9,6.8-17.9,17.9v150.9H143.8z"/>
	</g>
	<g>
		<path class="st0" d="M650.2,50H162.6c-9.3,0-18.8,7.5-18.8,18.8s9.3,18.8,18.8,18.8h468.8v468.8c0,11.3,9.3,18.8,18.8,18.8
			c9.3,0,18.8-7.5,18.8-18.8V68.8C668.9,57.5,659.5,50,650.2,50L650.2,50z"/>
		<path class="st0" d="M650.2,576.1c-9.5,0-19.7-7.5-19.7-19.7V88.5H162.6c-9.5,0-19.7-7.5-19.7-19.7s10.2-19.7,19.7-19.7h487.6
			c9.5,0,19.7,7.5,19.7,19.7v487.6C669.9,568.6,659.6,576.1,650.2,576.1z M162.6,50.9c-8.6,0-17.9,6.8-17.9,17.9s9.3,17.9,17.9,17.9
			h469.7v469.7c0,11,9.3,17.9,17.9,17.9c8.6,0,17.9-6.8,17.9-17.9V68.8c0-11-9.3-17.9-17.9-17.9H162.6z"/>
	</g>
	<g>
		<path class="st0" d="M575.2,125H50c-9.3,0-18.8,7.5-18.8,18.8v525c0,11.3,9.3,18.8,18.8,18.8h525c9.3,0,18.8-7.5,18.8-18.8v-525
			C593.9,132.5,584.5,125,575.2,125L575.2,125z M556.4,162.6v487.6H68.8V162.6H556.4z"/>
		<path class="st0" d="M575.1,688.5H50c-9.5,0-19.7-7.5-19.7-19.7v-525c0-12.2,10.2-19.7,19.7-19.7h525.1c9.4,0,19.6,7.5,19.6,19.7
			v525C594.8,681,584.5,688.5,575.1,688.5z M50,125.9c-8.6,0-17.9,6.8-17.9,17.9v525c0,11,9.3,17.9,17.9,17.9h525
			c8.6,0,17.9-6.8,17.9-17.9v-525c0-11-9.2-17.9-17.8-17.9H50z M557.3,651.1H67.9V161.6h489.4V651.1z M69.7,649.2h485.8V163.5H69.7
			V649.2z"/>
	</g>
</g>
</svg>
