<?xml version="1.0" encoding="utf-8"?>
<!-- Generator: Adobe Illustrator 22.0.0, SVG Export Plug-In . SVG Version: 6.00 Build 0)  -->
<svg version="1.1" id="图层_1" xmlns="http://www.w3.org/2000/svg" xmlns:xlink="http://www.w3.org/1999/xlink" x="0px" y="0px"
	 viewBox="0 0 12.2 12.2" style="enable-background:new 0 0 12.2 12.2;" xml:space="preserve">
<style type="text/css">
	.st0{fill:#555555;}
	.st1{fill:#FFFFFF;}
</style>
<path class="st0" d="M11.1,5.3H10c-0.1,0-0.1,0-0.1,0L9.4,3.9C9.3,3,8.7,2.6,8,2.6H3.4C2.6,2.6,2.1,3.2,2,3.9L1.5,5.3H1.4H0.3
	C0.1,5.3,0,5.4,0,5.6v0.3c0,0.2,0.1,0.3,0.3,0.3l0.4,0.1C0.6,6.5,0.5,6.8,0.5,7.1L0.3,8.8c0,0,0,0.1,0,0.2v0.1v2.1
	c0,0.3,0.2,0.5,0.5,0.5h0.8c0.3,0,0.5-0.2,0.5-0.5v-0.7h7v0.7c0,0.3,0.2,0.5,0.5,0.5h0.8c0.3,0,0.5-0.2,0.5-0.5V9.1V9
	c0-0.1,0-0.1,0-0.2l-0.2-1.7c0-0.3-0.1-0.6-0.2-0.9l0.4-0.1c0.2,0,0.3-0.1,0.3-0.3V5.6C11.4,5.4,11.3,5.3,11.1,5.3z M2.3,5l0.4-0.9
	l0,0c0-0.2,0.1-0.2,0.2-0.4h5.6c0.1,0.2,0.2,0.2,0.2,0.4l0.4,1l0.1,0.5c0,0.4-0.5,0.7-0.9,0.7H3.1C2.7,6.3,2.3,6,2.2,5.6
	C2.2,5.5,2.3,5,2.3,5z M2.6,9.5c-0.4,0-0.8-0.4-0.8-0.8c0-0.4,0.4-0.8,0.8-0.8s0.8,0.4,0.8,0.8C3.4,9.1,3,9.5,2.6,9.5z M7.1,8.9
	L7.1,8.9C7.1,9,7,9.1,6.9,9.1H4.6C4.5,9.1,4.4,9,4.4,8.9V8.2C4.4,8.1,4.5,8,4.6,8h2.3C7,8,7.1,8.1,7.1,8.2C7.1,8.2,7.1,8.9,7.1,8.9z
	 M8.8,9.5C8.4,9.5,8,9.1,8,8.7s0.4-0.8,0.8-0.8c0.4,0,0.8,0.4,0.8,0.8S9.3,9.5,8.8,9.5z"/>
<g>
	<path class="st1" d="M8.5,1c-2,0-3.5,1.7-3.5,3.5s1.5,3.7,3.5,3.7S12,6.5,12,4.7S10.3,1,8.5,1L8.5,1L8.5,1z"/>
	<path class="st0" d="M8.5,8.4c-2.2,0-3.7-2.1-3.7-3.9c0-2,1.7-3.7,3.7-3.7c1.9,0,3.7,1.9,3.7,3.9C12.2,6.7,10.5,8.4,8.5,8.4z
		 M8.5,1.2c-1.8,0-3.3,1.5-3.3,3.3C5.1,6.2,6.5,8,8.5,8c1.8,0,3.3-1.5,3.3-3.3C11.8,2.9,10.2,1.2,8.5,1.2z"/>
</g>
<path class="st0" d="M8.4,6C8.1,6,7.8,6.3,7.8,6.6c0,0.3,0.3,0.6,0.6,0.6C8.7,7.2,9,6.9,9,6.6C9,6.3,8.7,6,8.4,6z M9.7,2.5
	C9.4,2.2,8.9,2.1,8.4,2.1c-0.5,0-0.9,0.1-1.2,0.4c-0.3,0.3-0.5,0.6-0.5,1c0,0.3,0.8,0.3,0.8,0.1c0-0.2,0.2-0.5,0.3-0.6
	C8,2.8,8.2,2.7,8.5,2.7c0.2,0,0.4,0.1,0.6,0.2c0.1,0.1,0.2,0.3,0.2,0.5c0,0.1,0,0.2-0.1,0.3C9.1,3.8,8.9,3.9,8.7,4.1
	C8.4,4.4,8.2,4.6,8.1,4.7C8,4.9,8,5.1,8,5.4c0,0,0,0.1,0,0.2h0.8c0-0.2,0-0.4,0.1-0.5C8.9,5,9,4.9,9.2,4.7C9.6,4.4,9.8,4.1,10,4
	c0.1-0.2,0.2-0.4,0.2-0.6C10.1,3,10,2.7,9.7,2.5L9.7,2.5z"/>
</svg>
