<?xml version="1.0" encoding="utf-8"?>
<!-- Generator: Adobe Illustrator 22.0.0, SVG Export Plug-In . SVG Version: 6.00 Build 0)  -->
<svg version="1.1" id="图层_1" xmlns="http://www.w3.org/2000/svg" xmlns:xlink="http://www.w3.org/1999/xlink" x="0px" y="0px"
	 viewBox="0 0 11.4 11.4" style="enable-background:new 0 0 11.4 11.4;" xml:space="preserve">
<style type="text/css">
	.st0{fill:#d61415;}
</style>
<path class="st0" d="M11.1,3.9h-1.1c-0.1,0-0.1,0-0.1,0L9.4,2.5C9.3,1.6,8.7,1.2,8,1.2H3.4C2.6,1.2,2.1,1.8,2,2.5L1.5,3.9
	c0,0-0.1,0-0.1,0H0.3C0.1,3.9,0,4,0,4.2v0.3c0,0.2,0.1,0.3,0.3,0.3l0.4,0.1C0.6,5.1,0.5,5.4,0.5,5.7L0.3,7.4c0,0,0,0.1,0,0.2
	c0,0,0,0.1,0,0.1v2.1c0,0.3,0.2,0.5,0.5,0.5h0.8c0.3,0,0.5-0.2,0.5-0.5V9.1h7v0.7c0,0.3,0.2,0.5,0.5,0.5h0.8c0.3,0,0.5-0.2,0.5-0.5
	V7.7c0,0,0-0.1,0-0.1c0-0.1,0-0.1,0-0.2l-0.2-1.7c0-0.3-0.1-0.6-0.2-0.9l0.4-0.1c0.2,0,0.3-0.1,0.3-0.3V4.2
	C11.4,4,11.3,3.9,11.1,3.9z M2.3,3.6l0.4-0.9l0,0c0-0.2,0.1-0.2,0.2-0.4h5.6c0.1,0.2,0.2,0.2,0.2,0.4l0.4,1l0.1,0.5
	c0,0.4-0.5,0.7-0.9,0.7H3.1c-0.4,0-0.8-0.3-0.9-0.7C2.2,4.1,2.3,3.6,2.3,3.6z M2.6,8.1c-0.4,0-0.8-0.4-0.8-0.8
	c0-0.4,0.4-0.8,0.8-0.8c0.4,0,0.8,0.4,0.8,0.8C3.4,7.7,3,8.1,2.6,8.1z M7.1,7.5L7.1,7.5c0,0.1-0.1,0.2-0.2,0.2H4.6
	c-0.1,0-0.2-0.1-0.2-0.2V6.8c0-0.1,0.1-0.2,0.2-0.2h2.3c0.1,0,0.2,0.1,0.2,0.2V7.5z M8.8,8.1C8.4,8.1,8,7.7,8,7.3
	c0-0.4,0.4-0.8,0.8-0.8c0.4,0,0.8,0.4,0.8,0.8C9.6,7.7,9.3,8.1,8.8,8.1z"/>
</svg>
