<?xml version="1.0" standalone="no"?><!DOCTYPE svg PUBLIC "-//W3C//DTD SVG 1.1//EN" "http://www.w3.org/Graphics/SVG/1.1/DTD/svg11.dtd"><svg t="1621413755170" class="icon" viewBox="0 0 1024 1024" version="1.1" xmlns="http://www.w3.org/2000/svg" p-id="17279" xmlns:xlink="http://www.w3.org/1999/xlink" width="200" height="200"><defs><style type="text/css"></style></defs><path d="M535.3 85.3c234.5 0 424.6 190.1 424.6 424.6 0 234.5-190.1 424.6-424.6 424.6-234.5 0-424.6-190.1-424.6-424.6 0-234.5 190.1-424.6 424.6-424.6z" fill="#4CC3FF" p-id="17280"></path><path d="M878.8 677c23-49.5 36.3-104.5 36.3-162.8 0-111.3-47.2-211.3-122.3-281.3 10.7-10.8 19.1-23.8 24.8-38.2 87.1 78.6 142.3 192.4 142.3 319.6 0 65.8-15.2 128-41.5 183.8-11.5-9.7-24.9-16.8-39.6-21.1z m-344-546.5c-203.4 0-369 161.1-379.4 363.6-7.5-1.6-15.4-2.5-23.4-2.5-7.3 0-14.5 0.8-21.4 2.2C121.3 266.5 306.8 85.3 534.8 85.3c28.8 0 56.9 3 84.1 8.5-7.9 13-13.2 27.5-15.4 43.2-22.3-4.1-45.2-6.5-68.7-6.5z m0 767.4c78.6 0 151.5-24.1 212.2-65.2 6.4 13.9 15.6 26.1 26.7 36.2-68.1 46.7-150.3 74.1-238.9 74.1-163.3 0-304.9-93-376.1-229.3 14.9-3.7 28.5-10.4 40.4-19.4C263 815.4 389.3 897.9 534.8 897.9z" fill="#1480CC" p-id="17281"></path><path d="M713.8 220.8c-37.1 0-67.1-30.3-67.1-67.7 0-37.4 30-67.7 67.1-67.7 37.1 0 67.2 30.3 67.2 67.7-0.1 37.3-30.1 67.7-67.2 67.7zM132.1 672.1c-37.1 0-67.2-30.3-67.2-67.7 0-37.4 30-67.7 67.2-67.7 37.1 0 67.1 30.3 67.1 67.7 0 37.5-30.1 67.7-67.1 67.7zM848 852.7c-37.1 0-67.1-30.3-67.1-67.7 0-37.4 30-67.7 67.1-67.7 37.1 0 67.1 30.3 67.1 67.7 0 37.4-30 67.7-67.1 67.7z" fill="#1480CC" p-id="17282"></path><path d="M754.1 720.1l-26.4 26.4c-14.6 14.5-38.2 14.5-52.7 0L549.4 620.9c-62.4 29.7-139.3 19-190.9-32.7-46.6-46.5-59.9-113.6-40.3-172.1l61.2 61.2c14.6 14.6 38.1 14.6 52.7 0l52.7-52.7c14.6-14.6 14.6-38.2 0-52.7l-61.1-61.2c58.4-19.6 125.5-6.3 172.1 40.3 51.7 51.7 62.4 128.6 32.7 190.9L754 667.4c14.6 14.5 14.6 38.2 0.1 52.7z" fill="#0269B2" p-id="17283"></path><path d="M754.1 701.5l-26.4 26.4c-14.6 14.5-38.2 14.5-52.7 0L549.4 602.3c-62.4 29.7-139.3 19-190.9-32.7-46.5-46.5-59.8-113.6-40.2-172.1l61.2 61.2c14.6 14.6 38.1 14.6 52.7 0l52.7-52.7c14.6-14.6 14.6-38.2 0-52.7l-61.1-61.2c58.4-19.6 125.5-6.3 172.1 40.3 51.7 51.7 62.4 128.6 32.7 190.9l125.5 125.5c14.5 14.5 14.5 38.1 0 52.7z" fill="#FFEA5E" p-id="17284"></path></svg>